<svg width="345" height="148" viewBox="0 0 345 148" fill="none" xmlns="http://www.w3.org/2000/svg">
<path d="M190.316 152.854L190.26 152.854L139.053 101.673L138.944 101.673L37.2188 -1.34451e-05L-18.8886 -1.58976e-05L-18.8887 452.842L32 503.704L32 504.022L186.49 658.434L186.918 658.434L237.436 708.926L237.493 708.926L288.699 760.106L344.807 760.106L344.807 307.265L190.316 152.854ZM32 51.1807L32 499.463L-15.8887 451.599L-15.8886 2.99998L35.9776 2.99999L84.1826 51.1807L32 51.1807ZM82.9453 101.673L82.9453 550.382L35 502.461L35 54.1807L86.8662 54.1807L134.383 101.673L82.9453 101.673ZM134.209 152.854L134.209 601.51L85.9453 553.271L85.9453 104.673L137.385 104.673L185.59 152.854L134.209 152.854ZM137.209 604.253L137.209 155.854L188.591 155.854L188.709 155.972L188.709 604.253L137.209 604.253ZM188.217 655.434L140.012 607.253L191.709 607.253L191.709 158.971L239.598 206.835L239.598 655.434L188.217 655.434ZM238.735 705.926L191.219 658.434L242.598 658.434L242.598 209.406L290.543 257.327L290.543 705.926L238.735 705.926ZM289.941 757.106L241.736 708.926L293.543 708.926L293.543 260.269L341.807 308.508L341.807 757.106L289.941 757.106Z" fill="white" fill-opacity="0.07"/>
</svg>
