<svg xmlns="http://www.w3.org/2000/svg" width="81" height="27" fill="none"><path fill="#fff" fill-opacity=".69" d="M0 0c3.64.06 7.316-.017 10.956.014 2.049.018 5.127-.107 7.074.29a6.8 6.8 0 0 1 4.34 2.972c.906 1.384 1.072 3.405.791 5.015-.234 1.35-1.248 2.524-2.382 3.263 2.936 1.593 4.191 3.236 4.326 6.664.193 3.321-2.072 6.804-5.325 7.741-2.731.787-6.258.459-9.1.537l.007-4.465c1.692.027 3.391-.006 5.084.009.412.004.79-.004 1.198-.068 3.114-.489 3.935-3.706 2.289-6.148a3 3 0 0 0-.176-.202c-1.277-1.311-3.693-1.09-5.396-1.089l-5.253-.002c.043 1.003.016 2.189.016 3.199v5.705c0 .852-.048 2.243.007 3.054-1.577-.012-3.58-.058-5.13.008l.001-11.007c0-1.955.043-4.057-.007-5.995 3.583.012 7.173.01 10.754.007 1.216-.032 2.677-.143 3.583-1.053.826-.785.774-2.347-.069-3.102-1.109-.993-3.399-.895-4.819-.903a358 358 0 0 0-3.596.002c-2.98.003-6.197-.06-9.166.018zM46.815 10.792l.062.001c.09.167.037 2.944.03 3.41-.742.968-2.008 2.358-2.826 3.306l-4.928 5.71c.733-.058 1.899-.024 2.666-.024q2.69.012 5.38-.012c-.01.946-.061 2.435.008 3.354-.46-.04-1.045-.02-1.52-.02l-2.477.004h-8.174c-.376-.005-.747.008-1.123.02q-.009-1.568.02-3.133c.194-.308.676-.843.923-1.133l1.653-1.945c1.725-2.032 3.533-4.232 5.298-6.206-.593.049-1.53.003-2.159.011-1.707.024-3.467-.042-5.17.018a149 149 0 0 0-.001-3.344c4.058-.057 8.301.097 12.338-.017M49.758 10.812c1.175-.029 2.47-.004 3.656-.003l8.77-.011c-.01 1.015.04 2.436-.024 3.415-.193.284-.64.78-.878 1.056l-1.658 1.92-5.209 6.032c.745-.061 1.95-.026 2.731-.026q2.658.012 5.315-.011c-.015.925.002 2.312-.012 3.278l-.055.071c-.713-.041-1.607-.014-2.338-.013h-8.322c-.806-.001-1.76-.025-2.549.022-.005-1.017-.022-2.137.021-3.147.242-.36.686-.85.978-1.194l1.626-1.907 5.242-6.154c-2.359.07-4.897-.052-7.297.009zM31.277 10.793l.029.003c.015.02.035.035.047.057.103.185-.095 13.932.037 15.67a226 226 0 0 0-4.053.009l-.098-.01c-.1-.135-.052-3.502-.052-3.877v-7.472c0-1.44.018-2.927-.013-4.363 1.363-.023 2.732.016 4.103-.017M63.85 17.26c.407-.066 1.096-.044 1.53-.044l2.469.002 3.196-.006c.668-.001 1.436-.026 2.09.04-1.028 1.104-2.146 2.136-3.192 3.224-.066.069-.147.145-.206.217-.255.048-2.082.03-2.443.03l-2.12.006c-.4 0-.936.02-1.325-.03-.024-1.031-.04-2.415.002-3.438"/><path fill="#fff" fill-opacity=".69" d="M73.135 17.253c.145.337-.02 8.274.08 9.299-1.018-.004-2.523-.055-3.495.003-.002-1.804-.052-4.085.016-5.862.06-.072.14-.148.207-.217 1.045-1.088 2.163-2.12 3.192-3.223M73.01 10.383h.104c.087.12.058 1.129.057 1.354q-.005 2.25.006 4.501l-3.391.012-.04-.038c-.052-.194-.022-1.435-.024-1.706-.01-1.365.023-2.751-.018-4.117 1.072.023 2.232.011 3.306-.006M74.888 17.263q2.594.012 5.187-.017c-.011 1.038.04 2.456-.014 3.443l-.588-.003c-1.721.055-3.549-.047-5.28.015.018-1.125.003-2.287.01-3.417zM29.254 5.153c.653.652 1.3 1.327 1.97 1.96-.233.235-1.834 1.942-1.994 1.952l-.017-.013c-.361-.328-1.658-1.597-1.9-1.924.058-.175 1.699-1.771 1.941-1.975"/><path fill="#fff" fill-opacity=".69" d="M27.313 7.128c.212-.035 1.635-.009 1.934-.006.006.482.042 1.503-.034 1.93-.361-.328-1.658-1.597-1.9-1.924"/><path fill="#fff" fill-opacity=".69" d="M29.247 7.122c.651-.001 1.329.007 1.977-.01-.233.237-1.834 1.943-1.995 1.953l-.016-.013c.075-.427.04-1.448.034-1.93"/></svg>