<svg xmlns="http://www.w3.org/2000/svg" width="67" height="58" fill="none"><path fill="#fff" fill-opacity=".69" d="M18.533 32.605c.9.19 3.882.05 4.333.406.563.443.919 2.193.998 2.895 4.08-.141 8.385.053 12.478-.029 1.308-.026 4.108.094 5.27-.092-.371.741-.876 2.205-1.237 3.068-.137.375-.325.95-.585 1.233-.448.188-17.085.12-19.02.1-.286-.635-2.265-7.23-2.238-7.58M44.003 5.723c.185.012.436.048.59.153 2.815 1.905 5.817 3.769 8.602 5.697l3.126 2.139c.539.366 1.081.783 1.646 1.1-.157.381-.43 1.402-.57 1.852l-1.234 3.98c-.09.29-.39 1.388-.526 1.581-.386.032-.667-.333-.935-.588-.278-.248-.578-.585-.86-.819-2.01-1.662-1.753-1.851-.885-4.192-.397-.23-.779-.49-1.158-.749-3.128-2.13-6.308-4.185-9.422-6.335-.608-.419-1.192-.859-1.853-1.192.484-.55 2.8-2.239 3.479-2.627M19.815 10.3c.034.017.172.086.183.117.27.822 1.175 3.292 1.12 4.051-.208.368-2.543 1.823-3.082 2.18.284 1.072.908 2.891 1.258 4.005a285 285 0 0 1 2.636 8.843q-1.925-.034-3.85-.023c-.3.02-.414.069-.63-.084-.53-1.262-4.378-14.328-4.325-14.517.142-.514 5.943-4.089 6.69-4.572M35.247 0c.625.04 5.539 3.214 5.845 3.738-.101.285-3.085 2.466-3.525 2.681a34 34 0 0 1-2.166-1.423c-2.347 1.798-5.253 3.43-7.646 5.19-1.23.86-2.638 1.736-3.909 2.551-.342-1.479-.768-2.957-1.098-4.435 1.334-1.202 4.733-3.227 6.371-4.295C30.845 2.882 33.553.916 35.246 0M51.047 22.892c.34.068 3.023 2.515 3.48 2.932-.132.654-.503 1.74-.708 2.4l-1.463 4.65-1.368 4.447c-.255.83-.604 2.077-.955 2.83-.843.09-2.453.04-3.355.037-.578.003-2.718.04-3.11-.147-.03-.312 1.342-3.402 1.587-3.865.328-.62.992-.127 1.672-.31.219-.175.3-.508.38-.783 1.055-3.61 2.251-7.179 3.356-10.774.147-.478.28-.96.484-1.417M.845 46.651q1.254.03 2.508.025c1.887-.01 4.073-.113 5.105 1.914.909 1.784.185 4.035-1.681 4.838-.928.4-1.769.413-2.77.455-.312 0-.814-.046-1.138-.067.114 1.363.015 2.77.143 4.018-.627-.027-2.387.076-2.862-.116-.2-.328-.177-10.73-.065-10.935.2-.143.505-.123.76-.132m2.022 5.086c.825-.057 1.98.093 2.55-.32.164-.151.299-.264.428-.448.45-2.564-1.217-2.06-2.918-2.231-.036.919.11 2.125-.06 2.999M36.293 49.981c1.426-.133 1.414.264 2.397.46.092-.127.158-.204.264-.32.249-.055 2.22-.036 2.613-.038.063 2.512.024 5.158.079 7.717-.634.04-2.532.16-2.917-.234v-.087c-.148-.079-.38.108-.57.166-.33.09-.874.29-1.213.3-4.682.121-5.164-7.303-.653-7.964m-.378 4.008a1.517 1.517 0 1 0 3.033-.086 1.517 1.517 0 0 0-3.033.086M53.406 49.918c2.134-.236 4.223 1.337 4.527 3.491a3.88 3.88 0 0 1-.78 2.935c-.854 1.111-1.946 1.474-3.264 1.644-.933.09-2.28-.352-3.03-.935a4.03 4.03 0 0 1-1.52-2.69 3.6 3.6 0 0 1 .22-1.787c.672-1.812 2.083-2.442 3.847-2.658m-.979 5.072c.61.478.813.55 1.594.498.504-.235.776-.372.986-.927a1.72 1.72 0 0 0-.054-1.336c-.363-.763-.981-.823-1.715-.802-1.146.538-1.29 1.454-.81 2.567M13.009 49.909c2.482-.178 4.242 1.59 4.367 3.98.069 1.307-1.359.937-2.273.937a152 152 0 0 1-3.384-.012c.876 1.465 2.338 1.56 3.513.375l.775.758c.28.267.58.444.525.847-.443.6-1.463.952-2.173 1.086-2.608.521-5.559-1.24-5.276-4.17.234-2.415 1.69-3.443 3.926-3.801m-1.33 3.126c.728.024 1.43-.007 2.137.012.251.006.55.044.76-.08.125-.337-.15-.583-.356-.853-.55-.172-.787-.227-1.383-.168-.577.3-.768.589-1.159 1.09M22.788 49.988c.638-.185 1.746.262 2.24.676.415.346.72.806.876 1.324.302 1.01.103 4.47.209 5.834q-1.425-.009-2.848.002c-.162-1.545.234-3.441-.233-4.944-.243-.783-1.121-.583-1.67-.286-.47.639-.212 4.175-.181 5.228q-1.5-.018-2.999.006c-.024-.819.01-7.28.119-7.641.362-.171 1.956-.077 2.427-.086.184-.004.253.207.403.382.353-.036.757-.39 1.657-.495M44.015 50.124c-.075-.878.202-2.214.81-2.834 1.624-1.654 3.689-1.248 5.392-.206-.328.378-1.494 1.783-1.979 1.68-1.298-.28-1.331-.102-1.48 1.37A27 27 0 0 1 49 50.1c.004.779.018 1.58.002 2.356-.745-.039-1.484-.039-2.23-.044.155 1.712-.06 3.833.081 5.451-.542-.032-2.544.034-2.84-.138-.032-.067-.093-.18-.116-.244.142-.807.085-3.233.056-4.13l.041-.867c-.281-.016-1.33-.032-1.522-.112-.155-.328-.224-2.024-.012-2.254.331-.083 1.165-.009 1.556.006M58.225 50.09c.997.024 2.045.005 3.05.014.482.472.892 1.327 1.174 1.939 1.13-2.662 1.526-1.877 4.055-1.962q-.585.953-1.212 1.88c-.997 1.453-1.668 1.587-.483 3.073.344.433 1.631 2.286 1.678 2.675-.136.143-.072.1-.323.115-2.823.006-2.555.419-3.914-2.13-1.418 2.905-1.5 1.888-4.176 2.144.498-1.008 1.96-3.047 2.683-3.966-.607-.807-2.12-2.938-2.532-3.782"/><path fill="#fff" fill-opacity=".69" d="M29.692 46.928c.411-.034 1.11 0 1.543.008.007.864.057 2.43-.072 3.22.518-.078 1.2-.074 1.722-.053q.024 1.185-.003 2.37c-.552-.044-1.135-.062-1.69-.087.002 1.514-.027 3.99.117 5.451-.402-.016-.864-.008-1.271-.01l-1.744-.019c-.046-.687-.001-1.644.008-2.352.012-.947-.061-2.113.063-3.023a51 51 0 0 0-1.72.02l-.005-2.389c.524.043 1.216.035 1.753.044-.096-.484-.146-2.518-.037-2.976.255-.263.937-.198 1.336-.204M53.138 21.765a.801.801 0 1 1 .198 1.59.801.801 0 0 1-.198-1.59M43.896 57.481c-.07-.538-.175-3.784.056-4.13.029.897.086 3.323-.056 4.13"/></svg>