<svg xmlns="http://www.w3.org/2000/svg" width="118" height="48" fill="none"><path fill="#fff" fill-opacity=".69" d="M47.837 13.175c.249.094 1.746 1.897 2.009 2.2l2.985 3.405 3.86 4.413c.76.862 1.581 1.766 2.321 2.636.202-.155.632-.67.822-.889l1.365-1.57 6.035-6.863q.79-.895 1.568-1.798c.368-.43 1.002-1.226 1.414-1.54.432.388.86.966 1.25 1.408l4.121 4.726 5.774 6.623c.909 1.041 1.83 2.071 2.742 3.11.187.212.689.653.392.893-1.234 1-3.267.794-4.507-.093-.59-.422-1.09-1.096-1.566-1.641l-1.855-2.123-6.263-7.152a15 15 0 0 1-1.004-1.192c-.493.6-1.258 1.4-1.798 2.016l-4.94 5.59-2.41 2.73c-.285.32-.832 1.014-1.154 1.221l-7.407-8.393-1.723-1.947c-.252-.282-.85-.918-1.021-1.206-.373.302-.718.734-1.038 1.099q-.737.832-1.46 1.678c-1.636 1.914-3.344 3.787-4.991 5.686l-1.865 2.161c-.355.406-.634.751-1.038 1.13-1.18 1.107-3.057 1.435-4.508.69-.161-.083-.478-.266-.533-.453.104-.237 1.448-1.692 1.706-1.99l9.005-10.294 2.463-2.842c.369-.427.867-1.052 1.25-1.429"/><path fill="#fff" fill-opacity=".69" d="M67.21 9.705c.309.3 2.424 2.609 2.362 2.77-.13.336-2.021 2.41-2.354 2.788-.6.728-1.311 1.514-1.937 2.229l-3.8 4.33c-.645.736-1.27 1.49-1.914 2.23-.172.197-.328.39-.538.55-.529-.482-1.597-1.786-2.098-2.361l-3.9-4.472-2.993-3.423c-.414-.472-1.237-1.347-1.577-1.846.137-.247 2.138-2.593 2.342-2.75.258.002 1.096 1.074 1.338 1.353l1.882 2.159c1.64 1.876 3.397 3.826 4.995 5.73.244-.222.527-.58.75-.839l1.226-1.411 4.572-5.23c.433-.486 1.172-1.449 1.644-1.807"/><path fill="#fff" fill-opacity=".69" d="M58.978.005c.282-.061.574.455.745.651l1.775 2.03 2.93 3.345c.656.746 1.313 1.495 1.951 2.258.113.136.148.246.2.415-.21.367-2.04 2.426-2.367 2.741-.45-.356-1.384-1.55-1.821-2.046L60.414 7.14c-.415-.468-.993-1.073-1.352-1.56-.319.169-1.724 2.002-2.164 2.43-.647.629-1.435 1.747-2.105 2.42-.264.266-.573.812-.894.991-.239-.063-2.399-2.52-2.462-2.837.182-.29.404-.461.58-.713.328-.472.686-.816 1.058-1.235l2.085-2.39c.135-.154.352-.485.481-.601 1.06-.948 2.193-2.888 3.337-3.641M69.264 18.847c.277.052 1.801 1.952 2.104 2.294a354 354 0 0 1 6.855 7.843c.178.212.33.386.528.58.286.28.617.51.842.838-.364.046-.804.014-1.177-.001-1.083-.09-2.006-.447-2.758-1.246-1.156-1.23-2.249-2.564-3.362-3.83l-2.873-3.276c-.217-.251-1.429-1.543-1.403-1.805.033-.33.936-1.159 1.244-1.397M48.793 18.845c.28.082 1.162 1.123 1.19 1.429-.191.484-2.982 3.505-3.496 4.092l-3.586 4.144c-1.01 1.15-1.613 1.743-3.22 1.846-.244.03-.927.123-1.114.013l-.002-.069c.214-.277.559-.49.746-.733.484-.63 1.016-1.181 1.532-1.776l5.375-6.154c.575-.655 1.961-2.367 2.574-2.792"/><path fill="#fff" fill-opacity=".69" d="M59.016 6.76c.101.053 1.876 2.071 2.091 2.335.416.51 2.334 2.542 2.48 2.97-.062.238-1.07 1.424-1.277 1.463-.37-.13-2.72-3.093-3.222-3.572l-.027-.025c-.583.469-2.937 3.562-3.293 3.602-.306-.148-1.178-1.193-1.334-1.51.383-.519 1.107-1.259 1.542-1.775.987-1.17 2.02-2.344 3.04-3.488M7.161 43.401l-1.307-3.729-1.308 3.73zm.773 2.214h-4.16l-.669 1.946H0l4.264-11.202h3.18l4.263 11.202H8.602zM20.628 40.103q-1.011-1.233-2.496-1.233-.654 0-1.218.237a2.9 2.9 0 0 0-.951.654q-.401.401-.639.966a3.3 3.3 0 0 0-.223 1.218q0 .669.223 1.233.238.565.639.98.416.417.966.654.549.238 1.188.238 1.397 0 2.51-1.188v3.446l-.296.104a8 8 0 0 1-1.248.342q-.58.12-1.144.119a5.9 5.9 0 0 1-2.229-.43 6.1 6.1 0 0 1-1.872-1.234 6.3 6.3 0 0 1-1.292-1.887 5.8 5.8 0 0 1-.49-2.392q0-1.292.475-2.362a5.95 5.95 0 0 1 1.292-1.857 5.8 5.8 0 0 1 1.887-1.218 5.8 5.8 0 0 1 2.244-.446q.668 0 1.307.148.654.134 1.367.431zM26.72 38.825v8.736h-2.913v-8.736h-2.392V36.36h7.696v2.466zM33.318 36.359v6.091q0 .49.03 1.01.045.505.223.922.193.416.594.683.401.252 1.13.253.727 0 1.114-.253.4-.267.594-.683t.223-.921q.044-.52.044-1.01v-6.092h2.897v6.492q0 2.615-1.203 3.819-1.189 1.203-3.67 1.203T31.61 46.67t-1.204-3.819V36.36zM45.433 41.366h.55q.861 0 1.322-.357.46-.357.46-1.025 0-.67-.46-1.025-.46-.357-1.322-.357h-.55zm6.404 6.195H48.21l-2.778-4.309v4.309h-2.912V36.359h4.532q.935 0 1.634.282.698.267 1.144.743.46.475.683 1.1.238.623.238 1.337 0 1.277-.624 2.08-.609.786-1.813 1.07zM59.428 38.825h-3.461v1.872h3.268v2.466h-3.268v1.932h3.461v2.466h-6.373V36.359h6.373zM66.072 47.561l1.901-11.202h2.883l2.243 5.972 2.228-5.972h2.883L80.11 47.56h-2.897l-.965-6.448-2.645 6.448h-1.159l-2.51-6.448-.966 6.448zM88.33 38.825h-3.462v1.872h3.268v2.466h-3.268v1.932h3.462v2.466h-6.374V36.359h6.374zM93.341 45.095h.669q.757 0 1.352-.238a2.8 2.8 0 0 0 1.619-1.634q.223-.579.223-1.263 0-.669-.223-1.248a2.8 2.8 0 0 0-.639-.995 2.8 2.8 0 0 0-.995-.654 3.6 3.6 0 0 0-1.337-.238h-.669zm-2.912-8.736h4.308q1.144 0 2.14.46a5.7 5.7 0 0 1 1.753 1.234q.757.757 1.189 1.782.43 1.01.43 2.125 0 1.1-.43 2.124a5.5 5.5 0 0 1-1.174 1.783 5.7 5.7 0 0 1-1.753 1.233 5.1 5.1 0 0 1-2.154.461h-4.309zM105.021 36.359V47.56h-2.912V36.359zM113.452 43.401l-1.307-3.729-1.308 3.73zm.773 2.214h-4.16l-.669 1.946h-3.105l4.264-11.202h3.179l4.264 11.202h-3.105z"/></svg>