<svg xmlns="http://www.w3.org/2000/svg" width="72" height="51" fill="none"><path fill="#fff" fill-opacity=".69" d="m.03 34.855 4.849.034c2.312.004 4.628-.23 6.561 1.292 2.065 1.626 2.313 4.919.703 6.937-1.133 1.42-2.721 1.808-4.434 1.993-1.013.027-2.125.005-3.146.006-.015 1.686.073 3.95-.03 5.581L.03 50.696c-.057-2.305-.015-4.773-.016-7.088a718 718 0 0 1 .017-8.753m4.531 7.01c1.237.018 2.576.202 3.58-.552.652-.786.707-2.056-.096-2.728-.776-.649-2.487-.472-3.477-.479a237 237 0 0 0-.007 3.758M44.465 34.876c1.366-.034 2.797-.002 4.177.01 1.619.02 3.037-.076 4.658.162 3.933.576 5.614 4.993 3.25 8.103-1.063 1.4-2.834 1.807-4.54 1.967L49 45.115c-.117 1.816.028 3.75-.053 5.587l-4.49-.014c-.02-.652-.02-1.325-.012-1.979.055-4.6-.089-9.237.02-13.833m8.081 6.451c.66-.762.752-2.028-.057-2.724-.782-.673-2.486-.5-3.494-.492-.041 1.13-.075 2.628 0 3.749 1.215.021 2.564.205 3.551-.533M29.801 34.864l11.807-.005c.033 1.112.007 2.333.005 3.453l-7.403.001-.01 2.524 7.184-.005v3.457l-7.058.008-.064.045c-.058.223-.016 2.402-.054 2.877h7.96c-.098 1.038-.343 2.442-.523 3.482-3.906-.059-7.925-.012-11.84-.012-.104-2.161-.032-5.09-.026-7.29.008-2.739-.078-5.841.022-8.535M15.592 34.866c3.822-.068 7.83-.008 11.666-.01.044 1.078.011 2.364.01 3.457l-7.185.002a241 241 0 0 0-.003 3.066c2.17-.056 4.556-.007 6.743-.008.038.665.013 1.572.014 2.256l.004 1.206-6.757-.011-.01 5.874-4.509-.015-.006-9.682c0-1.917-.062-4.244.033-6.135M60.01 34.861l4.563-.003c.06.56.033 1.531.033 2.118l.002 3.732-.002 4.167c0 .687.03 1.7-.028 2.344L72 47.216c-.18.957-.321 2.13-.465 3.108-.023.155-.022.225-.127.338-.456.075-2.816.03-3.423.03l-7.977-.003c-.065-2.188-.017-4.605-.017-6.807q-.021-4.51.019-9.02M35.804 14.615c.124-.01.455-.032.553-.008.626.153 2.487 2.152 2.816 2.63-.604 2.568-2.705 4.103-4.348 6.148-.126.143-.528.619-.666.64-.516.075-1.838-.398-2.043-.873-.002-.782 1.25-6.531 1.606-7.533.148-.418 1.556-.822 2.082-1.004M40.245 18.534c.693.016 1.454.927 1.966 1.394.458.417 1.423 1.094 1.691 1.597-.014.406-1.2 1.61-1.528 2.024-.563.714-1.157 1.515-1.765 2.189-.896 1.327-1.933 1.017-3.012.082q.003-.111.014-.222c.141-1.45 1.004-4.526 1.557-5.975.122-.321.784-.85 1.077-1.089M41.36 7.64c.788.26 1.258 1.425 1.426 2.168-.168.742-.973 2.31-1.751 2.501-.795.195-3.856 1.43-4.489 1.144-.35-.27-1.581-1.415-1.67-1.867.389-.729 3.827-2.109 4.596-2.77.265-.228 1.51-.956 1.888-1.176M45.341 14.014c.038 0 .192-.004.206.007.52.424 1.723 2.581 1.897 3.151-.382.725-1.047 1.508-1.566 2.163-.254.32-.993 1.3-1.385 1.347-.2.024-.497-.237-.646-.361-.569-.426-2.251-1.845-2.547-2.32-.464-.745 3.438-3.69 4.041-3.987M31.843 15.876c.333-.05.551-.121.816.104.046.324-1.085 6.376-1.27 6.84-.352.398-1.175.126-1.555-.103-.058-.057-.26-.268-.279-.317-.287-.76-1.053-4.97-.935-5.504.256-.314 2.751-.97 3.223-1.02M36.63 4.393c.297.026.345.047.453.307-.016.542-1.012 2.137-1.297 2.77-.461 1.021-.818 2.254-1.46 3.15-.306.428-1.082-.545-1.269-.755-.468-.517-1.082-1.135-1.382-1.754.175-.606 1.195-2.055 1.546-2.656.506-.865 2.348-.921 3.41-1.062M24.575 22.355c.644-.066 3.944.44 4.234 1.194.227.592.324 2.148.194 2.81-.025.128-.17.17-.27.21-.729.047-4.053.206-4.514-.075-.189-.35.057-3.73.356-4.14M38.898 3.912c.415.078.783.294.93.613.185.4 1.352 2.037 1.158 2.365-.39.663-3.056 2.037-3.738 2.418-.395.228-1.125.756-1.566.598-.133-.77 1.855-4.384 2.315-5.296.22-.437.447-.593.901-.698M27.263 16.982c.055-.016.233-.009.302-.008.538.277 1.019 4.575.918 5.223-.394.158-1.649-.203-2.088-.328-.311-.119-1.43-.337-1.552-.544-.632-1.13-.147-2.397.51-3.384.546-.823 1.014-.775 1.91-.96M44.593 22.119c.585.193 2.043 1.672 2.335 2.276-1.44 1.622-1.226 2.204-3.57 2.159-.48.027-1.824.18-2.146-.127-.058-.54 2.834-3.763 3.381-4.308M47.776 18.125c.055.002.287.015.317.035.591.376 1.514 2.243 1.847 2.845-.338.463-2.049 2.397-2.492 2.607-.496-.356-1.905-1.778-2.26-2.27.287-.506 2.156-2.828 2.587-3.217M50.2 21.945a.54.54 0 0 1 .319.046c.226.12 2.593 3.907 2.699 4.273.02.071-.008.09-.042.153-.401.249-1.221.182-1.716.173-.47.013-.873.047-1.328-.054-.763-.168-1.642-1.56-2.005-2.258.397-.712 1.435-1.848 2.073-2.333M33.454 11.922c.235.022.16-.014.323.127a.74.74 0 0 1 .002.517c-.572 1.761-.292 2.233-2.35 2.622-.798.15-1.948.753-2.9.746l-.04-.07c-.18-.355-.568-1.578-.433-1.98.38-.351 1.912-.736 2.498-.923q1.467-.47 2.9-1.039M22.825 22.35c.198-.017.825-.034.804.237-.044.569-.182 3.598-.384 3.89-.49.234-1.523.14-2.104.124-.325-.023-.759.022-.921-.281q.013-.08.038-.158c.158-.511 2.052-3.537 2.567-3.812M43.93 12.124c.684-.054 1.413.773.638 1.454-1.17 1.029-2.372 1.982-3.473 3.085-.223.198-.328.276-.603.291l-.115-.112c-.156-.717 1.283-3.02 1.629-3.788.248-.55 1.346-.791 1.925-.93M36.804 0c.526.13 1.357 1.802 1.45 2.341.222 1.282-1.42 1.269-2.306 1.39-.339.071-1.272.364-1.45-.022.067-.668 1.736-3.182 2.306-3.709M31.059 9.07a.6.6 0 0 1 .106.023l.022.007c.479.153 1.979 1.56 1.73 2.206-.37.359-1.676.715-2.22.891-.4.125-1.183.446-1.54.178-.187-.433 1.501-3.033 1.902-3.304M40.223 13.235c.262-.036.34-.032.543.088.34.539-.79 2.165-1.044 2.69-.174.357-.703-.069-.903-.22-.238-.256-1.372-1.217-1.114-1.53.327-.397 2.008-.854 2.518-1.028M37.322 21.542c.646.351-.286 2.805-.33 3.48-.032.465-.937.14-1.233.013-.276-.175-.58-.316-.629-.666.104-.46 1.782-2.507 2.192-2.828M29.837 23.59c1.148-.035 1.478.555 1.336 1.625-.056.425-.062.81-.205 1.227-.284.052-.761.121-1.026.01-.327-.343-.395-2.44-.105-2.861M34.373 25.284c.037.002.186.015.212.029.339.191 1.997.608 1.839 1.125-.172.15-.404.14-.634.158-.579.016-1.697.128-2.126-.18-.229-.482.369-.841.709-1.132M32.074 24.291c.424.093 1.11.175 1.274.612.031.47-.347.822-.645 1.202-.228.263-.43.457-.782.351-.368-.384-.042-1.725.153-2.165M47.333 25.08c.338.063 1.042.764 1.173 1.063 0 .241.032.157-.123.337-.235.13-.612.088-.891.081-.423.017-.998.145-1.09-.37.146-.442.586-.784.93-1.111M34.475 12.903c.432.083.963.394.993.877-.11.25-.07.177-.293.344-1.22.31-1.184-.31-.7-1.22M27.2 15.3c.658.198.217.732-.029 1.047-.166-.02-.19-.031-.318-.14-.182-.417.025-.646.348-.907M43.27 10.765c.242.143.292.122.417.335-.069.225-.111.206-.313.382-.189-.045-.285-.138-.38-.294.061-.27.058-.206.276-.423"/></svg>