<svg width="136" height="20" viewBox="0 0 136 20" fill="none" xmlns="http://www.w3.org/2000/svg">
<path d="M64.9017 0.0542145C66.2929 -0.0247722 67.5439 -0.00442641 68.9383 0.0333827C69.0685 1.6787 68.9754 4.70813 68.9747 6.43002L68.9761 18.79C68.0845 18.7928 66.3119 18.85 65.4977 18.7561C65.4367 18.4156 65.415 18.0442 65.3869 17.6977C64.2933 18.3513 63.4618 18.9694 62.1321 19.1655C61.0767 19.3211 59.8603 19.2992 58.8337 19.0105C51.5464 16.9617 51.8074 6.01979 59.5768 4.65753C60.4055 4.5308 61.2822 4.47509 62.1062 4.66508C62.769 4.77722 63.3531 4.95395 63.971 5.22167C64.434 5.42227 64.3948 5.43535 64.7087 5.80871L64.8245 5.80351C64.9491 5.29902 64.9017 0.874499 64.9017 0.0542145ZM61.5132 15.7041C63.5874 15.6229 65.2083 13.884 65.1442 11.8087C65.0801 9.7334 63.355 8.09791 61.2797 8.14496C59.1801 8.19255 57.5216 9.9426 57.5864 12.0422C57.6513 14.1418 59.4146 15.7862 61.5132 15.7041Z" fill="white" fill-opacity="0.69"/>
<path d="M59.5762 4.65754C60.405 4.53082 61.2817 4.4751 62.1056 4.66509C61.442 4.79364 60.2248 4.83376 59.5762 4.65754Z" fill="white" fill-opacity="0.69"/>
<path d="M47.5331 17.8486C46.6751 18.2766 46.0106 18.7747 44.9887 19.0128C43.1077 19.4511 40.9369 19.2391 39.264 18.2795C37.6719 17.3673 36.5158 15.8504 36.0581 14.0732C35.5038 12.006 35.6885 9.90975 36.7656 8.044C37.675 6.47777 39.1617 5.33015 40.907 4.84703C42.3429 4.46471 44.3004 4.55593 45.7251 5.0004C46.1571 5.13522 47.1344 5.96608 47.5092 5.86564C47.6406 5.64651 47.6468 5.26831 47.6705 5.00291C48.1548 4.96084 50.837 4.8767 51.1369 5.04439L51.1316 5.22467C50.9955 5.36369 50.9618 5.36226 50.9581 5.57818C50.9346 6.94658 50.945 8.38361 50.9443 9.74706L50.9445 18.1798C50.9458 18.3173 50.9332 18.3609 51.0055 18.4835L51.1965 18.6116L51.1558 18.7367C51.1339 18.7475 51.1113 18.757 51.0883 18.7651C50.8371 18.8524 47.9562 18.8159 47.6934 18.6951C47.5518 18.4764 47.5538 18.1176 47.5331 17.8486ZM43.7623 15.7058C45.8295 15.5985 47.4262 13.8483 47.3442 11.7795C47.2623 9.71061 45.5322 8.09233 43.4629 8.1489C42.1016 8.18616 40.8654 8.95274 40.2269 10.1558C39.5883 11.3589 39.6458 12.8125 40.3776 13.9613C41.1094 15.1101 42.4023 15.7764 43.7623 15.7058Z" fill="white" fill-opacity="0.69"/>
<path d="M77.9833 4.63879C78.5665 4.53465 79.6234 4.49656 80.1936 4.66266C84.297 5.16817 86.9724 8.322 86.7787 12.3949C86.7699 12.5907 86.7712 12.7967 86.7665 12.994C85.9884 13.0846 84.6385 13.0154 83.8017 13.0272C80.9853 13.0639 78.1689 13.0551 75.3532 13.0008C75.8034 13.9749 76.3285 14.8543 77.2949 15.3695C78.8243 16.1848 80.9961 15.9819 81.9018 14.3694C82.4789 14.3339 86.0369 14.2155 86.288 14.5164C86.2691 14.8395 85.5848 15.9439 85.3708 16.255C82.7144 20.126 75.6961 20.299 72.9553 16.4322C69.4728 11.5189 72.0786 5.55828 77.9833 4.63879ZM75.6887 10.2214L79.3993 10.2219C80.4123 10.2192 81.4665 10.2015 82.4762 10.2215C81.7621 8.6656 80.5331 7.67018 78.7595 7.8224C77.2565 7.99893 76.1213 8.71832 75.6887 10.2214Z" fill="white" fill-opacity="0.69"/>
<path d="M77.9849 4.63879C78.568 4.53465 79.6249 4.49656 80.1952 4.66266C79.6046 4.79287 78.5639 4.82958 77.9849 4.63879Z" fill="white" fill-opacity="0.69"/>
<path d="M7.66778 0.674075C8.84858 0.668175 10.1099 0.64085 11.2841 0.68115C11.7682 2.24605 12.432 3.63191 13.0395 5.14778L17.0852 15.0283C17.5965 16.2751 18.1661 17.4951 18.6378 18.7568C17.9811 18.8146 14.7266 18.9395 14.1627 18.5758C13.9861 18.462 13.1528 16.3057 13.1024 15.9085C11.3917 15.8743 9.59995 15.9025 7.87753 15.8923C7.92269 15.3406 8.83198 12.8839 9.15708 12.478C9.56263 12.2256 11.0516 12.2973 11.6407 12.2883C11.4417 11.6952 11.0792 11.0178 10.8278 10.4139C10.6946 9.99266 10.5493 9.77752 10.3927 9.38188C9.99335 8.37316 9.77414 7.39347 9.16916 6.48028C8.73533 8.03152 8.00941 9.50892 7.4346 11.0034C6.44796 13.5688 5.19631 16.1582 4.36816 18.7666C3.82961 18.8169 0.269177 18.8547 0.000106791 18.6578C-0.0234473 18.1154 3.85669 9.04199 4.34697 7.83104L6.26918 3.12588C6.56397 2.40096 6.86511 1.49116 7.26135 0.808618C7.33127 0.688211 7.52888 0.691356 7.66778 0.674075Z" fill="white" fill-opacity="0.69"/>
<path d="M117.212 4.92932C119.645 4.70982 122.374 6.01273 123.721 8.03583C124.72 9.5357 124.897 10.9466 124.911 12.6965L116.026 12.7021C114.775 12.6948 113.377 12.7278 112.143 12.6763C112.38 14.001 112.678 14.7203 113.614 15.739C114.596 16.8106 115.967 17.442 117.419 17.4909C118.584 17.5378 120.156 17.0518 121.015 16.257C121.349 15.924 121.7 15.4026 122.095 15.1647C122.636 14.8397 123.712 14.9736 124.347 14.9943C123.944 15.6616 123.753 16.0585 123.224 16.6673C121.96 18.1247 120.165 19.0148 118.239 19.1389C108.342 19.8317 107.253 5.60751 117.212 4.92932ZM112.176 11.1118C112.858 11.2037 113.819 11.1777 114.525 11.1773L118.259 11.172C119.754 11.173 121.375 11.2066 122.859 11.1719C122.578 9.66342 122.211 8.94781 121.074 7.89319C119.771 6.68365 118.586 6.50335 116.847 6.61162C114.307 6.87165 112.772 8.75522 112.176 11.1118Z" fill="white" fill-opacity="0.69"/>
<path d="M25.6375 4.66493C26.3692 4.52451 27.4236 4.44087 28.1426 4.66277C30.574 4.99751 32.6528 6.24845 33.8048 8.49013C33.9383 8.74969 34.2487 9.75685 34.2543 10.0306C34.0508 10.2177 30.9076 10.1535 30.4134 10.1542C29.8944 9.7499 29.6901 9.30066 29.2687 8.9173C28.6717 8.3741 27.5572 8.0818 26.7508 8.12102C25.8251 8.15842 24.954 8.56945 24.3364 9.26016C22.1639 11.6659 23.7563 15.966 27.24 15.7021C28.8309 15.5816 29.3097 14.8268 30.2607 13.7547C30.8716 13.6803 33.7531 13.6292 34.2222 13.8206C34.3628 14.3261 33.6097 15.7729 33.2816 16.2025C32.3528 17.4185 31.1371 18.4446 29.6181 18.8013C29.2849 18.8796 28.9189 19.1025 28.5569 19.1327C26.3621 19.3549 24.0952 19.2259 22.2629 17.8204C16.9896 13.7752 19.0376 5.64097 25.6375 4.66493Z" fill="white" fill-opacity="0.69"/>
<path d="M25.6387 4.66493C26.3704 4.52451 27.4247 4.44087 28.1438 4.66277C27.6863 4.83116 26.0934 4.82538 25.6387 4.66493Z" fill="white" fill-opacity="0.69"/>
<path d="M89.5655 0.675238L91.2723 0.668015C91.6557 1.28193 92.4912 2.31361 92.942 2.91138L96.5683 7.67152C97.1055 8.37572 97.916 9.37992 98.3426 10.1223C99.083 8.91549 100.359 7.38678 101.231 6.23739C102.612 4.41748 104.062 2.40666 105.519 0.667847C106.061 0.683926 106.634 0.674908 107.178 0.674928C107.263 1.75007 107.195 3.66649 107.194 4.79605L107.188 13.7804C107.188 15.2187 107.128 17.3417 107.23 18.7322C106.577 18.7481 105.924 18.7531 105.27 18.7468L105.268 6.636C105.259 5.82028 105.269 5.00445 105.297 4.18916C104.609 4.79956 104.05 5.66085 103.481 6.39859L100.273 10.6076C99.9482 11.0366 98.7772 12.7755 98.2434 12.7378C97.4078 12.1699 94.1656 7.47251 93.2518 6.36815C92.9231 5.97041 91.7933 4.50603 91.4363 4.03051C91.5929 5.10771 91.4998 7.51484 91.5146 8.69569C91.5564 12.0163 91.4491 15.4108 91.5112 18.7305C90.8444 18.7357 90.1783 18.7326 89.5122 18.7211C89.6208 17.6099 89.5493 15.0203 89.5486 13.7973L89.5358 4.42604C89.5324 3.90797 89.4609 0.977252 89.5655 0.675238Z" fill="white" fill-opacity="0.69"/>
<path d="M130.62 0.404097L132.15 0.390259C132.232 1.47567 132.16 2.98981 132.204 4.15919L132.223 4.16092C133.381 4.26166 134.814 4.19952 135.985 4.16165L136.001 5.96599C134.793 6.00311 133.416 5.97517 132.196 5.98374C132.121 7.10276 132.171 8.68728 132.184 9.8302C131.634 9.83668 131.065 9.82615 130.514 9.82385C130.505 8.63915 130.461 7.13381 130.566 5.98084C129.393 5.93203 127.953 5.96761 126.753 5.96362C126.716 5.42024 126.737 4.74638 126.74 4.19263C127.694 4.20087 129.705 4.26242 130.579 4.14563C130.574 4.09823 130.57 4.05077 130.566 4.00326C130.532 3.50433 130.399 0.657292 130.62 0.404097Z" fill="white" fill-opacity="0.69"/>
<path d="M51.1968 18.6117L51.0058 18.4836C50.9334 18.3609 50.9461 18.3174 50.9448 18.1798L50.9446 9.74712C50.9453 8.38367 50.9348 6.94664 50.9583 5.57824C50.962 5.36232 50.9958 5.36375 51.1319 5.22473C51.2759 6.41005 51.2084 8.69804 51.208 9.98555L51.1968 18.6117Z" fill="white" fill-opacity="0.69"/>
</svg>
