<svg width="86" height="53" viewBox="0 0 86 53" fill="none" xmlns="http://www.w3.org/2000/svg">
<path d="M56.9508 36.7738C57.8888 36.7296 58.6908 36.7689 59.6138 36.8489C61.2668 36.9923 60.891 37.2095 60.9314 38.6695C60.9488 39.2813 60.9507 39.8531 60.9667 40.4153C62.9194 40.1961 62.8338 40.3356 62.7063 42.1312C62.1305 42.1538 61.4884 42.1485 60.9084 42.1549C60.9719 42.5429 60.9375 43.0418 60.9338 43.4454L60.9201 46.3206C60.9121 48.7631 60.9027 49.4548 63.498 50.0018C62.9655 48.4318 62.6273 47.6356 62.7962 45.8702C63.0365 43.1561 65.0085 40.1023 68.0667 40.4024C70.002 40.5923 70.6808 41.7664 71.7698 43.0879C71.7519 42.6361 71.6785 41.0133 71.8794 40.6752C72.0638 40.5294 72.3305 40.5019 72.5577 40.4726C73.3415 40.3713 76.3328 40.2723 76.8954 40.7298C76.9848 40.8026 76.9994 41.0884 77.006 41.1961C77.0352 41.6669 77.0069 42.1493 77.0055 42.6214L77.0003 45.8741C76.9989 46.5913 76.9754 47.4305 77.0427 48.1316C77.204 49.3038 77.8217 49.513 78.8336 49.7125C78.4685 50.9869 77.9986 52.3601 76.5502 52.7545C75.5684 53.0219 74.1699 52.9057 73.2657 52.4094C72.307 51.8831 72.0234 51.0715 71.7543 50.0906C71.2495 51.0626 70.3948 51.9868 69.4069 52.4738C68.4562 52.9434 67.3568 53.0123 66.3548 52.6648C65.2014 52.2661 64.1843 51.2969 63.6565 50.206C62.7755 51.9868 61.2508 53.0498 59.2487 52.8657C58.1659 52.7661 57.2151 52.5041 56.4742 51.6557C56.0876 51.2099 55.8185 50.6739 55.6924 50.0971C55.437 48.9209 55.6026 46.2677 55.563 44.9199C55.5456 44.3248 55.5268 42.6448 55.5612 42.1103C54.9769 42.1368 54.355 42.1314 53.7703 42.1192C53.7661 41.5829 53.8126 40.9604 53.8404 40.419C54.4143 40.3958 54.9891 40.3828 55.5635 40.3797C55.5663 39.7385 55.4694 37.7086 55.6736 37.0787C55.7315 36.8992 56.6925 36.8034 56.9508 36.7738ZM70.2654 49.2895C70.8577 49.025 71.2302 48.6325 71.4659 48.004C71.9391 46.7437 71.7369 44.5966 70.3223 44.0185C70.1092 43.9314 69.8298 43.9539 69.6031 43.9674C68.1057 44.5554 67.8494 46.6987 68.3598 48.0526C68.706 48.9716 69.302 49.3621 70.2654 49.2895Z" fill="white" fill-opacity="0.69"/>
<path d="M6.48255 35.0449C8.46958 34.8483 10.9641 35.2262 12.5017 36.5937C13.6279 37.5953 14.1326 39.537 13.0224 40.7539C11.9088 41.9746 9.14609 41.8854 8.71509 40.0242C8.51488 39.0489 8.45542 37.9137 7.08618 37.9808C6.73558 38 6.40761 38.1598 6.1764 38.4241C5.35218 39.3695 6.12371 40.6981 7.1248 41.1758C9.75179 42.4291 14.0946 44.0594 14.2904 47.4835C14.3494 48.5974 13.9598 49.6884 13.2086 50.5129C11.7337 52.1622 9.22516 52.7538 7.10627 52.8749C5.02826 52.9311 2.93444 52.6549 1.22862 51.2921C-0.0332264 50.284 -0.450673 48.5206 0.584147 47.167C1.00503 46.6164 1.96115 46.3396 2.64259 46.27C3.70046 46.1619 4.60244 46.7375 5.37599 47.4047C5.11091 48.2959 4.96569 49.4424 6.1041 49.7853C7.84035 50.3083 9.39145 48.2174 7.70219 47.0107C7.3641 46.7692 6.92427 46.6414 6.53881 46.4906C3.64349 45.5097 0.469366 43.5393 0.15748 40.1973C-0.188134 36.4942 3.36553 35.2817 6.48255 35.0449Z" fill="white" fill-opacity="0.69"/>
<path d="M18.8371 33.2041C19.3378 33.2073 21.0638 33.2987 21.3892 33.602C21.5465 34.1012 21.4991 41.4055 21.4486 42.3607C22.1204 41.6642 22.5912 41.0297 23.533 40.6546C25.772 39.763 28.1915 40.9866 28.5995 43.4063C28.6989 43.9957 28.6611 44.648 28.6606 45.2462L28.6528 47.5927C28.6513 48.0668 28.6296 48.6202 28.7207 49.0834C28.8153 49.5644 29.0755 50.0661 29.4127 50.4239C29.5291 50.5474 29.6598 50.6009 29.7222 50.7546C29.7239 50.9197 29.6178 51.0622 29.508 51.1956C28.2937 52.6693 26.0444 53.5513 24.3671 52.3C23.5404 51.6832 23.3666 50.2792 23.2893 49.2842C23.2691 48.2118 23.2973 47.1252 23.2866 46.0507C23.2658 45.4387 23.3392 44.811 23.2306 44.2053C23.0914 43.4948 22.4145 43.2415 21.8875 43.7703C21.5359 44.123 21.4711 44.425 21.4648 44.9055C21.4571 45.5074 21.4618 46.1181 21.4624 46.7199L21.4735 51.8414C21.4727 52.0102 21.4612 52.4461 21.3281 52.5329C20.6124 52.9995 18.9859 52.8607 18.1372 52.8567C17.6534 52.8544 16.5061 52.7637 16.2013 52.3992C16.127 52.3104 16.1217 52.0693 16.1213 51.9494C16.1175 50.6698 16.121 49.3866 16.1215 48.1071L16.1222 40.6385L16.1185 36.5156C16.1169 35.5773 16.0862 34.4687 16.1944 33.5498C16.9072 33.3147 18.0755 33.2371 18.8371 33.2041Z" fill="white" fill-opacity="0.69"/>
<path d="M35.5003 40.4003C37.63 40.3065 39.6741 40.6267 41.206 42.2726C42.491 43.6534 42.3438 45.5712 40.9108 46.7738C39.1623 48.2411 36.5169 48.1095 34.3574 47.952C34.7869 48.3362 34.9851 48.6379 35.5049 49.0256C36.9794 50.1255 38.8114 49.9827 40.4468 49.3478C40.8683 49.1841 41.3902 48.8341 41.8343 48.8748C41.9722 48.9533 41.9298 48.9051 41.9886 49.0593C41.9863 49.255 41.8503 49.4815 41.76 49.6634C41.5277 50.0991 41.2487 50.5082 40.9278 50.8834C39.9405 52.0321 38.5534 52.7968 37.036 52.8713C35.0464 52.9689 32.8998 52.4928 31.3692 51.1619C30.3865 50.3074 29.6763 49.0289 29.6121 47.7317C29.5206 45.8838 29.7868 43.6546 31.0541 42.2165C32.2663 40.8409 33.769 40.5181 35.5003 40.4003ZM34.4602 45.596C34.8792 45.5644 35.2837 45.5394 35.699 45.4686C36.1823 45.3292 36.6084 45.111 36.8612 44.6564C36.9139 44.5602 36.9641 44.4627 37.012 44.3639C36.9676 43.4886 36.7811 42.87 35.7559 42.9283C35.736 42.9295 35.7161 42.931 35.6963 42.9328C34.6917 43.3298 34.5586 44.6585 34.4602 45.596Z" fill="white" fill-opacity="0.69"/>
<path d="M48.1399 40.3998C50.198 40.3178 52.3572 40.6784 53.744 42.3675C54.26 42.9965 54.5757 43.7433 54.4882 44.5725C54.3932 45.4819 53.9359 46.3147 53.219 46.8822C51.6224 48.1711 48.9749 48.1587 47.0269 47.9515C48.6969 49.8756 50.2163 50.2702 52.679 49.4338C53.1038 49.2894 53.9999 48.6776 54.3913 48.9245C54.4571 49.1644 54.2069 49.5839 54.093 49.8168C53.8818 50.209 53.6292 50.5771 53.3385 50.9147C52.4259 51.9862 51.0984 52.7757 49.6796 52.8625C47.7485 52.9807 45.7051 52.5362 44.2134 51.2573C43.1182 50.3188 42.4333 49.029 42.3764 47.5927C42.3082 45.8615 42.6267 43.5522 43.8079 42.2123C45.0211 40.8361 46.4182 40.5186 48.1399 40.3998ZM46.6238 45.2039C46.9931 45.1968 47.4898 45.1866 47.8502 45.0921C48.3173 44.9919 48.6964 44.7895 48.9688 44.3805C49.1725 44.0746 49.2412 43.6987 49.1603 43.3404C49.0083 42.6598 48.4716 42.4303 47.8276 42.5086C46.8755 43.0618 46.7611 44.212 46.6238 45.2039Z" fill="white" fill-opacity="0.69"/>
<path d="M80.8985 33.2068C81.5609 33.188 83.7784 33.0759 84.1637 33.6678C84.3025 33.8807 84.2413 35.9119 84.2394 36.2909L84.2352 43.272C84.2352 44.521 84.2103 45.8313 84.2681 47.0757C84.2907 47.5587 84.4257 48.3105 84.6948 48.7155C85.0123 49.1934 85.4799 49.2522 85.9993 49.346C85.7523 50.6795 85.2847 52.2706 83.8678 52.7553C82.7736 53.089 81.2993 52.7902 80.4145 52.0601C78.7294 50.6697 78.8823 48.5919 78.8941 46.6278L78.8993 43.361L78.8941 37.3011C78.8941 36.5111 78.8193 34.4077 78.9915 33.5909C79.0258 33.428 79.8166 33.3134 80.0062 33.2984C80.2051 33.2827 80.6351 33.2318 80.8985 33.2068Z" fill="white" fill-opacity="0.69"/>
<path d="M42.6291 9.60311L51.3836 9.58215C50.4341 14.5975 48.7784 19.8015 47.6201 24.8032C47.5572 25.0775 47.0892 26.1485 46.913 26.3333C43.8871 29.5079 39.5968 27.7107 39.1106 23.4697C39.0501 22.9408 38.9556 22.7268 39.2505 22.3144C39.6306 22.2741 39.8196 22.2418 40.2012 22.2949C40.5137 22.4634 40.5675 22.7655 40.6863 23.1091C41.0752 24.2957 41.5673 26.153 43.0058 26.3513C46.3789 26.8165 47.1322 21.1734 47.7429 18.8669C48.3766 16.4716 48.9148 13.9177 49.3062 11.482C48.1762 11.588 45.7431 11.5285 44.5292 11.5295C41.7855 11.5318 38.9428 11.5707 36.2119 11.4902C36.2306 10.8795 36.257 10.2691 36.2912 9.65904C38.374 9.58363 40.5392 9.60743 42.6291 9.60311Z" fill="white" fill-opacity="0.69"/>
<path d="M40.3922 4.08328C42.9338 3.51523 45.0119 5.71083 45.794 7.9851C44.526 7.93071 43.2211 7.93778 41.9502 7.92825L36.2119 7.8879C37.0296 5.59386 38.1879 4.73154 40.3922 4.08328Z" fill="white" fill-opacity="0.69"/>
<path d="M44.9956 4.01157C47.3098 3.89225 50.237 4.28013 51.1722 6.74533C51.3194 7.13353 51.4392 7.55292 51.3568 7.96605C50.1678 8.0142 48.5405 7.95692 47.3185 7.94833C47.0087 7.19112 46.7109 6.39181 46.3153 5.66515C46.045 5.16865 45.0549 4.39638 44.9956 4.01157Z" fill="white" fill-opacity="0.69"/>
<path d="M42.5282 0.0339381C44.5113 -0.172064 46.1355 0.576315 47.3918 1.82854C45.7933 2.12076 45.4956 2.24035 44.1178 3.01581C44.032 3.06646 43.8001 3.23298 43.7009 3.18567C42.0321 2.38741 41.3376 2.00784 39.4067 1.81471C40.428 0.686659 41.0166 0.443081 42.5282 0.0339381Z" fill="white" fill-opacity="0.69"/>
</svg>
