<svg width="215" height="71" viewBox="0 0 215 71" fill="none" xmlns="http://www.w3.org/2000/svg">
<path d="M118.463 72.5303L118.428 72.5303L86.5528 48.2451L86.4922 48.2451L23.1699 -8.36894e-06L-11.7549 -9.89555e-06L-11.7549 214.878L19.917 239.009L19.917 239.164L116.082 312.434L116.348 312.434L147.793 336.393L147.83 336.393L179.703 360.678L214.629 360.678L214.629 145.8L118.463 72.5303ZM19.917 24.2861L19.917 235.237L-8.75487 213.392L-8.75486 2.99999L22.1582 2.99999L50.0967 24.2861L19.917 24.2861ZM51.628 48.2451L51.6279 259.397L22.917 237.522L22.917 27.2861L53.8301 27.2861L81.3389 48.2451L51.628 48.2451ZM83.5381 72.5303L83.5381 283.663L54.6279 261.637L54.628 51.2451L85.2764 51.2451L113.213 72.5303L83.5381 72.5303ZM86.5381 285.147L86.5381 75.5303L116.336 75.5303L116.336 285.147L86.5381 285.147ZM117.397 309.434L89.46 288.147L119.336 288.147L119.336 77.1963L148.008 99.042L148.008 309.434L117.397 309.434ZM148.844 333.393L121.335 312.434L151.008 312.434L151.008 101.126L179.719 123.001L179.719 333.393L148.844 333.393ZM180.717 357.678L152.781 336.393L182.719 336.393L182.719 125.259L211.629 147.286L211.629 357.678L180.717 357.678Z" fill="white" fill-opacity="0.07"/>
</svg>
