<svg width="40" height="40" viewBox="0 0 40 40" fill="none" xmlns="http://www.w3.org/2000/svg">
<path d="M8.84573 34.1645C8.01468 34.1645 7.30472 33.8702 6.71587 33.2817C6.1273 32.6928 5.83301 31.9828 5.83301 31.1518V8.84573C5.83301 8.01468 6.1273 7.30472 6.71587 6.71587C7.30472 6.1273 8.01468 5.83301 8.84573 5.83301H31.1518C31.9828 5.83301 32.6928 6.1273 33.2817 6.71587C33.8702 7.30472 34.1645 8.01468 34.1645 8.84573V13.3809H31.6647V8.84573C31.6647 8.69599 31.6166 8.57308 31.5205 8.47701C31.4245 8.38093 31.3015 8.33285 31.1518 8.33285H8.84573C8.69599 8.33285 8.57308 8.38093 8.47701 8.47701C8.38093 8.57308 8.33285 8.69599 8.33285 8.84573V31.1518C8.33285 31.3015 8.38093 31.4245 8.47701 31.5205C8.57308 31.6166 8.69599 31.6647 8.84573 31.6647H31.1518C31.3015 31.6647 31.4245 31.6166 31.5205 31.5205C31.6166 31.4245 31.6647 31.3015 31.6647 31.1518V26.6167H34.1645V31.1518C34.1645 31.9828 33.8702 32.6928 33.2817 33.2817C32.6928 33.8702 31.9828 34.1645 31.1518 34.1645H8.84573ZM22.1782 27.4983C21.3472 27.4983 20.6372 27.204 20.0483 26.6154C19.4598 26.0266 19.1655 25.3166 19.1655 24.4856V15.512C19.1655 14.6809 19.4598 13.971 20.0483 13.3821C20.6372 12.7936 21.3472 12.4992 22.1782 12.4992H32.8184C33.6494 12.4992 34.3593 12.7936 34.9482 13.3821C35.5368 13.971 35.8311 14.6809 35.8311 15.512V24.4856C35.8311 25.3166 35.5368 26.0266 34.9482 26.6154C34.3593 27.204 33.6494 27.4983 32.8184 27.4983H22.1782ZM32.8184 24.9984C32.9681 24.9984 33.091 24.9504 33.1871 24.8543C33.2832 24.7582 33.3312 24.6353 33.3312 24.4856V15.512C33.3312 15.3622 33.2832 15.2393 33.1871 15.1432C33.091 15.0472 32.9681 14.9991 32.8184 14.9991H22.1782C22.0285 14.9991 21.9056 15.0472 21.8095 15.1432C21.7134 15.2393 21.6653 15.3622 21.6653 15.512V24.4856C21.6653 24.6353 21.7134 24.7582 21.8095 24.8543C21.9056 24.9504 22.0285 24.9984 22.1782 24.9984H32.8184ZM28.4357 21.7695C28.9218 21.2834 29.1648 20.6931 29.1648 19.9988C29.1648 19.3044 28.9218 18.7141 28.4357 18.228C27.9497 17.742 27.3594 17.4989 26.665 17.4989C25.9706 17.4989 25.3803 17.742 24.8943 18.228C24.4082 18.7141 24.1652 19.3044 24.1652 19.9988C24.1652 20.6931 24.4082 21.2834 24.8943 21.7695C25.3803 22.2555 25.9706 22.4986 26.665 22.4986C27.3594 22.4986 27.9497 22.2555 28.4357 21.7695Z" fill="#FCCB71"/>
</svg>
