<svg width="38" height="38" viewBox="0 0 38 38" fill="none" xmlns="http://www.w3.org/2000/svg">
<path d="M31.3919 5.24266L12.0579 1.8286C11.6739 1.76066 11.2803 1.76905 10.8995 1.85329C10.5187 1.93753 10.1583 2.09598 9.83874 2.31956C9.51921 2.54315 9.24686 2.8275 9.03726 3.15637C8.82766 3.48525 8.68491 3.85219 8.61716 4.23625L4.20115 29.3222C4.06481 30.0973 4.24183 30.8949 4.69331 31.5395C5.14479 32.1842 5.83377 32.6232 6.6088 32.76L25.9428 36.1741C26.1153 36.2047 26.2901 36.2201 26.4653 36.2201C27.1641 36.2204 27.8406 35.9742 28.3758 35.5249C28.911 35.0755 29.2704 34.4518 29.391 33.7634L33.807 8.6775C33.874 8.29339 33.8647 7.89983 33.7796 7.51932C33.6945 7.13881 33.5352 6.77879 33.311 6.45983C33.0867 6.14086 32.8018 5.8692 32.4725 5.66036C32.1432 5.45151 31.7761 5.30958 31.3919 5.24266ZM25.9769 32.5611L7.81263 29.3534L12.0238 5.4386L30.1881 8.64633L25.9769 32.5611ZM13.6418 9.94516C13.7239 9.48007 13.9875 9.06665 14.3744 8.79581C14.7613 8.52497 15.2399 8.41888 15.7051 8.50086L25.6801 10.2628C26.1261 10.3312 26.5296 10.5664 26.809 10.9208C27.0884 11.2753 27.2228 11.7225 27.1851 12.1723C27.1474 12.622 26.9404 13.0407 26.6059 13.3436C26.2715 13.6466 25.8344 13.8113 25.3832 13.8045C25.2787 13.8044 25.1744 13.7954 25.0715 13.7778L15.0861 12.0084C14.621 11.9263 14.2076 11.6628 13.9367 11.2758C13.6659 10.8889 13.5598 10.4103 13.6418 9.94516ZM12.6176 15.7921C12.6582 15.5617 12.7439 15.3415 12.8697 15.1442C12.9955 14.9469 13.1589 14.7763 13.3507 14.6422C13.5424 14.508 13.7587 14.413 13.9872 14.3625C14.2157 14.312 14.4519 14.307 14.6823 14.3478L24.6603 16.1113C25.0983 16.1901 25.4908 16.4301 25.7608 16.7839C26.0307 17.1377 26.1584 17.5798 26.1187 18.023C26.0791 18.4663 25.8749 18.8786 25.5465 19.1789C25.2181 19.4792 24.7891 19.6457 24.3441 19.6455C24.2396 19.6454 24.1354 19.6365 24.0324 19.6188L14.0559 17.8554C13.5919 17.7718 13.18 17.5077 12.9104 17.121C12.6407 16.7342 12.5354 16.2564 12.6176 15.7921ZM11.5785 21.6391C11.6607 21.174 11.9242 20.7606 12.3111 20.4897C12.698 20.2189 13.1767 20.1128 13.6418 20.1948L18.6352 21.078C19.0742 21.1549 19.4685 21.3936 19.7401 21.747C20.0117 22.1003 20.141 22.5427 20.1024 22.9867C20.0638 23.4307 19.8602 23.8442 19.5317 24.1454C19.2032 24.4466 18.7736 24.6137 18.3279 24.6138C18.2234 24.6138 18.1191 24.6044 18.0162 24.5856L13.0272 23.7053C12.7963 23.6652 12.5755 23.5798 12.3775 23.4541C12.1796 23.3285 12.0085 23.165 11.8739 22.973C11.7393 22.781 11.6439 22.5644 11.5932 22.3355C11.5425 22.1066 11.5375 21.8699 11.5785 21.6391Z" fill="#007BFF"/>
</svg>
