<svg width="38" height="38" viewBox="0 0 38 38" fill="none" xmlns="http://www.w3.org/2000/svg">
<g clip-path="url(#clip0_3631_4324)">
<path d="M34.5503 20.4667C34.0266 20.0655 33.4168 19.7916 32.7691 19.6666C35.0595 17.0615 36.2188 14.4534 36.2188 11.8751C36.2188 7.61939 32.7913 4.15634 28.5802 4.15634C26.5522 4.14661 24.6025 4.93895 23.1562 6.36064C21.71 4.93895 19.7603 4.14661 17.7323 4.15634C13.5212 4.15634 10.0938 7.61939 10.0938 11.8751C10.0938 13.3817 10.4975 14.8884 11.3139 16.4321C10.6623 16.701 10.0704 17.0966 9.57273 17.5959L6.38281 20.7813H2.96875C2.18139 20.7813 1.42628 21.0941 0.869527 21.6509C0.312778 22.2076 0 22.9627 0 23.7501L0 29.6876C0 30.4749 0.312778 31.2301 0.869527 31.7868C1.42628 32.3436 2.18139 32.6563 2.96875 32.6563H17.8125C17.9581 32.6564 18.1032 32.6385 18.2445 32.6029L27.7445 30.2279C27.8353 30.2056 27.9242 30.1758 28.0102 30.1388L33.7725 27.6837C33.8066 27.6703 33.8393 27.6555 33.872 27.6392C34.5164 27.3167 35.0682 26.8357 35.4755 26.2412C35.8827 25.6467 36.132 24.9584 36.1998 24.241C36.2677 23.5236 36.1519 22.8007 35.8633 22.1404C35.5747 21.4802 35.1229 20.9042 34.5503 20.4667ZM17.7323 7.71884C18.5349 7.70646 19.3229 7.93374 19.9956 8.37162C20.6683 8.8095 21.1951 9.43808 21.5086 10.177C21.6428 10.5037 21.8711 10.7831 22.1645 10.9797C22.4578 11.1764 22.8031 11.2814 23.1562 11.2814C23.5094 11.2814 23.8547 11.1764 24.148 10.9797C24.4414 10.7831 24.6697 10.5037 24.8039 10.177C25.1174 9.43808 25.6442 8.8095 26.3169 8.37162C26.9896 7.93374 27.7776 7.70646 28.5802 7.71884C30.7889 7.71884 32.6562 9.62181 32.6562 11.8751C32.6562 14.5559 30.4297 17.6404 26.217 20.8095L25.5312 20.9684C25.5312 20.906 25.5312 20.8437 25.5312 20.7813C25.5312 19.5216 25.0308 18.3134 24.14 17.4226C23.2492 16.5318 22.041 16.0313 20.7812 16.0313H15.246C14.1639 14.5113 13.6562 13.1769 13.6562 11.8751C13.6562 9.62181 15.5236 7.71884 17.7323 7.71884ZM3.5625 24.3438H5.34375V29.0938H3.5625V24.3438ZM32.3119 24.4344L26.744 26.8094L17.5928 29.0938H8.90625V23.3048L12.0917 20.1193C12.2564 19.9529 12.4524 19.8207 12.6685 19.7305C12.8845 19.6403 13.1163 19.5939 13.3505 19.5938H20.7812C21.0962 19.5938 21.3982 19.7189 21.6209 19.9416C21.8436 20.1643 21.9688 20.4664 21.9688 20.7813C21.9688 21.0963 21.8436 21.3983 21.6209 21.621C21.3982 21.8437 21.0962 21.9688 20.7812 21.9688H16.625C16.1526 21.9688 15.6995 22.1565 15.3655 22.4906C15.0314 22.8246 14.8438 23.2777 14.8438 23.7501C14.8438 24.2225 15.0314 24.6756 15.3655 25.0096C15.6995 25.3437 16.1526 25.5313 16.625 25.5313H21.375C21.5093 25.5314 21.6433 25.5164 21.7743 25.4868L31.7196 23.1994L31.7894 23.1816C31.8908 23.154 31.9971 23.1501 32.1003 23.1703C32.2034 23.1905 32.3005 23.2341 32.384 23.2978C32.4676 23.3616 32.5353 23.4437 32.582 23.5378C32.6287 23.6319 32.6531 23.7356 32.6533 23.8406C32.654 23.961 32.6228 24.0793 32.5628 24.1836C32.5028 24.288 32.4162 24.3745 32.3119 24.4344Z" fill="#007BFF"/>
</g>
<defs>
<clipPath id="clip0_3631_4324">
<rect width="38" height="38" fill="white"/>
</clipPath>
</defs>
</svg>
