<svg width="30" height="30" viewBox="0 0 30 30" fill="none" xmlns="http://www.w3.org/2000/svg">
<g clip-path="url(#clip0_3637_5847)">
<path d="M15.4109 0C16.2629 0.2655 16.8097 0.99525 17.4944 1.52175C19.7039 3.22125 22.1796 3.89925 24.9381 4.104C25.6101 4.15275 26.1201 3.99 26.7659 4.32825C27.5616 4.746 27.7319 5.4765 27.7814 6.30375C27.8984 8.28825 27.8617 10.8142 27.7844 12.8137C27.5347 19.2847 25.3754 24.7013 19.6716 28.095C18.7251 28.6582 15.9809 30.0622 14.9691 30.0225C14.3781 30 13.0836 29.412 12.4986 29.151C6.1169 26.304 3.0989 21.3315 2.45315 14.4525C2.2259 12.0315 2.1929 8.73675 2.33615 6.30375C2.38415 5.4765 2.55515 4.746 3.3509 4.32825C3.99665 3.99 4.50815 4.1535 5.17865 4.104C7.9394 3.89925 10.4107 3.22275 12.6231 1.52175C13.3079 0.99525 13.8539 0.2655 14.7066 0H15.4109ZM25.9649 5.86275C22.4092 5.928 18.9869 4.9815 16.2044 2.754C16.0364 2.61975 15.1289 1.74675 15.0374 1.76325C12.1574 4.63575 8.20265 5.9625 4.1534 5.86275C4.1789 6.05325 4.1054 6.23175 4.0919 6.41775C3.91115 9.036 3.9839 12.8467 4.33715 15.441C5.2169 21.9037 8.86115 26.2845 15.0816 28.2585C21.2736 26.244 24.8999 21.9 25.7796 15.441C26.1329 12.8505 26.2049 9.033 26.0249 6.41775C26.0121 6.23175 25.9379 6.05325 25.9641 5.86275H25.9649Z" fill="#877BF1"/>
<path d="M17.6967 12.078H20.7162C20.7612 12.078 21.1227 12.3075 21.182 12.375C21.347 12.5618 21.3747 12.7478 21.3927 12.9855C21.4572 13.8135 21.4955 15.8355 21.3845 16.6185C21.3455 16.893 20.9915 17.3565 20.7155 17.3565H17.696V20.376C17.696 20.46 17.4815 20.7698 17.399 20.841C17.2062 21.0068 17.0322 21.033 16.79 21.0525C15.962 21.1178 13.9392 21.156 13.157 21.045C12.8817 21.0053 12.419 20.6513 12.419 20.376V17.3565H9.39949C9.12349 17.3565 8.76949 16.893 8.73049 16.6185C8.61949 15.8363 8.65774 13.8135 8.72299 12.9855C8.74174 12.7478 8.76799 12.5625 8.93374 12.375C8.99299 12.3083 9.35374 12.078 9.39874 12.078H12.4182V9.05853C12.4182 9.01428 12.6477 8.65203 12.7152 8.59353C12.9012 8.42853 13.088 8.40078 13.325 8.38278C14.153 8.31753 16.1757 8.27928 16.958 8.39028C17.108 8.41203 17.327 8.51403 17.4327 8.61978C17.4807 8.66778 17.6967 9.03453 17.6967 9.06003V12.0803V12.078ZM15.938 10.1438H14.1792V13.1633C14.1792 13.368 13.709 13.8375 13.505 13.8375H10.4847V15.597H13.505C13.7082 15.597 14.1792 16.0665 14.1792 16.2713V19.2908H15.938V16.2713C15.938 16.0665 16.4082 15.597 16.613 15.597H19.6325V13.8375H16.613C16.4082 13.8375 15.938 13.368 15.938 13.1633V10.1438Z" fill="#877BF1"/>
</g>
<defs>
<clipPath id="clip0_3637_5847">
<rect width="30" height="30" fill="white"/>
</clipPath>
</defs>
</svg>
