<svg width="28" height="28" viewBox="0 0 28 28" fill="none" xmlns="http://www.w3.org/2000/svg">
<g clip-path="url(#clip0_3637_5812)">
<path d="M6.61203 23.029C6.70093 22.4613 7.60673 21.4505 8.19473 21.4505H13.1738V18.178C13.1738 17.6404 14.2105 16.5218 14.7565 16.5218H19.7356V13.4026C19.7356 12.8048 20.6967 11.5931 21.3176 11.5931H23.055V8.2814H21.781C20.6582 8.2814 19.3485 9.0864 18.309 9.4378C16.7018 9.9796 13.4951 10.5578 13.1801 8.1596C13.0506 7.1719 13.0765 4.6414 13.1703 3.6194C13.2431 2.8284 13.815 2.0269 14.5976 1.8092C15.1331 1.6601 15.8709 1.7329 16.4463 1.6503C18.4658 1.3577 19.8385 0.179601 22.1681 0.0424012C22.887 -0.000298845 24.5656 -0.186499 24.6776 0.771801L24.672 11.3278L24.7924 11.5938H26.4136C27.0317 11.5938 28.0208 12.7523 27.997 13.4026L27.9998 27.1135C28.0033 27.6329 27.6337 28.0032 27.1115 27.9997H0.783134C0.108334 27.9171 -0.226966 27.257 0.170634 26.6907C0.225234 26.6137 0.489134 26.3792 0.553534 26.3792H6.49723L6.61273 26.2637C6.72333 25.2781 6.46433 23.9747 6.61273 23.0297L6.61203 23.029ZM23.055 1.7364H21.55C20.5007 1.7364 18.8081 2.7675 17.7 3.0552C17.1673 3.1931 16.538 3.2953 15.9913 3.3534C15.4439 3.4115 14.879 3.1189 14.7936 3.8525C14.697 4.6785 14.697 6.9577 14.7936 7.783C14.8692 8.4319 15.453 8.3206 15.9899 8.2807C17.8428 8.1435 19.7734 6.6644 21.3953 6.6644H23.055V1.7364ZM8.23393 26.3792H26.2589L26.3744 26.2637V13.5573C26.3744 13.4635 26.1063 13.1527 25.9544 13.2066C24.651 13.2969 23.2195 13.0995 21.9329 13.2066C21.7922 13.2185 21.6501 13.2185 21.5297 13.3046C21.2994 13.5349 21.5129 16.6989 21.4282 17.3226C21.3764 17.7041 21.1923 17.9792 20.8192 18.1017L14.9826 18.2095C14.8552 18.3327 14.8132 18.4643 14.7936 18.6372C14.6585 19.7957 14.9511 21.2657 14.7901 22.4067C14.7299 22.833 14.3911 23.0325 13.9879 23.0703C12.3345 23.2264 10.252 22.8491 8.65393 23.0626C8.52863 23.0787 8.23393 23.2383 8.23393 23.3356V26.3778V26.3792Z" fill="#877BF1"/>
</g>
<defs>
<clipPath id="clip0_3637_5812">
<rect width="28" height="28" fill="white"/>
</clipPath>
</defs>
</svg>
