<svg width="30" height="30" viewBox="0 0 30 30" fill="none" xmlns="http://www.w3.org/2000/svg">
<g clip-path="url(#clip0_3637_5855)">
<path d="M9.33096 5.30319C9.97146 5.23344 10.4942 5.39769 10.9937 5.79744L24.169 18.9719C25.1282 20.0534 24.7645 21.7004 23.527 22.3829C16.4807 24.9142 9.47421 27.5984 2.38521 29.9902C0.974456 30.1229 -0.177544 28.8929 0.0227059 27.4897C2.55771 20.3714 5.08071 13.2202 7.80771 6.17994C8.19171 5.70294 8.71371 5.36994 9.33246 5.30244L9.33096 5.30319ZM22.5205 20.4494L9.55296 7.48044L7.79871 12.4882L17.4752 22.1722L22.5197 20.4494H22.5205ZM6.97896 14.7562L5.18721 19.5569L5.22471 19.8014L10.2872 24.8324L15.1802 23.0932L6.98046 14.7562H6.97896ZM7.97496 25.7332L4.26996 22.0282L2.21121 27.7919L7.97346 25.7324L7.97496 25.7332Z" fill="#877BF1"/>
<path d="M25.3838 1.11454C26.9993 0.853536 26.7668 2.69479 26.4511 3.69079C25.9148 5.37754 24.5566 6.37354 22.8203 6.57829C21.9638 6.68029 21.2206 6.47779 20.5988 7.30804C20.1353 7.92829 20.2516 8.48479 20.0731 9.11554C19.7401 10.284 17.7968 10.2 17.9326 8.41504C18.0511 6.85354 19.0538 5.28154 20.5321 4.70179C21.3136 4.39579 21.8446 4.46704 22.6223 4.39129C23.3971 4.31404 23.9573 3.93979 24.2693 3.22504C24.5926 2.48029 24.3473 1.28329 25.3846 1.11529L25.3838 1.11454Z" fill="#877BF1"/>
<path d="M28.6768 7.70221C29.9023 7.51246 30.4798 8.96671 29.5146 9.70621L25.7721 10.9745C24.5826 11.0705 24.0448 9.69646 24.9936 8.95846C26.1096 8.68321 27.5871 7.87096 28.6768 7.70221Z" fill="#877BF1"/>
<path d="M15.5028 0.0171314C16.168 -0.0908686 16.7523 0.320881 16.825 0.995131C16.897 1.67013 16.9203 3.94938 16.8085 4.61688C16.6105 5.79438 14.7678 5.79663 14.629 4.49538C14.5525 3.78738 14.533 1.54188 14.6455 0.874381C14.7123 0.475381 15.0955 0.0831314 15.5028 0.0163814V0.0171314Z" fill="#877BF1"/>
<path d="M25.3827 13.1932C25.6782 13.1452 25.9685 13.1864 26.2205 13.3514C26.4725 13.5164 28.5635 15.6089 28.7247 15.8564C29.3795 16.8584 28.1907 18.0494 27.188 17.3939C26.9405 17.2319 24.845 15.1364 24.6837 14.8889C24.2682 14.2529 24.6237 13.3162 25.3827 13.1932Z" fill="#877BF1"/>
</g>
<defs>
<clipPath id="clip0_3637_5855">
<rect width="30" height="30" fill="white"/>
</clipPath>
</defs>
</svg>
