<svg width="30" height="31" viewBox="0 0 30 31" fill="none" xmlns="http://www.w3.org/2000/svg">
<g clip-path="url(#clip0_3637_5837)">
<path d="M28.5365 25.7602C28.2676 24.5884 27.4089 23.4964 26.2573 22.8369C27.0741 21.9247 27.2531 20.687 26.699 19.5865C26.1387 18.4744 25.0134 17.873 23.7726 17.9947V11.3049C23.7726 10.9282 24.5701 9.2333 24.9979 8.32345C25.2033 7.88635 25.3807 7.50815 25.4745 7.2834L25.5861 7.0168C26.2309 5.473 27.3097 2.88837 27.1462 1.49105C27.0788 0.916773 26.8393 0.480448 26.4502 0.227798C26.0666 -0.0217518 25.5745 -0.0667018 25.0242 0.0983732C24.0105 0.401398 23.8586 0.978773 23.6974 1.59025C23.6517 1.76152 23.606 1.93822 23.5378 2.12267C23.1038 3.30532 22.4667 4.45232 21.7437 5.3645V5.06922C21.7437 4.48797 20.9803 3.59827 20.6548 3.34562C19.7597 2.652 18.5786 2.55357 17.5749 3.08677C16.5481 3.63237 15.9645 4.68172 16.0521 5.8264C16.0986 6.42625 16.3489 6.90287 16.6496 7.3268C15.9172 7.49962 15.2383 7.84372 14.578 8.18007C14.4656 8.23742 14.3509 8.29477 14.237 8.3529V2.25287C14.237 1.73905 13.3527 1.0152 12.8459 1.00435L3.03671 1.0059L3.00261 1.00822C2.37176 1.08572 1.86956 1.49105 1.62621 2.1188L1.60761 2.16685L1.58203 15.6852L1.58746 15.7115C1.73781 16.4764 2.33068 16.9616 3.21496 17.0445L3.23511 17.0461H3.25526C4.67661 16.9717 6.17701 17.0166 7.62703 17.06C9.22973 17.1073 10.8882 17.1569 12.4599 17.0484C13.059 17.0073 13.8906 16.8415 14.2083 15.8688L14.2207 15.8285L14.2463 12.8262L14.833 12.527V18.4876C14.1153 18.9076 13.6511 19.6322 13.5511 20.501C13.4519 21.3628 13.7309 22.2316 14.2897 22.8578C13.5992 23.2143 12.9916 23.7723 12.6173 24.3931C12.5669 24.3256 12.5181 24.2543 12.4685 24.1823C12.3266 23.9761 12.1809 23.763 11.9895 23.5801C11.7121 23.3143 11.3711 23.1097 11.0417 22.9128C11.0122 22.895 10.9836 22.8779 10.9549 22.8609C11.9802 21.7472 11.8671 20.3228 11.2564 19.3463C10.6162 18.3209 9.26151 17.57 7.67663 18.2055C6.72881 18.5852 6.06851 19.4083 5.90886 20.408C5.76626 21.307 6.03751 22.1959 6.64046 22.8578C5.60971 23.3871 4.73861 24.4287 4.40923 25.5656C4.11396 26.5824 4.11318 29.1314 4.21083 30.1808C4.25888 30.6961 4.54408 31.0007 4.96956 31.0007C4.97731 31.0007 4.98506 31.0007 4.99281 31.0007L27.9274 30.9976H27.9429C28.356 30.9736 28.5916 30.7457 28.6412 30.3195C28.7497 29.4011 28.7311 26.6134 28.5365 25.764V25.7602ZM19.893 6.5611C19.2342 7.2152 18.4468 7.02532 17.9586 6.54947C17.4866 6.08757 17.2719 5.2901 17.9183 4.63057C18.2438 4.2981 18.5786 4.19967 18.8599 4.19967C18.9769 4.19967 19.0854 4.21672 19.1792 4.24075C19.6922 4.37172 20.1301 4.79952 20.2696 5.3056C20.3564 5.6218 20.3611 6.0961 19.893 6.5611ZM16.3814 23.7986C17.406 23.7785 18.7041 24.259 19.2807 25.6602C19.3241 25.7664 19.4706 26.1756 19.4985 26.2825V29.5057H13.3558V26.4623C13.3597 26.374 13.4705 26.0058 13.5581 25.7664C14.0812 24.345 15.3592 23.818 16.3814 23.7986ZM17.6431 20.0484C17.9586 20.6018 17.8787 21.4202 17.4595 21.9115C17.2045 22.2114 16.7271 22.5083 15.9071 22.2161C15.1724 21.9534 14.9671 21.2644 15.0151 20.7544C15.0639 20.2375 15.3894 19.5919 16.1489 19.471C17.0324 19.3323 17.4494 19.7074 17.6431 20.0484ZM19.118 19.7229C18.6328 18.6294 17.5594 17.9598 16.3326 17.9598H16.3318L16.3342 11.3025L16.3311 11.2591C16.2884 11.0003 16.1784 10.8127 16.0032 10.7004C15.8203 10.5833 15.5863 10.5616 15.305 10.636L15.2809 10.6422L9.38008 13.3989C9.34133 13.3981 9.31266 13.3943 9.29251 13.3904C9.31653 13.3261 9.38783 13.2075 9.51958 13.0796C10.7433 11.8923 15.1934 9.28367 16.8433 8.78457C17.4486 8.60167 18.0446 8.58307 18.6212 8.56525C19.4807 8.5389 20.3704 8.51255 21.2353 7.93285C22.9162 6.806 24.3329 4.35545 24.9917 2.4257C25.0304 2.31332 25.0599 2.19862 25.0893 2.0878C25.1552 1.83747 25.218 1.60032 25.3428 1.53057C25.411 1.49182 25.5156 1.49337 25.6156 1.5112C25.7558 2.0258 25.5784 2.61867 25.4055 3.19295C25.3846 3.26347 25.3629 3.33245 25.3435 3.40142C25.0335 4.4624 24.5631 5.60165 24.1493 6.60605C23.9904 6.99045 23.7819 7.42832 23.5618 7.891C23.0061 9.05582 22.3768 10.3756 22.28 11.4234C22.166 12.6642 22.2133 13.9972 22.259 15.2853C22.2986 16.3966 22.3396 17.5444 22.2745 18.6162C21.615 19.1138 21.2159 19.8717 21.1756 20.7103C21.1376 21.4946 21.4158 22.2696 21.9335 22.8547C21.2779 23.1934 20.6974 23.7204 20.2712 24.3621C19.8333 23.7421 19.2916 23.2492 18.6034 22.8431C19.3915 21.9572 19.5923 20.7916 19.1172 19.7237L19.118 19.7229ZM12.8033 9.13255C12.4003 9.3945 11.9787 9.64637 11.5354 9.91297C10.5395 10.5089 9.50951 11.1251 8.66941 11.8753C8.30671 12.1992 7.20156 13.1827 8.19821 14.3677C8.91276 15.2163 9.75363 14.852 10.4287 14.5591C10.4845 14.5358 10.5395 14.511 10.5961 14.4878C11.013 14.3119 11.4253 14.1057 11.8229 13.9065C12.143 13.7461 12.4723 13.5818 12.8025 13.4338V15.4162C12.7653 15.4736 12.6475 15.5588 12.5979 15.5619H12.5855H3.29788C3.19093 15.565 3.11421 15.5333 3.08553 15.5023C3.07933 15.4953 3.06538 15.4798 3.07003 15.4302L3.07158 15.4162L3.10878 2.5094L12.7482 2.59L12.8064 2.76515L12.804 9.1341L12.8033 9.13255ZM25.3652 21.5434C25.1544 22.0099 24.7328 22.2882 24.1772 22.3261C23.2611 22.3897 22.7667 21.734 22.6845 21.0544C22.6039 20.3972 22.9178 19.6206 23.7959 19.4703C24.5468 19.3416 24.9653 19.6485 25.1847 19.9275C25.5241 20.3615 25.5993 21.0257 25.366 21.5426L25.3652 21.5434ZM20.9989 26.4608C20.9989 25.8098 21.3259 25.1727 21.918 24.6666C22.6744 24.0211 23.7393 23.6894 24.6313 23.8227C25.6683 23.9769 27.1423 25.2642 27.1423 26.26V29.5065H20.9997L20.9989 26.4608ZM6.01271 25.4928C6.44748 24.5767 7.33718 23.9529 8.39196 23.8234C9.47076 23.6909 10.51 24.0908 11.1727 24.8929C11.4416 25.2192 11.8554 26.0446 11.8554 26.3267V29.5057H5.71278V26.4003C5.72906 26.2748 5.94218 25.64 6.01271 25.4928ZM9.94738 21.7371C9.51493 22.3192 9.00576 22.3742 8.65391 22.3184C8.08428 22.2277 7.56038 21.7821 7.37981 21.2357C7.26821 20.897 7.24186 20.3855 7.75413 19.8702C8.06568 19.5563 8.41443 19.4284 8.75001 19.4284C9.11271 19.4284 9.45991 19.5772 9.72728 19.8043C10.2334 20.2329 10.4984 20.997 9.94738 21.7364V21.7371Z" fill="#877BF1"/>
<path d="M4.82696 6.7565C4.89516 6.7813 4.96336 6.79447 5.02923 6.79447C5.13928 6.79447 5.24236 6.7596 5.33226 6.69062L7.52861 4.97787L7.56038 4.94997C7.80683 4.68802 7.85721 4.33307 7.68903 4.04632C7.52396 3.7619 7.19148 3.63015 6.84196 3.70842C6.56761 3.7712 6.22893 4.05795 5.70348 4.5245C5.50896 4.69732 5.30901 4.8748 5.16098 4.9833C5.14006 4.94997 5.11991 4.91432 5.09743 4.87712C4.95251 4.6299 4.73396 4.25557 4.23253 4.28657C4.03491 4.29975 3.84581 4.40592 3.71406 4.5772C3.57921 4.7539 3.52651 4.96702 3.56913 5.1631C3.62493 5.4204 4.25811 6.55112 4.82463 6.75805L4.82696 6.7565Z" fill="#877BF1"/>
<path d="M6.8511 7.48172C6.57752 7.55534 6.22722 7.84752 5.72347 8.28539C5.52507 8.45822 5.32125 8.63569 5.16547 8.75039C4.94537 8.33034 4.59352 7.98392 4.15255 8.06142C3.8131 8.12109 3.53487 8.47992 3.5558 8.83099C3.57052 9.08054 4.2099 10.264 4.7741 10.5089C4.85935 10.5453 4.94305 10.5639 5.02365 10.5639C5.1399 10.5639 5.24762 10.5251 5.33907 10.4515L7.50132 8.77597C7.7935 8.55199 7.88185 8.18542 7.72142 7.86379C7.56177 7.54527 7.20372 7.38794 6.8511 7.48172Z" fill="#877BF1"/>
<path d="M6.67339 11.3297L6.66099 11.3359C6.51374 11.4142 6.26807 11.6219 5.88057 11.9528C5.65659 12.145 5.34117 12.4147 5.16214 12.5426C5.14587 12.5147 5.12882 12.4853 5.11642 12.4605C4.99164 12.238 4.82192 11.935 4.50649 11.8753C4.23059 11.8234 3.95779 11.9001 3.77567 12.0799C3.60982 12.2458 3.54162 12.4783 3.58889 12.7185C3.62764 12.9185 4.32359 14.0198 4.43752 14.1236C4.62197 14.2926 4.79324 14.353 4.94824 14.353C5.17764 14.353 5.37062 14.2213 5.51942 14.1213L5.58684 14.0756C5.92397 13.8516 7.33059 12.7728 7.58557 12.4481C7.87154 12.083 7.86689 11.701 7.57239 11.4251C7.34997 11.2181 6.88419 11.2298 6.67339 11.3297Z" fill="#877BF1"/>
</g>
<defs>
<clipPath id="clip0_3637_5837">
<rect width="31" height="31" fill="white"/>
</clipPath>
</defs>
</svg>
