<svg width="38" height="38" viewBox="0 0 38 38" fill="none" xmlns="http://www.w3.org/2000/svg">
<path d="M30.875 2.96875H10.6875C9.27025 2.96875 7.91105 3.53175 6.9089 4.5339C5.90675 5.53605 5.34375 6.89525 5.34375 8.3125V33.25C5.34375 33.7224 5.53142 34.1755 5.86547 34.5095C6.19951 34.8436 6.65258 35.0312 7.125 35.0312H28.5C28.9724 35.0312 29.4255 34.8436 29.7595 34.5095C30.0936 34.1755 30.2812 33.7224 30.2812 33.25C30.2812 32.7776 30.0936 32.3245 29.7595 31.9905C29.4255 31.6564 28.9724 31.4688 28.5 31.4688H8.90625V30.875C8.90625 30.4026 9.09392 29.9495 9.42797 29.6155C9.76201 29.2814 10.2151 29.0938 10.6875 29.0938H30.875C31.3474 29.0938 31.8005 28.9061 32.1345 28.572C32.4686 28.238 32.6562 27.7849 32.6562 27.3125V4.75C32.6562 4.27758 32.4686 3.82452 32.1345 3.49047C31.8005 3.15642 31.3474 2.96875 30.875 2.96875ZM29.0938 25.5312H10.6875C10.0806 25.5301 9.47803 25.6335 8.90625 25.837V8.3125C8.90625 7.84008 9.09392 7.38701 9.42797 7.05297C9.76201 6.71892 10.2151 6.53125 10.6875 6.53125H29.0938V25.5312Z" fill="white"/>
</svg>
