<svg width="30" height="30" viewBox="0 0 30 30" fill="none" xmlns="http://www.w3.org/2000/svg">
<g clip-path="url(#clip0_3637_5820)">
<path d="M0.0234375 16.7166C0.224438 16.3378 0.417938 16.1136 0.870188 16.0693L29.2314 16.0708C29.9387 16.1676 30.2739 16.9813 29.8134 17.5356C29.7602 17.6001 29.3867 17.8303 29.3462 17.8303H16.6029L21.1457 25.5088C21.2874 26.0503 20.8982 26.6151 20.3259 26.6278L9.42319 26.5701C9.02569 26.4358 8.77369 25.9108 8.89819 25.5088L13.4402 17.8303H0.696938C0.673688 17.8303 0.321187 17.6308 0.285937 17.5971C0.159187 17.4808 0.152438 17.2956 0.0234375 17.1853V16.7166ZM11.3312 24.8668H18.7134L14.9934 18.7101L11.3312 24.8668Z" fill="#877BF1"/>
<path d="M0.0225 9.62245C-0.0075 9.32845 -0.0075 8.7442 0.0225 8.4502C0.375 4.95745 4.173 2.8297 7.3665 4.1782C11.3573 5.86195 11.676 11.4765 7.9125 13.62C4.65375 15.4747 0.399 13.3522 0.0225 9.62245ZM4.872 5.53495C0.393 6.0457 1.032 12.9465 5.616 12.5535C10.2188 12.1597 9.594 4.99645 4.872 5.53495Z" fill="#877BF1"/>
<path d="M24.2074 3.77623C28.4974 3.35923 31.4944 7.99873 29.2834 11.7285C27.0724 15.4575 21.5606 15.0675 19.8934 11.1082C18.5209 7.85473 20.6869 4.11823 24.2074 3.77623ZM24.3236 5.53498C19.8446 6.04573 20.4836 12.9465 25.0676 12.5535C29.6704 12.1597 29.0456 4.99648 24.3236 5.53498Z" fill="#877BF1"/>
</g>
<defs>
<clipPath id="clip0_3637_5820">
<rect width="30" height="30" fill="white"/>
</clipPath>
</defs>
</svg>
