<svg width="30" height="30" viewBox="0 0 30 30" fill="none" xmlns="http://www.w3.org/2000/svg">
<g clip-path="url(#clip0_3637_5829)">
<path d="M24.8445 16.773L25.1677 16.5855L25.1835 16.572C25.8825 15.9315 26.7052 15.3315 27.501 14.7525C28.341 14.1405 29.2087 13.5075 29.9392 12.8227L29.979 12.7852C30.1283 12.6465 30.258 12.522 30.318 12.4005C30.4725 12.0877 30.4282 11.7495 30.1995 11.4975C29.955 11.2282 29.5575 11.136 29.2095 11.2672L29.1818 11.2777L24.3135 15.0922H18.273V12.9037H24.7327C24.7943 12.9037 24.9083 12.9037 25.416 12.4777C26.6858 11.4112 28.1017 10.0492 29.4435 8.74496C29.4907 8.69846 29.5417 8.65196 29.5935 8.60246C30.0023 8.21546 30.5115 7.73396 30.4095 7.25021C30.3503 6.96896 30.1073 6.75596 29.6663 6.59996L29.634 6.58871L23.589 6.59321C23.4338 6.20996 23.139 6.00146 22.749 6.00146H13.0118C12.6503 5.98946 12.4118 6.20096 12.2025 6.38846C12.1185 6.46346 12.0382 6.53546 11.9543 6.58871L5.5815 6.61496L4.94775 7.06496L4.91925 7.08971C4.1985 7.85321 3.366 8.57846 2.5605 9.27972C1.773 9.96521 0.96 10.674 0.24975 11.4195C0.201 11.4705 0.171 11.5275 0.144 11.5785C0.12525 11.6145 0.1035 11.655 0.087 11.6655L0 11.7232V12.2895L0.02475 12.3337C0.0285 12.3397 0.36075 12.903 0.69375 12.903H6.7425V15.0915H0.69375C0.375 15.0915 0.08175 15.5272 0.0165 15.678L0 15.7155V16.1595L0.02475 16.2045C0.0285 16.2097 0.36075 16.773 0.69375 16.773H6.7425V19.0785H0.69375C0.375 19.0785 0.08175 19.5142 0.0165 19.665L0 19.7025V20.1465L0.02475 20.1915C0.0285 20.1967 0.36075 20.76 0.69375 20.76H6.7425V23.0062H0.69375C0.375 23.0062 0.08175 23.4427 0.0165 23.5927L0 23.631V24.0847L0.03525 24.1357C0.0555 24.1657 0.075 24.1942 0.09375 24.222C0.2085 24.3937 0.327 24.5715 0.60825 24.6532L0.63525 24.6607L24.6712 24.6847H24.723L24.7673 24.66C25.8877 24.0277 26.9768 23.3002 28.029 22.5967C28.6808 22.161 29.355 21.711 30.0285 21.2887L30.0465 21.276C30.4905 20.9212 30.477 20.427 30.2767 20.1172C30.0825 19.8157 29.649 19.608 29.1562 19.8607L29.1472 19.8652L24.3825 23.007H18.2752V20.7607H24.7965L30.1245 16.9717L30.153 16.9477C30.4935 16.5915 30.4537 16.1475 30.2625 15.8647C30.0337 15.5257 29.616 15.4042 29.2223 15.5617L29.1997 15.5715L24.3772 19.0792H18.276V16.7737H24.846L24.8445 16.773ZM19.3927 11.2215L22.524 8.27096H27.4095C26.8658 8.82371 26.2905 9.35471 25.731 9.87146C25.2577 10.3087 24.7688 10.7595 24.3015 11.2215H19.3927ZM3.02925 11.2215L6.10875 8.27096H10.1453L7.065 11.2215H3.02925ZM16.9387 11.133C16.866 11.2095 16.593 11.5695 16.593 11.7982V23.0062H8.424V12.2355L13.26 7.68521H20.6887C20.6745 7.69946 20.6588 7.71371 20.6437 7.72721C20.2477 8.09171 19.8353 8.45696 19.398 8.84321C18.5505 9.59171 17.6745 10.3665 16.938 11.1337L16.9387 11.133Z" fill="#877BF1"/>
<path d="M15.8085 14.2944C16.062 14.0686 16.1572 13.7529 16.0612 13.4491C15.9577 13.1184 15.6555 12.8769 15.291 12.8334L15.2767 12.8319H15.2617C14.5837 12.8551 13.8525 12.8274 13.146 12.8004C12.2107 12.7651 11.2425 12.7284 10.3515 12.8041C9.63896 12.8649 9.37646 13.3066 9.36746 13.6666C9.35696 14.0821 9.65021 14.4354 10.0477 14.4886C10.338 14.5276 10.6492 14.5186 10.9522 14.5104C11.6872 14.4901 12.3345 14.4721 12.714 15.0339H10.0185C9.93071 15.0339 9.79721 15.0654 9.66296 15.2139C9.48296 15.4104 9.35921 15.7471 9.38171 15.9811C9.40946 16.2849 9.77396 16.7161 10.077 16.7161H12.6472C12.294 17.1856 11.688 17.1631 11.0025 17.1376C10.725 17.1271 10.4362 17.1159 10.1722 17.1459C9.82646 17.1849 9.55946 17.3701 9.43946 17.6514C9.31271 17.9506 9.37121 18.3061 9.59846 18.6039L13.335 22.0996L13.3552 22.1116C13.5187 22.2046 13.6785 22.2436 13.8277 22.2436C14.0895 22.2436 14.3152 22.1199 14.4577 21.9504C14.6835 21.6811 14.7592 21.2266 14.4217 20.8209L12.219 18.7786C12.225 18.7779 12.2302 18.7764 12.2355 18.7749C12.399 18.7449 12.567 18.7134 12.7372 18.6504C13.5547 18.3489 14.202 17.6551 14.5282 16.7371C14.577 16.7356 14.628 16.7349 14.6805 16.7341C15.0922 16.7266 15.6045 16.7184 15.8902 16.4184C16.0282 16.2744 16.0942 16.0831 16.0875 15.8499C16.062 15.0271 15.3135 15.0271 14.8177 15.0279C14.7127 15.0279 14.6115 15.0279 14.5207 15.0226L14.3272 14.5479H15.237C15.3892 14.5479 15.7192 14.3769 15.81 14.2966L15.8085 14.2944Z" fill="#877BF1"/>
</g>
<defs>
<clipPath id="clip0_3637_5829">
<rect width="30" height="30" fill="white"/>
</clipPath>
</defs>
</svg>
