<svg width="233" height="48" viewBox="0 0 233 48" fill="none" xmlns="http://www.w3.org/2000/svg">
<path d="M44.0059 33.5184V12.7709H52.1203C54.5813 12.7709 56.582 13.2357 58.1225 14.1653C59.6631 15.0948 60.4333 16.6474 60.4333 18.8231C60.4333 21.4536 59.1738 23.2732 56.6547 24.2819L61.7704 33.5431H58.2824L53.7189 24.9643C53.1764 25.0236 52.6144 25.0533 52.0331 25.0533H47.0046V33.5431L44.0107 33.5135L44.0059 33.5184ZM55.3467 21.8393C56.083 21.592 56.6014 21.2261 56.9017 20.7416C57.2021 20.257 57.3523 19.6191 57.3523 18.828C57.3523 18.0369 57.1924 17.4682 56.8727 17.0034C56.5529 16.5387 56.0055 16.1925 55.2304 15.9651C54.4553 15.7376 53.3895 15.6239 52.0331 15.6239H47.0046V22.2101H52.2656C53.5833 22.2101 54.6103 22.0865 55.3467 21.8393Z" fill="white"/>
<path d="M62.7876 31.8275C61.3537 30.443 60.6367 28.5146 60.6367 26.0423C60.6367 23.57 61.3682 21.602 62.8312 20.1978C64.2943 18.7935 66.2756 18.0914 68.7754 18.0914C71.2751 18.0914 73.2129 18.7886 74.6468 20.1829C76.0808 21.5773 76.7977 23.5106 76.7977 25.9829V26.6653H63.5385C63.6354 28.0498 64.1199 29.1623 64.9919 30.0029C65.8639 30.8435 67.0943 31.2638 68.6833 31.2638C69.9816 31.2638 71.0377 30.9869 71.8516 30.4331C72.6654 29.8793 73.2177 29.0783 73.5084 28.03H76.6185C76.1922 29.8892 75.3008 31.3281 73.9444 32.3466C72.5879 33.3652 70.8342 33.8844 68.6833 33.9042C66.1836 33.9042 64.2168 33.212 62.7828 31.8275H62.7876ZM72.2246 21.7652C71.3817 21.0532 70.2045 20.6972 68.693 20.6972C67.3947 20.6972 66.2999 21.0334 65.4085 21.7059C64.5171 22.3783 63.9455 23.3673 63.6936 24.6726H73.7845C73.5907 23.4464 73.0724 22.4772 72.2294 21.7652H72.2246Z" fill="white"/>
<path d="M76.2502 18.65H79.5929L84.6796 29.899L89.8244 18.65H93.0217L85.8713 33.5481H83.3425L76.2502 18.65Z" fill="white"/>
<path d="M94.2909 31.8125C92.8667 30.4181 92.1545 28.4848 92.1545 26.0125C92.1545 24.3907 92.4888 22.9815 93.1573 21.7849C93.8259 20.5883 94.7754 19.6735 96.0059 19.0406C97.2364 18.4077 98.6655 18.0912 100.293 18.0912C102.774 18.0912 104.736 18.7884 106.179 20.1828C107.623 21.5772 108.345 23.5105 108.345 25.9828C108.345 27.6047 108.01 29.0089 107.342 30.1956C106.673 31.3823 105.729 32.2971 104.508 32.9399C103.287 33.5827 101.853 33.9041 100.206 33.9041C97.6869 33.9041 95.7152 33.2069 94.2909 31.8125ZM104.12 29.8544C105.021 28.915 105.472 27.6244 105.472 25.9828C105.472 24.3412 105.021 23.0507 104.12 22.1112C103.219 21.1717 101.926 20.702 100.24 20.702C98.554 20.702 97.2606 21.1717 96.3595 22.1112C95.4584 23.0507 95.0079 24.3511 95.0079 26.0125C95.0079 27.6739 95.4536 28.9397 96.345 29.8693C97.2364 30.7989 98.525 31.2637 100.211 31.2637C101.897 31.2637 103.219 30.7939 104.12 29.8544Z" fill="white"/>
<path d="M111.827 32.3762C110.325 31.3379 109.574 29.9089 109.574 28.0893L111.58 28.0596C111.58 29.3847 112.127 30.4182 113.222 31.1598C114.317 31.9015 116.085 32.2724 118.527 32.2724C120.833 32.2724 122.519 31.8966 123.584 31.145C124.65 30.3934 125.183 29.365 125.183 28.0596C125.183 27.2882 125.023 26.6454 124.703 26.1312C124.384 25.617 123.817 25.1769 123.003 24.811C122.189 24.4451 121.056 24.1632 119.602 23.9655L116.666 23.5501C114.264 23.2139 112.495 22.6156 111.362 21.7552C110.228 20.8949 109.661 19.5944 109.661 17.8539C109.661 16.1134 110.378 14.7339 111.812 13.7746C113.246 12.8154 115.32 12.316 118.033 12.2764C120.765 12.2962 122.853 12.7808 124.296 13.7301C125.74 14.6795 126.481 16.0244 126.52 17.7649H124.631C124.631 16.5782 124.088 15.6388 123.003 14.9465C121.918 14.2543 120.261 13.9081 118.033 13.9081C115.804 13.9081 114.191 14.2543 113.135 14.9465C112.079 15.6388 111.551 16.5881 111.551 17.7946C111.551 19.0011 111.948 19.8169 112.742 20.4202C113.537 21.0234 114.893 21.4635 116.812 21.7404L119.922 22.1854C122.499 22.5612 124.355 23.199 125.488 24.099C126.622 24.9989 127.189 26.329 127.189 28.0893C127.189 29.8495 126.452 31.3379 124.98 32.3762C123.507 33.4146 121.366 33.9338 118.556 33.9338H118.527C115.562 33.9338 113.329 33.4146 111.827 32.3762Z" fill="white"/>
<path d="M130.785 31.8423C129.361 30.4479 128.648 28.5146 128.648 26.0423C128.648 23.57 129.385 21.602 130.857 20.1978C132.33 18.7935 134.326 18.0914 136.845 18.0914C139.364 18.0914 141.341 18.7836 142.775 20.1681C144.209 21.5526 144.926 23.4909 144.926 25.9829C144.926 28.475 144.199 30.3985 142.746 31.8126C141.292 33.2268 139.297 33.9339 136.758 33.9339C134.22 33.9339 132.209 33.2367 130.785 31.8423ZM141.501 30.6853C142.566 29.548 143.099 27.9806 143.099 25.9829C143.099 23.9853 142.566 22.4228 141.501 21.2955C140.435 20.1681 138.856 19.6044 136.763 19.6044C134.67 19.6044 133.13 20.1681 132.083 21.2955C131.037 22.4228 130.514 23.9952 130.514 26.0126C130.514 28.03 131.037 29.5727 132.083 30.7001C133.13 31.8275 134.689 32.3911 136.763 32.3911C138.836 32.3911 140.435 31.8225 141.501 30.6853Z" fill="white"/>
<path d="M146.383 12.7759H148.127V33.5482H146.383V12.7759Z" fill="white"/>
<path d="M149.58 18.7093H151.76L157.69 31.8273L163.706 18.7093H165.712L158.586 33.548H156.667L149.57 18.7093H149.58Z" fill="white"/>
<path d="M167.859 31.8423C166.435 30.4479 165.723 28.5146 165.723 26.0423C165.723 23.57 166.459 21.602 167.932 20.1978C169.404 18.7935 171.4 18.0914 173.919 18.0914C176.439 18.0914 178.415 18.7836 179.849 20.1681C181.283 21.5526 182 23.4909 182 25.9829V26.4873H167.578C167.675 28.3465 168.247 29.7952 169.293 30.8336C170.339 31.872 171.851 32.3911 173.827 32.3911C175.571 32.3911 176.962 31.9956 177.998 31.2044C179.035 30.4133 179.699 29.2958 179.99 27.852H181.85C181.482 29.7705 180.6 31.2638 179.205 32.3318C177.81 33.3998 176.017 33.9339 173.827 33.9339C171.27 33.9339 169.278 33.2367 167.854 31.8423H167.859ZM178.294 21.0087C177.238 20.0692 175.751 19.5995 173.832 19.5995C171.914 19.5995 170.465 20.0692 169.429 21.0087C168.392 21.9482 167.796 23.2684 167.641 24.9693H180.115C179.96 23.2684 179.355 21.9482 178.299 21.0087H178.294Z" fill="white"/>
<path d="M16.3388 19.3125L23.184 26.3981H35.6196V8.49371H4V37.2218H10.6514C10.6514 37.2218 10.9421 36.9499 10.9421 36.9251V29.35L18.7513 37.2218H35.6196V30.1362H21.6434L11.0438 19.3125V19.3026V15.3815H28.4499V19.3174H16.3436L16.3388 19.3125ZM28.5807 19.3125H28.5274C28.5564 19.3125 28.5807 19.3075 28.5807 19.3125Z" fill="white"/>
</svg>
