<svg width="629" height="427" viewBox="0 0 629 427" fill="none" xmlns="http://www.w3.org/2000/svg">
<style>
@keyframes growY {
  0% {
    transform: scaleY(0);
  }
  100% {
    transform: scaleY(1);
  }
}
@keyframes growX {
  0% {
    transform: scaleX(0);
  }
  100% {
    transform: scaleX(1);
  }
}
.bar-y {
  transform: scaleY(0);
  animation: growY 1.2s cubic-bezier(0.25, 1, 0.5, 1) forwards;
}
.bar-x {
  transform: scaleX(0);
  animation: growX 1.2s cubic-bezier(0.25, 1, 0.5, 1) forwards;
}
</style>
<rect width="629" height="427" rx="16" fill="#371C93"/>
<rect x="24" y="25" width="188.667" height="62" rx="4" fill="#250069"/>
<path d="M98.372 63.24C94.052 63.24 92.112 61.48 92.212 58.68L94.412 58.64C94.412 60.46 95.472 61.32 98.372 61.32C101.092 61.32 102.232 60.46 102.232 59.08C102.232 57.9 101.732 57.32 99.012 56.94L97.112 56.68C93.992 56.24 92.212 55.2 92.212 52.64C92.212 50.12 94.332 48.74 98.052 48.68C102.012 48.72 103.992 50.26 103.932 53.02H101.792C101.792 51.38 100.592 50.58 98.072 50.58C95.452 50.58 94.312 51.36 94.312 52.6C94.312 53.82 94.932 54.32 97.332 54.66L99.332 54.94C102.812 55.44 104.412 56.58 104.412 59.1C104.412 61.62 102.332 63.24 98.392 63.24H98.372ZM106.62 56.14C106.7 53.7 108.16 52.62 111.22 52.58C114.46 52.58 115.78 53.92 115.78 56.44V63H113.86V61.66C113.12 62.52 112.06 63.18 110.22 63.16C107.74 63.14 106.04 62.08 106.04 59.94C106.04 57.12 108.96 56.68 111.94 56.64L113.84 56.6V56.34C113.84 54.9 113.26 54.3 111.22 54.3C109.3 54.3 108.66 54.86 108.58 56.14H106.62ZM108 59.96C108 60.86 108.64 61.44 110.38 61.44C112.46 61.44 113.84 60.68 113.84 59.2V58.1L112.08 58.16C108.92 58.26 108 58.74 108 59.96ZM117.563 63V49H119.483V63H117.563ZM130.078 57.02C129.918 55.34 128.738 54.34 126.658 54.34C124.618 54.34 123.418 55.34 123.278 57.02H130.078ZM121.118 57.92C121.118 54.58 123.338 52.58 126.718 52.58C130.118 52.58 132.278 54.56 132.258 57.9L132.238 58.54H123.198C123.338 60.32 124.458 61.46 126.658 61.46C128.578 61.46 129.678 60.66 130.038 59.28H132.118C131.518 61.88 129.478 63.24 126.658 63.24C123.198 63.24 121.118 61.24 121.118 57.92ZM135.775 60.16C135.895 61 136.675 61.44 138.435 61.48C140.335 61.48 141.255 61.02 141.255 60.1C141.255 59.38 140.935 58.88 139.035 58.62L137.775 58.46C135.075 58.12 133.815 57.46 133.815 55.58C133.815 53.74 135.555 52.58 138.335 52.58C141.015 52.58 142.635 53.66 142.895 55.44H140.975C140.835 54.68 139.995 54.32 138.335 54.3C136.615 54.32 135.695 54.8 135.695 55.58C135.695 56.28 136.135 56.66 137.855 56.9L139.255 57.08C142.095 57.42 143.255 58.18 143.255 60.1C143.255 62.02 141.595 63.22 138.435 63.24C135.415 63.22 133.935 62.06 133.775 60.16H135.775Z" fill="white"/>
<rect x="220.668" y="25" width="188.667" height="62" rx="4" fill="#250069"/>
<path d="M269.36 63V49H271.44V63H269.36ZM273.149 63V52.96H275.069V54.22C275.969 53.1 277.409 52.58 278.849 52.58C281.529 52.58 282.909 53.9 282.909 56.36V63H280.969V56.78C280.969 55.18 280.329 54.38 278.589 54.38C277.149 54.38 275.069 55.08 275.069 56.92V63H273.149ZM288.595 63L283.715 52.96H286.015L289.515 60.54L293.055 52.96H295.255L290.335 63H288.595ZM304.609 57.02C304.449 55.34 303.269 54.34 301.189 54.34C299.149 54.34 297.949 55.34 297.809 57.02H304.609ZM295.649 57.92C295.649 54.58 297.869 52.58 301.249 52.58C304.649 52.58 306.809 54.56 306.789 57.9L306.769 58.54H297.729C297.869 60.32 298.989 61.46 301.189 61.46C303.109 61.46 304.209 60.66 304.569 59.28H306.649C306.049 61.88 304.009 63.24 301.189 63.24C297.729 63.24 295.649 61.24 295.649 57.92ZM308.481 63V52.96H310.401V54.22C311.301 53.1 312.741 52.58 314.181 52.58C316.861 52.58 318.241 53.9 318.241 56.36V63H316.301V56.78C316.301 55.18 315.661 54.38 313.921 54.38C312.481 54.38 310.401 55.08 310.401 56.92V63H308.481ZM324.418 63.16C321.978 63.16 321.258 61.8 321.178 59.74V54.74H319.458V53H321.178V49.28H323.118V53H326.418V54.74H323.118V59.9C323.118 61.68 324.858 61.5 326.318 61.18L326.778 62.72C325.818 63.04 325.198 63.16 324.418 63.16ZM332.849 63.24C329.389 63.24 327.309 61.24 327.309 57.92C327.309 54.58 329.529 52.58 332.909 52.58C336.309 52.58 338.449 54.56 338.449 57.9C338.449 61.2 336.269 63.24 332.849 63.24ZM329.309 57.92C329.309 60.1 330.429 61.46 332.849 61.46C335.309 61.46 336.449 60.08 336.449 57.9C336.449 55.72 335.309 54.34 332.849 54.34C330.429 54.34 329.309 55.7 329.309 57.92ZM340.141 63V53H342.061V54.24C343.141 52.88 345.041 52.54 346.541 52.88L346.281 54.68C344.361 54.3 342.061 54.96 342.061 56.98V63H340.141ZM350.913 66.6C350.333 66.6 349.753 66.54 349.013 66.24L349.473 64.62C350.873 65 351.733 64.92 352.473 63.38L352.813 62.66C352.913 62.4 352.913 62.2 352.793 61.98L347.973 52.94H350.253L353.973 60.3L357.373 52.94H359.533L354.253 63.9C353.373 65.74 352.613 66.6 350.913 66.6Z" fill="white"/>
<rect x="417.332" y="25" width="188.667" height="62" rx="4" fill="#250069"/>
<path d="M493.024 63V49H498.704C501.704 49 504.444 49.88 504.444 53.28C504.444 56.42 502.064 57.7 498.644 57.7H495.084V63H493.024ZM495.084 55.76H498.644C501.564 55.76 502.344 54.96 502.344 53.3C502.344 51.62 501.544 50.92 498.624 50.92H495.084V55.76ZM510.589 63.08C507.949 63.08 506.229 61.58 506.229 59.26C506.229 57.96 506.789 57.08 508.729 55.64C507.589 54.26 507.309 53.5 507.309 52.66C507.309 50.58 508.589 49.34 510.709 49.34C512.589 49.34 513.969 50.54 513.969 52.24C513.969 53.36 513.509 54.22 512.089 55.24L511.229 55.86L513.949 59.08C514.289 58.34 514.469 57.52 514.469 56.6H516.229C516.229 58.16 515.889 59.48 515.129 60.52L517.129 62.92H514.829L513.969 61.92C513.069 62.68 511.849 63.08 510.589 63.08ZM508.129 59.26C508.129 60.66 509.029 61.48 510.589 61.48C511.409 61.48 512.189 61.16 512.869 60.58L509.809 56.92L509.589 57.06C508.589 57.8 508.129 58.5 508.129 59.26ZM509.209 52.6C509.209 53.16 509.549 53.82 510.189 54.62L511.169 53.92C511.989 53.36 512.169 52.98 512.169 52.24C512.169 51.46 511.589 50.96 510.689 50.96C509.729 50.96 509.209 51.6 509.209 52.6ZM518.903 63V49H520.983V61.06H529.243V63H518.903Z" fill="white"/>
<path d="M68.2148 322.735H206.067" stroke="#595BA4" stroke-width="0.99998" stroke-dasharray="3 3"/>
<path d="M68.2148 269.736H206.067" stroke="#595BA4" stroke-width="0.99998" stroke-dasharray="3 3"/>
<path d="M68.2148 216.737H206.067" stroke="#595BA4" stroke-width="0.99998" stroke-dasharray="3 3"/>
<path d="M68.2148 163.738H206.067" stroke="#595BA4" stroke-width="0.99998" stroke-dasharray="3 3"/>
<path d="M68.2148 110.739H206.067" stroke="#595BA4" stroke-width="0.99998" stroke-dasharray="3 3"/>
<path d="M87.6328 110.739V322.735" stroke="#595BA4" stroke-width="0.99998" stroke-dasharray="3 3"/>
<path d="M107.766 110.739V322.735" stroke="#595BA4" stroke-width="0.99998" stroke-dasharray="3 3"/>
<path d="M127.891 110.739V322.735" stroke="#595BA4" stroke-width="0.99998" stroke-dasharray="3 3"/>
<path d="M148.031 110.739V322.735" stroke="#595BA4" stroke-width="0.99998" stroke-dasharray="3 3"/>
<path d="M168.152 110.739V322.735" stroke="#595BA4" stroke-width="0.99998" stroke-dasharray="3 3"/>
<path d="M188.297 110.739V322.735" stroke="#595BA4" stroke-width="0.99998" stroke-dasharray="3 3"/>
<path d="M68.2148 110.739V322.735" stroke="#595BA4" stroke-width="0.99998" stroke-dasharray="3 3"/>
<path d="M206.07 110.739V322.735" stroke="#595BA4" stroke-width="0.99998" stroke-dasharray="3 3"/>
<path d="M68.2148 322.735H206.067" stroke="#94A3B8" stroke-width="0.99998"/>
<path d="M82.1797 328.735V322.735" stroke="#94A3B8" stroke-width="0.99998"/>
<path d="M72.6386 335.723C72.8066 336.755 73.3826 337.247 74.8586 337.247C76.3705 337.247 76.9105 336.635 76.9105 335.351V329.855H78.1465V335.399C78.1465 337.379 76.8985 338.399 74.8706 338.399C72.8786 338.399 71.6186 337.583 71.4146 335.723H72.6386ZM79.532 334.139C79.58 332.675 80.456 332.027 82.292 332.003C84.2359 332.003 85.0279 332.807 85.0279 334.319V338.255H83.8759V337.451C83.4319 337.967 82.7959 338.363 81.692 338.351C80.204 338.339 79.184 337.703 79.184 336.419C79.184 334.727 80.936 334.463 82.7239 334.439L83.8639 334.415V334.259C83.8639 333.395 83.5159 333.035 82.292 333.035C81.14 333.035 80.756 333.371 80.708 334.139H79.532ZM80.36 336.431C80.36 336.971 80.744 337.319 81.788 337.319C83.0359 337.319 83.8639 336.863 83.8639 335.975V335.315L82.8079 335.351C80.912 335.411 80.36 335.699 80.36 336.431ZM86.0979 338.255V332.231H87.2499V332.987C87.7899 332.315 88.6539 332.003 89.5179 332.003C91.1258 332.003 91.9538 332.795 91.9538 334.271V338.255H90.7898V334.523C90.7898 333.563 90.4059 333.083 89.3619 333.083C88.4979 333.083 87.2499 333.503 87.2499 334.607V338.255H86.0979Z" fill="#94A3B8"/>
<path d="M110.18 328.735V322.735" stroke="#94A3B8" stroke-width="0.99998"/>
<path d="M99.6861 338.255V329.855H105.758V331.031H100.934V333.299H105.47V334.475H100.934V338.255H99.6861ZM111.988 334.667C111.892 333.659 111.184 333.059 109.936 333.059C108.712 333.059 107.992 333.659 107.908 334.667H111.988ZM106.612 335.207C106.612 333.203 107.944 332.003 109.972 332.003C112.012 332.003 113.308 333.191 113.296 335.195L113.284 335.579H107.86C107.944 336.647 108.616 337.331 109.936 337.331C111.088 337.331 111.748 336.851 111.964 336.023H113.212C112.852 337.583 111.628 338.399 109.936 338.399C107.86 338.399 106.612 337.199 106.612 335.207ZM117.504 338.399C116.688 338.399 115.98 338.039 115.416 337.547V338.255H114.264V329.855H115.416V332.987C115.944 332.327 116.664 332.003 117.624 332.003C119.568 332.003 120.672 333.263 120.672 335.183C120.672 337.163 119.46 338.399 117.504 338.399ZM115.404 335.411C115.404 336.683 116.112 337.331 117.42 337.331C118.692 337.331 119.46 336.647 119.46 335.183C119.46 333.695 118.62 333.059 117.504 333.059C116.232 333.059 115.404 333.779 115.404 334.919V335.411Z" fill="#94A3B8"/>
<path d="M138.68 328.735V322.735" stroke="#94A3B8" stroke-width="0.99998"/>
<path d="M128.198 338.255V329.855H129.53L132.818 336.635L136.118 329.855H137.426V338.255H136.238V332.207L133.25 338.255H132.338L129.374 332.195V338.255H128.198ZM138.764 334.139C138.812 332.675 139.688 332.027 141.524 332.003C143.468 332.003 144.26 332.807 144.26 334.319V338.255H143.108V337.451C142.664 337.967 142.028 338.363 140.924 338.351C139.436 338.339 138.416 337.703 138.416 336.419C138.416 334.727 140.168 334.463 141.956 334.439L143.096 334.415V334.259C143.096 333.395 142.748 333.035 141.524 333.035C140.372 333.035 139.988 333.371 139.94 334.139H138.764ZM139.592 336.431C139.592 336.971 139.976 337.319 141.02 337.319C142.268 337.319 143.096 336.863 143.096 335.975V335.315L142.04 335.351C140.144 335.411 139.592 335.699 139.592 336.431ZM145.33 338.255V332.255H146.482V332.999C147.13 332.183 148.27 331.979 149.17 332.183L149.014 333.263C147.862 333.035 146.482 333.431 146.482 334.643V338.255H145.33Z" fill="#94A3B8"/>
<path d="M166.68 328.735V322.735" stroke="#94A3B8" stroke-width="0.99998"/>
<path d="M156.516 338.255L160.488 329.855H161.592L165.552 338.255H164.16L163.044 335.867H158.976L157.872 338.255H156.516ZM159.516 334.715H162.54L161.016 331.439L159.516 334.715ZM166.571 340.295V332.255H167.723V333.071C168.179 332.351 168.971 332.003 169.931 332.003C171.875 332.003 172.979 333.263 172.979 335.183C172.979 337.163 171.767 338.399 169.811 338.399C168.983 338.399 168.227 338.135 167.723 337.463V340.295H166.571ZM167.711 335.411C167.711 336.611 168.359 337.331 169.727 337.331C170.999 337.331 171.767 336.647 171.767 335.183C171.767 333.695 170.927 333.059 169.811 333.059C168.467 333.059 167.711 333.827 167.711 334.919V335.411ZM174.012 338.255V332.255H175.164V332.999C175.812 332.183 176.952 331.979 177.852 332.183L177.696 333.263C176.544 333.035 175.164 333.431 175.164 334.643V338.255H174.012Z" fill="#94A3B8"/>
<path d="M196.68 328.735V322.735" stroke="#94A3B8" stroke-width="0.99998"/>
<path d="M185.415 338.255V329.855H186.747L190.035 336.635L193.335 329.855H194.642V338.255H193.455V332.207L190.467 338.255H189.555L186.591 332.195V338.255H185.415ZM195.981 334.139C196.029 332.675 196.905 332.027 198.741 332.003C200.685 332.003 201.477 332.807 201.477 334.319V338.255H200.325V337.451C199.881 337.967 199.245 338.363 198.141 338.351C196.653 338.339 195.633 337.703 195.633 336.419C195.633 334.727 197.385 334.463 199.173 334.439L200.313 334.415V334.259C200.313 333.395 199.965 333.035 198.741 333.035C197.589 333.035 197.205 333.371 197.157 334.139H195.981ZM196.809 336.431C196.809 336.971 197.193 337.319 198.237 337.319C199.485 337.319 200.313 336.863 200.313 335.975V335.315L199.257 335.351C197.361 335.411 196.809 335.699 196.809 336.431ZM203.772 340.415C203.424 340.415 203.076 340.379 202.632 340.199L202.908 339.227C203.748 339.455 204.264 339.407 204.708 338.483L204.912 338.051C204.972 337.895 204.972 337.775 204.9 337.643L202.008 332.219H203.376L205.608 336.635L207.648 332.219H208.944L205.776 338.795C205.248 339.899 204.792 340.415 203.772 340.415Z" fill="#94A3B8"/>
<path d="M68.2148 110.74V322.736" stroke="#94A3B8" stroke-width="0.99998"/>
<path d="M63.8125 322.736H68.212" stroke="#94A3B8" stroke-width="0.99998"/>
<path d="M31.1856 325.996L28.9176 322.036V321.508H29.1816C29.6056 321.508 29.9616 321.468 30.2496 321.388C30.5456 321.308 30.7776 321.176 30.9456 320.992C31.1136 320.808 31.2136 320.556 31.2456 320.236H28.9176V319.468H31.2336C31.1776 319.172 31.0656 318.932 30.8976 318.748C30.7296 318.556 30.5016 318.416 30.2136 318.328C29.9336 318.24 29.5896 318.196 29.1816 318.196H28.9176V317.428H33.8855V318.196H31.6176C31.8016 318.348 31.9536 318.528 32.0736 318.736C32.1936 318.944 32.2696 319.188 32.3016 319.468H33.8855V320.236H32.3256C32.2696 320.82 32.0456 321.276 31.6536 321.604C31.2696 321.924 30.7576 322.128 30.1176 322.216L32.4096 325.996H31.1856ZM38.8086 326.152C36.6727 326.152 35.3887 324.724 35.3887 321.904C35.3887 319.06 36.7207 317.62 38.8326 317.62C40.9806 317.62 42.2526 319.06 42.2526 321.88C42.2526 324.736 40.9566 326.152 38.8086 326.152ZM36.6247 321.904C36.6247 323.968 37.2367 325 38.8206 325C40.3926 325 41.0286 323.968 41.0286 321.904C41.0286 319.828 40.4166 318.796 38.8206 318.796C37.2367 318.796 36.6247 319.84 36.6247 321.904ZM43.3573 325.468C43.3573 324.544 44.7853 324.532 44.7853 325.468C44.7853 326.392 43.3573 326.392 43.3573 325.468ZM49.3084 326.152C47.1725 326.152 45.8885 324.724 45.8885 321.904C45.8885 319.06 47.2205 317.62 49.3324 317.62C51.4804 317.62 52.7523 319.06 52.7523 321.88C52.7523 324.736 51.4564 326.152 49.3084 326.152ZM47.1245 321.904C47.1245 323.968 47.7364 325 49.3204 325C50.8924 325 51.5284 323.968 51.5284 321.904C51.5284 319.828 50.9164 318.796 49.3204 318.796C47.7364 318.796 47.1245 319.84 47.1245 321.904ZM53.8211 325.996V317.596H55.0691V324.832H60.0249V325.996H53.8211Z" fill="#94A3B8"/>
<path d="M63.8125 269.737H68.212" stroke="#94A3B8" stroke-width="0.99998"/>
<path d="M34.1504 272.997L31.8824 269.037V268.509H32.1464C32.5704 268.509 32.9264 268.469 33.2144 268.389C33.5104 268.309 33.7424 268.177 33.9104 267.993C34.0784 267.809 34.1784 267.557 34.2104 267.237H31.8824V266.469H34.1984C34.1424 266.173 34.0304 265.933 33.8624 265.749C33.6944 265.557 33.4664 265.417 33.1784 265.329C32.8984 265.241 32.5544 265.197 32.1464 265.197H31.8824V264.429H36.8503V265.197H34.5824C34.7664 265.349 34.9184 265.529 35.0384 265.737C35.1584 265.945 35.2344 266.189 35.2664 266.469H36.8503V267.237H35.2904C35.2344 267.821 35.0104 268.277 34.6184 268.605C34.2344 268.925 33.7224 269.129 33.0824 269.217L35.3744 272.997H34.1504ZM38.3535 271.929C39.1095 271.389 39.8295 270.837 40.5135 270.297C41.2214 269.781 41.7494 269.349 42.1214 269.013C42.9254 268.281 43.2014 267.777 43.2014 267.141C43.2014 266.265 42.6374 265.797 41.4734 265.797C40.2735 265.797 39.7815 266.301 39.7575 267.309H38.5335C38.5695 265.617 39.6855 264.621 41.4734 264.621C43.3094 264.621 44.4134 265.617 44.4134 267.093C44.4134 268.353 43.6454 269.181 42.8174 269.913C42.4214 270.261 42.1814 270.441 41.4734 271.005L40.3815 271.797H44.3294V272.961H38.3535V271.929ZM45.5135 272.469C45.5135 271.545 46.9415 271.533 46.9415 272.469C46.9415 273.393 45.5135 273.393 45.5135 272.469ZM49.2567 270.633C49.3527 271.545 50.0247 271.977 51.0806 271.989C52.3046 271.977 52.9166 271.413 52.9166 270.297C52.9166 269.253 52.3886 268.665 51.0686 268.665C50.2287 268.665 49.5927 268.905 49.2087 269.409H48.0807L48.5007 264.765H53.5886V265.941H49.5087L49.3047 268.029C49.8207 267.693 50.4207 267.525 51.2006 267.525C53.1566 267.525 54.0926 268.665 54.0926 270.285C54.0926 272.145 52.9526 273.141 51.1046 273.153H51.0806H51.0446C49.3167 273.129 48.2007 272.265 48.0807 270.633H49.2567ZM55.157 272.997V264.597H56.405V271.833H61.3609V272.997H55.157Z" fill="#94A3B8"/>
<path d="M63.8125 216.738H68.212" stroke="#94A3B8" stroke-width="0.99998"/>
<path d="M33.6309 219.998L31.3629 216.038V215.51H31.6269C32.0509 215.51 32.4069 215.47 32.6949 215.39C32.9909 215.31 33.2229 215.178 33.3909 214.994C33.5589 214.81 33.6589 214.558 33.6909 214.238H31.3629V213.47H33.6789C33.6229 213.174 33.5109 212.934 33.3429 212.75C33.1749 212.558 32.9469 212.418 32.6589 212.33C32.3789 212.242 32.0349 212.198 31.6269 212.198H31.3629V211.43H36.3308V212.198H34.0629C34.2469 212.35 34.3989 212.53 34.5189 212.738C34.6389 212.946 34.7149 213.19 34.7469 213.47H36.3308V214.238H34.7709C34.7149 214.822 34.4909 215.278 34.0989 215.606C33.7149 215.926 33.2029 216.13 32.5629 216.218L34.8549 219.998H33.6309ZM39.046 217.634C39.142 218.546 39.814 218.978 40.8699 218.99C42.0939 218.978 42.7059 218.414 42.7059 217.298C42.7059 216.254 42.1779 215.666 40.8579 215.666C40.018 215.666 39.382 215.906 38.998 216.41H37.87L38.29 211.766H43.3779V212.942H39.298L39.094 215.03C39.61 214.694 40.2099 214.526 40.9899 214.526C42.9459 214.526 43.8819 215.666 43.8819 217.286C43.8819 219.146 42.7419 220.142 40.8939 220.154H40.8699H40.8339C39.106 220.13 37.99 219.266 37.87 217.634H39.046ZM44.9823 219.47C44.9823 218.546 46.4103 218.534 46.4103 219.47C46.4103 220.394 44.9823 220.394 44.9823 219.47ZM50.9334 220.154C48.7975 220.154 47.5135 218.726 47.5135 215.906C47.5135 213.062 48.8455 211.622 50.9574 211.622C53.1054 211.622 54.3773 213.062 54.3773 215.882C54.3773 218.738 53.0814 220.154 50.9334 220.154ZM48.7495 215.906C48.7495 217.97 49.3614 219.002 50.9454 219.002C52.5174 219.002 53.1534 217.97 53.1534 215.906C53.1534 213.83 52.5414 212.798 50.9454 212.798C49.3614 212.798 48.7495 213.842 48.7495 215.906ZM55.4461 219.998V211.598H56.694V218.834H61.6499V219.998H55.4461Z" fill="#94A3B8"/>
<path d="M63.8125 163.739H68.212" stroke="#94A3B8" stroke-width="0.99998"/>
<path d="M34.0645 166.999L31.7965 163.039V162.511H32.0605C32.4845 162.511 32.8405 162.471 33.1285 162.391C33.4245 162.311 33.6565 162.179 33.8245 161.995C33.9925 161.811 34.0925 161.559 34.1245 161.239H31.7965V160.471H34.1125C34.0565 160.175 33.9445 159.935 33.7765 159.751C33.6085 159.559 33.3805 159.419 33.0925 159.331C32.8125 159.243 32.4685 159.199 32.0605 159.199H31.7965V158.431H36.7644V159.199H34.4965C34.6805 159.351 34.8325 159.531 34.9525 159.739C35.0725 159.947 35.1485 160.191 35.1805 160.471H36.7644V161.239H35.2045C35.1485 161.823 34.9245 162.279 34.5325 162.607C34.1485 162.927 33.6365 163.131 32.9965 163.219L35.2885 166.999H34.0645ZM39.9955 166.963C40.8235 164.479 41.8315 162.247 43.2235 159.955H38.2676V158.767H44.6995V159.727C43.2355 162.031 42.0835 164.467 41.3035 166.963H39.9955ZM45.8026 166.471C45.8026 165.547 47.2306 165.535 47.2306 166.471C47.2306 167.395 45.8026 167.395 45.8026 166.471ZM49.5458 164.635C49.6418 165.547 50.3137 165.979 51.3697 165.991C52.5937 165.979 53.2057 165.415 53.2057 164.299C53.2057 163.255 52.6777 162.667 51.3577 162.667C50.5177 162.667 49.8818 162.907 49.4978 163.411H48.3698L48.7898 158.767H53.8777V159.943H49.7978L49.5938 162.031C50.1097 161.695 50.7097 161.527 51.4897 161.527C53.4457 161.527 54.3817 162.667 54.3817 164.287C54.3817 166.147 53.2417 167.143 51.3937 167.155H51.3697H51.3337C49.6058 167.131 48.4898 166.267 48.3698 164.635H49.5458ZM55.4461 166.999V158.599H56.6941V165.835H61.6499V166.999H55.4461Z" fill="#94A3B8"/>
<path d="M63.8125 110.74H68.212" stroke="#94A3B8" stroke-width="0.99998"/>
<path d="M26.7912 121L24.5233 117.04V116.512H24.7872C25.2112 116.512 25.5672 116.472 25.8552 116.392C26.1512 116.312 26.3832 116.18 26.5512 115.996C26.7192 115.812 26.8192 115.56 26.8512 115.24H24.5233V114.472H26.8392C26.7832 114.176 26.6712 113.936 26.5032 113.752C26.3352 113.56 26.1072 113.42 25.8192 113.332C25.5392 113.244 25.1952 113.2 24.7872 113.2H24.5233V112.432H29.4912V113.2H27.2232C27.4072 113.352 27.5592 113.532 27.6792 113.74C27.7992 113.948 27.8752 114.192 27.9072 114.472H29.4912V115.24H27.9312C27.8752 115.824 27.6512 116.28 27.2592 116.608C26.8752 116.928 26.3632 117.132 25.7232 117.22L28.0152 121H26.7912ZM33.6103 120.964V113.956L31.5223 114.964L30.9943 114.004L33.8383 112.6H34.7982V120.964H33.6103ZM39.3243 121.156C37.1883 121.156 35.9044 119.728 35.9044 116.908C35.9044 114.064 37.2363 112.624 39.3483 112.624C41.4963 112.624 42.7682 114.064 42.7682 116.884C42.7682 119.74 41.4723 121.156 39.3243 121.156ZM37.1403 116.908C37.1403 118.972 37.7523 120.004 39.3363 120.004C40.9083 120.004 41.5443 118.972 41.5443 116.908C41.5443 114.832 40.9323 113.8 39.3363 113.8C37.7523 113.8 37.1403 114.844 37.1403 116.908ZM43.873 120.472C43.873 119.548 45.3009 119.536 45.3009 120.472C45.3009 121.396 43.873 121.396 43.873 120.472ZM49.8241 121.156C47.6881 121.156 46.4042 119.728 46.4042 116.908C46.4042 114.064 47.7361 112.624 49.8481 112.624C51.996 112.624 53.268 114.064 53.268 116.884C53.268 119.74 51.972 121.156 49.8241 121.156ZM47.6401 116.908C47.6401 118.972 48.2521 120.004 49.8361 120.004C51.4081 120.004 52.044 118.972 52.044 116.908C52.044 114.832 51.4321 113.8 49.8361 113.8C48.2521 113.8 47.6401 114.844 47.6401 116.908ZM54.3367 121V112.6H55.5847V119.836H60.5406V121H54.3367Z" fill="#94A3B8"/>
<path style="transform-origin: 74.5px 322px; animation-delay: 0.05s;" class="bar-y" d="M72 226.602H76.9999V322H72V226.602Z" fill="#7E7ECB"/>
<path style="transform-origin: 79.5px 322px; animation-delay: 0.1s;" class="bar-y" d="M77 238H82V322H77V238Z" fill="#55DAFF"/>
<path style="transform-origin: 84.5px 322px; animation-delay: 0.15s;" class="bar-y" d="M82 261H87V322H82V261Z" fill="#EE3768"/>
<path style="transform-origin: 89.5px 322px; animation-delay: 0.2s;" class="bar-y" d="M87 243H92V322H87V243Z" fill="#454AF4"/>
<path style="transform-origin: 103px 322px; animation-delay: 0.1s;" class="bar-y" d="M100.547 207H105.547V322H100.547V207Z" fill="#7E7ECB"/>
<path style="transform-origin: 108px 322px; animation-delay: 0.15s;" class="bar-y" d="M105.547 221H110.547V322H105.547V221Z" fill="#55DAFF"/>
<path style="transform-origin: 113px 322px; animation-delay: 0.2s;" class="bar-y" d="M110.547 248H115.547V322H110.547V248Z" fill="#EE3768"/>
<path style="transform-origin: 118px 322px; animation-delay: 0.25s;" class="bar-y" d="M115.547 227H120.547V322H115.547V227Z" fill="#454AF4"/>
<path style="transform-origin: 131.5px 322px; animation-delay: 0.15s;" class="bar-y" d="M129.094 260H134.094V322H129.094V260Z" fill="#7E7ECB"/>
<path style="transform-origin: 136.5px 322px; animation-delay: 0.2s;" class="bar-y" d="M134.094 267H139.094V322H134.094V267Z" fill="#55DAFF"/>
<path style="transform-origin: 141.5px 322px; animation-delay: 0.25s;" class="bar-y" d="M139.094 282H144.094V322H139.094V282Z" fill="#EE3768"/>
<path style="transform-origin: 146.5px 322px; animation-delay: 0.3s;" class="bar-y" d="M144.094 267H149.094V322H144.094V267Z" fill="#454AF4"/>
<path style="transform-origin: 160px 322px; animation-delay: 0.2s;" class="bar-y" d="M157.641 164H162.641V322H157.641V164Z" fill="#7E7ECB"/>
<path style="transform-origin: 165px 322px; animation-delay: 0.25s;" class="bar-y" d="M162.641 183H167.641V322H162.641V183Z" fill="#55DAFF"/>
<path style="transform-origin: 170px 322px; animation-delay: 0.3s;" class="bar-y" d="M167.641 221H172.641V322H167.641V221Z" fill="#EE3768"/>
<path style="transform-origin: 175px 322px; animation-delay: 0.35s;" class="bar-y" d="M172.641 228H177.641V322H172.641V228Z" fill="#454AF4"/>
<path style="transform-origin: 188.5px 322px; animation-delay: 0.25s;" class="bar-y" d="M186.188 149H191.188V322H186.188V149Z" fill="#7E7ECB"/>
<path style="transform-origin: 193.5px 322px; animation-delay: 0.3s;" class="bar-y" d="M191.188 169H196.188V322H191.188V169Z" fill="#55DAFF"/>
<path style="transform-origin: 198.5px 322px; animation-delay: 0.35s;" class="bar-y" d="M196.188 211H201.188V322H196.188V211Z" fill="#EE3768"/>
<path style="transform-origin: 203.5px 322px; animation-delay: 0.4s;" class="bar-y" d="M201.188 220H206.188V322H201.188V220Z" fill="#454AF4"/>
<g clip-path="url(#clip0_4680_7468)">
<path d="M66 362.751H77.9976V373.249H66V362.751Z" fill="#7E7ECB"/>
</g>
<path d="M84.0444 372L88.3474 362.9H89.5434L93.8334 372H92.3254L91.1164 369.413H86.7094L85.5134 372H84.0444ZM87.2944 368.165H90.5704L88.9194 364.616L87.2944 368.165ZM94.6244 372V365.474H95.8724V366.28C96.4444 365.604 97.2764 365.227 98.0694 365.227C99.1224 365.227 99.7984 365.578 100.162 366.345C100.825 365.604 101.709 365.227 102.671 365.227C104.231 365.227 105.102 366.007 105.102 367.554V372H103.828V367.84C103.828 366.839 103.49 366.397 102.502 366.397C101.631 366.397 100.5 366.852 100.5 367.918V372H99.2394V367.84C99.2394 366.865 98.8754 366.397 97.9004 366.397C96.9124 366.397 95.8724 367.047 95.8724 368.126V372H94.6244ZM106.216 367.541C106.268 365.955 107.217 365.253 109.206 365.227C111.312 365.227 112.17 366.098 112.17 367.736V372H110.922V371.129C110.441 371.688 109.752 372.117 108.556 372.104C106.944 372.091 105.839 371.402 105.839 370.011C105.839 368.178 107.737 367.892 109.674 367.866L110.909 367.84V367.671C110.909 366.735 110.532 366.345 109.206 366.345C107.958 366.345 107.542 366.709 107.49 367.541H106.216ZM107.113 370.024C107.113 370.609 107.529 370.986 108.66 370.986C110.012 370.986 110.909 370.492 110.909 369.53V368.815L109.765 368.854C107.711 368.919 107.113 369.231 107.113 370.024ZM113.017 372V371.077L117.151 366.553H113.108V365.5H118.841V366.397L114.733 370.895H118.802V372H113.017ZM123.237 372.156C120.988 372.156 119.636 370.856 119.636 368.698C119.636 366.527 121.079 365.227 123.276 365.227C125.486 365.227 126.877 366.514 126.877 368.685C126.877 370.83 125.46 372.156 123.237 372.156ZM120.936 368.698C120.936 370.115 121.664 370.999 123.237 370.999C124.836 370.999 125.577 370.102 125.577 368.685C125.577 367.268 124.836 366.371 123.237 366.371C121.664 366.371 120.936 367.255 120.936 368.698ZM127.614 372V365.474H128.862V366.293C129.447 365.565 130.383 365.227 131.319 365.227C133.061 365.227 133.958 366.085 133.958 367.684V372H132.697V367.957C132.697 366.917 132.281 366.397 131.15 366.397C130.214 366.397 128.862 366.852 128.862 368.048V372H127.614Z" fill="white"/>
<g clip-path="url(#clip1_4680_7468)">
<path d="M142.996 362.751H154.994V373.249H142.996V362.751Z" fill="#55DAFF"/>
</g>
<path d="M162.584 372V362.9H169.162V364.174H163.936V366.631H168.85V367.905H163.936V372H162.584ZM169.965 372V362.9H171.213V372H169.965ZM172.027 372V365.474H173.275V372H172.027ZM172.014 364.434V362.9H173.288V364.434H172.014ZM174.075 374.21V365.5H175.323V366.384C175.817 365.604 176.675 365.227 177.715 365.227C179.821 365.227 181.017 366.592 181.017 368.672C181.017 370.817 179.704 372.156 177.585 372.156C176.688 372.156 175.869 371.87 175.323 371.142V374.21H174.075ZM175.31 368.919C175.31 370.219 176.012 370.999 177.494 370.999C178.872 370.999 179.704 370.258 179.704 368.672C179.704 367.06 178.794 366.371 177.585 366.371C176.129 366.371 175.31 367.203 175.31 368.386V368.919ZM181.773 372V362.9H183.021V368.087L186.505 365.474H188.39L185.4 367.736L188.52 372H186.986L184.399 368.451L183.021 369.478V372H181.773ZM188.884 367.541C188.936 365.955 189.885 365.253 191.874 365.227C193.98 365.227 194.838 366.098 194.838 367.736V372H193.59V371.129C193.109 371.688 192.42 372.117 191.224 372.104C189.612 372.091 188.507 371.402 188.507 370.011C188.507 368.178 190.405 367.892 192.342 367.866L193.577 367.84V367.671C193.577 366.735 193.2 366.345 191.874 366.345C190.626 366.345 190.21 366.709 190.158 367.541H188.884ZM189.781 370.024C189.781 370.609 190.197 370.986 191.328 370.986C192.68 370.986 193.577 370.492 193.577 369.53V368.815L192.433 368.854C190.379 368.919 189.781 369.231 189.781 370.024ZM195.684 372V365.5H196.932V366.306C197.634 365.422 198.869 365.201 199.844 365.422L199.675 366.592C198.427 366.345 196.932 366.774 196.932 368.087V372H195.684ZM203.865 372.104C202.279 372.104 201.811 371.22 201.759 369.881V366.631H200.641V365.5H201.759V363.082H203.02V365.5H205.165V366.631H203.02V369.985C203.02 371.142 204.151 371.025 205.1 370.817L205.399 371.818C204.775 372.026 204.372 372.104 203.865 372.104Z" fill="white"/>
<g clip-path="url(#clip2_4680_7468)">
<path d="M66 378.751H77.9976V389.249H66V378.751Z" fill="#EE3768"/>
</g>
<path d="M84.6449 388V378.9H86.0879L89.6499 386.245L93.2249 378.9H94.6419V388H93.3549V381.448L90.1179 388H89.1299L85.9189 381.435V388H84.6449ZM97.263 390.34C96.886 390.34 96.509 390.301 96.028 390.106L96.327 389.053C97.237 389.3 97.796 389.248 98.277 388.247L98.498 387.779C98.563 387.61 98.563 387.48 98.485 387.337L95.352 381.461H96.834L99.252 386.245L101.462 381.461H102.866L99.434 388.585C98.862 389.781 98.368 390.34 97.263 390.34ZM103.545 388V381.474H104.793V382.293C105.378 381.565 106.314 381.227 107.25 381.227C108.992 381.227 109.889 382.085 109.889 383.684V388H108.628V383.957C108.628 382.917 108.212 382.397 107.081 382.397C106.145 382.397 104.793 382.852 104.793 384.048V388H103.545ZM113.592 388.104C112.006 388.104 111.538 387.22 111.486 385.881V382.631H110.368V381.5H111.486V379.082H112.747V381.5H114.892V382.631H112.747V385.985C112.747 387.142 113.878 387.025 114.827 386.817L115.126 387.818C114.502 388.026 114.099 388.104 113.592 388.104ZM115.933 388V381.5H117.181V382.306C117.883 381.422 119.118 381.201 120.093 381.422L119.924 382.592C118.676 382.345 117.181 382.774 117.181 384.087V388H115.933ZM120.352 383.541C120.404 381.955 121.353 381.253 123.342 381.227C125.448 381.227 126.306 382.098 126.306 383.736V388H125.058V387.129C124.577 387.688 123.888 388.117 122.692 388.104C121.08 388.091 119.975 387.402 119.975 386.011C119.975 384.178 121.873 383.892 123.81 383.866L125.045 383.84V383.671C125.045 382.735 124.668 382.345 123.342 382.345C122.094 382.345 121.678 382.709 121.626 383.541H120.352ZM121.249 386.024C121.249 386.609 121.665 386.986 122.796 386.986C124.148 386.986 125.045 386.492 125.045 385.53V384.815L123.901 384.854C121.847 384.919 121.249 385.231 121.249 386.024Z" fill="white"/>
<g clip-path="url(#clip3_4680_7468)">
<path d="M142.996 378.751H154.994V389.249H142.996V378.751Z" fill="#454AF4"/>
</g>
<path d="M159.959 388L164.262 378.9H165.458L169.748 388H168.24L167.031 385.413H162.624L161.428 388H159.959ZM163.209 384.165H166.485L164.834 380.616L163.209 384.165ZM169.85 390.548C169.265 390.548 168.706 390.457 168.238 390.288L168.537 389.261C169.395 389.456 170.617 389.716 170.63 388.403V381.474H171.891V388.299C171.891 389.612 171.332 390.548 169.85 390.548ZM170.617 380.434V378.9H171.891V380.434H170.617ZM172.754 388V381.474H174.002V388H172.754ZM172.741 380.434V378.9H174.015V380.434H172.741ZM178.403 388.156C176.154 388.156 174.802 386.856 174.802 384.698C174.802 382.527 176.245 381.227 178.442 381.227C180.652 381.227 182.043 382.514 182.043 384.685C182.043 386.83 180.626 388.156 178.403 388.156ZM176.102 384.698C176.102 386.115 176.83 386.999 178.403 386.999C180.002 386.999 180.743 386.102 180.743 384.685C180.743 383.268 180.002 382.371 178.403 382.371C176.83 382.371 176.102 383.255 176.102 384.698Z" fill="white"/>
<path d="M471.676 137H592.25" stroke="#20225D" stroke-width="0.999961" stroke-dasharray="3 3"/>
<path d="M471.676 191H592.25" stroke="#20225D" stroke-width="0.999961" stroke-dasharray="3 3"/>
<path d="M471.676 245H592.25" stroke="#20225D" stroke-width="0.999961" stroke-dasharray="3 3"/>
<path d="M471.676 299H592.25" stroke="#20225D" stroke-width="0.999961" stroke-dasharray="3 3"/>
<path d="M471.676 110H592.25" stroke="#20225D" stroke-width="0.999961" stroke-dasharray="3 3"/>
<path d="M471.676 326H592.25" stroke="#20225D" stroke-width="0.999961" stroke-dasharray="3 3"/>
<path d="M471.676 110V326" stroke="#20225D" stroke-width="0.999961" stroke-dasharray="3 3"/>
<path d="M512.234 110V326" stroke="#595BA4" stroke-width="0.99998" stroke-dasharray="3 3"/>
<path d="M552.785 110V326" stroke="#595BA4" stroke-width="0.99998" stroke-dasharray="3 3"/>
<path d="M593.332 110V326" stroke="#595BA4" stroke-width="0.99998" stroke-dasharray="3 3"/>
<path d="M471.676 137H592.25" stroke="#595BA4" stroke-width="0.99998" stroke-dasharray="3 3"/>
<path d="M471.676 191H592.25" stroke="#595BA4" stroke-width="0.99998" stroke-dasharray="3 3"/>
<path d="M471.676 245H592.25" stroke="#595BA4" stroke-width="0.99998" stroke-dasharray="3 3"/>
<path d="M471.676 299H592.25" stroke="#595BA4" stroke-width="0.99998" stroke-dasharray="3 3"/>
<path d="M471.676 110H592.25" stroke="#595BA4" stroke-width="0.99998" stroke-dasharray="3 3"/>
<path d="M471.676 326H592.25" stroke="#595BA4" stroke-width="0.99998" stroke-dasharray="3 3"/>
<path d="M471.676 110V326" stroke="#20225D" stroke-width="0.999961" stroke-dasharray="3 3"/>
<path d="M471.676 326H592.25" stroke="#94A3B8" stroke-width="0.999961"/>
<path d="M471.672 332V326" stroke="#94A3B8" stroke-width="0.999961"/>
<path d="M511.953 332V326" stroke="#94A3B8" stroke-width="0.999961"/>
<path d="M552.785 332V326" stroke="#94A3B8" stroke-width="0.999961"/>
<path d="M592.246 332V326" stroke="#94A3B8" stroke-width="0.999961"/>
<path d="M460.302 350L458.035 346.04V345.512H458.299C458.723 345.512 459.078 345.472 459.366 345.392C459.662 345.312 459.894 345.18 460.062 344.996C460.23 344.812 460.33 344.56 460.362 344.24H458.035V343.472H460.35C460.294 343.176 460.182 342.936 460.014 342.752C459.846 342.56 459.618 342.42 459.33 342.332C459.05 342.244 458.707 342.2 458.299 342.2H458.035V341.432H463.002V342.2H460.734C460.918 342.352 461.07 342.532 461.19 342.74C461.31 342.948 461.386 343.192 461.418 343.472H463.002V344.24H461.442C461.386 344.824 461.162 345.28 460.77 345.608C460.386 345.928 459.874 346.132 459.234 346.22L461.526 350H460.302ZM467.925 350.156C465.789 350.156 464.505 348.728 464.505 345.908C464.505 343.064 465.837 341.624 467.949 341.624C470.097 341.624 471.369 343.064 471.369 345.884C471.369 348.74 470.073 350.156 467.925 350.156ZM465.741 345.908C465.741 347.972 466.353 349.004 467.937 349.004C469.509 349.004 470.145 347.972 470.145 345.908C470.145 343.832 469.533 342.8 467.937 342.8C466.353 342.8 465.741 343.844 465.741 345.908ZM472.474 349.472C472.474 348.548 473.902 348.536 473.902 349.472C473.902 350.396 472.474 350.396 472.474 349.472ZM478.425 350.156C476.289 350.156 475.005 348.728 475.005 345.908C475.005 343.064 476.337 341.624 478.449 341.624C480.597 341.624 481.869 343.064 481.869 345.884C481.869 348.74 480.573 350.156 478.425 350.156ZM476.241 345.908C476.241 347.972 476.853 349.004 478.437 349.004C480.009 349.004 480.645 347.972 480.645 345.908C480.645 343.832 480.033 342.8 478.437 342.8C476.853 342.8 476.241 343.844 476.241 345.908ZM482.937 350V341.6H484.185V348.836H489.141V350H482.937Z" fill="#94A3B8"/>
<path d="M499.742 350L497.474 346.04V345.512H497.738C498.162 345.512 498.518 345.472 498.806 345.392C499.102 345.312 499.334 345.18 499.502 344.996C499.67 344.812 499.77 344.56 499.802 344.24H497.474V343.472H499.79C499.734 343.176 499.622 342.936 499.454 342.752C499.286 342.56 499.058 342.42 498.77 342.332C498.49 342.244 498.146 342.2 497.738 342.2H497.474V341.432H502.442V342.2H500.174C500.358 342.352 500.51 342.532 500.63 342.74C500.75 342.948 500.826 343.192 500.858 343.472H502.442V344.24H500.882C500.826 344.824 500.602 345.28 500.21 345.608C499.826 345.928 499.314 346.132 498.674 346.22L500.966 350H499.742ZM503.945 348.932C504.701 348.392 505.421 347.84 506.105 347.3C506.813 346.784 507.341 346.352 507.713 346.016C508.517 345.284 508.793 344.78 508.793 344.144C508.793 343.268 508.229 342.8 507.065 342.8C505.865 342.8 505.373 343.304 505.349 344.312H504.125C504.161 342.62 505.277 341.624 507.065 341.624C508.901 341.624 510.005 342.62 510.005 344.096C510.005 345.356 509.237 346.184 508.409 346.916C508.013 347.264 507.773 347.444 507.065 348.008L505.973 348.8H509.921V349.964H503.945V348.932ZM511.105 349.472C511.105 348.548 512.533 348.536 512.533 349.472C512.533 350.396 511.105 350.396 511.105 349.472ZM514.848 347.636C514.944 348.548 515.616 348.98 516.672 348.992C517.896 348.98 518.508 348.416 518.508 347.3C518.508 346.256 517.98 345.668 516.66 345.668C515.82 345.668 515.184 345.908 514.8 346.412H513.672L514.092 341.768H519.18V342.944H515.1L514.896 345.032C515.412 344.696 516.012 344.528 516.792 344.528C518.748 344.528 519.684 345.668 519.684 347.288C519.684 349.148 518.544 350.144 516.696 350.156H516.672H516.636C514.908 350.132 513.792 349.268 513.672 347.636H514.848ZM520.748 350V341.6H521.996V348.836H526.952V350H520.748Z" fill="#94A3B8"/>
<path d="M536.623 350L534.355 346.04V345.512H534.619C535.043 345.512 535.399 345.472 535.687 345.392C535.983 345.312 536.215 345.18 536.383 344.996C536.551 344.812 536.651 344.56 536.683 344.24H534.355V343.472H536.671C536.615 343.176 536.503 342.936 536.335 342.752C536.167 342.56 535.939 342.42 535.651 342.332C535.371 342.244 535.027 342.2 534.619 342.2H534.355V341.432H539.323V342.2H537.055C537.239 342.352 537.391 342.532 537.511 342.74C537.631 342.948 537.707 343.192 537.739 343.472H539.323V344.24H537.763C537.707 344.824 537.483 345.28 537.091 345.608C536.707 345.928 536.195 346.132 535.555 346.22L537.847 350H536.623ZM542.038 347.636C542.134 348.548 542.806 348.98 543.862 348.992C545.086 348.98 545.698 348.416 545.698 347.3C545.698 346.256 545.17 345.668 543.85 345.668C543.01 345.668 542.374 345.908 541.99 346.412H540.862L541.282 341.768H546.37V342.944H542.29L542.086 345.032C542.602 344.696 543.202 344.528 543.982 344.528C545.938 344.528 546.874 345.668 546.874 347.288C546.874 349.148 545.734 350.144 543.886 350.156H543.862H543.826C542.098 350.132 540.982 349.268 540.862 347.636H542.038ZM547.974 349.472C547.974 348.548 549.402 348.536 549.402 349.472C549.402 350.396 547.974 350.396 547.974 349.472ZM553.925 350.156C551.789 350.156 550.505 348.728 550.505 345.908C550.505 343.064 551.837 341.624 553.949 341.624C556.097 341.624 557.369 343.064 557.369 345.884C557.369 348.74 556.073 350.156 553.925 350.156ZM551.741 345.908C551.741 347.972 552.353 349.004 553.937 349.004C555.509 349.004 556.145 347.972 556.145 345.908C556.145 343.832 555.533 342.8 553.937 342.8C552.353 342.8 551.741 343.844 551.741 345.908ZM558.438 350V341.6H559.685V348.836H564.641V350H558.438Z" fill="#94A3B8"/>
<path d="M575.465 350L573.197 346.04V345.512H573.461C573.885 345.512 574.241 345.472 574.529 345.392C574.825 345.312 575.057 345.18 575.225 344.996C575.393 344.812 575.493 344.56 575.525 344.24H573.197V343.472H575.513C575.457 343.176 575.345 342.936 575.177 342.752C575.009 342.56 574.781 342.42 574.493 342.332C574.213 342.244 573.869 342.2 573.461 342.2H573.197V341.432H578.165V342.2H575.897C576.081 342.352 576.233 342.532 576.353 342.74C576.473 342.948 576.549 343.192 576.581 343.472H578.165V344.24H576.605C576.549 344.824 576.325 345.28 575.933 345.608C575.549 345.928 575.037 346.132 574.397 346.22L576.689 350H575.465ZM582.284 349.964V342.956L580.196 343.964L579.668 343.004L582.512 341.6H583.472V349.964H582.284ZM587.998 350.156C585.862 350.156 584.578 348.728 584.578 345.908C584.578 343.064 585.91 341.624 588.022 341.624C590.169 341.624 591.441 343.064 591.441 345.884C591.441 348.74 590.145 350.156 587.998 350.156ZM585.814 345.908C585.814 347.972 586.426 349.004 588.01 349.004C589.581 349.004 590.217 347.972 590.217 345.908C590.217 343.832 589.605 342.8 588.01 342.8C586.426 342.8 585.814 343.844 585.814 345.908ZM592.546 349.472C592.546 348.548 593.974 348.536 593.974 349.472C593.974 350.396 592.546 350.396 592.546 349.472ZM598.497 350.156C596.361 350.156 595.077 348.728 595.077 345.908C595.077 343.064 596.409 341.624 598.521 341.624C600.669 341.624 601.941 343.064 601.941 345.884C601.941 348.74 600.645 350.156 598.497 350.156ZM596.313 345.908C596.313 347.972 596.925 349.004 598.509 349.004C600.081 349.004 600.717 347.972 600.717 345.908C600.717 343.832 600.105 342.8 598.509 342.8C596.925 342.8 596.313 343.844 596.313 345.908ZM603.01 350V341.6H604.258V348.836H609.213V350H603.01Z" fill="#94A3B8"/>
<path d="M471.676 110V326" stroke="#94A3B8" stroke-width="0.999961"/>
<path d="M417.979 140.26L421.951 131.86H423.055L427.014 140.26H425.623L424.507 137.872H420.439L419.335 140.26H417.979ZM420.979 136.72H424.003L422.479 133.444L420.979 136.72ZM428.033 140.26V134.236H429.185V134.98C429.713 134.356 430.481 134.008 431.213 134.008C432.185 134.008 432.809 134.332 433.145 135.04C433.757 134.356 434.573 134.008 435.461 134.008C436.901 134.008 437.705 134.728 437.705 136.156V140.26H436.529V136.42C436.529 135.496 436.217 135.088 435.305 135.088C434.501 135.088 433.457 135.508 433.457 136.492V140.26H432.293V136.42C432.293 135.52 431.957 135.088 431.057 135.088C430.145 135.088 429.185 135.688 429.185 136.684V140.26H428.033ZM439.021 136.144C439.069 134.68 439.945 134.032 441.781 134.008C443.725 134.008 444.517 134.812 444.517 136.324V140.26H443.365V139.456C442.921 139.972 442.285 140.368 441.181 140.356C439.693 140.344 438.673 139.708 438.673 138.424C438.673 136.732 440.425 136.468 442.213 136.444L443.353 136.42V136.264C443.353 135.4 443.005 135.04 441.781 135.04C440.629 135.04 440.245 135.376 440.197 136.144H439.021ZM439.849 138.436C439.849 138.976 440.233 139.324 441.277 139.324C442.525 139.324 443.353 138.868 443.353 137.98V137.32L442.297 137.356C440.401 137.416 439.849 137.704 439.849 138.436ZM445.587 140.26V139.408L449.403 135.232H445.671V134.26H450.963V135.088L447.171 139.24H450.927V140.26H445.587ZM455.309 140.404C453.233 140.404 451.985 139.204 451.985 137.212C451.985 135.208 453.317 134.008 455.345 134.008C457.385 134.008 458.669 135.196 458.669 137.2C458.669 139.18 457.361 140.404 455.309 140.404ZM453.185 137.212C453.185 138.52 453.857 139.336 455.309 139.336C456.785 139.336 457.469 138.508 457.469 137.2C457.469 135.892 456.785 135.064 455.309 135.064C453.857 135.064 453.185 135.88 453.185 137.212ZM459.637 140.26V134.236H460.789V134.992C461.329 134.32 462.193 134.008 463.057 134.008C464.665 134.008 465.493 134.8 465.493 136.276V140.26H464.329V136.528C464.329 135.568 463.945 135.088 462.901 135.088C462.037 135.088 460.789 135.508 460.789 136.612V140.26H459.637Z" fill="#94A3B8"/>
<path d="M423.475 194.26V185.86H429.546V187.036H424.723V189.304H429.258V190.48H424.723V194.26H423.475ZM430.576 194.26V185.86H431.728V194.26H430.576ZM432.768 194.26V188.236H433.92V194.26H432.768ZM432.756 187.276V185.86H433.932V187.276H432.756ZM434.947 196.3V188.26H436.099V189.076C436.555 188.356 437.347 188.008 438.307 188.008C440.251 188.008 441.355 189.268 441.355 191.188C441.355 193.168 440.143 194.404 438.187 194.404C437.359 194.404 436.603 194.14 436.099 193.468V196.3H434.947ZM436.087 191.416C436.087 192.616 436.735 193.336 438.103 193.336C439.375 193.336 440.143 192.652 440.143 191.188C440.143 189.7 439.303 189.064 438.187 189.064C436.843 189.064 436.087 189.832 436.087 190.924V191.416ZM442.341 194.26V185.86H443.493V190.648L446.709 188.236H448.449L445.689 190.324L448.569 194.26H447.153L444.765 190.984L443.493 191.932V194.26H442.341ZM449.193 190.144C449.241 188.68 450.117 188.032 451.953 188.008C453.897 188.008 454.689 188.812 454.689 190.324V194.26H453.537V193.456C453.093 193.972 452.457 194.368 451.353 194.356C449.865 194.344 448.845 193.708 448.845 192.424C448.845 190.732 450.597 190.468 452.385 190.444L453.525 190.42V190.264C453.525 189.4 453.177 189.04 451.953 189.04C450.801 189.04 450.417 189.376 450.369 190.144H449.193ZM450.021 192.436C450.021 192.976 450.405 193.324 451.449 193.324C452.697 193.324 453.525 192.868 453.525 191.98V191.32L452.469 191.356C450.573 191.416 450.021 191.704 450.021 192.436ZM455.759 194.26V188.26H456.911V189.004C457.559 188.188 458.698 187.984 459.598 188.188L459.442 189.268C458.29 189.04 456.911 189.436 456.911 190.648V194.26H455.759ZM463.598 194.356C462.134 194.356 461.702 193.54 461.654 192.304V189.304H460.622V188.26H461.654V186.028H462.818V188.26H464.797V189.304H462.818V192.4C462.818 193.468 463.862 193.36 464.738 193.168L465.013 194.092C464.438 194.284 464.066 194.356 463.598 194.356Z" fill="#94A3B8"/>
<path d="M424.92 248.26V239.86H426.252L429.54 246.64L432.84 239.86H434.148V248.26H432.96V242.212L429.972 248.26H429.06L426.096 242.2V248.26H424.92ZM436.855 250.42C436.507 250.42 436.159 250.384 435.715 250.204L435.991 249.232C436.831 249.46 437.347 249.412 437.791 248.488L437.995 248.056C438.055 247.9 438.055 247.78 437.983 247.648L435.091 242.224H436.459L438.691 246.64L440.731 242.224H442.027L438.859 248.8C438.331 249.904 437.875 250.42 436.855 250.42ZM442.943 248.26V242.236H444.095V242.992C444.635 242.32 445.499 242.008 446.363 242.008C447.97 242.008 448.798 242.8 448.798 244.276V248.26H447.634V244.528C447.634 243.568 447.25 243.088 446.207 243.088C445.343 243.088 444.095 243.508 444.095 244.612V248.26H442.943ZM452.504 248.356C451.04 248.356 450.608 247.54 450.56 246.304V243.304H449.528V242.26H450.56V240.028H451.724V242.26H453.704V243.304H451.724V246.4C451.724 247.468 452.768 247.36 453.644 247.168L453.92 248.092C453.344 248.284 452.972 248.356 452.504 248.356ZM454.954 248.26V242.26H456.106V243.004C456.754 242.188 457.894 241.984 458.794 242.188L458.638 243.268C457.486 243.04 456.106 243.436 456.106 244.648V248.26H454.954ZM459.321 244.144C459.369 242.68 460.245 242.032 462.081 242.008C464.025 242.008 464.817 242.812 464.817 244.324V248.26H463.665V247.456C463.221 247.972 462.585 248.368 461.481 248.356C459.993 248.344 458.973 247.708 458.973 246.424C458.973 244.732 460.725 244.468 462.513 244.444L463.653 244.42V244.264C463.653 243.4 463.305 243.04 462.081 243.04C460.929 243.04 460.545 243.376 460.497 244.144H459.321ZM460.149 246.436C460.149 246.976 460.533 247.324 461.577 247.324C462.825 247.324 463.653 246.868 463.653 245.98V245.32L462.597 245.356C460.701 245.416 460.149 245.704 460.149 246.436Z" fill="#94A3B8"/>
<path d="M468.16 137H471.672" stroke="#94A3B8" stroke-width="0.999961"/>
<path d="M468.16 191H471.672" stroke="#94A3B8" stroke-width="0.999961"/>
<path d="M468.16 245H471.672" stroke="#94A3B8" stroke-width="0.999961"/>
<path d="M468.16 299H471.672" stroke="#94A3B8" stroke-width="0.999961"/>
<path d="M444.212 302.26L448.184 293.86H449.288L453.248 302.26H451.856L450.74 299.872H446.672L445.568 302.26H444.212ZM447.212 298.72H450.236L448.712 295.444L447.212 298.72ZM453.63 304.612C453.091 304.612 452.575 304.528 452.143 304.372L452.419 303.424C453.21 303.604 454.338 303.844 454.35 302.632V296.236H455.514V302.536C455.514 303.748 454.998 304.612 453.63 304.612ZM454.338 295.276V293.86H455.514V295.276H454.338ZM456.599 302.26V296.236H457.751V302.26H456.599ZM456.587 295.276V293.86H457.763V295.276H456.587ZM462.102 302.404C460.026 302.404 458.778 301.204 458.778 299.212C458.778 297.208 460.11 296.008 462.138 296.008C464.178 296.008 465.462 297.196 465.462 299.2C465.462 301.18 464.154 302.404 462.102 302.404ZM459.978 299.212C459.978 300.52 460.65 301.336 462.102 301.336C463.578 301.336 464.262 300.508 464.262 299.2C464.262 297.892 463.578 297.064 462.102 297.064C460.65 297.064 459.978 297.88 459.978 299.212Z" fill="#94A3B8"/>
<path style="transform-origin: 472.609px 128px; animation-delay: 0.1s;" class="bar-x" d="M472.609 124H575.097V132H472.609V124Z" fill="#20CEFF"/>
<path style="transform-origin: 472.609px 136px; animation-delay: 0.15s;" class="bar-x" d="M472.609 132H546.335V140H472.609V132Z" fill="#EF4444"/>
<path style="transform-origin: 472.609px 144px; animation-delay: 0.2s;" class="bar-x" d="M472.609 140H529.747V148H472.609V140Z" fill="#10B981"/>
<path style="transform-origin: 472.609px 183px; animation-delay: 0.2s;" class="bar-x" d="M472.609 179H536.198V187H472.609V179Z" fill="#20CEFF"/>
<path style="transform-origin: 472.609px 191px; animation-delay: 0.25s;" class="bar-x" d="M472.609 187H518.352V195H472.609V187Z" fill="#EF4444"/>
<path style="transform-origin: 472.609px 199px; animation-delay: 0.3s;" class="bar-x" d="M472.609 195H508.06V203H472.609V195Z" fill="#10B981"/>
<path style="transform-origin: 472.609px 238px; animation-delay: 0.3s;" class="bar-x" d="M472.609 234H585.962V242H472.609V234Z" fill="#20CEFF"/>
<path style="transform-origin: 472.609px 246px; animation-delay: 0.35s;" class="bar-x" d="M472.609 242H554.151V250H472.609V242Z" fill="#EF4444"/>
<path style="transform-origin: 472.609px 254px; animation-delay: 0.4s;" class="bar-x" d="M472.609 250H535.804V258H472.609V250Z" fill="#10B981"/>
<path style="transform-origin: 472.609px 293px; animation-delay: 0.4s;" class="bar-x" d="M472.609 289H536.198V297H472.609V289Z" fill="#20CEFF"/>
<path style="transform-origin: 472.609px 301px; animation-delay: 0.45s;" class="bar-x" d="M472.609 297H518.352V305H472.609V297Z" fill="#EF4444"/>
<path style="transform-origin: 472.609px 309px; animation-delay: 0.5s;" class="bar-x" d="M472.609 305H508.06V313H472.609V305Z" fill="#10B981"/>
<g clip-path="url(#clip4_4680_7468)">
<path d="M468 374.751H479.998V385.249H468V374.751Z" fill="#20CEFF"/>
</g>
<path d="M486.929 384L485.59 383.987V374.9H489.217C491.154 374.9 492.935 375.485 492.935 377.552C492.935 378.683 492.376 379.502 491.245 379.944L493.533 384H491.973L489.932 380.243C489.685 380.269 489.438 380.282 489.178 380.282H486.929V384ZM486.929 379.034H489.282C491.063 379.034 491.557 378.553 491.557 377.552C491.557 376.603 491.024 376.148 489.178 376.148H486.929V379.034ZM499.188 380.113C499.084 379.021 498.317 378.371 496.965 378.371C495.639 378.371 494.859 379.021 494.768 380.113H499.188ZM493.364 380.698C493.364 378.527 494.807 377.227 497.004 377.227C499.214 377.227 500.618 378.514 500.605 380.685L500.592 381.101H494.716C494.807 382.258 495.535 382.999 496.965 382.999C498.213 382.999 498.928 382.479 499.162 381.582H500.514C500.124 383.272 498.798 384.156 496.965 384.156C494.716 384.156 493.364 382.856 493.364 380.698ZM503.854 384L500.682 377.474H502.177L504.452 382.401L506.753 377.474H508.183L504.985 384H503.854ZM513.95 380.113C513.846 379.021 513.079 378.371 511.727 378.371C510.401 378.371 509.621 379.021 509.53 380.113H513.95ZM508.126 380.698C508.126 378.527 509.569 377.227 511.766 377.227C513.976 377.227 515.38 378.514 515.367 380.685L515.354 381.101H509.478C509.569 382.258 510.297 382.999 511.727 382.999C512.975 382.999 513.69 382.479 513.924 381.582H515.276C514.886 383.272 513.56 384.156 511.727 384.156C509.478 384.156 508.126 382.856 508.126 380.698ZM516.154 384V377.474H517.402V378.293C517.987 377.565 518.923 377.227 519.859 377.227C521.601 377.227 522.498 378.085 522.498 379.684V384H521.237V379.957C521.237 378.917 520.821 378.397 519.69 378.397C518.754 378.397 517.402 378.852 517.402 380.048V384H516.154ZM525.842 384.156C524.178 384.156 523.346 383.324 523.294 381.673V377.5H524.529V381.439C524.529 382.505 524.932 382.973 526.024 382.973C526.882 382.973 528.234 382.557 528.234 381.309V377.5H529.482V384H528.247V383.103C527.584 383.831 526.804 384.156 525.842 384.156ZM536.004 380.113C535.9 379.021 535.133 378.371 533.781 378.371C532.455 378.371 531.675 379.021 531.584 380.113H536.004ZM530.18 380.698C530.18 378.527 531.623 377.227 533.82 377.227C536.03 377.227 537.434 378.514 537.421 380.685L537.408 381.101H531.532C531.623 382.258 532.351 382.999 533.781 382.999C535.029 382.999 535.744 382.479 535.978 381.582H537.33C536.94 383.272 535.614 384.156 533.781 384.156C531.532 384.156 530.18 382.856 530.18 380.698Z" fill="white"/>
<g clip-path="url(#clip5_4680_7468)">
<path d="M544.996 374.751H556.994V385.249H544.996V374.751Z" fill="#EF4444"/>
</g>
<path d="M569.048 384.156C566.24 384.156 564.979 383.012 565.044 381.192L566.474 381.166C566.474 382.349 567.163 382.908 569.048 382.908C570.816 382.908 571.557 382.349 571.557 381.452C571.557 380.685 571.232 380.308 569.464 380.061L568.229 379.892C566.201 379.606 565.044 378.93 565.044 377.266C565.044 375.628 566.422 374.731 568.84 374.692C571.414 374.718 572.701 375.719 572.662 377.513H571.271C571.271 376.447 570.491 375.927 568.853 375.927C567.15 375.927 566.409 376.434 566.409 377.24C566.409 378.033 566.812 378.358 568.372 378.579L569.672 378.761C571.934 379.086 572.974 379.827 572.974 381.465C572.974 383.103 571.622 384.156 569.061 384.156H569.048ZM574.097 379.541C574.149 377.955 575.098 377.253 577.087 377.227C579.193 377.227 580.051 378.098 580.051 379.736V384H578.803V383.129C578.322 383.688 577.633 384.117 576.437 384.104C574.825 384.091 573.72 383.402 573.72 382.011C573.72 380.178 575.618 379.892 577.555 379.866L578.79 379.84V379.671C578.79 378.735 578.413 378.345 577.087 378.345C575.839 378.345 575.423 378.709 575.371 379.541H574.097ZM574.994 382.024C574.994 382.609 575.41 382.986 576.541 382.986C577.893 382.986 578.79 382.492 578.79 381.53V380.815L577.646 380.854C575.592 380.919 574.994 381.231 574.994 382.024ZM580.897 384V374.9H582.145V384H580.897ZM588.719 380.113C588.615 379.021 587.848 378.371 586.496 378.371C585.17 378.371 584.39 379.021 584.299 380.113H588.719ZM582.895 380.698C582.895 378.527 584.338 377.227 586.535 377.227C588.745 377.227 590.149 378.514 590.136 380.685L590.123 381.101H584.247C584.338 382.258 585.066 382.999 586.496 382.999C587.744 382.999 588.459 382.479 588.693 381.582H590.045C589.655 383.272 588.329 384.156 586.496 384.156C584.247 384.156 582.895 382.856 582.895 380.698ZM592.11 382.154C592.188 382.7 592.695 382.986 593.839 383.012C595.074 383.012 595.672 382.713 595.672 382.115C595.672 381.647 595.464 381.322 594.229 381.153L593.41 381.049C591.655 380.828 590.836 380.399 590.836 379.177C590.836 377.981 591.967 377.227 593.774 377.227C595.516 377.227 596.569 377.929 596.738 379.086H595.49C595.399 378.592 594.853 378.358 593.774 378.345C592.656 378.358 592.058 378.67 592.058 379.177C592.058 379.632 592.344 379.879 593.462 380.035L594.372 380.152C596.218 380.373 596.972 380.867 596.972 382.115C596.972 383.363 595.893 384.143 593.839 384.156C591.876 384.143 590.914 383.389 590.81 382.154H592.11Z" fill="white"/>
<g clip-path="url(#clip6_4680_7468)">
<path d="M468 390.751H479.998V401.249H468V390.751Z" fill="#10B981"/>
</g>
<path d="M486.925 400V390.9H490.617C492.567 390.9 494.348 391.472 494.348 393.682C494.348 395.723 492.801 396.555 490.578 396.555H488.264V400H486.925ZM488.264 395.294H490.578C492.476 395.294 492.983 394.774 492.983 393.695C492.983 392.603 492.463 392.148 490.565 392.148H488.264V395.294ZM495.156 400V393.5H496.404V394.306C497.106 393.422 498.341 393.201 499.316 393.422L499.147 394.592C497.899 394.345 496.404 394.774 496.404 396.087V400H495.156ZM503.015 400.156C500.766 400.156 499.414 398.856 499.414 396.698C499.414 394.527 500.857 393.227 503.054 393.227C505.264 393.227 506.655 394.514 506.655 396.685C506.655 398.83 505.238 400.156 503.015 400.156ZM500.714 396.698C500.714 398.115 501.442 398.999 503.015 398.999C504.614 398.999 505.355 398.102 505.355 396.685C505.355 395.268 504.614 394.371 503.015 394.371C501.442 394.371 500.714 395.255 500.714 396.698ZM508.167 400V394.618H507.049V393.474H508.167V392.824C508.167 391.485 509.207 390.848 510.494 390.848C510.728 390.848 510.988 390.861 511.443 390.926V392.018C511.274 391.992 510.767 391.992 510.598 391.992C509.818 391.992 509.441 392.239 509.441 393.019V393.474H511.443V394.618H509.441V400H508.167ZM512.259 400V393.474H513.507V400H512.259ZM512.246 392.434V390.9H513.52V392.434H512.246ZM517.532 400.104C515.946 400.104 515.478 399.22 515.426 397.881V394.631H514.308V393.5H515.426V391.082H516.687V393.5H518.832V394.631H516.687V397.985C516.687 399.142 517.818 399.025 518.767 398.817L519.066 399.818C518.442 400.026 518.039 400.104 517.532 400.104Z" fill="white"/>
<path d="M250.711 326.073H405.998" stroke="#595BA4" stroke-width="0.99998" stroke-dasharray="3 3"/>
<path d="M250.711 272.295H405.998" stroke="#595BA4" stroke-width="0.99998" stroke-dasharray="3 3"/>
<path d="M250.711 218.517H405.998" stroke="#595BA4" stroke-width="0.99998" stroke-dasharray="3 3"/>
<path d="M250.711 164.737H405.998" stroke="#595BA4" stroke-width="0.99998" stroke-dasharray="3 3"/>
<path d="M250.711 110.959H405.998" stroke="#595BA4" stroke-width="0.99998" stroke-dasharray="3 3"/>
<path d="M266.246 110.959V326.073" stroke="#595BA4" stroke-width="0.99998" stroke-dasharray="3 3"/>
<path d="M297.301 110.959V326.073" stroke="#595BA4" stroke-width="0.99998" stroke-dasharray="3 3"/>
<path d="M328.359 110.959V326.073" stroke="#595BA4" stroke-width="0.99998" stroke-dasharray="3 3"/>
<path d="M359.414 110.959V326.073" stroke="#595BA4" stroke-width="0.99998" stroke-dasharray="3 3"/>
<path d="M390.473 110.959V326.073" stroke="#595BA4" stroke-width="0.99998" stroke-dasharray="3 3"/>
<path d="M250.711 110.959V326.073" stroke="#595BA4" stroke-width="0.99998" stroke-dasharray="3 3"/>
<path d="M406 110.959V326.073" stroke="#595BA4" stroke-width="0.99998" stroke-dasharray="3 3"/>
<path d="M250.715 326.074H406.002" stroke="#94A3B8" stroke-width="0.999961"/>
<path d="M266.07 333.85V326.074" stroke="#94A3B8" stroke-width="0.999961"/>
<path d="M297.07 333.85V326.074" stroke="#94A3B8" stroke-width="0.999961"/>
<path d="M328.07 333.85V326.074" stroke="#94A3B8" stroke-width="0.999961"/>
<path d="M359.07 333.85V326.074" stroke="#94A3B8" stroke-width="0.999961"/>
<path d="M390.07 333.85V326.074" stroke="#94A3B8" stroke-width="0.999961"/>
<path d="M269.253 395.879C269.253 398.531 267.635 400.207 264.903 400.058C262.147 399.908 260.53 398.032 260.53 395.405C260.53 393.281 261.572 391.777 263.393 391.349V392.681C262.315 393.03 261.68 393.991 261.68 395.467C261.68 397.519 262.842 398.674 264.903 398.787C266.94 398.897 268.102 397.881 268.102 395.817C268.102 394.329 267.491 393.336 266.425 392.846V391.526C268.39 392.233 269.253 393.887 269.253 395.879ZM269.253 387.327C269.253 389.403 268.054 390.586 266.065 390.478C264.064 390.369 262.866 388.971 262.866 386.944C262.866 384.904 264.052 383.684 266.053 383.793C268.03 383.901 269.253 385.275 269.253 387.327ZM266.065 389.278C267.371 389.349 268.186 388.721 268.186 387.269C268.186 385.793 267.359 385.064 266.053 384.993C264.747 384.922 263.921 385.561 263.921 387.037C263.921 388.489 264.735 389.205 266.065 389.278ZM267.407 381.71C267.911 381.665 268.174 381.212 268.198 380.157C268.198 379.017 267.923 378.45 267.371 378.42C266.94 378.397 266.64 378.572 266.485 379.704L266.389 380.455C266.185 382.064 265.79 382.798 264.663 382.737C263.561 382.677 262.866 381.595 262.866 379.927C262.866 378.319 263.513 377.382 264.58 377.284V378.436C264.124 378.495 263.909 378.988 263.897 379.983C263.909 381.016 264.196 381.583 264.663 381.609C265.083 381.632 265.311 381.38 265.454 380.356L265.562 379.522C265.766 377.829 266.221 377.158 267.371 377.22C268.522 377.283 269.241 378.318 269.253 380.215C269.241 382.026 268.546 382.876 267.407 382.91V381.71ZM269.109 376.347L263.094 376.02V374.868L263.837 374.908C263.214 374.346 262.866 373.559 262.866 372.827C262.866 371.855 263.19 371.249 263.897 370.951C263.214 370.302 262.866 369.467 262.866 368.579C262.866 367.139 263.585 366.375 265.011 366.452L269.109 366.675V367.851L265.275 367.643C264.352 367.592 263.945 367.882 263.945 368.794C263.945 369.598 264.364 370.665 265.346 370.718L269.109 370.923V372.087L265.275 371.878C264.376 371.829 263.945 372.142 263.945 373.042C263.945 373.954 264.544 374.946 265.538 375.001L269.109 375.195V376.347ZM265.526 360.183C264.52 360.224 263.921 360.899 263.921 362.147C263.921 363.371 264.52 364.124 265.526 364.263V360.183ZM266.065 365.588C264.064 365.479 262.866 364.082 262.866 362.054C262.866 360.014 264.052 358.783 266.053 358.904L266.437 358.936V364.36C267.503 364.334 268.186 363.699 268.186 362.379C268.186 361.228 267.707 360.541 266.88 360.28V359.033C268.438 359.477 269.253 360.746 269.253 362.438C269.253 364.513 268.054 365.696 266.065 365.588ZM269.205 355.682C269.205 357.146 268.39 357.533 267.156 357.514L264.16 357.351V358.383L263.118 358.326V357.294L260.889 357.173V356.009L263.118 356.13V354.15L264.16 354.207V356.187L267.252 356.355C268.318 356.413 268.21 355.364 268.018 354.477L268.941 354.251C269.133 354.838 269.205 355.214 269.205 355.682ZM269.109 353.215L263.094 352.887V351.735L269.109 352.063V353.215ZM262.135 352.847L260.721 352.77V351.594L262.135 351.671V352.847ZM266.617 344.311C268.366 344.67 269.253 346.002 269.253 347.766C269.253 349.842 268.054 351.025 266.065 350.917C264.064 350.808 262.866 349.411 262.866 347.383C262.866 345.547 263.813 344.386 265.466 344.248V345.436C264.484 345.563 263.921 346.288 263.921 347.476C263.921 348.928 264.735 349.644 266.065 349.717C267.371 349.788 268.186 349.16 268.186 347.708C268.186 346.46 267.575 345.731 266.617 345.511V344.311ZM267.407 342.102C267.911 342.058 268.174 341.604 268.198 340.549C268.198 339.409 267.923 338.842 267.371 338.812C266.94 338.789 266.64 338.965 266.485 340.096L266.389 340.847C266.185 342.456 265.79 343.19 264.663 343.129C263.561 343.069 262.866 341.987 262.866 340.319C262.866 338.711 263.513 337.774 264.58 337.676V338.828C264.124 338.888 263.909 339.38 263.897 340.375C263.909 341.408 264.196 341.975 264.663 342.001C265.083 342.024 265.311 341.772 265.454 340.748L265.562 339.914C265.766 338.221 266.221 337.55 267.371 337.612C268.522 337.675 269.241 338.71 269.253 340.607C269.241 342.418 268.546 343.268 267.407 343.302V342.102Z" fill="#94A3B8"/>
<path d="M299.233 379.884C299.233 382.536 297.615 384.212 294.884 384.063C292.128 383.913 290.51 382.037 290.51 379.409C290.51 377.285 291.553 375.782 293.374 375.353V376.685C292.296 377.034 291.66 377.996 291.66 379.472C291.66 381.524 292.823 382.679 294.884 382.791C296.921 382.902 298.083 381.885 298.083 379.821C298.083 378.333 297.472 377.34 296.405 376.85V375.53C298.37 376.237 299.233 377.892 299.233 379.884ZM299.089 374.648L290.702 374.191V373.039L299.089 373.496V374.648ZM299.233 369.152C299.233 371.228 298.035 372.411 296.046 372.303C294.045 372.194 292.847 370.796 292.847 368.769C292.847 366.729 294.033 365.509 296.034 365.618C298.011 365.726 299.233 367.1 299.233 369.152ZM296.046 371.103C297.352 371.174 298.167 370.546 298.167 369.094C298.167 367.618 297.34 366.889 296.034 366.818C294.728 366.747 293.901 367.386 293.901 368.862C293.901 370.314 294.716 371.03 296.046 371.103ZM299.185 362.396C299.185 363.86 298.37 364.248 297.136 364.229L294.141 364.066V365.098L293.098 365.041V364.009L290.87 363.888V362.724L293.098 362.845V360.865L294.141 360.922V362.902L297.232 363.07C298.298 363.128 298.191 362.078 297.999 361.192L298.921 360.966C299.113 361.552 299.185 361.928 299.185 362.396ZM299.089 359.988L290.702 359.532V358.38L293.745 358.545C293.11 357.863 292.847 357.08 292.847 356.229C292.847 354.621 293.637 353.836 295.111 353.916L299.089 354.132V355.296L295.363 355.094C294.392 355.041 293.925 355.399 293.925 356.443C293.925 357.487 294.464 358.584 295.555 358.644L299.089 358.836V359.988ZM299.089 353.098L293.074 352.77V351.618L299.089 351.946V353.098ZM292.116 352.73L290.702 352.653V351.477L292.116 351.554V352.73ZM299.089 350.918L293.074 350.591V349.439L293.829 349.48C293.158 348.903 292.847 348.023 292.847 347.159C292.847 345.551 293.637 344.766 295.111 344.846L299.089 345.062V346.226L295.363 346.024C294.404 345.971 293.925 346.329 293.925 347.373C293.925 348.237 294.344 349.508 295.447 349.568L299.089 349.766V350.918ZM297.891 340.888C297.891 339.496 297.136 338.759 296.106 338.703L295.734 338.683C294.608 338.622 293.901 339.183 293.901 340.551C293.901 341.823 294.572 342.676 295.902 342.748C297.28 342.823 297.891 342.004 297.891 340.888ZM295.902 343.96C293.997 343.856 292.799 342.531 292.847 340.626C292.871 339.595 293.386 338.627 293.877 338.594L293.098 338.551V337.399L298.442 337.69C299.065 337.724 299.604 337.85 300.036 338.041C300.982 338.489 301.438 339.389 301.438 340.925C301.438 342.713 300.886 343.799 299.533 343.869V342.73C300.084 342.592 300.383 342.092 300.383 340.868C300.383 339.404 299.784 338.927 298.766 338.872L297.963 338.828C298.61 339.367 298.957 340.082 298.957 341.066C298.957 342.95 297.843 344.066 295.902 343.96Z" fill="#94A3B8"/>
<path d="M329.066 392.706L320.679 392.249V386.177L321.853 386.241V391.065L324.117 391.188V386.653L325.292 386.716V391.252L329.066 391.458V392.706ZM329.21 382.769C329.21 384.845 328.011 386.027 326.022 385.919C324.021 385.81 322.823 384.413 322.823 382.385C322.823 380.345 324.009 379.126 326.01 379.235C327.987 379.342 329.21 380.717 329.21 382.769ZM326.022 384.719C327.328 384.79 328.143 384.163 328.143 382.711C328.143 381.235 327.316 380.506 326.01 380.435C324.704 380.364 323.878 381.003 323.878 382.479C323.878 383.93 324.692 384.647 326.022 384.719ZM329.21 375.07C329.21 377.146 328.011 378.329 326.022 378.22C324.021 378.111 322.823 376.714 322.823 374.686C322.823 372.646 324.009 371.427 326.01 371.536C327.987 371.643 329.21 373.018 329.21 375.07ZM326.022 377.02C327.328 377.091 328.143 376.464 328.143 375.012C328.143 373.536 327.316 372.807 326.01 372.736C324.704 372.665 323.878 373.304 323.878 374.78C323.878 376.232 324.692 376.948 326.022 377.02ZM329.162 368.314C329.162 369.778 328.347 370.166 327.113 370.146L324.117 369.983V371.015L323.075 370.959V369.927L320.846 369.805V368.641L323.075 368.763V366.783L324.117 366.839V368.819L327.209 368.988C328.275 369.046 328.167 367.996 327.975 367.109L328.898 366.884C329.09 367.47 329.162 367.846 329.162 368.314ZM329.066 363.982L323.051 365.754V364.494L327.4 363.315L323.051 361.506V360.439L327.4 359.139L323.051 357.499V356.263L329.066 358.69V359.758L324.644 361.101L329.066 362.926V363.982ZM325.483 350.597C324.477 350.638 323.878 351.314 323.878 352.562C323.878 353.786 324.477 354.538 325.483 354.677V350.597ZM326.022 356.002C324.021 355.893 322.823 354.496 322.823 352.468C322.823 350.428 324.009 349.197 326.01 349.318L326.394 349.351V354.775C327.46 354.749 328.143 354.114 328.143 352.794C328.143 351.642 327.664 350.956 326.837 350.695V349.447C328.395 349.892 329.21 351.16 329.21 352.852C329.21 354.928 328.011 356.111 326.022 356.002ZM324.956 347.897C323.494 347.77 322.847 346.859 322.823 345.021C322.823 343.078 323.626 342.329 325.136 342.411L329.066 342.625V343.777L328.263 343.734C328.778 344.206 329.174 344.863 329.162 345.966C329.15 347.454 328.515 348.439 327.233 348.369C325.543 348.277 325.28 346.511 325.256 344.722L325.232 343.581L325.076 343.572C324.213 343.525 323.854 343.854 323.854 345.078C323.854 346.229 324.189 346.632 324.956 346.721V347.897ZM327.245 347.194C327.784 347.223 328.131 346.858 328.131 345.814C328.131 344.566 327.676 343.714 326.789 343.665L326.13 343.63L326.166 344.687C326.226 346.587 326.514 347.154 327.245 347.194ZM329.066 341.555L323.075 341.229V340.077L323.818 340.118C323.003 339.425 322.799 338.274 323.003 337.385L324.081 337.6C323.854 338.74 324.249 340.141 325.459 340.207L329.066 340.403V341.555Z" fill="#94A3B8"/>
<path d="M359.046 365.965L350.659 365.508V359.436L351.833 359.5V364.324L354.098 364.447V359.911L355.272 359.975V364.511L359.046 364.717V365.965ZM359.19 356.028C359.19 358.104 357.992 359.286 356.003 359.178C354.002 359.069 352.804 357.672 352.804 355.644C352.804 353.604 353.99 352.385 355.991 352.494C357.968 352.601 359.19 353.976 359.19 356.028ZM356.003 357.978C357.309 358.049 358.124 357.422 358.124 355.97C358.124 354.494 357.297 353.765 355.991 353.694C354.685 353.622 353.858 354.261 353.858 355.737C353.858 357.189 354.673 357.906 356.003 357.978ZM359.19 348.329C359.19 350.405 357.992 351.587 356.003 351.479C354.002 351.37 352.804 349.973 352.804 347.945C352.804 345.905 353.99 344.686 355.991 344.795C357.968 344.902 359.19 346.277 359.19 348.329ZM356.003 350.279C357.309 350.35 358.124 349.723 358.124 348.271C358.124 346.795 357.297 346.066 355.991 345.995C354.685 345.924 353.858 346.563 353.858 348.038C353.858 349.49 354.673 350.207 356.003 350.279ZM359.19 341.082C359.202 342.99 357.932 344.049 356.003 343.944C354.002 343.835 352.804 342.546 352.804 340.614C352.804 339.798 353.043 339.055 353.702 338.587L350.659 338.422V337.27L359.046 337.726V338.866L358.148 338.817C358.819 339.322 359.178 340.013 359.19 341.082ZM356.003 342.756C357.429 342.834 358.112 342.043 358.112 340.903C358.112 339.595 357.417 338.753 356.254 338.69L355.775 338.664C354.505 338.595 353.858 339.292 353.858 340.576C353.858 341.848 354.541 342.677 356.003 342.756Z" fill="#94A3B8"/>
<path d="M389.027 395.448L380.639 394.991V391.583C380.639 389.783 381.167 388.168 383.204 388.279C385.085 388.381 385.852 389.851 385.852 391.903V394.039L389.027 394.212V395.448ZM384.689 393.976V391.84C384.689 390.088 384.21 389.594 383.216 389.54C382.209 389.485 381.79 389.942 381.79 391.694V393.818L384.689 393.976ZM389.027 387.561L380.639 387.105V385.953L383.683 386.118C383.048 385.436 382.784 384.654 382.784 383.802C382.784 382.194 383.575 381.409 385.049 381.489L389.027 381.706V382.869L385.3 382.667C384.33 382.614 383.863 382.972 383.863 384.016C383.863 385.06 384.402 386.158 385.492 386.217L389.027 386.409V387.561ZM384.917 380.158C383.455 380.03 382.808 379.119 382.784 377.282C382.784 375.338 383.587 374.59 385.097 374.672L389.027 374.886V376.038L388.224 375.994C388.739 376.466 389.135 377.124 389.123 378.227C389.111 379.714 388.476 380.7 387.193 380.63C385.504 380.538 385.24 378.772 385.217 376.982L385.193 375.841L385.037 375.833C384.174 375.786 383.815 376.114 383.815 377.338C383.815 378.49 384.15 378.892 384.917 378.982V380.158ZM387.205 379.454C387.745 379.484 388.092 379.119 388.092 378.075C388.092 376.827 387.637 375.974 386.75 375.926L386.091 375.89L386.127 376.948C386.187 378.847 386.475 379.415 387.205 379.454ZM389.027 373.816L383.036 373.49V372.338L383.779 372.378C382.964 371.686 382.76 370.535 382.964 369.646L384.042 369.861C383.815 371 384.21 372.402 385.42 372.467L389.027 372.664V373.816ZM389.027 369.07L383.012 368.742V367.591L383.755 367.631C383.132 367.069 382.784 366.282 382.784 365.55C382.784 364.578 383.108 363.972 383.815 363.674C383.132 363.025 382.784 362.19 382.784 361.302C382.784 359.862 383.503 359.098 384.929 359.175L389.027 359.398V360.574L385.193 360.365C384.27 360.315 383.863 360.605 383.863 361.517C383.863 362.321 384.282 363.388 385.264 363.441L389.027 363.646V364.81L385.193 364.601C384.294 364.552 383.863 364.865 383.863 365.765C383.863 366.677 384.462 367.669 385.456 367.724L389.027 367.918V369.07ZM384.917 357.858C383.455 357.73 382.808 356.819 382.784 354.982C382.784 353.038 383.587 352.29 385.097 352.372L389.027 352.586V353.738L388.224 353.694C388.739 354.166 389.135 354.824 389.123 355.927C389.111 357.414 388.476 358.4 387.193 358.33C385.504 358.238 385.24 356.472 385.217 354.682L385.193 353.541L385.037 353.533C384.174 353.486 383.815 353.814 383.815 355.038C383.815 356.19 384.15 356.592 384.917 356.682V357.858ZM387.205 357.155C387.745 357.184 388.092 356.819 388.092 355.775C388.092 354.527 387.637 353.674 386.75 353.626L386.091 353.59L386.127 354.648C386.187 356.547 386.475 357.115 387.205 357.155ZM386.534 344.838C388.284 345.197 389.17 346.53 389.17 348.294C389.17 350.369 387.972 351.552 385.983 351.444C383.982 351.335 382.784 349.938 382.784 347.91C382.784 346.074 383.731 344.914 385.384 344.776V345.964C384.402 346.09 383.839 346.815 383.839 348.003C383.839 349.455 384.653 350.172 385.983 350.244C387.289 350.315 388.104 349.687 388.104 348.236C388.104 346.988 387.493 346.258 386.534 346.038V344.838ZM391.183 343.014C391.183 343.362 391.147 343.708 390.968 344.142L389.997 343.814C390.225 342.986 390.177 342.467 389.254 341.973L388.823 341.746C388.667 341.677 388.547 341.671 388.416 341.736L383 344.333V342.965L387.409 340.973L383 338.693V337.397L389.566 340.922C390.668 341.51 391.183 341.994 391.183 343.014Z" fill="#94A3B8"/>
<path d="M250.711 110.959V326.073" stroke="#94A3B8" stroke-width="0.999961"/>
<path d="M247.199 326.073H250.715" stroke="#94A3B8" stroke-width="0.999961"/>
<path d="M240.699 328.162C240.057 328.162 239.51 327.988 239.059 327.638C238.607 327.286 238.262 326.776 238.023 326.108C237.785 325.438 237.665 324.628 237.665 323.68C237.665 322.736 237.785 321.931 238.023 321.263C238.265 320.593 238.611 320.082 239.063 319.729C239.518 319.374 240.063 319.197 240.699 319.197C241.336 319.197 241.88 319.374 242.331 319.729C242.786 320.082 243.133 320.593 243.371 321.263C243.613 321.931 243.733 322.736 243.733 323.68C243.733 324.628 243.614 325.438 243.375 326.108C243.137 326.776 242.792 327.286 242.34 327.638C241.888 327.988 241.341 328.162 240.699 328.162ZM240.699 327.225C241.336 327.225 241.83 326.918 242.182 326.304C242.535 325.691 242.711 324.816 242.711 323.68C242.711 322.924 242.63 322.28 242.468 321.749C242.309 321.218 242.079 320.813 241.777 320.535C241.479 320.256 241.12 320.117 240.699 320.117C240.069 320.117 239.576 320.428 239.221 321.05C238.866 321.67 238.688 322.546 238.688 323.68C238.688 324.435 238.768 325.077 238.927 325.606C239.086 326.134 239.314 326.536 239.613 326.811C239.914 327.087 240.276 327.225 240.699 327.225Z" fill="#94A3B8"/>
<path d="M247.199 272.294H250.715" stroke="#94A3B8" stroke-width="0.999961"/>
<path d="M233.575 274.383C233.013 274.383 232.511 274.286 232.071 274.093C231.634 273.9 231.286 273.632 231.027 273.288C230.772 272.941 230.632 272.539 230.61 272.082H231.683C231.706 272.363 231.803 272.606 231.973 272.811C232.144 273.012 232.367 273.169 232.642 273.279C232.918 273.39 233.223 273.446 233.558 273.446C233.933 273.446 234.266 273.38 234.555 273.25C234.845 273.119 235.072 272.937 235.237 272.704C235.402 272.471 235.484 272.201 235.484 271.894C235.484 271.573 235.405 271.291 235.246 271.046C235.087 270.799 234.854 270.606 234.547 270.467C234.24 270.328 233.865 270.258 233.422 270.258H232.723V269.321H233.422C233.769 269.321 234.073 269.258 234.334 269.133C234.598 269.008 234.804 268.832 234.952 268.605C235.102 268.378 235.178 268.111 235.178 267.804C235.178 267.508 235.112 267.251 234.982 267.032C234.851 266.814 234.666 266.643 234.428 266.521C234.192 266.399 233.913 266.338 233.592 266.338C233.291 266.338 233.007 266.393 232.74 266.504C232.476 266.612 232.26 266.77 232.092 266.977C231.925 267.182 231.834 267.429 231.82 267.718H230.797C230.814 267.261 230.952 266.861 231.21 266.517C231.469 266.17 231.807 265.9 232.225 265.707C232.645 265.514 233.107 265.417 233.609 265.417C234.149 265.417 234.612 265.527 234.999 265.746C235.385 265.961 235.682 266.247 235.889 266.602C236.097 266.957 236.2 267.341 236.2 267.753C236.2 268.244 236.071 268.663 235.813 269.01C235.557 269.356 235.209 269.596 234.769 269.73V269.798C235.32 269.889 235.75 270.123 236.06 270.501C236.369 270.876 236.524 271.34 236.524 271.894C236.524 272.369 236.395 272.795 236.136 273.173C235.881 273.548 235.531 273.843 235.088 274.059C234.645 274.275 234.141 274.383 233.575 274.383ZM241.113 274.383C240.471 274.383 239.925 274.208 239.473 273.859C239.021 273.507 238.676 272.997 238.437 272.329C238.199 271.659 238.079 270.849 238.079 269.9C238.079 268.957 238.199 268.152 238.437 267.484C238.679 266.814 239.025 266.302 239.477 265.95C239.932 265.595 240.477 265.417 241.113 265.417C241.75 265.417 242.294 265.595 242.745 265.95C243.2 266.302 243.547 266.814 243.785 267.484C244.027 268.152 244.147 268.957 244.147 269.9C244.147 270.849 244.028 271.659 243.789 272.329C243.551 272.997 243.206 273.507 242.754 273.859C242.302 274.208 241.755 274.383 241.113 274.383ZM241.113 273.446C241.75 273.446 242.244 273.139 242.596 272.525C242.949 271.911 243.125 271.037 243.125 269.9C243.125 269.145 243.044 268.501 242.882 267.97C242.723 267.439 242.493 267.034 242.192 266.755C241.893 266.477 241.534 266.338 241.113 266.338C240.483 266.338 239.99 266.649 239.635 267.271C239.28 267.89 239.102 268.767 239.102 269.9C239.102 270.656 239.182 271.298 239.341 271.826C239.5 272.355 239.729 272.757 240.027 273.032C240.328 273.308 240.69 273.446 241.113 273.446Z" fill="#94A3B8"/>
<path d="M247.199 218.516H250.715" stroke="#94A3B8" stroke-width="0.999961"/>
<path d="M234.235 220.606C233.877 220.6 233.519 220.532 233.161 220.401C232.803 220.27 232.477 220.05 232.181 219.741C231.886 219.428 231.649 219.006 231.47 218.475C231.291 217.941 231.201 217.271 231.201 216.464C231.201 215.691 231.274 215.006 231.419 214.41C231.563 213.81 231.774 213.306 232.049 212.897C232.325 212.485 232.657 212.173 233.046 211.96C233.438 211.747 233.88 211.64 234.372 211.64C234.86 211.64 235.295 211.738 235.675 211.934C236.059 212.127 236.371 212.397 236.613 212.744C236.854 213.09 237.011 213.489 237.082 213.941H236.042C235.945 213.549 235.758 213.224 235.479 212.965C235.201 212.707 234.832 212.578 234.372 212.578C233.695 212.578 233.163 212.872 232.774 213.46C232.387 214.048 232.193 214.873 232.19 215.935H232.258C232.417 215.694 232.606 215.488 232.825 215.317C233.046 215.144 233.291 215.011 233.558 214.917C233.825 214.823 234.107 214.776 234.406 214.776C234.906 214.776 235.363 214.901 235.778 215.151C236.192 215.398 236.525 215.741 236.775 216.178C237.025 216.613 237.15 217.111 237.15 217.674C237.15 218.214 237.029 218.708 236.788 219.157C236.546 219.603 236.207 219.958 235.769 220.222C235.335 220.483 234.823 220.611 234.235 220.606ZM234.235 219.668C234.593 219.668 234.914 219.579 235.198 219.4C235.485 219.221 235.711 218.981 235.876 218.68C236.043 218.378 236.127 218.043 236.127 217.674C236.127 217.313 236.046 216.985 235.884 216.69C235.725 216.391 235.505 216.154 235.224 215.978C234.945 215.802 234.627 215.714 234.269 215.714C233.999 215.714 233.748 215.768 233.515 215.876C233.282 215.981 233.078 216.126 232.901 216.31C232.728 216.495 232.592 216.707 232.492 216.945C232.393 217.181 232.343 217.43 232.343 217.691C232.343 218.038 232.424 218.361 232.586 218.663C232.751 218.964 232.975 219.207 233.259 219.391C233.546 219.576 233.872 219.668 234.235 219.668ZM241.672 220.606C241.03 220.606 240.483 220.431 240.031 220.082C239.58 219.729 239.235 219.219 238.996 218.552C238.757 217.881 238.638 217.072 238.638 216.123C238.638 215.18 238.757 214.374 238.996 213.707C239.237 213.036 239.584 212.525 240.036 212.173C240.49 211.818 241.036 211.64 241.672 211.64C242.308 211.64 242.852 211.818 243.304 212.173C243.759 212.525 244.105 213.036 244.344 213.707C244.585 214.374 244.706 215.18 244.706 216.123C244.706 217.072 244.587 217.881 244.348 218.552C244.109 219.219 243.764 219.729 243.313 220.082C242.861 220.431 242.314 220.606 241.672 220.606ZM241.672 219.668C242.308 219.668 242.803 219.361 243.155 218.748C243.507 218.134 243.683 217.259 243.683 216.123C243.683 215.367 243.602 214.724 243.44 214.193C243.281 213.661 243.051 213.256 242.75 212.978C242.452 212.7 242.092 212.561 241.672 212.561C241.041 212.561 240.548 212.872 240.193 213.494C239.838 214.113 239.661 214.989 239.661 216.123C239.661 216.879 239.74 217.521 239.899 218.049C240.058 218.577 240.287 218.979 240.585 219.255C240.887 219.53 241.249 219.668 241.672 219.668Z" fill="#94A3B8"/>
<path d="M247.199 164.737H250.715" stroke="#94A3B8" stroke-width="0.999961"/>
<path d="M234.116 157.862C234.474 157.865 234.832 157.933 235.19 158.066C235.548 158.2 235.874 158.421 236.17 158.731C236.465 159.038 236.702 159.457 236.881 159.988C237.06 160.519 237.15 161.185 237.15 161.987C237.15 162.762 237.076 163.451 236.928 164.053C236.783 164.653 236.573 165.158 236.298 165.57C236.025 165.982 235.692 166.295 235.3 166.508C234.911 166.721 234.471 166.827 233.979 166.827C233.491 166.827 233.055 166.731 232.671 166.538C232.291 166.342 231.978 166.07 231.734 165.724C231.492 165.374 231.338 164.969 231.269 164.509H232.309C232.403 164.91 232.589 165.241 232.867 165.502C233.149 165.761 233.519 165.89 233.979 165.89C234.653 165.89 235.184 165.596 235.573 165.008C235.965 164.42 236.161 163.589 236.161 162.515H236.093C235.934 162.754 235.745 162.96 235.526 163.133C235.308 163.306 235.065 163.44 234.798 163.533C234.531 163.627 234.247 163.674 233.945 163.674C233.445 163.674 232.987 163.55 232.569 163.303C232.154 163.053 231.822 162.711 231.572 162.276C231.325 161.839 231.201 161.339 231.201 160.776C231.201 160.242 231.321 159.754 231.559 159.311C231.801 158.865 232.139 158.509 232.573 158.245C233.011 157.981 233.525 157.853 234.116 157.862ZM234.116 158.799C233.758 158.799 233.435 158.889 233.149 159.068C232.864 159.244 232.639 159.482 232.471 159.784C232.306 160.082 232.224 160.413 232.224 160.776C232.224 161.14 232.303 161.471 232.463 161.769C232.624 162.065 232.845 162.301 233.123 162.477C233.404 162.65 233.724 162.737 234.082 162.737C234.352 162.737 234.603 162.684 234.836 162.579C235.069 162.471 235.272 162.325 235.445 162.14C235.621 161.953 235.759 161.741 235.859 161.505C235.958 161.266 236.008 161.018 236.008 160.759C236.008 160.418 235.925 160.099 235.761 159.801C235.599 159.502 235.374 159.261 235.087 159.076C234.803 158.892 234.479 158.799 234.116 158.799ZM241.672 166.827C241.03 166.827 240.483 166.653 240.031 166.303C239.58 165.951 239.235 165.441 238.996 164.773C238.757 164.103 238.638 163.293 238.638 162.345C238.638 161.401 238.757 160.596 238.996 159.928C239.237 159.258 239.584 158.747 240.036 158.394C240.49 158.039 241.036 157.862 241.672 157.862C242.308 157.862 242.852 158.039 243.304 158.394C243.759 158.747 244.105 159.258 244.344 159.928C244.585 160.596 244.706 161.401 244.706 162.345C244.706 163.293 244.587 164.103 244.348 164.773C244.109 165.441 243.764 165.951 243.313 166.303C242.861 166.653 242.314 166.827 241.672 166.827ZM241.672 165.89C242.308 165.89 242.803 165.583 243.155 164.969C243.507 164.356 243.683 163.481 243.683 162.345C243.683 161.589 243.602 160.945 243.44 160.414C243.281 159.883 243.051 159.478 242.75 159.2C242.452 158.921 242.092 158.782 241.672 158.782C241.041 158.782 240.548 159.093 240.193 159.715C239.838 160.335 239.661 161.211 239.661 162.345C239.661 163.1 239.74 163.742 239.899 164.271C240.058 164.799 240.287 165.201 240.585 165.477C240.887 165.752 241.249 165.89 241.672 165.89Z" fill="#94A3B8"/>
<path d="M247.199 110.959H250.715" stroke="#94A3B8" stroke-width="0.999961"/>
<path d="M228.628 113.273V122H227.572V114.381H227.521L225.39 115.796V114.722L227.572 113.273H228.628ZM231.138 122V121.233L234.019 118.08C234.357 117.71 234.635 117.389 234.854 117.117C235.073 116.841 235.235 116.583 235.34 116.341C235.448 116.097 235.502 115.841 235.502 115.574C235.502 115.267 235.428 115.002 235.28 114.777C235.135 114.553 234.936 114.38 234.684 114.257C234.431 114.135 234.147 114.074 233.831 114.074C233.496 114.074 233.204 114.144 232.954 114.283C232.706 114.419 232.515 114.611 232.378 114.858C232.245 115.105 232.178 115.395 232.178 115.728H231.172C231.172 115.216 231.29 114.767 231.526 114.381C231.762 113.995 232.083 113.694 232.489 113.478C232.898 113.262 233.357 113.154 233.865 113.154C234.377 113.154 234.83 113.262 235.225 113.478C235.62 113.694 235.929 113.985 236.154 114.351C236.378 114.718 236.49 115.125 236.49 115.574C236.49 115.895 236.432 116.209 236.316 116.516C236.202 116.82 236.003 117.159 235.719 117.534C235.438 117.906 235.047 118.361 234.547 118.898L232.587 120.994V121.063H236.644V122H231.138ZM241.25 122.119C240.608 122.119 240.061 121.945 239.61 121.595C239.158 121.243 238.813 120.733 238.574 120.065C238.335 119.395 238.216 118.585 238.216 117.637C238.216 116.693 238.335 115.888 238.574 115.22C238.816 114.55 239.162 114.039 239.614 113.686C240.068 113.331 240.614 113.154 241.25 113.154C241.886 113.154 242.43 113.331 242.882 113.686C243.337 114.039 243.683 114.55 243.922 115.22C244.163 115.888 244.284 116.693 244.284 117.637C244.284 118.585 244.165 119.395 243.926 120.065C243.688 120.733 243.342 121.243 242.891 121.595C242.439 121.945 241.892 122.119 241.25 122.119ZM241.25 121.182C241.886 121.182 242.381 120.875 242.733 120.261C243.085 119.648 243.261 118.773 243.261 117.637C243.261 116.881 243.18 116.237 243.019 115.706C242.859 115.175 242.629 114.77 242.328 114.492C242.03 114.213 241.671 114.074 241.25 114.074C240.619 114.074 240.127 114.385 239.772 115.007C239.416 115.627 239.239 116.503 239.239 117.637C239.239 118.392 239.318 119.034 239.477 119.563C239.637 120.091 239.865 120.493 240.164 120.769C240.465 121.044 240.827 121.182 241.25 121.182Z" fill="#94A3B8"/>
<path style="transform-origin: 266px 325px; animation-delay: 0.1s;" class="bar-y" d="M253.809 134.668C253.809 131.918 254.302 129.281 255.182 127.337C256.061 125.393 257.253 124.301 258.496 124.301H273.732C274.975 124.301 276.168 125.393 277.047 127.337C277.926 129.281 278.42 131.918 278.42 134.668V325.074H253.809V134.668Z" fill="url(#paint0_linear_4680_7468)"/>
<path style="transform-origin: 297px 325px; animation-delay: 0.2s;" class="bar-y" d="M284.863 249.395C284.863 246.646 285.357 244.009 286.236 242.065C287.115 240.121 288.308 239.028 289.551 239.028H304.787C306.03 239.028 307.223 240.121 308.102 242.065C308.981 244.009 309.475 246.646 309.475 249.395V325.074H284.863V249.395Z" fill="url(#paint1_linear_4680_7468)"/>
<path style="transform-origin: 328px 325px; animation-delay: 0.3s;" class="bar-y" d="M315.922 270.906C315.922 268.157 316.416 265.52 317.295 263.575C318.174 261.631 319.366 260.539 320.61 260.539H335.845C337.089 260.539 338.281 261.631 339.16 263.575C340.039 265.52 340.533 268.157 340.533 270.906V325.073H315.922V270.906Z" fill="url(#paint2_linear_4680_7468)"/>
<path style="transform-origin: 359px 325px; animation-delay: 0.4s;" class="bar-y" d="M346.98 183.068C346.98 180.319 347.474 177.682 348.354 175.738C349.233 173.793 350.425 172.701 351.668 172.701H366.904C368.147 172.701 369.34 173.793 370.219 175.738C371.098 177.682 371.592 180.319 371.592 183.068V325.074H346.98V183.068Z" fill="url(#paint3_linear_4680_7468)"/>
<path style="transform-origin: 390px 325px; animation-delay: 0.5s;" class="bar-y" d="M378.039 224.299C378.039 221.549 378.533 218.912 379.412 216.968C380.291 215.024 381.484 213.932 382.727 213.932H397.963C399.206 213.932 400.398 215.024 401.278 216.968C402.157 218.912 402.651 221.549 402.651 224.299V325.074H378.039V224.299Z" fill="url(#paint4_linear_4680_7468)"/>
<defs>
<linearGradient id="paint0_linear_4680_7468" x1="253.809" y1="124.301" x2="253.809" y2="325.074" gradientUnits="userSpaceOnUse">
<stop stop-color="#7D6FFF"/>
<stop offset="1" stop-color="#4E32AC"/>
</linearGradient>
<linearGradient id="paint1_linear_4680_7468" x1="284.863" y1="239.028" x2="284.863" y2="325.074" gradientUnits="userSpaceOnUse">
<stop stop-color="#7D6FFF"/>
<stop offset="1" stop-color="#4E32AC"/>
</linearGradient>
<linearGradient id="paint2_linear_4680_7468" x1="315.922" y1="260.539" x2="315.922" y2="325.073" gradientUnits="userSpaceOnUse">
<stop stop-color="#7D6FFF"/>
<stop offset="1" stop-color="#4E32AC"/>
</linearGradient>
<linearGradient id="paint3_linear_4680_7468" x1="346.98" y1="172.701" x2="346.98" y2="325.074" gradientUnits="userSpaceOnUse">
<stop stop-color="#7D6FFF"/>
<stop offset="1" stop-color="#4E32AC"/>
</linearGradient>
<linearGradient id="paint4_linear_4680_7468" x1="378.039" y1="213.932" x2="378.039" y2="325.074" gradientUnits="userSpaceOnUse">
<stop stop-color="#7D6FFF"/>
<stop offset="1" stop-color="#4E32AC"/>
</linearGradient>
<clipPath id="clip0_4680_7468">
<rect width="11.9976" height="13.9976" fill="white" transform="translate(66 361.001)"/>
</clipPath>
<clipPath id="clip1_4680_7468">
<rect width="11.9976" height="13.9976" fill="white" transform="translate(142.996 361.001)"/>
</clipPath>
<clipPath id="clip2_4680_7468">
<rect width="11.9976" height="13.9976" fill="white" transform="translate(66 377.001)"/>
</clipPath>
<clipPath id="clip3_4680_7468">
<rect width="11.9976" height="13.9976" fill="white" transform="translate(142.996 377.001)"/>
</clipPath>
<clipPath id="clip4_4680_7468">
<rect width="11.9976" height="13.9976" fill="white" transform="translate(468 373.001)"/>
</clipPath>
<clipPath id="clip5_4680_7468">
<rect width="11.9976" height="13.9976" fill="white" transform="translate(544.996 373.001)"/>
</clipPath>
<clipPath id="clip6_4680_7468">
<rect width="11.9976" height="13.9976" fill="white" transform="translate(468 389.001)"/>
</clipPath>
</defs>
</svg>
