<svg width="27" height="25" viewBox="0 0 27 25" fill="none" xmlns="http://www.w3.org/2000/svg">
<path d="M20.8438 8.75L19.4688 5.75L16.4688 4.375L19.4688 3L20.8438 0L22.2188 3L25.2188 4.375L22.2188 5.75L20.8438 8.75ZM23.3438 17.5L22.3438 15.375L20.2188 14.375L22.3438 13.375L23.3438 11.25L24.3438 13.375L26.4688 14.375L24.3438 15.375L23.3438 17.5ZM7.09375 25L6.71875 22.0625C6.57292 22 6.41667 21.9167 6.25 21.8125C6.08333 21.7083 5.94792 21.6042 5.84375 21.5L3.09375 22.6875L0 17.25L2.34375 15.5C2.34375 15.3333 2.34375 15.1667 2.34375 15C2.34375 14.8333 2.34375 14.6667 2.34375 14.5L0 12.75L3.09375 7.3125L5.84375 8.5C5.94792 8.39583 6.08333 8.29167 6.25 8.1875C6.41667 8.08333 6.57292 8 6.71875 7.9375L7.09375 5H13.3438L13.7188 7.9375C13.8646 8 14.0208 8.08333 14.1875 8.1875C14.3542 8.29167 14.4896 8.39583 14.5938 8.5L17.3438 7.3125L20.4375 12.75L18.0938 14.5C18.0938 14.6667 18.0938 14.8333 18.0938 15C18.0938 15.1667 18.0938 15.3333 18.0938 15.5L20.4375 17.25L17.3438 22.6875L14.5938 21.5C14.4896 21.6042 14.3542 21.7083 14.1875 21.8125C14.0208 21.9167 13.8646 22 13.7188 22.0625L13.3438 25H7.09375ZM10.2188 18.75C11.2604 18.75 12.1458 18.3854 12.875 17.6562C13.6042 16.9271 13.9688 16.0417 13.9688 15C13.9688 13.9583 13.6042 13.0729 12.875 12.3438C12.1458 11.6146 11.2604 11.25 10.2188 11.25C9.17708 11.25 8.29167 11.6146 7.5625 12.3438C6.83333 13.0729 6.46875 13.9583 6.46875 15C6.46875 16.0417 6.83333 16.9271 7.5625 17.6562C8.29167 18.3854 9.17708 18.75 10.2188 18.75ZM9.28125 22.5H11.1562L11.4062 20.25C12.0104 20.0833 12.526 19.8698 12.9531 19.6094C13.3802 19.349 13.8021 19 14.2188 18.5625L16.2812 19.5L17.1562 17.9375L15.3438 16.5625C15.5104 16.0833 15.5938 15.5625 15.5938 15C15.5938 14.4375 15.5104 13.9167 15.3438 13.4375L17.1562 12.0625L16.2812 10.5L14.2188 11.4375C13.8021 11 13.3802 10.651 12.9531 10.3906C12.526 10.1302 12.0104 9.91667 11.4062 9.75L11.1562 7.5H9.28125L9.03125 9.75C8.42708 9.91667 7.91146 10.1302 7.48438 10.3906C7.05729 10.651 6.63542 11 6.21875 11.4375L4.15625 10.5L3.28125 12.0625L5.09375 13.4375C4.92708 13.9167 4.83854 14.4375 4.82812 15C4.81771 15.5625 4.90625 16.0833 5.09375 16.5625L3.28125 17.9375L4.15625 19.5L6.21875 18.5625C6.63542 19 7.05729 19.349 7.48438 19.6094C7.91146 19.8698 8.42708 20.0833 9.03125 20.25L9.28125 22.5Z" fill="#AEA2FF"/>
</svg>
