<svg width="131" height="131" viewBox="0 0 131 131" fill="none" xmlns="http://www.w3.org/2000/svg">
<circle cx="65.5" cy="65.5" r="55.5" fill="#D2CDFF"/>
<circle opacity="0.2" cx="65.5" cy="65.5" r="65.5" fill="#D2CDFF"/>
<path d="M58.1325 40.6964C58.1454 40.6943 58.1583 40.6925 58.1713 40.691C58.656 40.631 59.8707 40.6574 60.3875 40.6579L64.5204 40.6622L70.8252 40.6571C73.0171 40.6561 75.1342 40.3687 76.9742 41.7967C79.2421 43.5569 78.9189 46.116 78.9206 48.676L78.9225 54.1186L78.9214 58.8406C78.9209 59.8185 78.9975 61.002 78.8229 61.9466C78.3389 64.5658 76.5986 65.9482 74.0711 66.2467C73.0571 66.3175 71.6992 66.2819 70.665 66.2816L64.8096 66.2802L60.4788 66.2837C58.5413 66.2837 56.91 66.4473 55.2722 65.1692C52.9563 63.3621 53.2884 60.8021 53.2862 58.151L53.2843 52.5656L53.2859 47.9564C53.2874 46.0268 53.1413 44.2165 54.4541 42.5988C55.4344 41.3908 56.6019 40.8659 58.1325 40.6964Z" fill="#008CFE"/>
<path d="M61.7557 52.165L70.1083 52.1737L70.1089 54.4944L64.5488 54.4894L64.5434 57.5789C65.4901 57.6039 66.5235 57.5848 67.477 57.5863L70.6295 57.5826C70.6553 58.3238 70.6386 59.1759 70.6391 59.9247C67.6889 59.8831 64.72 59.9381 61.7639 59.9031C61.7258 57.3517 61.7571 54.7227 61.7557 52.165Z" fill="#FAFAF9"/>
<path d="M61.7584 46.814L70.5705 46.8008L70.5692 49.1382L61.7587 49.1356L61.7584 46.814Z" fill="#FAFAF9"/>
<path d="M42.6965 72.9319C44.1156 72.9288 45.4459 72.8349 46.8488 73.2571C49.2685 73.9852 50.0783 76.4722 49.427 78.718C49.1115 79.8074 48.2633 80.5684 47.2736 81.0735C48.1568 82.4095 49.3429 84.7898 50.1955 86.2678L47.7102 86.2688L47.0315 86.2746C46.3694 84.9025 44.9985 82.877 44.4777 81.5217C43.7934 81.4999 43.017 81.5166 42.3254 81.5168L42.3303 86.2737L39.425 86.2707C39.3356 81.9519 39.416 77.2679 39.4231 72.9289C40.5141 72.936 41.6055 72.9367 42.6965 72.9319ZM46.7033 77.1408C46.6368 74.9105 43.9027 75.2507 42.3235 75.2571C42.3236 76.5724 42.3096 77.9135 42.3274 79.2268C43.58 79.245 45.1538 79.4518 46.1535 78.6682C46.6076 78.1555 46.7238 77.8278 46.7033 77.1408Z" fill="#080A86"/>
<path d="M72.6289 72.7793L75.4248 72.782L75.4242 86.4196C74.5601 86.434 73.6954 86.4308 72.8314 86.4101C72.6559 85.8584 71.8423 84.8412 71.4824 84.3166C70.5372 82.9284 69.5806 81.5478 68.6131 80.1751C68.2298 79.6335 67.4006 78.3072 67.022 77.889L66.9457 77.9184C66.7925 78.3814 66.8856 85.4183 66.8856 86.421C65.9326 86.4293 64.979 86.4284 64.026 86.4181C63.9905 85.4221 64.0188 84.2282 64.0188 83.2178L64.017 77.0702L64.0152 74.2481C64.0146 73.9088 63.9935 73.0472 64.0488 72.7773L66.5605 72.7808C67.0064 73.517 67.5442 74.2432 68.0351 74.9524L70.1815 78.065C70.9368 79.1448 71.7678 80.5052 72.6066 81.509C72.6613 80.716 72.6235 79.5104 72.6223 78.6838C72.6102 76.7156 72.6126 74.7474 72.6289 72.7793Z" fill="#080A86"/>
<path d="M51.5707 72.9302C54.0493 72.9679 58.3704 72.4607 60.2992 73.9585C61.156 74.6202 61.7071 75.6017 61.8256 76.6773C62.2096 79.8787 60.4474 81.5522 57.4291 81.9126C56.5742 81.9789 55.3909 81.9516 54.5072 81.9576L54.5043 86.2798C53.5291 86.273 52.5541 86.2722 51.5795 86.2759C51.5398 84.7865 51.5723 83.1567 51.5717 81.6587L51.5707 72.9302ZM58.9164 77.0923C58.6495 74.9336 56.1505 75.2507 54.557 75.2603C54.5564 76.6924 54.5297 78.2381 54.5609 79.6626C55.7981 79.6763 57.4332 79.8751 58.3705 79.025C58.854 78.3798 59.0167 77.9061 58.9164 77.0923Z" fill="#080A86"/>
<path d="M81.5807 76.1033C83.5286 76.0256 85.323 76.7466 86.2057 78.5926C86.7361 79.7022 86.7369 80.8853 86.776 82.0877C85.0017 82.0578 83.2156 82.0955 81.44 82.0779C80.8717 82.0723 80.2898 82.0729 79.7233 82.1101C79.7749 82.4404 79.8434 82.7279 79.94 83.0467C80.4802 84.8208 83.2896 85.0937 84.0533 83.364C84.5941 83.3563 85.2624 83.4137 85.8121 83.447C86.0627 83.4869 86.4013 83.49 86.6627 83.4998C86.0827 86.8348 81.2243 87.4089 78.9049 85.7302C76.2826 83.8324 76.3104 78.7855 79.0113 76.9597C79.7702 76.4469 80.3942 76.2553 81.2721 76.1277C81.3742 76.1153 81.4773 76.107 81.5807 76.1033ZM81.7936 78.2263C80.4471 78.4406 80.034 79.0152 79.7281 80.3064L82.1139 80.3074C82.7152 80.3057 83.507 80.3262 84.0934 80.2888C83.8692 78.9676 83.2783 78.1097 81.7936 78.2263Z" fill="#080A86"/>
<path d="M94.1974 76.2258L97.1237 76.2261C96.226 77.6367 94.9563 79.9073 94.1601 81.384C94.5525 81.8744 95.3607 83.359 95.726 83.9795C96.1322 84.6691 96.8016 85.7249 97.1369 86.4047C96.384 86.4648 95.0236 86.4319 94.2454 86.4111L94.2394 86.3981C93.7828 85.3703 92.8604 83.9733 92.2998 82.8946C91.8377 83.673 90.66 85.6669 90.3313 86.4226L87.4164 86.4232C87.6291 85.9532 88.1843 85.0692 88.4679 84.5922L90.4136 81.3242C89.9479 80.5965 89.4311 79.6033 88.9763 78.8422C88.5875 78.1909 87.7973 76.8801 87.5366 76.2256L90.3607 76.2275C90.9838 77.1465 91.756 78.8039 92.2986 79.8498C92.8868 78.5703 93.5869 77.4739 94.1974 76.2258Z" fill="#080A86"/>
<path d="M28.0188 78.3876L36.6655 78.3867L36.6611 80.6712C34.8508 80.7307 32.7616 80.682 30.9271 80.6861C30.8805 81.6588 30.9124 82.8937 30.9099 83.8863C31.8604 83.9057 32.8586 83.8921 33.8128 83.8938C34.9415 83.8997 36.0702 83.8947 37.1988 83.8788L37.1958 86.2693C34.1429 86.2985 31.0761 86.2368 28.0203 86.2854C27.9833 83.6951 28.0187 80.9858 28.0188 78.3876Z" fill="#080A86"/>
<path d="M99.1171 73.7782L101.926 73.7734L101.925 76.2237L103.849 76.237L103.855 78.3465L101.924 78.3434C101.922 80.1435 101.937 83.8205 101.937 83.8205C101.937 83.8205 102.07 84.2262 102.417 84.2531C102.864 84.2876 103.127 84.2858 103.566 84.2262C103.73 84.8723 103.91 85.5239 104.002 86.1839L103.981 86.3041C103.126 86.8268 100.61 86.6152 99.9073 85.8098C98.9002 84.6568 99.0961 83.1995 99.0997 81.8049L99.1039 78.3536C98.6497 78.3351 98.1191 78.3444 97.6588 78.3408L97.6582 76.2233L99.1069 76.2272C99.1009 75.4109 99.1045 74.5945 99.1171 73.7782Z" fill="#080A86"/>
<path d="M28.0145 72.9268L37.1332 72.9282L37.1271 75.2771L28.0135 75.2758L28.0145 72.9268Z" fill="#080A86"/>
</svg>
