<svg width="629" height="427" viewBox="0 0 629 427" fill="none" xmlns="http://www.w3.org/2000/svg">
<style>
  @keyframes rotateClockwise {
    from { transform: rotate(0deg); }
    to { transform: rotate(360deg); }
  }
  .orbit-cw {
    transform-origin: 314.5px 216.5px;
    animation: rotateClockwise 20s linear infinite;
  }
</style>
<rect width="629" height="427" rx="16" fill="#250069"/>
<circle cx="314.5" cy="216.5" r="40.5" fill="#E6E6FF"/>
<circle cx="314.5" cy="216.5" r="80.5" stroke="#4332B6" stroke-width="2"/>
<circle cx="314.5" cy="216.5" r="107.5" stroke="#4332B6" stroke-width="2"/>
<circle cx="314.5" cy="216.5" r="140.5" stroke="#4332B6" stroke-width="2"/>
<circle class="orbit-cw" cx="376" cy="165" r="5" fill="#7070DE"/>
<circle cx="314.5" cy="216.5" r="171.5" stroke="#4332B6" stroke-width="2"/>
<mask id="mask0_4680_7718" style="mask-type:alpha" maskUnits="userSpaceOnUse" x="289" y="191" width="51" height="52">
<rect x="289" y="191.5" width="51" height="51" fill="#D9D9D9"/>
</mask>
<g mask="url(#mask0_4680_7718)">
<path d="M312.375 236.125V232.583H330.083V216.788C330.083 212.486 328.571 208.837 325.547 205.841C322.523 202.844 318.841 201.346 314.5 201.346C310.159 201.346 306.477 202.844 303.453 205.841C300.429 208.837 298.917 212.486 298.917 216.788V229.75H297.5C296.331 229.75 295.331 229.334 294.498 228.502C293.666 227.669 293.25 226.669 293.25 225.5V221.25C293.25 220.506 293.436 219.807 293.808 219.152C294.18 218.496 294.702 217.974 295.375 217.584L295.534 214.769C295.818 212.36 296.517 210.129 297.633 208.075C298.748 206.021 300.147 204.232 301.83 202.709C303.512 201.186 305.442 200 307.62 199.15C309.798 198.3 312.092 197.875 314.5 197.875C316.908 197.875 319.193 198.3 321.353 199.15C323.514 200 325.444 201.178 327.144 202.683C328.844 204.188 330.243 205.968 331.341 208.022C332.439 210.076 333.147 212.307 333.466 214.716L333.625 217.478C334.298 217.797 334.82 218.275 335.192 218.912C335.564 219.55 335.75 220.223 335.75 220.931V225.819C335.75 226.527 335.564 227.2 335.192 227.837C334.82 228.475 334.298 228.953 333.625 229.272V232.583C333.625 233.557 333.278 234.391 332.585 235.085C331.891 235.778 331.057 236.125 330.083 236.125H312.375ZM306.859 220.385C306.523 220.044 306.354 219.622 306.354 219.119C306.354 218.615 306.525 218.195 306.865 217.859C307.206 217.523 307.628 217.354 308.131 217.354C308.635 217.354 309.055 217.525 309.391 217.865C309.727 218.206 309.896 218.628 309.896 219.131C309.896 219.635 309.725 220.055 309.385 220.391C309.044 220.727 308.622 220.896 308.119 220.896C307.615 220.896 307.195 220.725 306.859 220.385ZM319.609 220.385C319.273 220.044 319.104 219.622 319.104 219.119C319.104 218.615 319.275 218.195 319.615 217.859C319.956 217.523 320.378 217.354 320.881 217.354C321.385 217.354 321.805 217.525 322.141 217.865C322.477 218.206 322.646 218.628 322.646 219.131C322.646 219.635 322.475 220.055 322.135 220.391C321.794 220.727 321.372 220.896 320.869 220.896C320.365 220.896 319.945 220.725 319.609 220.385ZM301.803 217.956C301.555 214.202 302.689 210.979 305.203 208.288C307.718 205.596 310.852 204.25 314.606 204.25C317.711 204.25 320.418 205.262 322.725 207.287C325.033 209.312 326.435 211.859 326.931 214.928C323.755 214.893 320.848 214.013 318.21 212.289C315.571 210.566 313.534 208.276 312.099 205.419C311.539 208.252 310.347 210.776 308.523 212.989C306.699 215.203 304.459 216.858 301.803 217.956Z" fill="#4446D8"/>
</g>
<circle class="orbit-cw" cx="486" cy="216.5" r="5" fill="#7070DE"/>
<circle class="orbit-cw" cx="381" cy="340" r="5" fill="#7070DE"/>
<circle class="orbit-cw" cx="229" cy="365" r="5" fill="#7070DE"/>
<circle class="orbit-cw" cx="284" cy="113" r="5" fill="#7070DE"/>
<circle class="orbit-cw" cx="229" cy="68" r="5" fill="#7070DE"/>
<path d="M292.126 271.168C289.102 271.168 287.744 269.936 287.814 267.976L289.354 267.948C289.354 269.222 290.096 269.824 292.126 269.824C294.03 269.824 294.828 269.222 294.828 268.256C294.828 267.43 294.478 267.024 292.574 266.758L291.244 266.576C289.06 266.268 287.814 265.54 287.814 263.748C287.814 261.984 289.298 261.018 291.902 260.976C294.674 261.004 296.06 262.082 296.018 264.014H294.52C294.52 262.866 293.68 262.306 291.916 262.306C290.082 262.306 289.284 262.852 289.284 263.72C289.284 264.574 289.718 264.924 291.398 265.162L292.798 265.358C295.234 265.708 296.354 266.506 296.354 268.27C296.354 270.034 294.898 271.168 292.14 271.168H292.126ZM300.183 271.168C298.391 271.168 297.495 270.272 297.439 268.494V264H298.769V268.242C298.769 269.39 299.203 269.894 300.379 269.894C301.303 269.894 302.759 269.446 302.759 268.102V264H304.103V271H302.773V270.034C302.059 270.818 301.219 271.168 300.183 271.168ZM305.3 273.38V264H306.644V264.952C307.176 264.112 308.1 263.706 309.22 263.706C311.488 263.706 312.776 265.176 312.776 267.416C312.776 269.726 311.362 271.168 309.08 271.168C308.114 271.168 307.232 270.86 306.644 270.076V273.38H305.3ZM306.63 267.682C306.63 269.082 307.386 269.922 308.982 269.922C310.466 269.922 311.362 269.124 311.362 267.416C311.362 265.68 310.382 264.938 309.08 264.938C307.512 264.938 306.63 265.834 306.63 267.108V267.682ZM313.927 273.38V264H315.271V264.952C315.803 264.112 316.727 263.706 317.847 263.706C320.115 263.706 321.403 265.176 321.403 267.416C321.403 269.726 319.989 271.168 317.707 271.168C316.741 271.168 315.859 270.86 315.271 270.076V273.38H313.927ZM315.257 267.682C315.257 269.082 316.013 269.922 317.609 269.922C319.093 269.922 319.989 269.124 319.989 267.416C319.989 265.68 319.009 264.938 317.707 264.938C316.139 264.938 315.257 265.834 315.257 267.108V267.682ZM326.295 271.168C323.873 271.168 322.417 269.768 322.417 267.444C322.417 265.106 323.971 263.706 326.337 263.706C328.717 263.706 330.215 265.092 330.215 267.43C330.215 269.74 328.689 271.168 326.295 271.168ZM323.817 267.444C323.817 268.97 324.601 269.922 326.295 269.922C328.017 269.922 328.815 268.956 328.815 267.43C328.815 265.904 328.017 264.938 326.295 264.938C324.601 264.938 323.817 265.89 323.817 267.444ZM331.4 271V264H332.744V264.868C333.5 263.916 334.83 263.678 335.88 263.916L335.698 265.176C334.354 264.91 332.744 265.372 332.744 266.786V271H331.4ZM340.546 271.112C338.838 271.112 338.334 270.16 338.278 268.718V265.218H337.074V264H338.278V261.396H339.636V264H341.946V265.218H339.636V268.83C339.636 270.076 340.854 269.95 341.876 269.726L342.198 270.804C341.526 271.028 341.092 271.112 340.546 271.112Z" fill="white"/>
<circle cx="190" cy="91" r="19" fill="#E6E6FF"/>
<mask id="mask1_4680_7718" style="mask-type:alpha" maskUnits="userSpaceOnUse" x="174" y="75" width="32" height="33">
<rect x="174.258" y="75.5684" width="31.4815" height="31.4815" fill="#D9D9D9"/>
</mask>
<g mask="url(#mask1_4680_7718)">
<path d="M181.671 98.4576C182.96 97.5322 184.287 96.8162 185.649 96.3097C187.012 95.8031 188.463 95.5498 190 95.5498C191.538 95.5498 192.991 95.8031 194.362 96.3097C195.732 96.8162 197.062 97.5322 198.352 98.4576C199.248 97.3717 199.902 96.2385 200.314 95.0579C200.725 93.8774 200.931 92.6276 200.931 91.3087C200.931 88.2261 199.88 85.6336 197.778 83.5311C195.675 81.4289 193.083 80.3777 190 80.3777C186.918 80.3777 184.325 81.4289 182.223 83.5311C180.12 85.6336 179.069 88.2261 179.069 91.3087C179.069 92.6276 179.279 93.8774 179.697 95.0579C180.117 96.2385 180.774 97.3717 181.671 98.4576ZM186.781 91.0955C185.91 90.2248 185.475 89.1517 185.475 87.8762C185.475 86.601 185.91 85.528 186.781 84.6572C187.652 83.7863 188.725 83.3508 190 83.3508C191.275 83.3508 192.348 83.7863 193.219 84.6572C194.09 85.528 194.526 86.601 194.526 87.8762C194.526 89.1517 194.09 90.2248 193.219 91.0955C192.348 91.9663 191.275 92.4017 190 92.4017C188.725 92.4017 187.652 91.9663 186.781 91.0955ZM190 104.426C188.2 104.426 186.502 104.082 184.906 103.393C183.31 102.704 181.918 101.766 180.73 100.578C179.543 99.3904 178.604 97.9984 177.916 96.4025C177.227 94.8065 176.883 93.1086 176.883 91.3087C176.883 89.4941 177.227 87.7925 177.916 86.2038C178.604 84.6153 179.543 83.227 180.73 82.039C181.918 80.8513 183.31 79.913 184.906 79.2244C186.502 78.5357 188.2 78.1914 190 78.1914C191.815 78.1914 193.516 78.5357 195.105 79.2244C196.694 79.913 198.082 80.8513 199.27 82.039C200.458 83.227 201.396 84.6153 202.084 86.2038C202.773 87.7925 203.117 89.4941 203.117 91.3087C203.117 93.1086 202.773 94.8065 202.084 96.4025C201.396 97.9984 200.458 99.3904 199.27 100.578C198.082 101.766 196.694 102.704 195.105 103.393C193.516 104.082 191.815 104.426 190 104.426ZM193.443 101.721C194.551 101.374 195.619 100.804 196.646 100.01C195.619 99.2738 194.548 98.7109 193.433 98.3209C192.318 97.9311 191.173 97.7362 190 97.7362C188.827 97.7362 187.683 97.9311 186.568 98.3209C185.453 98.7109 184.381 99.2738 183.354 100.01C184.381 100.804 185.449 101.374 186.557 101.721C187.665 102.067 188.812 102.24 190 102.24C191.188 102.24 192.336 102.067 193.443 101.721ZM191.683 89.5598C192.121 89.1226 192.339 88.5614 192.339 87.8762C192.339 87.1913 192.121 86.6302 191.683 86.193C191.246 85.7557 190.685 85.5371 190 85.5371C189.315 85.5371 188.754 85.7557 188.317 86.193C187.88 86.6302 187.661 87.1913 187.661 87.8762C187.661 88.5614 187.88 89.1226 188.317 89.5598C188.754 89.9971 189.315 90.2157 190 90.2157C190.685 90.2157 191.246 89.9971 191.683 89.5598Z" fill="#4446D8"/>
</g>
<circle cx="318" cy="354" r="19" fill="#7070DE"/>
<mask id="mask2_4680_7718" style="mask-type:alpha" maskUnits="userSpaceOnUse" x="302" y="338" width="32" height="33">
<rect x="302.258" y="338.568" width="31.4815" height="31.4815" fill="#D9D9D9"/>
</mask>
<g mask="url(#mask2_4680_7718)">
<path d="M309.671 361.458C310.96 360.532 312.287 359.816 313.649 359.31C315.012 358.803 316.463 358.55 318 358.55C319.538 358.55 320.991 358.803 322.362 359.31C323.732 359.816 325.062 360.532 326.352 361.458C327.248 360.372 327.902 359.238 328.314 358.058C328.725 356.877 328.931 355.628 328.931 354.309C328.931 351.226 327.88 348.634 325.778 346.531C323.675 344.429 321.083 343.378 318 343.378C314.918 343.378 312.325 344.429 310.223 346.531C308.12 348.634 307.069 351.226 307.069 354.309C307.069 355.628 307.279 356.877 307.697 358.058C308.117 359.238 308.774 360.372 309.671 361.458ZM314.781 354.096C313.91 353.225 313.475 352.152 313.475 350.876C313.475 349.601 313.91 348.528 314.781 347.657C315.652 346.786 316.725 346.351 318 346.351C319.275 346.351 320.348 346.786 321.219 347.657C322.09 348.528 322.526 349.601 322.526 350.876C322.526 352.152 322.09 353.225 321.219 354.096C320.348 354.966 319.275 355.402 318 355.402C316.725 355.402 315.652 354.966 314.781 354.096ZM318 367.426C316.2 367.426 314.502 367.082 312.906 366.393C311.31 365.704 309.918 364.766 308.73 363.578C307.543 362.39 306.604 360.998 305.916 359.402C305.227 357.807 304.883 356.109 304.883 354.309C304.883 352.494 305.227 350.792 305.916 349.204C306.604 347.615 307.543 346.227 308.73 345.039C309.918 343.851 311.31 342.913 312.906 342.224C314.502 341.536 316.2 341.191 318 341.191C319.815 341.191 321.516 341.536 323.105 342.224C324.694 342.913 326.082 343.851 327.27 345.039C328.458 346.227 329.396 347.615 330.084 349.204C330.773 350.792 331.117 352.494 331.117 354.309C331.117 356.109 330.773 357.807 330.084 359.402C329.396 360.998 328.458 362.39 327.27 363.578C326.082 364.766 324.694 365.704 323.105 366.393C321.516 367.082 319.815 367.426 318 367.426ZM321.443 364.721C322.551 364.374 323.619 363.804 324.646 363.01C323.619 362.274 322.548 361.711 321.433 361.321C320.318 360.931 319.173 360.736 318 360.736C316.827 360.736 315.683 360.931 314.568 361.321C313.453 361.711 312.381 362.274 311.354 363.01C312.381 363.804 313.449 364.374 314.557 364.721C315.665 365.067 316.812 365.24 318 365.24C319.188 365.24 320.336 365.067 321.443 364.721ZM319.683 352.56C320.121 352.123 320.339 351.561 320.339 350.876C320.339 350.191 320.121 349.63 319.683 349.193C319.246 348.756 318.685 348.537 318 348.537C317.315 348.537 316.754 348.756 316.317 349.193C315.88 349.63 315.661 350.191 315.661 350.876C315.661 351.561 315.88 352.123 316.317 352.56C316.754 352.997 317.315 353.216 318 353.216C318.685 353.216 319.246 352.997 319.683 352.56Z" fill="#4446D8"/>
</g>
<circle cx="484" cy="183" r="19" fill="#7070DE"/>
<mask id="mask3_4680_7718" style="mask-type:alpha" maskUnits="userSpaceOnUse" x="468" y="167" width="32" height="33">
<rect x="468.258" y="167.568" width="31.4815" height="31.4815" fill="#D9D9D9"/>
</mask>
<g mask="url(#mask3_4680_7718)">
<path d="M475.671 190.458C476.96 189.532 478.287 188.816 479.649 188.31C481.012 187.803 482.463 187.55 484 187.55C485.538 187.55 486.991 187.803 488.362 188.31C489.732 188.816 491.062 189.532 492.352 190.458C493.248 189.372 493.902 188.238 494.314 187.058C494.725 185.877 494.931 184.628 494.931 183.309C494.931 180.226 493.88 177.634 491.778 175.531C489.675 173.429 487.083 172.378 484 172.378C480.918 172.378 478.325 173.429 476.223 175.531C474.12 177.634 473.069 180.226 473.069 183.309C473.069 184.628 473.279 185.877 473.697 187.058C474.117 188.238 474.774 189.372 475.671 190.458ZM480.781 183.096C479.91 182.225 479.475 181.152 479.475 179.876C479.475 178.601 479.91 177.528 480.781 176.657C481.652 175.786 482.725 175.351 484 175.351C485.275 175.351 486.348 175.786 487.219 176.657C488.09 177.528 488.526 178.601 488.526 179.876C488.526 181.152 488.09 182.225 487.219 183.096C486.348 183.966 485.275 184.402 484 184.402C482.725 184.402 481.652 183.966 480.781 183.096ZM484 196.426C482.2 196.426 480.502 196.082 478.906 195.393C477.31 194.704 475.918 193.766 474.73 192.578C473.543 191.39 472.604 189.998 471.916 188.402C471.227 186.807 470.883 185.109 470.883 183.309C470.883 181.494 471.227 179.792 471.916 178.204C472.604 176.615 473.543 175.227 474.73 174.039C475.918 172.851 477.31 171.913 478.906 171.224C480.502 170.536 482.2 170.191 484 170.191C485.815 170.191 487.516 170.536 489.105 171.224C490.694 171.913 492.082 172.851 493.27 174.039C494.458 175.227 495.396 176.615 496.084 178.204C496.773 179.792 497.117 181.494 497.117 183.309C497.117 185.109 496.773 186.807 496.084 188.402C495.396 189.998 494.458 191.39 493.27 192.578C492.082 193.766 490.694 194.704 489.105 195.393C487.516 196.082 485.815 196.426 484 196.426ZM487.443 193.721C488.551 193.374 489.619 192.804 490.646 192.01C489.619 191.274 488.548 190.711 487.433 190.321C486.318 189.931 485.173 189.736 484 189.736C482.827 189.736 481.683 189.931 480.568 190.321C479.453 190.711 478.381 191.274 477.354 192.01C478.381 192.804 479.449 193.374 480.557 193.721C481.665 194.067 482.812 194.24 484 194.24C485.188 194.24 486.336 194.067 487.443 193.721ZM485.683 181.56C486.121 181.123 486.339 180.561 486.339 179.876C486.339 179.191 486.121 178.63 485.683 178.193C485.246 177.756 484.685 177.537 484 177.537C483.315 177.537 482.754 177.756 482.317 178.193C481.88 178.63 481.661 179.191 481.661 179.876C481.661 180.561 481.88 181.123 482.317 181.56C482.754 181.997 483.315 182.216 484 182.216C484.685 182.216 485.246 181.997 485.683 181.56Z" fill="#4446D8"/>
</g>
<circle cx="428" cy="301" r="19" fill="#E6E6FF"/>
<mask id="mask4_4680_7718" style="mask-type:alpha" maskUnits="userSpaceOnUse" x="412" y="285" width="32" height="33">
<rect x="412.258" y="285.568" width="31.4815" height="31.4815" fill="#D9D9D9"/>
</mask>
<g mask="url(#mask4_4680_7718)">
<path d="M419.671 308.458C420.96 307.532 422.287 306.816 423.649 306.31C425.012 305.803 426.463 305.55 428 305.55C429.538 305.55 430.991 305.803 432.362 306.31C433.732 306.816 435.062 307.532 436.352 308.458C437.248 307.372 437.902 306.238 438.314 305.058C438.725 303.877 438.931 302.628 438.931 301.309C438.931 298.226 437.88 295.634 435.778 293.531C433.675 291.429 431.083 290.378 428 290.378C424.918 290.378 422.325 291.429 420.223 293.531C418.12 295.634 417.069 298.226 417.069 301.309C417.069 302.628 417.279 303.877 417.697 305.058C418.117 306.238 418.774 307.372 419.671 308.458ZM424.781 301.096C423.91 300.225 423.475 299.152 423.475 297.876C423.475 296.601 423.91 295.528 424.781 294.657C425.652 293.786 426.725 293.351 428 293.351C429.275 293.351 430.348 293.786 431.219 294.657C432.09 295.528 432.526 296.601 432.526 297.876C432.526 299.152 432.09 300.225 431.219 301.096C430.348 301.966 429.275 302.402 428 302.402C426.725 302.402 425.652 301.966 424.781 301.096ZM428 314.426C426.2 314.426 424.502 314.082 422.906 313.393C421.31 312.704 419.918 311.766 418.73 310.578C417.543 309.39 416.604 307.998 415.916 306.402C415.227 304.807 414.883 303.109 414.883 301.309C414.883 299.494 415.227 297.792 415.916 296.204C416.604 294.615 417.543 293.227 418.73 292.039C419.918 290.851 421.31 289.913 422.906 289.224C424.502 288.536 426.2 288.191 428 288.191C429.815 288.191 431.516 288.536 433.105 289.224C434.694 289.913 436.082 290.851 437.27 292.039C438.458 293.227 439.396 294.615 440.084 296.204C440.773 297.792 441.117 299.494 441.117 301.309C441.117 303.109 440.773 304.807 440.084 306.402C439.396 307.998 438.458 309.39 437.27 310.578C436.082 311.766 434.694 312.704 433.105 313.393C431.516 314.082 429.815 314.426 428 314.426ZM431.443 311.721C432.551 311.374 433.619 310.804 434.646 310.01C433.619 309.274 432.548 308.711 431.433 308.321C430.318 307.931 429.173 307.736 428 307.736C426.827 307.736 425.683 307.931 424.568 308.321C423.453 308.711 422.381 309.274 421.354 310.01C422.381 310.804 423.449 311.374 424.557 311.721C425.665 312.067 426.812 312.24 428 312.24C429.188 312.24 430.336 312.067 431.443 311.721ZM429.683 299.56C430.121 299.123 430.339 298.561 430.339 297.876C430.339 297.191 430.121 296.63 429.683 296.193C429.246 295.756 428.685 295.537 428 295.537C427.315 295.537 426.754 295.756 426.317 296.193C425.88 296.63 425.661 297.191 425.661 297.876C425.661 298.561 425.88 299.123 426.317 299.56C426.754 299.997 427.315 300.216 428 300.216C428.685 300.216 429.246 299.997 429.683 299.56Z" fill="#4446D8"/>
</g>
<circle cx="174" cy="316" r="19" fill="#E6E6FF"/>
<mask id="mask5_4680_7718" style="mask-type:alpha" maskUnits="userSpaceOnUse" x="158" y="300" width="32" height="33">
<rect x="158.258" y="300.568" width="31.4815" height="31.4815" fill="#D9D9D9"/>
</mask>
<g mask="url(#mask5_4680_7718)">
<path d="M165.671 323.458C166.96 322.532 168.287 321.816 169.649 321.31C171.012 320.803 172.463 320.55 174 320.55C175.538 320.55 176.991 320.803 178.362 321.31C179.732 321.816 181.062 322.532 182.352 323.458C183.248 322.372 183.902 321.238 184.314 320.058C184.725 318.877 184.931 317.628 184.931 316.309C184.931 313.226 183.88 310.634 181.778 308.531C179.675 306.429 177.083 305.378 174 305.378C170.918 305.378 168.325 306.429 166.223 308.531C164.12 310.634 163.069 313.226 163.069 316.309C163.069 317.628 163.279 318.877 163.697 320.058C164.117 321.238 164.774 322.372 165.671 323.458ZM170.781 316.096C169.91 315.225 169.475 314.152 169.475 312.876C169.475 311.601 169.91 310.528 170.781 309.657C171.652 308.786 172.725 308.351 174 308.351C175.275 308.351 176.348 308.786 177.219 309.657C178.09 310.528 178.526 311.601 178.526 312.876C178.526 314.152 178.09 315.225 177.219 316.096C176.348 316.966 175.275 317.402 174 317.402C172.725 317.402 171.652 316.966 170.781 316.096ZM174 329.426C172.2 329.426 170.502 329.082 168.906 328.393C167.31 327.704 165.918 326.766 164.73 325.578C163.543 324.39 162.604 322.998 161.916 321.402C161.227 319.807 160.883 318.109 160.883 316.309C160.883 314.494 161.227 312.792 161.916 311.204C162.604 309.615 163.543 308.227 164.73 307.039C165.918 305.851 167.31 304.913 168.906 304.224C170.502 303.536 172.2 303.191 174 303.191C175.815 303.191 177.516 303.536 179.105 304.224C180.694 304.913 182.082 305.851 183.27 307.039C184.458 308.227 185.396 309.615 186.084 311.204C186.773 312.792 187.117 314.494 187.117 316.309C187.117 318.109 186.773 319.807 186.084 321.402C185.396 322.998 184.458 324.39 183.27 325.578C182.082 326.766 180.694 327.704 179.105 328.393C177.516 329.082 175.815 329.426 174 329.426ZM177.443 326.721C178.551 326.374 179.619 325.804 180.646 325.01C179.619 324.274 178.548 323.711 177.433 323.321C176.318 322.931 175.173 322.736 174 322.736C172.827 322.736 171.683 322.931 170.568 323.321C169.453 323.711 168.381 324.274 167.354 325.01C168.381 325.804 169.449 326.374 170.557 326.721C171.665 327.067 172.812 327.24 174 327.24C175.188 327.24 176.336 327.067 177.443 326.721ZM175.683 314.56C176.121 314.123 176.339 313.561 176.339 312.876C176.339 312.191 176.121 311.63 175.683 311.193C175.246 310.756 174.685 310.537 174 310.537C173.315 310.537 172.754 310.756 172.317 311.193C171.88 311.63 171.661 312.191 171.661 312.876C171.661 313.561 171.88 314.123 172.317 314.56C172.754 314.997 173.315 315.216 174 315.216C174.685 315.216 175.246 314.997 175.683 314.56Z" fill="#4446D8"/>
</g>
<circle cx="239" cy="214" r="19" fill="#9595E6"/>
<mask id="mask6_4680_7718" style="mask-type:alpha" maskUnits="userSpaceOnUse" x="223" y="198" width="32" height="33">
<rect x="223.258" y="198.568" width="31.4815" height="31.4815" fill="#D9D9D9"/>
</mask>
<g mask="url(#mask6_4680_7718)">
<path d="M230.671 221.458C231.96 220.532 233.287 219.816 234.649 219.31C236.012 218.803 237.463 218.55 239 218.55C240.538 218.55 241.991 218.803 243.362 219.31C244.732 219.816 246.062 220.532 247.352 221.458C248.248 220.372 248.902 219.238 249.314 218.058C249.725 216.877 249.931 215.628 249.931 214.309C249.931 211.226 248.88 208.634 246.778 206.531C244.675 204.429 242.083 203.378 239 203.378C235.918 203.378 233.325 204.429 231.223 206.531C229.12 208.634 228.069 211.226 228.069 214.309C228.069 215.628 228.279 216.877 228.697 218.058C229.117 219.238 229.774 220.372 230.671 221.458ZM235.781 214.096C234.91 213.225 234.475 212.152 234.475 210.876C234.475 209.601 234.91 208.528 235.781 207.657C236.652 206.786 237.725 206.351 239 206.351C240.275 206.351 241.348 206.786 242.219 207.657C243.09 208.528 243.526 209.601 243.526 210.876C243.526 212.152 243.09 213.225 242.219 214.096C241.348 214.966 240.275 215.402 239 215.402C237.725 215.402 236.652 214.966 235.781 214.096ZM239 227.426C237.2 227.426 235.502 227.082 233.906 226.393C232.31 225.704 230.918 224.766 229.73 223.578C228.543 222.39 227.604 220.998 226.916 219.402C226.227 217.807 225.883 216.109 225.883 214.309C225.883 212.494 226.227 210.792 226.916 209.204C227.604 207.615 228.543 206.227 229.73 205.039C230.918 203.851 232.31 202.913 233.906 202.224C235.502 201.536 237.2 201.191 239 201.191C240.815 201.191 242.516 201.536 244.105 202.224C245.694 202.913 247.082 203.851 248.27 205.039C249.458 206.227 250.396 207.615 251.084 209.204C251.773 210.792 252.117 212.494 252.117 214.309C252.117 216.109 251.773 217.807 251.084 219.402C250.396 220.998 249.458 222.39 248.27 223.578C247.082 224.766 245.694 225.704 244.105 226.393C242.516 227.082 240.815 227.426 239 227.426ZM242.443 224.721C243.551 224.374 244.619 223.804 245.646 223.01C244.619 222.274 243.548 221.711 242.433 221.321C241.318 220.931 240.173 220.736 239 220.736C237.827 220.736 236.683 220.931 235.568 221.321C234.453 221.711 233.381 222.274 232.354 223.01C233.381 223.804 234.449 224.374 235.557 224.721C236.665 225.067 237.812 225.24 239 225.24C240.188 225.24 241.336 225.067 242.443 224.721ZM240.683 212.56C241.121 212.123 241.339 211.561 241.339 210.876C241.339 210.191 241.121 209.63 240.683 209.193C240.246 208.756 239.685 208.537 239 208.537C238.315 208.537 237.754 208.756 237.317 209.193C236.88 209.63 236.661 210.191 236.661 210.876C236.661 211.561 236.88 212.123 237.317 212.56C237.754 212.997 238.315 213.216 239 213.216C239.685 213.216 240.246 212.997 240.683 212.56Z" fill="#4446D8"/>
</g>
<circle cx="331" cy="76" r="19" fill="#9595E6"/>
<mask id="mask7_4680_7718" style="mask-type:alpha" maskUnits="userSpaceOnUse" x="315" y="60" width="32" height="33">
<rect x="315.258" y="60.5684" width="31.4815" height="31.4815" fill="#D9D9D9"/>
</mask>
<g mask="url(#mask7_4680_7718)">
<path d="M322.671 83.4576C323.96 82.5322 325.287 81.8162 326.649 81.3097C328.012 80.8031 329.463 80.5498 331 80.5498C332.538 80.5498 333.991 80.8031 335.362 81.3097C336.732 81.8162 338.062 82.5322 339.352 83.4576C340.248 82.3717 340.902 81.2385 341.314 80.0579C341.725 78.8774 341.931 77.6276 341.931 76.3087C341.931 73.2261 340.88 70.6336 338.778 68.5311C336.675 66.4289 334.083 65.3777 331 65.3777C327.918 65.3777 325.325 66.4289 323.223 68.5311C321.12 70.6336 320.069 73.2261 320.069 76.3087C320.069 77.6276 320.279 78.8774 320.697 80.0579C321.117 81.2385 321.774 82.3717 322.671 83.4576ZM327.781 76.0955C326.91 75.2248 326.475 74.1517 326.475 72.8762C326.475 71.601 326.91 70.528 327.781 69.6572C328.652 68.7863 329.725 68.3508 331 68.3508C332.275 68.3508 333.348 68.7863 334.219 69.6572C335.09 70.528 335.526 71.601 335.526 72.8762C335.526 74.1517 335.09 75.2248 334.219 76.0955C333.348 76.9663 332.275 77.4017 331 77.4017C329.725 77.4017 328.652 76.9663 327.781 76.0955ZM331 89.426C329.2 89.426 327.502 89.0816 325.906 88.393C324.31 87.7043 322.918 86.7661 321.73 85.5783C320.543 84.3904 319.604 82.9984 318.916 81.4025C318.227 79.8065 317.883 78.1086 317.883 76.3087C317.883 74.4941 318.227 72.7925 318.916 71.2038C319.604 69.6153 320.543 68.227 321.73 67.039C322.918 65.8513 324.31 64.913 325.906 64.2244C327.502 63.5357 329.2 63.1914 331 63.1914C332.815 63.1914 334.516 63.5357 336.105 64.2244C337.694 64.913 339.082 65.8513 340.27 67.039C341.458 68.227 342.396 69.6153 343.084 71.2038C343.773 72.7925 344.117 74.4941 344.117 76.3087C344.117 78.1086 343.773 79.8065 343.084 81.4025C342.396 82.9984 341.458 84.3904 340.27 85.5783C339.082 86.7661 337.694 87.7043 336.105 88.393C334.516 89.0816 332.815 89.426 331 89.426ZM334.443 86.7205C335.551 86.3745 336.619 85.8042 337.646 85.0097C336.619 84.2738 335.548 83.7109 334.433 83.3209C333.318 82.9311 332.173 82.7362 331 82.7362C329.827 82.7362 328.683 82.9311 327.568 83.3209C326.453 83.7109 325.381 84.2738 324.354 85.0097C325.381 85.8042 326.449 86.3745 327.557 86.7205C328.665 87.0666 329.812 87.2397 331 87.2397C332.188 87.2397 333.336 87.0666 334.443 86.7205ZM332.683 74.5598C333.121 74.1226 333.339 73.5614 333.339 72.8762C333.339 72.1913 333.121 71.6302 332.683 71.193C332.246 70.7557 331.685 70.5371 331 70.5371C330.315 70.5371 329.754 70.7557 329.317 71.193C328.88 71.6302 328.661 72.1913 328.661 72.8762C328.661 73.5614 328.88 74.1226 329.317 74.5598C329.754 74.9971 330.315 75.2157 331 75.2157C331.685 75.2157 332.246 74.9971 332.683 74.5598Z" fill="#4446D8"/>
</g>
</svg>
