<svg width="623" height="623" viewBox="0 0 623 623" fill="none" xmlns="http://www.w3.org/2000/svg" xmlns:xlink="http://www.w3.org/1999/xlink">
<circle cx="318.5" cy="303.5" r="258.5" fill="url(#paint0_linear_1_2236)" stroke="#897DF0" stroke-width="2"/>
<g filter="url(#filter0_f_1_2236)">
<path d="M318.723 31C468.942 31 590.723 153.001 590.723 303.5C590.723 453.999 468.942 576 318.723 576C168.503 576 46.7227 453.999 46.7227 303.5C46.7227 153.001 168.503 31 318.723 31Z" stroke="#897DF0" stroke-width="2"/>
</g>
<mask id="mask0_1_2236" style="mask-type:alpha" maskUnits="userSpaceOnUse" x="158" y="472" width="32" height="40">
<path d="M187.645 473.849C187.562 473.303 187.051 472.928 186.505 473.011L177.608 474.369C177.062 474.452 176.687 474.962 176.771 475.508C176.854 476.054 177.364 476.429 177.91 476.346L185.818 475.139L187.025 483.048C187.108 483.594 187.618 483.969 188.164 483.886C188.71 483.802 189.085 483.292 189.002 482.746L187.645 473.849ZM159.193 509.662C158.866 510.107 158.961 510.733 159.406 511.06C159.851 511.387 160.477 511.292 160.804 510.847L159.999 510.254L159.193 509.662ZM186.656 474L185.851 473.408L159.193 509.662L159.999 510.254L160.804 510.847L187.462 474.592L186.656 474Z" fill="#020319"/>
</mask>
<g mask="url(#mask0_1_2236)">
<rect x="183.173" y="465.233" width="18" height="55" transform="rotate(36.3268 183.173 465.233)" fill="#5F5FFF"/>
<g filter="url(#arrow_glow_filter)">
<rect x="153.553" y="505.515" width="18" height="10" transform="rotate(36.3268 153.553 505.515)" fill="#FFAA00">
<animateTransform attributeName="transform" type="translate" values="0,0; 0,-60" dur="4s" repeatCount="indefinite" additive="sum" begin="0s"/>
</rect>
</g>
</g>
<mask id="mask1_1_2236" style="mask-type:alpha" maskUnits="userSpaceOnUse" x="186" y="327" width="46" height="20">
<path d="M231.76 333.118C232.021 332.632 231.839 332.025 231.352 331.764L223.425 327.502C222.939 327.241 222.332 327.423 222.071 327.91C221.809 328.396 221.992 329.003 222.478 329.264L229.525 333.052L225.737 340.098C225.475 340.585 225.658 341.191 226.144 341.453C226.631 341.714 227.237 341.532 227.498 341.045L231.76 333.118ZM187.498 344.648C186.969 344.807 186.669 345.365 186.828 345.894C186.987 346.423 187.545 346.722 188.074 346.563L187.786 345.606L187.498 344.648ZM230.879 332.645L230.591 331.687L187.498 344.648L187.786 345.606L188.074 346.563L231.167 333.602L230.879 332.645Z" fill="#020319"/>
</mask>
<g mask="url(#mask1_1_2236)">
<rect x="233.363" y="323.543" width="18" height="55" transform="rotate(73.2601 233.363 323.543)" fill="#5F5FFF"/>
<g filter="url(#arrow_glow_filter)">
<rect x="185.482" y="337.945" width="18" height="10" transform="rotate(73.2601 185.482 337.945)" fill="#FFAA00">
<animateTransform attributeName="transform" type="translate" values="0,0; 0,-60" dur="4s" repeatCount="indefinite" additive="sum" begin="0.6s"/>
</rect>
</g>
</g>
<mask id="mask2_1_2236" style="mask-type:alpha" maskUnits="userSpaceOnUse" x="188" y="256" width="44" height="25">
<path d="M230.953 276.936C231.472 276.747 231.738 276.172 231.549 275.654L228.457 267.201C228.267 266.683 227.693 266.416 227.174 266.606C226.656 266.795 226.389 267.37 226.579 267.888L229.327 275.401L221.814 278.15C221.295 278.339 221.028 278.914 221.218 279.432C221.408 279.951 221.982 280.218 222.501 280.028L230.953 276.936ZM190.217 256.137C189.716 255.904 189.121 256.122 188.888 256.623C188.656 257.124 188.873 257.718 189.374 257.951L189.795 257.044L190.217 256.137ZM230.609 275.997L231.031 275.09L190.217 256.137L189.795 257.044L189.374 257.951L230.188 276.904L230.609 275.997Z" fill="#020319"/>
</mask>
<g mask="url(#mask2_1_2236)">
<rect x="238.514" y="270.847" width="18" height="55" transform="rotate(114.909 238.514 270.847)" fill="#5F5FFF"/>
<g filter="url(#arrow_glow_filter)">
<rect x="193.165" y="249.788" width="18" height="10" transform="rotate(114.909 193.165 249.788)" fill="#FFAA00">
<animateTransform attributeName="transform" type="translate" values="0,0; 0,-60" dur="4s" repeatCount="indefinite" additive="sum" begin="1.2s"/>
</rect>
</g>
</g>
<mask id="mask3_1_2236" style="mask-type:alpha" maskUnits="userSpaceOnUse" x="238" y="190" width="32" height="38">
<path d="M267.258 227.695C267.806 227.766 268.307 227.379 268.378 226.832L269.535 217.906C269.606 217.358 269.219 216.857 268.671 216.786C268.124 216.715 267.622 217.102 267.551 217.649L266.523 225.583L258.59 224.555C258.042 224.484 257.541 224.871 257.47 225.418C257.399 225.966 257.785 226.468 258.333 226.539L267.258 227.695ZM240.71 190.449C240.373 190.011 239.745 189.93 239.308 190.267C238.87 190.604 238.789 191.232 239.126 191.67L239.918 191.059L240.71 190.449ZM267.387 226.703L268.179 226.093L240.71 190.449L239.918 191.059L239.126 191.67L266.595 227.314L267.387 226.703Z" fill="#020319"/>
</mask>
<g mask="url(#mask3_1_2236)">
<rect x="276.775" y="225.78" width="18" height="55" transform="rotate(142.381 276.775 225.78)" fill="#5F5FFF"/>
<g filter="url(#arrow_glow_filter)">
<rect x="246.255" y="186.176" width="18" height="10" transform="rotate(142.381 246.255 186.176)" fill="#FFAA00">
<animateTransform attributeName="transform" type="translate" values="0,0; 0,-60" dur="4s" repeatCount="indefinite" additive="sum" begin="1.8s"/>
</rect>
</g>
</g>
<mask id="mask4_1_2236" style="mask-type:alpha" maskUnits="userSpaceOnUse" x="311" y="165" width="16" height="48">
<path d="M318 212.147C318.39 212.537 319.024 212.537 319.414 212.147L325.778 205.783C326.169 205.392 326.169 204.759 325.778 204.368C325.388 203.978 324.754 203.978 324.364 204.368L318.707 210.025L313.05 204.368C312.66 203.978 312.026 203.978 311.636 204.368C311.245 204.759 311.245 205.392 311.636 205.783L318 212.147ZM319.707 166.439C319.707 165.887 319.259 165.439 318.707 165.439C318.155 165.439 317.707 165.887 317.707 166.439L318.707 166.439L319.707 166.439ZM318.707 211.439L319.707 211.439L319.707 166.439L318.707 166.439L317.707 166.439L317.707 211.439L318.707 211.439Z" fill="#020319"/>
</mask>
<g mask="url(#mask4_1_2236)">
<rect x="326.707" y="216.439" width="18" height="55" transform="rotate(-180 326.707 216.439)" fill="#5F5FFF"/>
<g filter="url(#arrow_glow_filter)">
<rect x="326.707" y="166.439" width="18" height="10" transform="rotate(-180 326.707 166.439)" fill="#FFAA00">
<animateTransform attributeName="transform" type="translate" values="0,0; 0,-60" dur="4s" repeatCount="indefinite" additive="sum" begin="2.4s"/>
</rect>
</g>
</g>
<mask id="mask5_1_2236" style="mask-type:alpha" maskUnits="userSpaceOnUse" x="366" y="188" width="30" height="40">
<path d="M368.45 226.384C368.55 226.927 369.071 227.286 369.614 227.187L378.466 225.56C379.009 225.461 379.369 224.939 379.269 224.396C379.169 223.853 378.648 223.493 378.105 223.593L370.236 225.039L368.791 217.171C368.691 216.627 368.17 216.268 367.627 216.368C367.083 216.468 366.724 216.989 366.824 217.532L368.45 226.384ZM395.803 189.725C396.116 189.27 396.002 188.647 395.547 188.334C395.093 188.02 394.47 188.135 394.156 188.59L394.98 189.157L395.803 189.725ZM369.434 226.203L370.257 226.771L395.803 189.725L394.98 189.157L394.156 188.59L368.61 225.635L369.434 226.203Z" fill="#020319"/>
</mask>
<g mask="url(#mask5_1_2236)">
<rect x="373.181" y="234.861" width="18" height="55" transform="rotate(-145.411 373.181 234.861)" fill="#5F5FFF"/>
<g filter="url(#arrow_glow_filter)">
<rect x="401.566" y="193.699" width="18" height="10" transform="rotate(-145.411 401.566 193.699)" fill="#FFAA00">
<animateTransform attributeName="transform" type="translate" values="0,0; 0,-60" dur="4s" repeatCount="indefinite" additive="sum" begin="3.0s"/>
</rect>
</g>
</g>
<mask id="mask6_1_2236" style="mask-type:alpha" maskUnits="userSpaceOnUse" x="229" y="371" width="31" height="39">
<path d="M258.567 372.208C258.483 371.662 257.973 371.287 257.427 371.37L248.53 372.727C247.984 372.81 247.609 373.32 247.692 373.866C247.776 374.412 248.286 374.787 248.832 374.704L256.74 373.498L257.947 381.406C258.03 381.952 258.54 382.327 259.086 382.244C259.632 382.161 260.007 381.651 259.924 381.105L258.567 372.208ZM230.115 408.02C229.788 408.465 229.883 409.091 230.328 409.418C230.773 409.746 231.399 409.65 231.726 409.205L230.921 408.613L230.115 408.02ZM257.578 372.358L256.772 371.766L230.115 408.02L230.921 408.613L231.726 409.205L258.384 372.951L257.578 372.358Z" fill="#020319"/>
</mask>
<g mask="url(#mask6_1_2236)">
<rect x="254.095" y="363.591" width="18" height="55" transform="rotate(36.3268 254.095 363.591)" fill="#5F5FFF"/>
<g filter="url(#arrow_glow_filter)">
<rect x="224.475" y="403.874" width="18" height="10" transform="rotate(36.3268 224.475 403.874)" fill="#FFAA00">
<animateTransform attributeName="transform" type="translate" values="0,0; 0,-60" dur="4s" repeatCount="indefinite" additive="sum" begin="0.3s"/>
</rect>
</g>
</g>
<mask id="mask7_1_2236" style="mask-type:alpha" maskUnits="userSpaceOnUse" x="239" y="379" width="31" height="39">
<path d="M241.41 417.129C241.507 417.673 242.027 418.035 242.571 417.938L251.43 416.354C251.974 416.257 252.336 415.737 252.238 415.193C252.141 414.65 251.622 414.288 251.078 414.385L243.203 415.793L241.795 407.918C241.698 407.374 241.178 407.012 240.635 407.109C240.091 407.206 239.729 407.726 239.826 408.27L241.41 417.129ZM268.939 380.602C269.255 380.149 269.143 379.526 268.69 379.21C268.237 378.894 267.614 379.006 267.298 379.459L268.118 380.03L268.939 380.602ZM242.395 416.953L243.215 417.525L268.939 380.602L268.118 380.03L267.298 379.459L241.574 416.381L242.395 416.953Z" fill="#020319"/>
</mask>
<g mask="url(#mask7_1_2236)">
<rect x="246.1" y="425.629" width="18" height="55" transform="rotate(-145.135 246.1 425.629)" fill="#5F5FFF"/>
<g filter="url(#arrow_glow_filter)">
<rect x="274.682" y="384.604" width="18" height="10" transform="rotate(-145.135 274.682 384.604)" fill="#FFAA00">
<animateTransform attributeName="transform" type="translate" values="0,0; 0,-60" dur="4s" repeatCount="indefinite" additive="sum" begin="0.9s"/>
</rect>
</g>
</g>
<mask id="mask8_1_2236" style="mask-type:alpha" maskUnits="userSpaceOnUse" x="172" y="478" width="31" height="40">
<path d="M174.488 516.771C174.585 517.314 175.105 517.676 175.649 517.579L184.508 515.995C185.052 515.898 185.414 515.379 185.317 514.835C185.219 514.291 184.7 513.929 184.156 514.027L176.281 515.434L174.873 507.559C174.776 507.016 174.257 506.654 173.713 506.751C173.169 506.848 172.807 507.367 172.905 507.911L174.488 516.771ZM202.017 480.244C202.333 479.791 202.221 479.167 201.768 478.852C201.315 478.536 200.692 478.647 200.376 479.1L201.196 479.672L202.017 480.244ZM175.473 516.595L176.293 517.166L202.017 480.244L201.196 479.672L200.376 479.1L174.652 516.023L175.473 516.595Z" fill="#020319"/>
</mask>
<g mask="url(#mask8_1_2236)">
<rect x="179.178" y="525.27" width="18" height="55" transform="rotate(-145.135 179.178 525.27)" fill="#5F5FFF"/>
<g filter="url(#arrow_glow_filter)">
<rect x="207.76" y="484.245" width="18" height="10" transform="rotate(-145.135 207.76 484.245)" fill="#FFAA00">
<animateTransform attributeName="transform" type="translate" values="0,0; 0,-60" dur="4s" repeatCount="indefinite" additive="sum" begin="1.5s"/>
</rect>
</g>
</g>
<mask id="mask9_1_2236" style="mask-type:alpha" maskUnits="userSpaceOnUse" x="309" y="394" width="16" height="48">
<path d="M317.664 394.437C317.274 394.047 316.64 394.047 316.25 394.437L309.886 400.801C309.495 401.192 309.495 401.825 309.886 402.216C310.276 402.606 310.91 402.606 311.3 402.216L316.957 396.559L322.614 402.216C323.004 402.606 323.638 402.606 324.028 402.216C324.419 401.825 324.419 401.192 324.028 400.801L317.664 394.437ZM315.957 440.145C315.957 440.697 316.405 441.145 316.957 441.145C317.509 441.145 317.957 440.697 317.957 440.145L316.957 440.145L315.957 440.145ZM316.957 395.145L315.957 395.145L315.957 440.145L316.957 440.145L317.957 440.145L317.957 395.145L316.957 395.145Z" fill="#020319"/>
</mask>
<g mask="url(#mask9_1_2236)">
<rect x="308.957" y="390.145" width="18" height="55" fill="#5F5FFF"/>
<g filter="url(#arrow_glow_filter)">
<rect x="308.957" y="440.145" width="18" height="10" fill="#FFAA00">
<animateTransform attributeName="transform" type="translate" values="0,0; 0,-60" dur="4s" repeatCount="indefinite" additive="sum" begin="2.1s"/>
</rect>
</g>
</g>
<mask id="mask10_1_2236" style="mask-type:alpha" maskUnits="userSpaceOnUse" x="369" y="378" width="33" height="37">
<path d="M371.402 378.232C370.851 378.189 370.37 378.6 370.327 379.151L369.63 388.124C369.587 388.675 369.999 389.156 370.549 389.198C371.1 389.241 371.581 388.83 371.624 388.279L372.244 380.303L380.22 380.923C380.77 380.966 381.251 380.554 381.294 380.003C381.337 379.453 380.925 378.972 380.375 378.929L371.402 378.232ZM399.823 414.068C400.183 414.488 400.814 414.537 401.233 414.178C401.653 413.818 401.702 413.187 401.343 412.768L400.583 413.418L399.823 414.068ZM371.324 379.229L370.564 379.879L399.823 414.068L400.583 413.418L401.343 412.768L372.084 378.578L371.324 379.229Z" fill="#020319"/>
</mask>
<g mask="url(#mask10_1_2236)">
<rect x="361.995" y="380.631" width="18" height="55" transform="rotate(-40.5567 361.995 380.631)" fill="#5F5FFF"/>
<g filter="url(#arrow_glow_filter)">
<rect x="394.505" y="418.619" width="18" height="10" transform="rotate(-40.5567 394.505 418.619)" fill="#FFAA00">
<animateTransform attributeName="transform" type="translate" values="0,0; 0,-60" dur="4s" repeatCount="indefinite" additive="sum" begin="2.7s"/>
</rect>
</g>
</g>
<mask id="mask11_1_2236" style="mask-type:alpha" maskUnits="userSpaceOnUse" x="404" y="329" width="46" height="18">
<path d="M404.544 334.621C404.074 334.911 403.929 335.528 404.22 335.997L408.959 343.649C409.25 344.118 409.866 344.263 410.336 343.972C410.805 343.681 410.95 343.065 410.659 342.596L406.447 335.794L413.248 331.582C413.718 331.291 413.863 330.675 413.572 330.205C413.281 329.736 412.665 329.591 412.195 329.882L404.544 334.621ZM448.648 346.741C449.185 346.868 449.723 346.534 449.85 345.997C449.976 345.459 449.643 344.921 449.105 344.794L448.876 345.768L448.648 346.741ZM405.07 335.471L404.841 336.444L448.648 346.741L448.876 345.768L449.105 344.794L405.299 334.497L405.07 335.471Z" fill="#020319"/>
</mask>
<g mask="url(#mask11_1_2236)">
<rect x="398.372" y="342.114" width="18" height="55" transform="rotate(-76.7721 398.372 342.114)" fill="#5F5FFF"/>
<g filter="url(#arrow_glow_filter)">
<rect x="447.046" y="353.556" width="18" height="10" transform="rotate(-76.7721 447.046 353.556)" fill="#FFAA00">
<animateTransform attributeName="transform" type="translate" values="0,0; 0,-60" dur="4s" repeatCount="indefinite" additive="sum" begin="1.0s"/>
</rect>
</g>
</g>
<mask id="mask12_1_2236" style="mask-type:alpha" maskUnits="userSpaceOnUse" x="404" y="254" width="44" height="23">
<path d="M404.115 271.927C403.894 272.433 404.125 273.023 404.631 273.244L412.88 276.844C413.386 277.065 413.975 276.834 414.196 276.328C414.417 275.822 414.186 275.232 413.68 275.011L406.348 271.811L409.548 264.479C409.769 263.973 409.538 263.383 409.032 263.162C408.526 262.941 407.936 263.173 407.715 263.679L404.115 271.927ZM447.289 256.825C447.803 256.624 448.056 256.044 447.855 255.529C447.653 255.015 447.073 254.762 446.558 254.964L446.924 255.895L447.289 256.825ZM405.031 272.327L405.396 273.258L447.289 256.825L446.924 255.895L446.558 254.964L404.666 271.396L405.031 272.327Z" fill="#020319"/>
</mask>
<g mask="url(#mask12_1_2236)">
<rect x="403.298" y="281.601" width="18" height="55" transform="rotate(-111.418 403.298 281.601)" fill="#5F5FFF"/>
<g filter="url(#arrow_glow_filter)">
<rect x="449.845" y="263.342" width="18" height="10" transform="rotate(-111.418 449.845 263.342)" fill="#FFAA00">
<animateTransform attributeName="transform" type="translate" values="0,0; 0,-60" dur="4s" repeatCount="indefinite" additive="sum" begin="2.2s"/>
</rect>
</g>
</g>
<circle cx="318.5" cy="303.5" r="84.5" fill="white"/>
<circle cx="318.5" cy="303.5" r="90.5" stroke="#FFAA00" stroke-width="2"/>
<path d="M306.371 258.169C306.392 258.166 306.412 258.163 306.433 258.161C307.211 258.064 309.161 258.107 309.991 258.108L316.625 258.115L326.747 258.106C330.265 258.105 333.664 257.643 336.618 259.936C340.258 262.761 339.74 266.87 339.742 270.979L339.745 279.716L339.743 287.297C339.743 288.866 339.866 290.766 339.585 292.283C338.809 296.487 336.015 298.707 331.957 299.186C330.33 299.299 328.15 299.242 326.489 299.242L317.09 299.24L310.137 299.245C307.027 299.245 304.408 299.508 301.779 297.456C298.061 294.555 298.594 290.445 298.591 286.19L298.588 277.223L298.591 269.824C298.593 266.726 298.358 263.82 300.466 261.223C302.04 259.284 303.914 258.442 306.371 258.169Z" fill="#008CFE"/>
<path d="M312.185 276.58L325.594 276.594L325.595 280.319L316.669 280.311L316.66 285.271C318.18 285.311 319.839 285.28 321.37 285.283L326.43 285.277C326.472 286.467 326.445 287.835 326.446 289.037C321.71 288.97 316.944 289.058 312.198 289.002C312.137 284.906 312.188 280.686 312.185 276.58Z" fill="#FAFAF9"/>
<path d="M312.191 267.992L326.338 267.971L326.335 271.723L312.192 271.719L312.191 267.992Z" fill="#FAFAF9"/>
<path d="M281.584 309.918C283.862 309.913 285.998 309.762 288.25 310.44C292.134 311.609 293.433 315.601 292.388 319.206C291.881 320.955 290.521 322.177 288.933 322.987C290.35 325.132 292.253 328.955 293.622 331.327L289.633 331.328L288.544 331.337C287.481 329.134 285.279 325.883 284.443 323.707C283.345 323.672 282.099 323.699 280.989 323.699L280.996 331.336L276.333 331.33C276.19 324.397 276.318 316.878 276.329 309.913C278.081 309.925 279.833 309.926 281.584 309.918ZM288.016 316.674C287.909 313.094 283.519 313.64 280.984 313.651C280.985 315.762 280.963 317.915 280.991 320.024C283.002 320.053 285.529 320.384 287.134 319.126C287.863 318.303 288.049 317.777 288.016 316.674Z" fill="#080A86"/>
<path d="M329.636 309.673L334.124 309.677L334.123 331.57C332.736 331.593 331.348 331.588 329.961 331.555C329.679 330.669 328.373 329.036 327.795 328.194C326.278 325.966 324.742 323.749 323.189 321.546C322.574 320.676 321.243 318.547 320.635 317.876L320.513 317.923C320.267 318.666 320.416 329.963 320.416 331.572C318.886 331.586 317.355 331.584 315.826 331.568C315.769 329.969 315.814 328.052 315.814 326.43L315.811 316.561L315.808 312.031C315.807 311.486 315.773 310.103 315.862 309.67L319.894 309.675C320.61 310.857 321.473 312.023 322.261 313.162L325.707 318.158C326.92 319.892 328.254 322.075 329.6 323.687C329.688 322.414 329.627 320.479 329.625 319.152C329.606 315.992 329.61 312.833 329.636 309.673Z" fill="#080A86"/>
<path d="M295.833 309.915C299.812 309.976 306.749 309.163 309.846 311.568C311.221 312.63 312.106 314.205 312.296 315.932C312.912 321.071 310.084 323.756 305.239 324.335C303.866 324.442 301.966 324.398 300.547 324.407L300.543 331.347C298.977 331.336 297.413 331.333 295.848 331.339C295.785 328.948 295.836 326.332 295.835 323.928L295.833 309.915ZM307.626 316.598C307.197 313.133 303.186 313.642 300.628 313.657C300.627 315.956 300.583 318.437 300.634 320.724C302.62 320.746 305.244 321.066 306.749 319.701C307.525 318.665 307.787 317.904 307.626 316.598Z" fill="#080A86"/>
<path d="M344.005 315.012C347.132 314.887 350.013 316.044 351.43 319.007C352.281 320.789 352.282 322.689 352.345 324.619C349.496 324.571 346.629 324.632 343.778 324.604C342.866 324.595 341.932 324.595 341.022 324.655C341.105 325.185 341.217 325.646 341.372 326.158C342.239 329.006 346.749 329.445 347.975 326.668C348.843 326.656 349.915 326.748 350.798 326.801C351.2 326.865 351.743 326.869 352.163 326.885C351.232 332.239 343.432 333.161 339.709 330.466C335.5 327.419 335.545 319.318 339.881 316.387C341.099 315.564 342.101 315.256 343.51 315.051C343.674 315.031 343.839 315.018 344.005 315.012ZM348.044 321.73C347.684 319.609 346.735 318.231 344.352 318.418C342.19 318.762 341.526 319.685 341.035 321.758L344.865 321.76C345.831 321.757 347.103 321.79 348.044 321.73Z" fill="#080A86"/>
<path d="M364.26 315.208L368.958 315.208C367.517 317.473 365.479 321.118 364.201 323.488C364.831 324.276 366.128 326.659 366.714 327.655C367.367 328.762 368.441 330.457 368.979 331.548C367.771 331.645 365.587 331.592 364.338 331.558L364.328 331.537C363.595 329.888 362.114 327.645 361.214 325.913C360.472 327.163 358.582 330.364 358.054 331.577L353.375 331.578C353.716 330.823 354.608 329.404 355.063 328.638L358.186 323.392C357.439 322.224 356.609 320.63 355.879 319.408C355.255 318.362 353.986 316.258 353.568 315.207L358.101 315.211C359.102 316.686 360.341 319.346 361.212 321.025C362.157 318.971 363.28 317.211 364.26 315.208Z" fill="#080A86"/>
<path d="M258.021 318.676L271.901 318.675L271.894 322.342C268.988 322.438 265.634 322.36 262.689 322.366C262.615 323.927 262.666 325.91 262.662 327.503C264.188 327.535 265.79 327.513 267.322 327.515C269.134 327.525 270.946 327.517 272.758 327.491L272.753 331.329C267.852 331.376 262.929 331.277 258.023 331.355C257.964 327.196 258.021 322.847 258.021 318.676Z" fill="#080A86"/>
<path d="M372.159 311.276L376.668 311.268L376.666 315.202L379.754 315.223L379.764 318.61L376.664 318.605C376.662 321.494 376.686 327.397 376.686 327.397C376.686 327.397 376.899 328.048 377.456 328.091C378.174 328.147 378.597 328.144 379.3 328.048C379.564 329.086 379.853 330.131 380 331.191L379.966 331.384C378.594 332.223 374.556 331.883 373.427 330.591C371.81 328.74 372.125 326.4 372.131 324.161L372.137 318.621C371.408 318.591 370.557 318.606 369.818 318.6L369.817 315.201L372.142 315.207C372.133 313.897 372.138 312.586 372.159 311.276Z" fill="#080A86"/>
<path d="M258.017 309.911L272.656 309.913L272.646 313.684L258.016 313.682L258.017 309.911Z" fill="#080A86"/>
<rect x="379" y="123" width="72" height="72" rx="36" fill="#D3CCFF"/>
<path d="M417.25 153.832C418.006 153.804 418.812 153.818 419.572 153.818L423.413 153.818L425.624 153.817C426.947 153.817 427.767 153.762 428.865 154.611C430.463 155.846 430.183 157.735 430.182 159.519L430.181 164.304L430.182 169.028C430.182 169.842 430.225 170.791 430.136 171.593C429.949 173.267 428.623 174.47 426.971 174.665C426.271 174.701 425.481 174.684 424.773 174.684L421.081 174.684L418.704 174.687C418.237 174.688 417.778 174.69 417.313 174.666C415.61 174.575 414.159 173.266 414.043 171.534C413.981 170.617 414 169.703 414.001 168.774L414.001 163.918L414.001 159.419C414.001 157.919 413.779 156.287 414.796 155.086C415.478 154.281 416.218 153.943 417.25 153.832ZM426.467 172.339C427.434 172.29 427.845 171.896 427.856 170.911C427.867 169.908 427.862 168.903 427.862 167.9L427.863 162.102L427.863 159.012C427.862 158.49 427.867 157.968 427.855 157.447C427.838 156.75 427.5 156.244 426.771 156.204C426.134 156.168 425.511 156.176 424.873 156.176L421.913 156.179L419.281 156.177C418.864 156.177 418.204 156.159 417.801 156.192C417.125 156.211 416.398 156.298 416.35 157.141C416.313 157.774 416.327 158.407 416.327 159.041L416.326 162.489L416.327 168.204C416.327 169.192 416.331 170.173 416.332 171.169C416.333 171.773 416.631 172.173 417.258 172.301C417.636 172.379 418.177 172.344 418.572 172.343L420.355 172.34C422.378 172.339 424.449 172.365 426.467 172.339Z" fill="#080A86"/>
<path d="M418.669 158.483C419.425 158.437 420.498 158.467 421.278 158.467C422.701 158.461 424.124 158.465 425.547 158.476C425.523 158.916 425.59 160.526 425.507 160.821C423.508 160.853 421.498 160.809 419.498 160.829C419.208 160.832 418.926 160.81 418.634 160.821C418.652 160.433 418.602 158.706 418.669 158.483Z" fill="#080A86"/>
<path d="M424.259 167.721C424.892 167.657 425.458 168.118 425.523 168.753C425.588 169.387 425.128 169.954 424.494 170.02C423.861 170.085 423.294 169.624 423.229 168.989C423.164 168.354 423.625 167.786 424.259 167.721Z" fill="#080A86"/>
<path d="M419.657 167.724C420.286 167.664 420.846 168.124 420.909 168.754C420.972 169.384 420.516 169.947 419.887 170.014C419.254 170.081 418.687 169.62 418.623 168.985C418.559 168.35 419.023 167.785 419.657 167.724Z" fill="#080A86"/>
<path d="M424.163 163.121C424.785 163.002 425.386 163.409 425.506 164.032C425.626 164.655 425.22 165.258 424.598 165.379C423.975 165.501 423.372 165.093 423.252 164.468C423.131 163.844 423.539 163.24 424.163 163.121Z" fill="#080A86"/>
<path d="M419.556 163.121C420.176 163.005 420.773 163.412 420.892 164.033C421.011 164.653 420.608 165.253 419.989 165.376C419.366 165.499 418.762 165.091 418.642 164.466C418.522 163.842 418.932 163.239 419.556 163.121Z" fill="#080A86"/>
<path d="M406.103 145.068C406.593 145.035 407.256 145.053 407.753 145.053L410.599 145.053L419.223 145.052C420.383 145.053 421.381 145.19 422.229 146.06C423.35 147.211 423.224 148.213 423.223 149.675L423.22 151.966C422.442 151.974 421.663 151.974 420.885 151.966C420.963 150.817 420.858 149.523 420.877 148.369C420.883 148.013 420.515 147.493 420.201 147.458C419.39 147.368 418.383 147.413 417.572 147.414L410.518 147.412C409.929 147.41 409.339 147.412 408.75 147.416C408.395 147.42 407.844 147.449 407.518 147.405C407.472 148.858 407.503 150.503 407.508 151.97L404.628 151.975C404.196 151.977 403.34 152.008 402.937 151.957L402.936 164.395L402.934 169.169C402.934 169.951 402.904 170.759 402.977 171.535C403.009 171.881 403.511 172.257 403.831 172.291C404.733 172.388 405.679 172.34 406.59 172.339L412.145 172.346L412.149 174.681L406.679 174.684C405.919 174.684 405.156 174.69 404.398 174.685C403.389 174.678 402.571 174.475 401.79 173.818C400.51 172.741 400.605 171.313 400.608 169.794L400.61 167.429L400.61 159.831L400.608 153.716C400.607 151.396 400.304 148.951 401.966 147.072C403.145 145.739 404.355 145.197 406.103 145.068ZM403.23 149.629C403.863 149.63 404.556 149.615 405.183 149.633C405.186 149.309 405.214 147.861 405.169 147.649C405.144 147.63 405.129 147.614 405.102 147.607C404.103 148.048 403.622 148.585 403.148 149.553L403.162 149.607L403.23 149.629Z" fill="#080A86"/>
<path d="M405.204 160.994C407.477 160.973 409.885 160.965 412.155 161C412.11 161.737 412.19 162.57 412.131 163.338C410.227 163.408 408.282 163.307 406.372 163.355C406 163.365 405.558 163.32 405.195 163.371C405.188 162.688 405.16 161.662 405.204 160.994Z" fill="#080A86"/>
<path d="M405.204 165.642C407.478 165.622 409.884 165.614 412.155 165.648C412.109 166.383 412.188 167.215 412.131 167.986C410.232 168.054 408.296 167.957 406.392 168.004C406.02 168.013 405.555 167.967 405.195 168.019C405.189 167.338 405.159 166.309 405.204 165.642Z" fill="#080A86"/>
<path d="M405.237 156.39C405.567 156.432 406.978 156.403 407.398 156.403L412.146 156.409C412.149 156.984 412.171 158.008 412.131 158.617C412.109 158.645 412.09 158.669 412.074 158.689C410.636 158.751 409.027 158.665 407.572 158.702C407.276 158.709 405.439 158.725 405.242 158.686C405.171 158.464 405.15 156.529 405.237 156.39Z" fill="#080A86"/>
<rect x="446" y="206" width="78" height="77" rx="38.5" fill="#D3CCFF"/>
<path d="M472.536 229.339L472.716 229.334C474.575 229.282 476.664 229.327 478.535 229.327L489.779 229.328L495.165 229.327C496 229.326 496.894 229.299 497.723 229.342C499.972 229.462 501.928 231.51 501.913 233.773C501.902 235.335 501.924 236.913 501.917 238.477C501.941 240.023 501.961 241.192 501.089 242.532C500.865 242.877 500.379 243.186 500.336 243.616C500.291 244.053 500.308 244.531 500.309 244.978L500.317 247.351C500.319 247.988 500.405 248.825 499.941 249.32C499.318 249.991 498.542 249.905 497.948 249.266C497.506 248.79 497.627 247.814 497.628 247.183L497.637 244.808C497.406 244.849 497.171 244.872 496.935 244.878C495.331 244.927 494 244.211 492.868 243.142C492.795 243.218 492.72 243.293 492.645 243.367C490.617 245.348 487.478 245.354 485.418 243.406C485.322 243.315 485.23 243.219 485.137 243.125C484.752 243.468 484.306 243.929 483.845 244.171C482.947 244.642 481.832 244.975 480.809 244.85C479.627 244.705 478.181 244.096 477.425 243.142C477.15 243.381 476.483 243.943 476.186 244.113C475.135 244.715 473.767 245.058 472.579 244.796L472.579 252.114C472.578 253.182 472.523 254.519 472.656 255.57C472.707 255.977 473.115 256.604 473.414 256.899C474.342 257.814 475.731 257.645 476.938 257.642L479.213 257.642C479.222 257.016 479.219 256.382 479.221 255.755L479.219 251.398C479.219 250.681 479.182 249.833 479.271 249.131C479.31 248.821 479.439 248.614 479.653 248.396C480.055 247.984 480.549 248.03 481.082 248.028L487.145 248.029C488.048 248.029 489.017 248.002 489.917 248.062C490.399 248.095 490.986 248.64 491.03 249.158C491.108 250.082 491.077 251.037 491.076 251.972L491.075 257.641C492.312 257.564 493.843 257.714 495.112 257.626C496.185 257.551 497.202 256.895 497.509 255.832C497.665 255.155 497.579 254.654 498.059 254.086C498.813 253.194 500.298 253.931 500.297 255.01C500.295 256.353 499.755 257.646 498.838 258.614C497.727 259.786 496.455 260.274 494.855 260.254C493.306 260.262 491.767 260.257 490.224 260.256L481.67 260.258L477.472 260.258C475.152 260.258 473.436 260.512 471.622 258.805C469.525 256.832 470.023 254.305 469.982 251.726C469.938 248.975 470.019 246.241 469.972 243.504C469.742 243.196 469.417 242.84 469.213 242.552C468.706 241.785 468.343 240.738 468.318 239.812C468.276 238.245 468.318 236.66 468.301 235.09C468.294 234.388 468.278 233.634 468.435 232.95C468.606 232.198 468.956 231.499 469.457 230.912C470.28 229.965 471.284 229.426 472.536 229.339ZM470.984 234.797C471.79 234.748 473.049 234.791 473.891 234.791L479.691 234.791L497.558 234.791C498.119 234.792 498.749 234.778 499.303 234.797C499.317 234.015 499.35 233.176 498.763 232.561C498.257 232.032 497.639 231.952 496.951 231.95C494.958 231.944 492.964 231.946 490.971 231.946L479.544 231.949L474.963 231.948C474.62 231.947 473.079 231.921 472.81 231.975C472.255 232.027 471.795 232.222 471.425 232.667C470.929 233.262 470.979 234.065 470.984 234.797ZM481.825 257.641C482.291 257.626 482.772 257.632 483.24 257.639C484.948 257.665 486.673 257.608 488.379 257.649C488.477 255.438 488.343 252.973 488.4 250.726C486.922 250.714 485.444 250.712 483.966 250.719C483.509 250.72 482.233 250.753 481.829 250.705C481.802 253.003 481.823 255.34 481.825 257.641ZM486.454 237.404L486.446 238.842C486.443 239.487 486.397 239.936 486.633 240.569C487.202 242.094 489.071 242.742 490.413 241.787C490.558 241.683 490.711 241.537 490.848 241.416C491.848 240.436 491.545 238.71 491.575 237.418L488.219 237.415C487.794 237.416 486.849 237.443 486.454 237.404ZM478.712 237.419C478.716 237.885 478.716 238.35 478.713 238.816C478.71 239.817 478.684 240.689 479.457 241.462C479.966 241.972 480.557 242.242 481.277 242.227C482.173 242.208 482.434 241.964 483.095 241.445C484.109 240.327 483.836 238.885 483.85 237.42C482.188 237.412 480.353 237.455 478.712 237.419ZM494.177 237.419C494.181 237.899 494.181 238.379 494.178 238.859C494.174 239.919 494.148 240.628 494.959 241.468C495.451 241.978 496.078 242.238 496.782 242.229C497.613 242.218 497.996 241.942 498.597 241.423C499.548 240.528 499.302 238.637 499.315 237.42C497.653 237.412 495.818 237.455 494.177 237.419ZM476.11 237.418L472.744 237.415C472.327 237.416 471.377 237.443 470.988 237.403L470.981 238.874C470.978 239.819 470.95 240.721 471.677 241.438C472.786 242.531 474.225 242.48 475.344 241.43C476.068 240.618 476.109 240.127 476.112 239.063C476.114 238.54 476.098 237.938 476.11 237.418Z" fill="#080A86"/>
<rect x="447" y="313" width="78" height="78" rx="39" fill="#D3CCFF"/>
<g clip-path="url(#clip0_1_2236)">
<path d="M485.229 336H486.736C486.892 336.067 487.081 336.099 487.247 336.132C489.265 336.531 490.961 337.948 491.759 339.835C492.001 340.407 492.153 341.011 492.211 341.629C492.299 342.494 492.253 344.205 492.253 345.132L492.253 347.751C492.253 348.229 492.269 348.714 492.246 349.191C492.237 349.379 492.229 349.601 492.156 349.775C492.031 350.072 491.772 350.353 491.47 350.473C491.164 350.596 490.798 350.6 490.495 350.468C490.2 350.339 489.968 350.082 489.852 349.783C489.669 349.314 489.74 347.392 489.757 346.771C488.947 346.762 488.137 346.76 487.327 346.763C486.811 346.764 486.264 346.796 485.756 346.708C485.553 346.673 485.295 346.498 485.151 346.354C484.506 345.709 484.839 344.483 485.747 344.303C486.214 344.211 486.705 344.258 487.179 344.246C488.027 344.233 488.9 344.266 489.745 344.247C489.756 342.573 489.981 340.986 488.699 339.66C487.251 338.162 484.825 338.126 483.344 339.608C482.347 340.606 482.249 341.586 482.249 342.937L482.254 347.397C482.254 348.045 482.298 348.958 482.207 349.58C482.068 350.527 480.728 350.924 480.085 350.166C479.861 349.901 479.756 349.633 479.752 349.274C479.744 348.472 479.743 347.666 479.755 346.865C479.755 346.833 479.756 346.802 479.757 346.771C478.08 346.758 476.403 346.755 474.727 346.76C474.289 346.76 472.867 346.797 472.503 346.747L472.502 358.336L472.5 361.539C472.5 362.69 472.333 363.86 473.222 364.748C473.592 365.124 474.075 365.369 474.596 365.447C475.229 365.538 476.457 365.501 477.147 365.5L481.435 365.498L496.576 365.5C497.537 365.497 498.125 365.382 498.825 364.678C499.082 364.419 499.349 363.953 499.41 363.601C499.55 362.79 499.502 361.776 499.502 360.94L499.501 356.727C499.501 356.23 499.447 355.483 499.579 355.023C499.817 354.189 500.987 353.907 501.591 354.527C501.804 354.747 501.872 354.899 502 355.158V363.614L501.991 363.639C501.871 363.969 501.822 364.387 501.691 364.726C501.184 366.04 500.283 366.961 499.028 367.573C498.652 367.757 497.829 367.915 497.684 368H474.353C474.186 367.921 473.563 367.798 473.327 367.715C471.982 367.239 470.893 366.171 470.349 364.858C470.213 364.53 470.146 363.945 470 363.681V345.194C470.033 345.145 470.092 345.035 470.117 344.98C470.512 344.112 471.364 344.247 472.195 344.247L473.854 344.247L479.745 344.247C479.748 343.628 479.764 342.983 479.752 342.369C479.704 339.754 481.321 337.322 483.778 336.406C484.216 336.243 484.873 336.16 485.229 336Z" fill="#080A86"/>
<path d="M486.448 358.106C486.666 357.836 487.059 357.462 487.311 357.209L488.776 355.745L494.979 349.542L496.988 347.525C497.118 347.394 497.627 346.962 497.649 346.834C497.438 346.629 495.813 346.91 495.218 346.626C494.011 346.142 494.451 344.202 495.735 344.255C496.811 344.3 498.174 344.151 499.228 344.282C499.558 344.322 499.881 344.414 500.183 344.552C500.853 344.859 501.415 345.406 501.707 346.085C501.814 346.333 501.902 346.65 502.001 346.915V350.714C501.876 350.954 501.817 351.086 501.643 351.289C501.059 352.038 499.709 351.673 499.554 350.759C499.441 350.095 499.52 349.274 499.495 348.585L490.967 357.109L488.5 359.579C488.076 360.004 487.632 360.471 487.181 360.866C486.941 361.071 486.7 361.126 486.397 361.136C485.877 361.155 485.503 360.744 485.161 360.406C484.857 360.106 484.552 359.796 484.247 359.492L481.41 356.657C480.996 357.026 480.507 357.56 480.116 357.965L478.042 360.099C477.612 360.541 476.921 361.411 476.324 361.491C475.988 361.533 475.65 361.44 475.384 361.231C475.126 361.034 474.957 360.742 474.916 360.421C474.814 359.623 475.563 359.05 476.071 358.53C476.518 358.074 476.963 357.616 477.405 357.155C478.118 356.41 478.835 355.669 479.557 354.933C479.87 354.614 480.309 354.105 480.653 353.85C481.676 353.09 482.582 354.277 483.199 354.895L485.234 356.934C485.564 357.265 486.097 357.828 486.448 358.106Z" fill="#080A86"/>
</g>
<rect x="280" y="89" width="77" height="77" rx="38.5" fill="#D3CCFF"/>
<path d="M314.034 113.997C314.589 113.956 315.379 113.977 315.947 113.977L319.295 113.976L321.736 113.977C322.238 113.978 322.784 113.955 323.279 114.019C324.264 114.146 324.915 114.97 325.029 115.927C325.842 115.944 326.666 115.909 327.476 115.95C329.766 116.069 329.475 118.131 329.472 119.807L329.473 122.075C329.472 122.38 329.448 122.882 329.483 123.168L329.532 123.204C329.772 123.142 330.306 122.264 331.023 122.182C332.263 122.039 332.708 122.78 333.531 123.557C334.408 124.384 335.68 125.513 334.801 126.834C334.44 127.377 333.736 128.004 333.258 128.483L330.562 131.182C329.372 132.362 329.466 132.052 329.468 133.711L329.472 137.528C329.473 138.444 329.602 139.921 329.086 140.681C328.395 141.757 326.959 141.533 325.848 141.534L322.231 141.532L310.404 141.538C309.574 141.535 308.972 141.505 308.343 140.87C308.085 140.608 307.785 140.194 307.749 139.828C307.673 139.069 307.706 138.21 307.708 137.444L307.708 133.1C307.708 128.219 307.706 123.336 307.706 118.455C307.706 117.611 307.745 117.15 308.376 116.521C309.032 115.867 309.875 115.931 310.734 115.935L312.204 115.949C312.436 114.92 312.94 114.176 314.034 113.997ZM312.209 118.515C311.805 118.516 310.552 118.548 310.235 118.501C310.198 120.23 310.224 122.025 310.224 123.76L310.226 133.149L310.226 136.902C310.226 137.488 310.25 138.332 310.217 138.899C311.281 138.934 312.398 138.917 313.466 138.917L318.629 138.917L324.138 138.917C325.04 138.917 326.058 138.939 326.95 138.915C326.963 137.554 326.967 136.193 326.963 134.832C326.613 135.142 326.083 135.652 325.774 135.998C325.224 136.076 323.83 136.049 323.218 136.052C322.849 136.054 321.538 136.034 321.239 136.076L321.26 133.246C321.265 132.693 321.256 132.06 321.296 131.513C321.679 131.069 322.354 130.433 322.79 129.996C323.706 129.09 324.614 128.176 325.515 127.256C325.842 126.927 326.711 126.106 326.928 125.796C326.982 124.984 326.982 124.075 326.964 123.257C326.93 121.695 327.023 120.067 326.949 118.512C326.586 118.516 325.358 118.558 325.043 118.511C324.93 119.25 324.654 119.71 324.064 120.165C323.4 120.676 322.34 120.541 321.524 120.542L318.627 120.542L315.799 120.541C314.601 120.541 313.436 120.741 312.67 119.635C312.401 119.247 312.328 118.971 312.209 118.515ZM322.483 116.544C320.716 116.524 318.948 116.518 317.181 116.526C316.669 116.527 315.194 116.57 314.761 116.512C314.752 116.993 314.752 117.475 314.763 117.956C316.576 117.938 318.436 117.953 320.252 117.955L321.747 117.959C321.88 117.96 322.347 117.971 322.46 117.955C322.469 117.531 322.455 116.946 322.483 116.544ZM323.874 132.607C323.859 132.88 323.848 133.153 323.839 133.426C324.112 133.425 324.422 133.431 324.692 133.413C324.835 133.349 325.672 132.457 325.869 132.26L329.897 128.214C330.454 127.653 331.03 127.126 331.572 126.551C331.787 126.323 332.004 126.132 332.186 125.878C332.063 125.708 331.518 125.082 331.344 125.063C329.721 126.666 328.11 128.28 326.51 129.907C325.921 130.487 325.336 131.072 324.755 131.662C324.493 131.928 324.086 132.312 323.874 132.607Z" fill="#080A86"/>
<path d="M312.439 123.425C313.97 123.411 315.501 123.407 317.032 123.414L324.754 123.417C324.759 123.755 324.824 125.827 324.701 125.964C323.696 125.94 322.614 125.96 321.602 125.96L315.761 125.961C314.643 125.961 313.506 125.976 312.391 125.933C312.499 125.293 312.34 123.973 312.439 123.425Z" fill="#080A86"/>
<path d="M312.443 128.489C312.769 128.467 313.156 128.458 313.482 128.468C315.519 128.525 317.656 128.376 319.681 128.492C319.663 129.302 319.728 130.245 319.644 131.04C319.207 131.018 318.602 131.034 318.152 131.034L315.323 131.033L313.4 131.031C313.073 131.028 312.724 130.995 312.406 131.019C312.449 130.61 312.364 128.672 312.443 128.489Z" fill="#080A86"/>
<path d="M312.424 133.477C313.098 133.433 314.031 133.459 314.717 133.459C316.041 133.455 317.366 133.459 318.69 133.469C318.638 134.041 318.674 135.432 318.672 136.073C316.602 136.057 314.451 136.124 312.391 136.051C312.463 135.611 312.414 134.034 312.424 133.477Z" fill="#080A86"/>
<rect x="385" y="406" width="78" height="79" rx="39" fill="#D3CCFF"/>
<g clip-path="url(#clip1_1_2236)">
<path d="M436.746 442.129C437.355 442.156 437.967 442.55 438.019 443.198C438.079 443.949 438.054 444.731 438.054 445.487L438.054 449.662L438.053 454.823C438.053 455.713 438.065 456.602 438.038 457.492C438.015 458.23 437.553 458.708 436.818 458.786C436.162 458.771 435.534 458.372 435.498 457.685C435.453 456.808 435.473 455.902 435.473 455.023L435.473 450.084L435.473 445.689C435.473 444.984 435.476 444.277 435.48 443.572C435.484 442.719 435.854 442.204 436.746 442.129Z" fill="#080A86"/>
<path d="M419.744 445.188C420.538 445.282 420.988 445.687 421.019 446.498C421.046 447.167 421.036 447.832 421.036 448.502L421.036 452.377L421.036 455.73C421.037 456.344 421.049 456.957 421.014 457.571C420.973 458.288 420.468 458.725 419.77 458.786C419.217 458.768 418.562 458.409 418.494 457.807C418.426 457.208 418.456 456.532 418.455 455.922L418.456 452.544L418.455 448.548C418.455 447.817 418.432 447.067 418.483 446.339C418.535 445.603 419.06 445.272 419.744 445.188Z" fill="#080A86"/>
<path d="M428.013 449.566C428.92 449.46 429.532 450.032 429.537 450.932C429.55 453.113 429.563 455.298 429.533 457.478C429.524 458.147 429.16 458.551 428.544 458.76C428.209 458.805 427.944 458.786 427.636 458.632C427.007 458.316 426.969 457.762 426.966 457.14C426.965 456.764 426.965 456.395 426.965 456.023L426.966 453.66C426.966 452.769 426.961 451.877 426.971 450.986C426.98 450.226 427.252 449.77 428.013 449.566Z" fill="#080A86"/>
<path d="M411.057 451.761C411.632 451.709 412.269 452.01 412.442 452.603C412.552 453.039 412.535 453.512 412.531 453.959C412.52 455.139 412.555 456.327 412.514 457.506C412.491 458.177 412.112 458.599 411.466 458.771C410.896 458.805 410.135 458.568 410.023 457.922C409.869 457.038 409.976 456.041 409.947 455.139C409.96 454.417 409.923 453.69 409.97 452.97C410.015 452.273 410.405 451.903 411.057 451.761Z" fill="#080A86"/>
<path d="M433.246 437.315C432.953 436.233 432.911 435.296 433.434 434.263C433.874 433.377 434.654 432.708 435.595 432.407C436.542 432.102 437.572 432.184 438.459 432.636C439.212 433.024 439.873 433.697 440.192 434.487C440.314 434.789 440.399 435.137 440.5 435.454V436.496C440.382 436.8 440.316 437.133 440.191 437.432C439.826 438.302 439.105 439.013 438.245 439.392C437.275 439.82 436.265 439.78 435.292 439.401C435.181 439.357 435.071 439.312 434.961 439.266C434.507 439.6 433.783 440.262 433.345 440.65C432.895 441.048 432.157 441.651 431.748 442.06C432.101 442.999 432.062 444.04 431.64 444.951C431.212 445.866 430.438 446.574 429.487 446.917C428.568 447.251 427.552 447.199 426.672 446.772C425.093 446.025 424.466 444.629 424.532 442.949C424 442.634 422.82 442.039 422.265 441.793C420.826 442.978 419.383 443.065 417.746 442.213C417.155 442.638 416.55 443.118 415.972 443.564C415.647 443.815 415.11 444.206 414.821 444.472C415.066 445.615 415.04 446.577 414.381 447.599C413.83 448.454 412.96 449.053 411.965 449.263C411.013 449.455 410.024 449.263 409.213 448.728C408.542 448.291 408.003 447.657 407.743 446.897C407.708 446.793 407.537 446.237 407.5 446.176V444.984C407.537 444.927 407.597 444.757 407.614 444.686C408.085 442.747 410.01 441.524 411.964 441.931C412.437 442.03 412.802 442.2 413.257 442.413C413.415 442.272 413.585 442.132 413.756 442.006C414.56 441.414 415.34 440.735 416.161 440.17C416.057 439.699 415.999 439.409 416.017 438.911C416.045 437.9 416.483 436.943 417.23 436.26C417.961 435.597 418.926 435.252 419.911 435.303C420.916 435.348 421.86 435.794 422.531 436.543C423.306 437.404 423.525 438.361 423.465 439.488C424.162 439.844 425.045 440.325 425.749 440.633C426.601 439.728 428.141 439.44 429.301 439.807C429.564 439.89 429.81 439.988 430.066 440.091C430.339 439.812 430.907 439.343 431.219 439.07C431.882 438.49 432.57 437.875 433.246 437.315ZM419.956 440.159C420.583 440.04 420.992 439.434 420.87 438.809C420.747 438.183 420.138 437.777 419.514 437.904C418.894 438.03 418.493 438.632 418.614 439.252C418.736 439.872 419.336 440.277 419.956 440.159ZM437.004 437.084C437.627 436.948 438.02 436.33 437.879 435.708C437.739 435.086 437.119 434.697 436.497 434.842C435.882 434.985 435.498 435.598 435.637 436.214C435.776 436.83 436.387 437.219 437.004 437.084ZM428.335 444.533C428.962 444.486 429.435 443.945 429.397 443.317C429.359 442.689 428.823 442.209 428.195 442.239C427.781 442.259 427.411 442.5 427.224 442.869C427.038 443.239 427.065 443.68 427.295 444.025C427.524 444.369 427.922 444.563 428.335 444.533ZM411.545 446.695C412.157 446.523 412.513 445.886 412.339 445.275C412.165 444.663 411.527 444.309 410.916 444.485C410.308 444.66 409.956 445.294 410.129 445.903C410.302 446.512 410.935 446.866 411.545 446.695Z" fill="#080A86"/>
</g>
<rect x="280" y="439" width="77" height="77" rx="38.5" fill="#D3CCFF"/>
<path d="M317.891 460.079C318.03 460.068 318.17 460.062 318.31 460.061C320.366 460.032 321.7 461.279 323.378 462.264L331.047 466.847C331.728 467.262 332.518 467.659 333.203 468.09C333.6 468.339 334.158 468.593 334.478 468.925C335.637 470.126 335.955 471.044 335.967 472.648L335.967 485.298L335.968 488.852C335.968 489.625 336.025 490.7 335.87 491.429C335.513 493.109 334.231 494.5 332.521 494.855C331.865 494.991 331.228 494.952 330.58 494.976C329.411 495.02 328.257 494.976 327.093 494.974L319.048 495.023C317.165 495.054 315.266 494.998 313.381 495.022C313.062 495.014 312.733 495.032 312.415 495.018C310.424 494.931 308.441 495.017 306.45 494.981C305.844 494.97 305.14 494.983 304.538 494.886C302.816 494.61 301.216 493.067 300.967 491.336C300.826 490.207 300.882 488.901 300.882 487.751L300.882 481.513L300.882 475.122C300.882 474.004 300.849 472.765 300.938 471.659C301.02 470.973 301.292 470.287 301.693 469.734C302.585 468.501 303.822 468.03 305.089 467.281L309.708 464.519L314.115 461.874C315.458 461.059 316.274 460.32 317.891 460.079ZM306.56 492.512L306.573 481.803L306.569 479.016C306.567 477.657 306.407 476.442 307.512 475.422C308.175 474.812 308.731 474.68 309.632 474.668C310.531 474.656 311.437 474.664 312.339 474.665L318.854 474.666L324.845 474.665C325.485 474.665 326.139 474.669 326.779 474.666C327.648 474.661 328.291 474.698 329.049 475.164C330.407 475.999 330.269 477.436 330.269 478.817L330.269 481.661C330.268 485.247 330.23 488.911 330.27 492.491C331.21 492.511 332.189 492.651 332.912 491.949C333.573 491.307 333.516 490.595 333.52 489.745L333.52 477.613L333.52 473.982C333.519 470.706 333.559 471.177 330.829 469.565L326.244 466.827C325.817 466.57 325.406 466.239 324.969 466.001C323.087 464.979 321.32 463.78 319.451 462.739C319.002 462.489 318.486 462.52 317.993 462.556C317.194 462.712 315.249 464.071 314.535 464.503L310.015 467.194L305.799 469.699C305.236 470.036 304.664 470.366 304.104 470.698C303.631 470.978 303.38 471.66 303.36 472.185C303.306 473.576 303.328 474.984 303.328 476.377L303.329 484.047L303.328 488.567C303.329 489.325 303.302 490.271 303.399 491.017C303.45 491.41 303.839 491.943 304.202 492.162C304.971 492.625 305.731 492.476 306.56 492.512ZM309.009 492.491C309.493 492.497 310.212 492.485 310.674 492.522L310.679 489.095C310.678 488.686 310.677 488.269 310.678 487.868C310.679 487.219 310.644 486.552 311.314 486.201C311.4 486.156 311.544 486.062 311.639 486.047C312.336 485.936 313.158 485.975 313.865 485.991C313.891 485.991 313.916 485.992 313.942 485.993C313.877 485.053 313.947 484.034 313.924 483.084C313.904 482.24 313.906 481.355 313.961 480.514C313.984 480.162 314.353 479.786 314.666 479.657L314.691 479.647C314.837 479.586 314.99 479.568 315.147 479.558C316.255 479.485 317.389 479.538 318.5 479.539C319.544 479.54 320.623 479.486 321.663 479.558C321.863 479.572 322.052 479.597 322.237 479.677C322.512 479.796 322.698 479.983 322.807 480.261C323.04 480.849 322.922 483.161 322.923 483.944C322.925 484.578 322.945 485.344 322.903 485.966C326.119 486.042 326.284 485.838 326.171 489.351C326.14 490.336 326.212 491.46 326.163 492.464L326.162 492.497C326.724 492.504 327.286 492.505 327.849 492.502C327.781 491.446 327.835 489.665 327.836 488.55L327.839 480.934C327.839 480.482 327.909 477.418 327.718 477.218C327.1 477.08 325.717 477.127 325.017 477.127L320.714 477.126L313.43 477.127C312.244 477.128 310.631 477.082 309.47 477.151C309.333 477.176 309.212 477.181 309.115 477.278C308.974 477.498 309.02 478.71 309.02 479.041L309.021 481.723L309.023 488.556C309.023 489.845 309.045 491.207 309.009 492.491ZM313.113 488.454C313.156 488.98 313.13 489.892 313.13 490.444C313.13 491.005 313.156 491.928 313.106 492.459C314.246 492.497 315.437 492.481 316.581 492.479L317.234 492.486C317.233 491.189 317.199 489.738 317.241 488.453C316.163 488.443 314.954 488.42 313.884 488.45C313.63 488.457 313.365 488.471 313.113 488.454ZM319.698 488.426C319.67 489.699 319.67 491.192 319.695 492.468C320.562 492.478 321.43 492.482 322.298 492.479C322.717 492.478 323.326 492.459 323.733 492.489C323.721 491.692 323.717 490.895 323.721 490.099C323.721 489.598 323.704 488.952 323.737 488.463C322.872 488.442 322.007 488.436 321.142 488.447C320.761 488.449 320.031 488.479 319.698 488.426ZM316.389 481.998C316.348 483.247 316.439 484.791 316.364 485.969C317.661 486.003 319.245 485.927 320.477 485.996C320.459 484.766 320.447 483.231 320.479 482.007L317.791 482.005C317.382 482.004 316.78 482.026 316.389 481.998Z" fill="#080A86"/>
<path d="M315.136 469.279C315.492 469.265 315.86 469.264 316.217 469.269C318.106 469.295 320.01 469.212 321.894 469.312C322.106 469.323 322.34 469.433 322.504 469.565C322.731 469.75 322.875 470.019 322.903 470.31C322.979 471.04 322.463 471.645 321.729 471.713C321.525 471.725 321.323 471.727 321.115 471.725C319.08 471.7 317.036 471.776 315.005 471.695C314.833 471.689 314.609 471.555 314.476 471.449C313.502 470.669 313.91 469.418 315.136 469.279Z" fill="#080A86"/>
<rect x="176" y="406" width="77" height="78" rx="38.5" fill="#D3CCFF"/>
<path d="M216.349 426.641C218.674 426.475 220.987 427.085 222.929 428.375C224.934 429.709 226.419 431.691 227.137 433.99C227.366 434.737 227.419 435.226 227.568 435.96C228.433 435.949 229.293 435.884 230.16 435.861C231.017 435.854 232.225 435.582 232.715 436.514C232.953 436.969 232.82 437.487 232.694 437.955C232.463 438.815 232.22 439.674 231.986 440.533L230.644 445.455L229.535 449.538C229.33 450.295 229.132 451.056 228.908 451.807C228.732 452.4 228.406 452.76 227.789 452.861C227 452.99 226.222 452.994 225.429 453.05L220.263 453.375L209.648 454.036C208.887 454.08 208.132 454.157 207.37 454.192C207.181 454.395 206.619 455.236 206.49 455.502C208.246 455.535 210.085 455.508 211.846 455.509L223.827 455.508C225.827 455.508 227.828 455.502 229.828 455.507C230.442 455.509 231.086 455.56 231.391 456.182C231.648 456.708 231.571 457.391 231.138 457.802C230.714 458.204 230.127 458.157 229.587 458.134C229.873 458.514 230.081 459.015 230.174 459.479C230.347 460.326 230.174 461.206 229.692 461.923C229.192 462.669 228.412 463.183 227.529 463.348C226.649 463.473 225.798 463.301 225.068 462.783C224.368 462.293 223.891 461.545 223.742 460.704C223.582 459.765 223.806 458.921 224.348 458.151L215.734 458.152C214.352 458.152 212.528 458.204 211.197 458.129C211.415 458.43 211.583 458.763 211.694 459.117C211.963 459.946 211.887 460.848 211.484 461.621C211.075 462.4 210.375 462.985 209.536 463.25C207.107 464.001 204.749 461.751 205.416 459.317C205.547 458.838 205.732 458.529 205.965 458.102C205.004 457.878 204.16 457.183 203.906 456.202C203.515 454.696 204.475 453.833 205.18 452.639C204.368 449.8 203.601 446.826 202.825 443.969L201.958 440.772C201.727 439.92 201.544 439.06 201.135 438.276C200.944 437.909 200.763 437.531 200.575 437.162C199.564 437.081 198.069 437.292 197.151 437.086C196.819 437.012 196.499 436.833 196.316 436.538C196.127 436.23 196.098 435.839 196.18 435.492C196.255 435.173 196.449 434.842 196.738 434.671C197.19 434.404 201.14 434.43 201.745 434.589C201.881 434.625 202.043 434.67 202.158 434.755C202.743 435.185 203.111 436.417 203.487 437.05C204.465 437.061 205.625 436.985 206.624 436.949C206.682 431.493 210.945 427.107 216.349 426.641ZM217.761 444.962C222.094 444.608 225.317 440.805 224.956 436.473C224.596 432.142 220.789 428.924 216.458 429.291C212.135 429.656 208.926 433.454 209.285 437.777C209.645 442.1 213.438 445.315 217.761 444.962ZM204.403 439.683C204.682 440.634 204.941 441.869 205.246 442.775C205.859 445.137 206.546 447.487 207.172 449.846C207.308 450.359 207.456 450.977 207.627 451.473C209.283 451.426 211.055 451.284 212.716 451.178L222.246 450.585C223.675 450.498 225.19 450.369 226.61 450.313C227.461 447.003 228.451 443.709 229.313 440.4C229.394 440.089 229.784 438.805 229.777 438.576L229.748 438.543C229.151 438.568 228.047 438.653 227.509 438.628C226.921 441.67 225.565 444.073 222.947 445.841C220.646 447.405 217.812 447.977 215.084 447.427C212.356 446.878 209.956 445.271 208.41 442.957C207.685 441.874 207.251 440.834 206.932 439.581C206.125 439.586 205.146 439.704 204.403 439.683ZM227.197 460.695C227.412 460.612 227.567 460.42 227.602 460.192C227.637 459.964 227.546 459.735 227.365 459.592C227.184 459.449 226.94 459.414 226.726 459.501C226.4 459.633 226.242 460.003 226.371 460.331C226.5 460.658 226.868 460.82 227.197 460.695ZM208.822 460.695C209.155 460.567 209.32 460.192 209.189 459.86C209.059 459.528 208.682 459.367 208.351 459.501C208.025 459.633 207.867 460.003 207.996 460.331C208.125 460.658 208.493 460.82 208.822 460.695Z" fill="#080A86"/>
<path d="M220.838 433.196C220.87 433.194 220.902 433.192 220.934 433.192C221.944 433.171 222.788 434.258 222.206 435.124C221.84 435.67 220.989 436.42 220.5 436.91L217.128 440.285C216.317 441.088 215.72 441.467 214.728 440.534C214.264 440.098 213.821 439.62 213.374 439.165C212.726 438.538 211.328 437.501 212.064 436.48C213.396 434.666 214.645 436.916 215.672 437.735C215.929 437.94 216.568 437.143 216.766 436.943L219.026 434.674C219.508 434.19 220.193 433.359 220.838 433.196Z" fill="#080A86"/>
<rect x="113" y="313" width="78" height="78" rx="39" fill="#D3CCFF"/>
<path d="M162.248 335.492C162.292 335.489 162.335 335.487 162.379 335.486C163.544 335.449 164.846 335.52 165.982 335.48C169.061 335.372 168.899 335.642 168.893 338.376C168.883 339.442 168.888 340.507 168.909 341.573C168.926 343.083 168.889 344.699 168.889 346.222L168.889 358.366L168.892 364.335C168.893 365.352 168.911 366.385 168.873 367.396C168.849 368.056 168.203 368.492 167.576 368.511C166.483 368.544 165.372 368.526 164.279 368.525L157.849 368.525L137.105 368.533C134.584 368.538 135.088 367.169 135.099 365.207L135.098 355.879L135.097 353.005C135.097 352.44 135.079 351.853 135.134 351.296C135.133 351.11 135.29 350.747 135.447 350.63C136.056 350.177 136.979 349.719 137.629 349.352C139.36 348.375 141.083 347.451 142.803 346.465C143.784 345.904 144.701 345.251 145.669 344.672C145.875 344.549 146.071 344.472 146.315 344.469C146.652 344.464 146.976 344.596 147.209 344.834C147.685 345.31 147.562 346.247 147.562 346.888C147.564 347.72 147.56 348.553 147.552 349.386L153.037 346.224C153.791 345.788 154.544 345.351 155.3 344.918C155.641 344.723 156.014 344.487 156.419 344.483C156.753 344.478 157.075 344.607 157.309 344.84C157.761 345.281 157.648 346.316 157.648 346.925L157.647 349.413C158.03 349.248 158.609 348.913 158.985 348.707L161.137 347.527C161.199 347.135 161.172 345.609 161.172 345.154L161.169 339.324C161.169 338.76 161.13 336.981 161.196 336.498C161.225 336.3 161.302 336.112 161.421 335.949C161.634 335.656 161.898 335.549 162.248 335.492ZM163.57 342.801L163.571 346.405C163.572 347.071 163.595 347.767 163.526 348.432C163.483 348.845 163.144 349.117 162.778 349.318C160.832 350.391 158.889 351.485 156.919 352.514C156.777 352.588 156.588 352.615 156.427 352.613C155.026 352.541 155.235 351.094 155.239 350.165L155.253 347.707C154.565 348.041 153.629 348.617 152.95 349.01L148.892 351.355C148.263 351.718 147.388 352.317 146.728 352.557C146.49 352.643 146.218 352.633 145.981 352.553C145.725 352.466 145.421 352.26 145.303 352.015C145.03 351.45 145.155 348.588 145.165 347.799C143.477 348.829 141.907 349.719 140.164 350.658C139.661 350.929 137.926 351.857 137.543 352.148C137.487 352.814 137.512 353.782 137.512 354.472L137.514 358.387L137.514 363.419C137.514 364.292 137.534 365.248 137.509 366.116C139.991 366.202 142.808 366.137 145.316 366.137L159.826 366.137L164.134 366.137C164.883 366.137 165.746 366.116 166.487 366.146L166.489 350.394L166.489 345.413C166.489 344.608 166.454 343.583 166.497 342.804C165.877 342.801 165.22 342.789 164.604 342.8C164.278 342.807 163.888 342.825 163.57 342.801ZM164.833 337.839C164.472 337.846 163.922 337.871 163.575 337.846C163.571 338.622 163.597 339.659 163.559 340.42C164.157 340.433 164.755 340.439 165.354 340.436L166.492 340.442C166.445 339.703 166.49 338.618 166.489 337.848C165.955 337.846 165.358 337.827 164.833 337.839Z" fill="#080A86"/>
<path d="M142.101 356.934C144.325 356.815 146.801 356.987 149.042 356.953C149.51 356.946 150.142 357.412 150.163 357.899C150.225 359.385 150.234 360.921 150.157 362.407C150.125 363.009 149.543 363.328 148.981 363.392C147.653 363.451 146.132 363.373 144.779 363.403C143.818 363.379 142.832 363.454 141.877 363.365C140.564 363.194 140.896 361.512 140.861 360.567C140.832 359.795 140.862 358.875 140.889 358.096C140.914 357.347 141.383 357.034 142.101 356.934ZM143.263 361.024C144.279 361.036 145.295 361.04 146.311 361.038C146.71 361.038 147.411 361.059 147.785 361.035C147.796 360.472 147.818 359.879 147.79 359.318C146.458 359.34 145.121 359.285 143.788 359.33C143.624 359.335 143.474 359.334 143.311 359.315C143.234 359.566 143.288 360.675 143.263 361.024Z" fill="#080A86"/>
<path d="M154.981 356.937C155.358 356.911 155.916 356.926 156.308 356.926L158.713 356.924C159.799 356.924 160.892 356.904 161.975 356.952C162.476 356.974 163.039 357.379 163.088 357.886C163.164 358.682 163.133 359.499 163.136 360.302C163.138 361.011 163.163 361.757 163.086 362.461C163.006 363.016 162.46 363.33 161.942 363.389C159.879 363.497 157.674 363.333 155.598 363.404C155.214 363.417 154.617 363.39 154.297 363.168C154.051 362.997 153.885 362.738 153.834 362.447C153.639 361.303 153.886 359.23 153.832 358.017C153.803 357.386 154.38 357.036 154.981 356.937ZM156.189 361.028C157.645 361.027 159.282 361.005 160.72 361.047C160.709 360.467 160.725 359.891 160.719 359.315L157.804 359.314C157.398 359.317 156.555 359.362 156.215 359.306C156.194 359.866 156.221 360.497 156.189 361.028Z" fill="#080A86"/>
<rect x="113" y="206" width="78" height="78" rx="39" fill="#D3CCFF"/>
<g clip-path="url(#clip2_1_2236)">
<path d="M155.591 264C154.854 263.726 153.695 263.746 152.859 263.368C152.121 263.16 151.623 262.83 150.954 262.454C148.74 261.207 147.403 259.749 146.205 257.445C144.117 253.43 144.713 248.721 147.399 245.118C147.816 244.558 148.448 244.043 148.906 243.499C149.716 242.767 151.166 241.856 152.157 241.449C155.295 240.17 158.794 240.219 161.821 241.737C164.28 242.971 166.231 244.788 167.398 247.262C169.563 251.849 168.479 257.388 164.784 260.85C163.778 261.792 162.513 262.515 161.289 263.116C160.476 263.588 158.382 263.776 158.024 264H155.591ZM157.112 261.533C162.259 261.326 166.256 256.992 166.028 251.867C165.799 246.743 161.431 242.779 156.286 243.028C151.17 243.275 147.218 247.595 147.446 252.691C147.673 257.786 151.995 261.739 157.112 261.533Z" fill="#080A86"/>
<path d="M159.54 248.032C160.171 247.994 160.724 248.202 160.928 248.847C161.034 249.187 160.999 249.555 160.831 249.869C160.713 250.087 160.092 250.66 159.886 250.866L158.167 252.586L155.728 255.011C155.281 255.454 154.518 256.343 153.957 256.518C153.233 256.558 152.717 256.282 152.477 255.54C152.42 255.354 152.45 254.958 152.575 254.805C153.184 254.067 153.9 253.355 154.56 252.661C154.926 252.275 155.365 251.954 155.737 251.576L158.094 249.212C158.413 248.89 158.727 248.53 159.051 248.216C159.145 248.124 159.404 248.066 159.54 248.032Z" fill="#080A86"/>
<path d="M158.965 253.728C159.85 253.553 160.709 254.13 160.878 255.013C161.047 255.896 160.46 256.747 159.573 256.908C158.695 257.067 157.852 256.491 157.685 255.618C157.518 254.745 158.09 253.901 158.965 253.728Z" fill="#080A86"/>
<path d="M153.957 247.645C154.535 247.549 155.12 247.772 155.487 248.226C155.855 248.681 155.948 249.298 155.731 249.84C155.513 250.382 155.02 250.766 154.439 250.844C153.559 250.961 152.748 250.355 152.616 249.481C152.484 248.607 153.081 247.79 153.957 247.645Z" fill="#080A86"/>
<path d="M145.064 226H153.754C154.184 226.252 154.443 226.404 154.618 226.923C154.674 227.089 154.582 227.547 154.515 227.714C154.31 228.229 153.981 228.728 153.73 229.222C153.393 229.883 153.065 230.537 152.675 231.17C152.534 231.4 152.209 231.788 152.169 232.041C152.279 232.224 152.727 232.495 152.905 232.677C154.111 233.911 154.043 235.317 153.501 236.8C153.627 236.858 153.805 236.935 153.898 237.032C154.77 237.932 154.186 238.829 153.22 239.2C152.474 239.085 151.895 238.823 151.014 238.71C148.559 238.394 145.837 239.111 143.851 240.555C142.353 241.653 141.176 243.129 140.442 244.832C140.046 245.74 139.777 247.387 139.588 248.407L138.835 252.458C138.538 254.025 138.194 255.58 137.893 257.138C137.697 258.157 137.865 259.14 138.528 259.947C139.693 261.614 140.868 261.551 142.734 261.549L145.154 261.546C145.839 261.546 146.882 261.417 147.328 262.057C147.707 262.602 147.595 263.44 147.003 263.795C146.89 263.864 146.739 263.936 146.644 264H140.697C140.567 263.935 140.222 263.859 140.072 263.825C137.236 263.199 135.117 260.325 135.382 257.437C135.516 255.969 135.889 254.781 136.156 253.385L137.076 248.455C137.349 246.994 137.605 245.188 138.216 243.864C138.793 242.703 139.473 241.31 140.377 240.373C140.832 239.902 141.6 239.174 142.092 238.767C142.982 238.032 144.336 237.379 145.417 236.972C145.287 236.605 145.126 236.309 145.045 235.908C144.784 234.632 145.082 233.48 146.071 232.602C146.194 232.493 146.652 232.149 146.631 232.059C146.483 231.431 145.694 230.301 145.388 229.742C145.216 229.435 145.049 229.123 144.878 228.816C144.257 227.704 143.647 226.821 145.064 226ZM149.604 236.162C150.102 236.163 150.739 236.229 151.108 235.864C151.307 235.665 151.418 235.394 151.415 235.112C151.399 233.84 150.078 234.024 149.18 234.043C148.654 234.052 148.115 233.991 147.725 234.385C147.519 234.595 147.408 234.879 147.417 235.173C147.45 236.314 148.83 236.164 149.604 236.162ZM150.205 230.516C150.609 229.971 151.008 229.082 151.344 228.451L148.909 228.456C148.48 228.456 147.917 228.473 147.502 228.448C148.075 229.427 148.594 230.417 149.158 231.399C149.253 231.564 149.437 231.557 149.597 231.507C149.792 231.31 150.014 230.767 150.205 230.516Z" fill="#080A86"/>
</g>
<rect x="179" y="120" width="77" height="78" rx="38.5" fill="#D3CCFF"/>
<path d="M217.371 140.721C218.575 140.674 218.912 141.446 218.91 142.502C219.758 142.665 220.632 142.71 221.477 142.934C228.154 144.706 233.142 150.366 233.63 157.319C234.279 157.362 234.671 157.199 235.205 157.729C236.021 158.539 235.435 159.799 234.388 159.992C234.183 160.029 233.997 160.026 233.79 160.022C233.457 163.784 231.992 167.139 229.374 169.881C228.307 171.003 227.155 171.834 225.852 172.628C224.374 173.53 222.991 174.042 221.306 174.434C220.599 174.599 219.807 174.826 219.069 174.843C219.021 175.779 218.915 176.524 217.838 176.711C216.642 176.749 216.259 176.033 216.236 174.964C214.804 174.848 213.716 174.544 212.36 174.105C207.023 172.376 202.817 167.558 201.78 162.049C201.66 161.412 201.59 160.802 201.528 160.155C200.968 160.151 200.438 160.187 199.996 159.763C199.47 159.259 199.484 158.352 199.985 157.836C200.386 157.423 200.872 157.413 201.408 157.403C201.401 156.579 201.608 155.511 201.806 154.709C203.365 148.393 208.826 143.524 215.275 142.693C215.548 142.658 215.827 142.632 216.103 142.605C216.028 141.554 216.298 140.956 217.371 140.721ZM216.183 145.436C215.909 145.471 215.63 145.505 215.36 145.545C210.242 146.31 205.789 150.396 204.633 155.45C204.494 156.058 204.432 156.743 204.27 157.324C204.653 157.356 204.82 157.359 205.199 157.501C206.15 157.856 206.391 159.043 205.603 159.703C205.199 160.042 204.846 160.092 204.323 160.108C204.906 165.696 208.657 169.995 213.961 171.597C214.305 171.701 215.883 172.076 216.168 171.988C216.197 171.5 216.194 170.985 216.593 170.638C217.179 170.13 218.176 170.174 218.689 170.764C218.986 171.104 218.98 171.592 218.996 172.017C219.727 171.852 220.275 171.857 221.103 171.621C224.326 170.716 227.098 168.646 228.883 165.814C229.812 164.346 230.246 163.293 230.616 161.585C230.723 161.09 230.85 160.633 230.895 160.116C230.34 160.119 229.867 159.995 229.456 159.597C228.927 159.084 228.977 158.267 229.511 157.78C229.963 157.367 230.384 157.363 230.947 157.342C230.832 156.987 230.758 156.487 230.681 156.11C230.555 155.474 230.39 154.847 230.187 154.231C228.828 150.103 224.856 146.566 220.555 145.668C220.155 145.585 219.327 145.522 218.998 145.394C218.971 145.936 218.919 146.463 218.482 146.853C217.918 147.356 216.994 147.242 216.509 146.684C216.186 146.314 216.193 145.894 216.183 145.436Z" fill="#080A86"/>
<path d="M217.192 150.852C218.319 150.788 219.434 151.107 220.356 151.758C221.328 152.443 221.98 153.493 222.165 154.667C222.381 155.967 222.079 157.195 221.315 158.26C221.871 158.513 223.024 159.512 223.407 159.976C224.838 161.707 226.611 165.383 223.455 166.426C222.92 166.603 221.586 166.54 221.009 166.539L217.85 166.536L214.213 166.54C213.517 166.54 212.009 166.612 211.417 166.352C207.715 164.722 211.55 159.21 213.987 158.28C213.847 158.033 213.623 157.773 213.479 157.534C213.235 157.108 213.097 156.528 213.038 156.045C212.715 153.428 214.572 151.184 217.192 150.852ZM212.706 163.813C214.574 163.786 216.501 163.807 218.373 163.808C219.612 163.808 221.253 163.757 222.459 163.821C221.912 161.866 220.616 160.764 218.655 160.248C218.063 160.092 217.485 160.135 216.879 160.167C214.955 160.606 213.136 161.752 212.706 163.813ZM217.971 157.269C218.964 157.053 219.59 156.07 219.368 155.079C219.145 154.088 218.158 153.468 217.169 153.697C216.188 153.924 215.575 154.9 215.795 155.882C216.016 156.864 216.988 157.483 217.971 157.269Z" fill="#080A86"/>
<path d="M398.593 503L402.565 494.6H404.041L408.001 503H405.901L404.893 500.828H401.665L400.657 503H398.593ZM402.505 499.028H404.089L403.285 497.312L402.505 499.028ZM408.777 503V496.952H410.517V497.36C410.781 496.988 411.573 496.748 412.161 496.748C413.805 496.748 414.681 497.624 414.681 499.112V503H412.929V499.532C412.929 498.848 412.809 498.428 412.029 498.428C411.429 498.428 410.517 498.692 410.517 499.412V503H408.777ZM415.615 498.98C415.663 497.384 416.695 496.772 418.459 496.748C420.391 496.724 421.243 497.624 421.243 499.16V503H419.503V502.592C419.227 502.832 418.855 503.108 417.931 503.084C416.455 503.06 415.351 502.388 415.351 501.008C415.351 499.316 416.983 499.1 418.843 499.1L419.491 499.088V499.064C419.491 498.572 419.407 498.38 418.459 498.38C417.595 498.38 417.451 498.56 417.415 498.98H415.615ZM417.103 501.068C417.103 501.332 417.223 501.5 418.015 501.5C419.023 501.5 419.491 501.296 419.491 500.66V500.456L418.927 500.468C417.331 500.516 417.103 500.648 417.103 501.068ZM422.136 503V494.6H423.876V503H422.136ZM426.617 504.908C426.209 504.908 425.765 504.86 425.177 504.572L425.597 503.084C426.437 503.324 426.797 503.408 427.121 502.688L427.301 502.304C427.313 502.28 427.301 502.268 427.289 502.256L424.457 496.94H426.497L428.237 500.384L429.821 496.94H431.777L428.717 503.276C428.177 504.416 427.649 504.908 426.617 504.908ZM435.331 503.108C433.783 503.108 433.303 502.16 433.255 500.936V498.632H432.343V497H433.255V494.996H435.007V497H436.759V498.632H435.007V501.02C435.007 501.752 436.015 501.428 436.603 501.308L437.035 502.748C436.159 503.036 435.787 503.108 435.331 503.108ZM437.84 503V496.952H439.58V503H437.84ZM437.828 496.316V494.6H439.58V496.316H437.828ZM446.889 500.348C446.601 502.304 445.233 503.12 443.565 503.12C441.537 503.12 440.265 501.908 440.265 499.94C440.265 497.96 441.609 496.748 443.601 496.748C445.449 496.748 446.697 497.768 446.865 499.52H445.101C444.993 498.752 444.345 498.404 443.565 498.404C442.521 498.404 442.041 498.956 442.041 499.94C442.041 500.9 442.521 501.464 443.565 501.464C444.477 501.464 444.993 501.008 445.089 500.348H446.889ZM449.471 500.888C449.495 501.296 449.807 501.464 450.503 501.476C451.151 501.476 451.643 501.44 451.643 501.092C451.643 500.9 451.607 500.66 450.767 500.552L450.107 500.468C448.427 500.24 447.683 499.916 447.683 498.704C447.683 497.564 448.703 496.748 450.443 496.748C452.255 496.748 453.191 497.588 453.311 498.848H451.559C451.547 498.452 451.139 498.392 450.443 498.38C449.939 498.392 449.411 498.44 449.411 498.716C449.411 498.944 449.507 499.076 450.239 499.172L450.983 499.256C452.639 499.448 453.419 499.856 453.419 501.092C453.419 502.352 452.351 503.108 450.503 503.12C448.607 503.108 447.767 502.268 447.707 500.888H449.471Z" fill="white"/>
<path d="M474.583 407.132C471.859 407.132 470.743 405.92 470.875 403.904L472.843 403.868C472.843 405.08 473.335 405.332 474.583 405.332C475.723 405.332 476.311 405.068 476.311 404.48C476.311 403.976 476.227 403.868 474.883 403.676L473.839 403.532C472.003 403.28 470.839 402.608 470.839 400.964C470.839 399.344 472.183 398.456 474.403 398.432C476.911 398.456 478.063 399.56 477.955 401.54L475.999 401.552C475.999 400.448 475.399 400.208 474.415 400.208C473.311 400.208 472.735 400.436 472.735 400.94C472.735 401.42 472.855 401.528 474.067 401.696L475.159 401.852C477.199 402.152 478.255 402.884 478.255 404.492C478.255 406.1 476.923 407.132 474.595 407.132H474.583ZM479.189 402.98C479.237 401.384 480.269 400.772 482.033 400.748C483.965 400.724 484.817 401.624 484.817 403.16V407H483.077V406.592C482.801 406.832 482.429 407.108 481.505 407.084C480.029 407.06 478.925 406.388 478.925 405.008C478.925 403.316 480.557 403.1 482.417 403.1L483.065 403.088V403.064C483.065 402.572 482.981 402.38 482.033 402.38C481.169 402.38 481.025 402.56 480.989 402.98H479.189ZM480.677 405.068C480.677 405.332 480.797 405.5 481.589 405.5C482.597 405.5 483.065 405.296 483.065 404.66V404.456L482.501 404.468C480.905 404.516 480.677 404.648 480.677 405.068ZM485.71 407V398.6H487.45V407H485.71ZM492.78 403.244C492.732 402.68 492.18 402.404 491.436 402.404C490.716 402.404 490.14 402.68 490.116 403.244H492.78ZM488.136 403.94C488.136 401.96 489.48 400.748 491.472 400.748C493.464 400.748 494.796 401.96 494.772 403.928L494.76 404.564H490.032C490.128 405.104 490.608 405.464 491.436 405.464C492.18 405.464 492.588 405.284 492.78 404.876H494.664C494.22 406.448 492.96 407.12 491.436 407.12C489.408 407.12 488.136 405.908 488.136 403.94ZM497.225 404.888C497.249 405.296 497.561 405.464 498.257 405.476C498.905 405.476 499.397 405.44 499.397 405.092C499.397 404.9 499.361 404.66 498.521 404.552L497.861 404.468C496.181 404.24 495.437 403.916 495.437 402.704C495.437 401.564 496.457 400.748 498.197 400.748C500.009 400.748 500.945 401.588 501.065 402.848H499.313C499.301 402.452 498.893 402.392 498.197 402.38C497.693 402.392 497.165 402.44 497.165 402.716C497.165 402.944 497.261 403.076 497.993 403.172L498.737 403.256C500.393 403.448 501.173 403.856 501.173 405.092C501.173 406.352 500.105 407.108 498.257 407.12C496.361 407.108 495.521 406.268 495.461 404.888H497.225Z" fill="white"/>
<path d="M289.241 530L286.445 521.6H288.497L290.057 526.616L291.677 521.6H293.297L294.905 526.604L296.453 521.6H298.457L295.685 530H294.089L292.457 524.876L290.825 530H289.241ZM298.275 525.98C298.323 524.384 299.355 523.772 301.119 523.748C303.051 523.724 303.903 524.624 303.903 526.16V530H302.163V529.592C301.887 529.832 301.515 530.108 300.591 530.084C299.115 530.06 298.011 529.388 298.011 528.008C298.011 526.316 299.643 526.1 301.503 526.1L302.151 526.088V526.064C302.151 525.572 302.067 525.38 301.119 525.38C300.255 525.38 300.111 525.56 300.075 525.98H298.275ZM299.763 528.068C299.763 528.332 299.883 528.5 300.675 528.5C301.683 528.5 302.151 528.296 302.151 527.66V527.456L301.587 527.468C299.991 527.516 299.763 527.648 299.763 528.068ZM304.796 530V524H306.536V524.36C307.004 523.868 308.108 523.796 308.96 523.988L308.72 525.632C307.712 525.356 306.536 525.5 306.536 526.508V530H304.796ZM313.683 526.244C313.635 525.68 313.083 525.404 312.339 525.404C311.619 525.404 311.043 525.68 311.019 526.244H313.683ZM309.039 526.94C309.039 524.96 310.383 523.748 312.375 523.748C314.367 523.748 315.699 524.96 315.675 526.928L315.663 527.564H310.935C311.031 528.104 311.511 528.464 312.339 528.464C313.083 528.464 313.491 528.284 313.683 527.876H315.567C315.123 529.448 313.863 530.12 312.339 530.12C310.311 530.12 309.039 528.908 309.039 526.94ZM316.351 530V521.6H318.091V524.18C318.595 523.88 319.159 523.748 319.735 523.748C321.379 523.748 322.255 524.624 322.255 526.112V530H320.503V526.52C320.503 525.824 320.383 525.428 319.603 525.428C318.679 525.428 318.091 525.932 318.091 526.664V530H316.351ZM326.214 530.12C324.186 530.12 322.914 528.908 322.914 526.94C322.914 524.96 324.258 523.748 326.25 523.748C328.242 523.748 329.55 524.96 329.55 526.928C329.55 528.896 328.23 530.12 326.214 530.12ZM324.69 526.94C324.69 527.9 325.17 528.464 326.214 528.464C327.282 528.464 327.774 527.888 327.774 526.928C327.774 525.968 327.282 525.404 326.214 525.404C325.17 525.404 324.69 525.956 324.69 526.94ZM332.662 530.12C331.09 530.12 330.262 529.292 330.214 527.744V524H331.942V527.42C331.942 528.128 332.062 528.44 332.806 528.44C333.37 528.44 334.246 528.2 334.246 527.444V524H335.986V530H334.258V529.58C333.79 529.964 333.262 530.12 332.662 530.12ZM338.565 527.888C338.589 528.296 338.901 528.464 339.597 528.476C340.245 528.476 340.737 528.44 340.737 528.092C340.737 527.9 340.701 527.66 339.861 527.552L339.201 527.468C337.521 527.24 336.777 526.916 336.777 525.704C336.777 524.564 337.797 523.748 339.537 523.748C341.349 523.748 342.285 524.588 342.405 525.848H340.653C340.641 525.452 340.233 525.392 339.537 525.38C339.033 525.392 338.505 525.44 338.505 525.716C338.505 525.944 338.601 526.076 339.333 526.172L340.077 526.256C341.733 526.448 342.513 526.856 342.513 528.092C342.513 529.352 341.445 530.108 339.597 530.12C337.701 530.108 336.861 529.268 336.801 527.888H338.565ZM347.573 526.244C347.525 525.68 346.973 525.404 346.229 525.404C345.509 525.404 344.933 525.68 344.909 526.244H347.573ZM342.929 526.94C342.929 524.96 344.273 523.748 346.265 523.748C348.257 523.748 349.589 524.96 349.565 526.928L349.553 527.564H344.825C344.921 528.104 345.401 528.464 346.229 528.464C346.973 528.464 347.381 528.284 347.573 527.876H349.457C349.013 529.448 347.753 530.12 346.229 530.12C344.201 530.12 342.929 528.908 342.929 526.94Z" fill="white"/>
<path d="M118.546 407V398.6H122.014C123.766 398.6 125.542 399.152 125.542 401.312C125.542 403.28 124.018 404.096 121.99 404.096H120.418V407H118.546ZM120.418 402.296H121.99C123.43 402.296 123.646 402.08 123.646 401.324C123.646 400.58 123.43 400.4 121.978 400.4H120.418V402.296ZM126.328 407V401H128.068V401.36C128.536 400.868 129.64 400.796 130.492 400.988L130.252 402.632C129.244 402.356 128.068 402.5 128.068 403.508V407H126.328ZM133.87 407.12C131.842 407.12 130.57 405.908 130.57 403.94C130.57 401.96 131.914 400.748 133.906 400.748C135.898 400.748 137.206 401.96 137.206 403.928C137.206 405.896 135.886 407.12 133.87 407.12ZM132.346 403.94C132.346 404.9 132.826 405.464 133.87 405.464C134.938 405.464 135.43 404.888 135.43 403.928C135.43 402.968 134.938 402.404 133.87 402.404C132.826 402.404 132.346 402.956 132.346 403.94ZM140.813 407.12C138.917 407.144 137.765 405.848 137.765 403.94C137.765 401.972 139.013 400.748 140.921 400.748C141.449 400.748 141.965 400.856 142.397 401.132V398.6H144.137V407H142.409V406.568C142.097 406.892 141.677 407.108 140.813 407.12ZM139.529 403.94C139.529 404.972 140.105 405.452 140.921 405.452C141.881 405.452 142.421 404.96 142.421 404.168V403.748C142.421 402.848 141.941 402.404 141.005 402.404C140.081 402.404 139.529 402.884 139.529 403.94ZM147.362 407.12C145.79 407.12 144.962 406.292 144.914 404.744V401H146.642V404.42C146.642 405.128 146.762 405.44 147.506 405.44C148.07 405.44 148.946 405.2 148.946 404.444V401H150.686V407H148.958V406.58C148.49 406.964 147.962 407.12 147.362 407.12ZM157.889 404.348C157.601 406.304 156.233 407.12 154.565 407.12C152.537 407.12 151.265 405.908 151.265 403.94C151.265 401.96 152.609 400.748 154.601 400.748C156.449 400.748 157.697 401.768 157.865 403.52H156.101C155.993 402.752 155.345 402.404 154.565 402.404C153.521 402.404 153.041 402.956 153.041 403.94C153.041 404.9 153.521 405.464 154.565 405.464C155.477 405.464 155.993 405.008 156.089 404.348H157.889ZM161.214 407.108C159.666 407.108 159.186 406.16 159.138 404.936V402.632H158.226V401H159.138V398.996H160.89V401H162.642V402.632H160.89V405.02C160.89 405.752 161.898 405.428 162.486 405.308L162.918 406.748C162.042 407.036 161.67 407.108 161.214 407.108ZM163.722 407V400.952H165.462V407H163.722ZM163.71 400.316V398.6H165.462V400.316H163.71ZM169.553 407.12C167.525 407.12 166.253 405.908 166.253 403.94C166.253 401.96 167.597 400.748 169.589 400.748C171.581 400.748 172.889 401.96 172.889 403.928C172.889 405.896 171.569 407.12 169.553 407.12ZM168.029 403.94C168.029 404.9 168.509 405.464 169.553 405.464C170.621 405.464 171.113 404.888 171.113 403.928C171.113 402.968 170.621 402.404 169.553 402.404C168.509 402.404 168.029 402.956 168.029 403.94ZM173.566 407V400.952H175.306V401.36C175.57 400.988 176.362 400.748 176.95 400.748C178.594 400.748 179.47 401.624 179.47 403.112V407H177.718V403.532C177.718 402.848 177.598 402.428 176.818 402.428C176.218 402.428 175.306 402.692 175.306 403.412V407H173.566Z" fill="white"/>
<path d="M146.17 191.336C145.81 190.58 145.078 190.22 143.938 190.22C142.234 190.22 141.442 191.048 141.442 192.788C141.442 194.504 142.222 195.332 143.938 195.332C145.006 195.332 145.642 195.008 146.05 194.372V193.568H143.086V191.744L148.174 191.792V197H146.05V196.592C145.558 196.976 144.73 197.132 143.938 197.132C141.322 197.132 139.546 195.5 139.546 192.788C139.546 190.052 141.346 188.432 143.938 188.432C146.05 188.432 147.634 189.476 148.174 191.324L146.17 191.336ZM152.736 197.132C150.012 197.132 148.896 195.92 149.028 193.904L150.996 193.868C150.996 195.08 151.488 195.332 152.736 195.332C153.876 195.332 154.464 195.068 154.464 194.48C154.464 193.976 154.38 193.868 153.036 193.676L151.992 193.532C150.156 193.28 148.992 192.608 148.992 190.964C148.992 189.344 150.336 188.456 152.556 188.432C155.064 188.456 156.216 189.56 156.108 191.54L154.152 191.552C154.152 190.448 153.552 190.208 152.568 190.208C151.464 190.208 150.888 190.436 150.888 190.94C150.888 191.42 151.008 191.528 152.22 191.696L153.312 191.852C155.352 192.152 156.408 192.884 156.408 194.492C156.408 196.1 155.076 197.132 152.748 197.132H152.736ZM159.642 197V190.424H156.714V188.6H164.454V190.424H161.514V197H159.642Z" fill="white"/>
<path d="M188.017 112.132C185.401 112.132 183.625 110.5 183.625 107.788C183.625 105.052 185.425 103.432 188.017 103.432C190.285 103.432 191.953 104.656 192.337 106.78H190.393C190.165 105.796 189.361 105.22 188.017 105.22C186.313 105.22 185.521 106.048 185.521 107.788C185.521 109.504 186.301 110.332 188.017 110.332C189.373 110.332 190.141 109.792 190.393 108.808H192.337C191.785 111.292 189.973 112.132 188.017 112.132ZM195.565 112.12C193.993 112.12 193.165 111.292 193.117 109.744V106H194.845V109.42C194.845 110.128 194.965 110.44 195.709 110.44C196.273 110.44 197.149 110.2 197.149 109.444V106H198.889V112H197.161V111.58C196.693 111.964 196.165 112.12 195.565 112.12ZM201.467 109.888C201.491 110.296 201.803 110.464 202.499 110.476C203.147 110.476 203.639 110.44 203.639 110.092C203.639 109.9 203.603 109.66 202.763 109.552L202.103 109.468C200.423 109.24 199.679 108.916 199.679 107.704C199.679 106.564 200.699 105.748 202.439 105.748C204.251 105.748 205.187 106.588 205.307 107.848H203.555C203.543 107.452 203.135 107.392 202.439 107.38C201.935 107.392 201.407 107.44 201.407 107.716C201.407 107.944 201.503 108.076 202.235 108.172L202.979 108.256C204.635 108.448 205.415 108.856 205.415 110.092C205.415 111.352 204.347 112.108 202.499 112.12C200.603 112.108 199.763 111.268 199.703 109.888H201.467ZM208.82 112.108C207.272 112.108 206.792 111.16 206.744 109.936V107.632H205.832V106H206.744V103.996H208.496V106H210.248V107.632H208.496V110.02C208.496 110.752 209.504 110.428 210.092 110.308L210.524 111.748C209.648 112.036 209.276 112.108 208.82 112.108ZM213.901 112.12C211.873 112.12 210.601 110.908 210.601 108.94C210.601 106.96 211.945 105.748 213.937 105.748C215.929 105.748 217.237 106.96 217.237 108.928C217.237 110.896 215.917 112.12 213.901 112.12ZM212.377 108.94C212.377 109.9 212.857 110.464 213.901 110.464C214.969 110.464 215.461 109.888 215.461 108.928C215.461 107.968 214.969 107.404 213.901 107.404C212.857 107.404 212.377 107.956 212.377 108.94ZM217.914 112V105.952H219.654V106.36C219.978 106.024 220.626 105.748 221.118 105.748C221.91 105.748 222.462 105.976 222.87 106.456C223.434 105.988 224.118 105.748 224.85 105.748C226.338 105.748 227.19 106.564 227.19 108.016V112H225.438V108.436C225.438 107.788 225.378 107.428 224.706 107.428C224.19 107.428 223.434 107.656 223.434 108.304V112H221.682V108.436C221.682 107.812 221.61 107.428 220.95 107.428C220.218 107.428 219.654 107.944 219.654 108.604V112H217.914ZM232.401 108.244C232.353 107.68 231.801 107.404 231.057 107.404C230.337 107.404 229.761 107.68 229.737 108.244H232.401ZM227.757 108.94C227.757 106.96 229.101 105.748 231.093 105.748C233.085 105.748 234.417 106.96 234.393 108.928L234.381 109.564H229.653C229.749 110.104 230.229 110.464 231.057 110.464C231.801 110.464 232.209 110.284 232.401 109.876H234.285C233.841 111.448 232.581 112.12 231.057 112.12C229.029 112.12 227.757 110.908 227.757 108.94ZM235.175 112V106H236.915V106.36C237.383 105.868 238.487 105.796 239.339 105.988L239.099 107.632C238.091 107.356 236.915 107.5 236.915 108.508V112H235.175ZM241.44 109.888C241.464 110.296 241.776 110.464 242.472 110.476C243.12 110.476 243.612 110.44 243.612 110.092C243.612 109.9 243.576 109.66 242.736 109.552L242.076 109.468C240.396 109.24 239.652 108.916 239.652 107.704C239.652 106.564 240.672 105.748 242.412 105.748C244.224 105.748 245.16 106.588 245.28 107.848H243.528C243.516 107.452 243.108 107.392 242.412 107.38C241.908 107.392 241.38 107.44 241.38 107.716C241.38 107.944 241.476 108.076 242.208 108.172L242.952 108.256C244.608 108.448 245.388 108.856 245.388 110.092C245.388 111.352 244.32 112.108 242.472 112.12C240.576 112.108 239.736 111.268 239.676 109.888H241.44Z" fill="white"/>
<path d="M291.72 81V72.6H293.592V81H291.72ZM294.38 81V74.952H296.12V75.36C296.384 74.988 297.176 74.748 297.764 74.748C299.408 74.748 300.284 75.624 300.284 77.112V81H298.532V77.532C298.532 76.848 298.412 76.428 297.632 76.428C297.032 76.428 296.12 76.692 296.12 77.412V81H294.38ZM303.215 81L300.275 74.952H302.303L303.935 78.48L305.579 74.952H307.547L304.583 81H303.215ZM311.962 77.244C311.914 76.68 311.362 76.404 310.618 76.404C309.898 76.404 309.322 76.68 309.298 77.244H311.962ZM307.318 77.94C307.318 75.96 308.662 74.748 310.654 74.748C312.646 74.748 313.978 75.96 313.954 77.928L313.942 78.564H309.214C309.31 79.104 309.79 79.464 310.618 79.464C311.362 79.464 311.77 79.284 311.962 78.876H313.846C313.402 80.448 312.142 81.12 310.618 81.12C308.59 81.12 307.318 79.908 307.318 77.94ZM314.736 81V74.952H316.476V75.36C316.74 74.988 317.532 74.748 318.12 74.748C319.764 74.748 320.64 75.624 320.64 77.112V81H318.888V77.532C318.888 76.848 318.768 76.428 317.988 76.428C317.388 76.428 316.476 76.692 316.476 77.412V81H314.736ZM324.052 81.108C322.504 81.108 322.024 80.16 321.976 78.936V76.632H321.064V75H321.976V72.996H323.728V75H325.48V76.632H323.728V79.02C323.728 79.752 324.736 79.428 325.324 79.308L325.756 80.748C324.88 81.036 324.508 81.108 324.052 81.108ZM329.134 81.12C327.106 81.12 325.833 79.908 325.833 77.94C325.833 75.96 327.178 74.748 329.17 74.748C331.162 74.748 332.47 75.96 332.47 77.928C332.47 79.896 331.15 81.12 329.134 81.12ZM327.61 77.94C327.61 78.9 328.09 79.464 329.134 79.464C330.202 79.464 330.694 78.888 330.694 77.928C330.694 76.968 330.202 76.404 329.134 76.404C328.09 76.404 327.61 76.956 327.61 77.94ZM333.251 81V75H334.991V75.36C335.459 74.868 336.563 74.796 337.415 74.988L337.175 76.632C336.167 76.356 334.991 76.5 334.991 77.508V81H333.251ZM340.134 82.908C339.726 82.908 339.282 82.86 338.694 82.572L339.114 81.084C339.954 81.324 340.314 81.408 340.638 80.688L340.818 80.304C340.83 80.28 340.818 80.268 340.806 80.256L337.974 74.94H340.014L341.754 78.384L343.338 74.94H345.294L342.234 81.276C341.694 82.416 341.166 82.908 340.134 82.908Z" fill="white"/>
<path d="M386.525 112L390.497 103.6H391.973L395.933 112H393.833L392.825 109.828H389.597L388.589 112H386.525ZM390.437 108.028H392.021L391.217 106.312L390.437 108.028ZM402.313 109.348C402.025 111.304 400.657 112.12 398.989 112.12C396.961 112.12 395.689 110.908 395.689 108.94C395.689 106.96 397.033 105.748 399.025 105.748C400.873 105.748 402.121 106.768 402.289 108.52H400.525C400.417 107.752 399.769 107.404 398.989 107.404C397.945 107.404 397.465 107.956 397.465 108.94C397.465 109.9 397.945 110.464 398.989 110.464C399.901 110.464 400.417 110.008 400.513 109.348H402.313ZM409.614 109.348C409.326 111.304 407.958 112.12 406.29 112.12C404.262 112.12 402.99 110.908 402.99 108.94C402.99 106.96 404.334 105.748 406.326 105.748C408.174 105.748 409.422 106.768 409.59 108.52H407.826C407.718 107.752 407.07 107.404 406.29 107.404C405.246 107.404 404.766 107.956 404.766 108.94C404.766 109.9 405.246 110.464 406.29 110.464C407.202 110.464 407.718 110.008 407.814 109.348H409.614ZM413.708 112.12C411.68 112.12 410.408 110.908 410.408 108.94C410.408 106.96 411.752 105.748 413.744 105.748C415.736 105.748 417.044 106.96 417.044 108.928C417.044 110.896 415.724 112.12 413.708 112.12ZM412.184 108.94C412.184 109.9 412.664 110.464 413.708 110.464C414.776 110.464 415.268 109.888 415.268 108.928C415.268 107.968 414.776 107.404 413.708 107.404C412.664 107.404 412.184 107.956 412.184 108.94ZM420.157 112.12C418.585 112.12 417.757 111.292 417.708 109.744V106H419.437V109.42C419.437 110.128 419.557 110.44 420.301 110.44C420.865 110.44 421.741 110.2 421.741 109.444V106H423.48V112H421.753V111.58C421.285 111.964 420.757 112.12 420.157 112.12ZM424.271 112V105.952H426.011V106.36C426.275 105.988 427.067 105.748 427.655 105.748C429.299 105.748 430.175 106.624 430.175 108.112V112H428.423V108.532C428.423 107.848 428.303 107.428 427.523 107.428C426.923 107.428 426.011 107.692 426.011 108.412V112H424.271ZM433.587 112.108C432.039 112.108 431.559 111.16 431.511 109.936V107.632H430.599V106H431.511V103.996H433.263V106H435.015V107.632H433.263V110.02C433.263 110.752 434.271 110.428 434.859 110.308L435.291 111.748C434.415 112.036 434.043 112.108 433.587 112.108ZM436.096 112V105.952H437.836V112H436.096ZM436.083 105.316V103.6H437.836V105.316H436.083ZM438.626 112V105.952H440.366V106.36C440.63 105.988 441.422 105.748 442.01 105.748C443.654 105.748 444.53 106.624 444.53 108.112V112H442.778V108.532C442.778 107.848 442.658 107.428 441.878 107.428C441.278 107.428 440.366 107.692 440.366 108.412V112H438.626ZM448.275 110.212C449.283 110.212 449.751 109.708 449.751 108.988V108.664C449.751 107.872 449.355 107.404 448.383 107.404C447.447 107.404 446.883 107.884 446.883 108.82C446.883 109.78 447.459 110.212 448.275 110.212ZM445.095 108.82C445.095 106.924 446.343 105.628 448.215 105.748C448.803 105.784 449.427 106.048 449.739 106.24V106H451.491V111.34C451.491 111.94 451.395 112.468 451.227 112.888C450.807 113.884 449.895 114.352 448.407 114.352C446.595 114.352 445.371 113.704 445.335 112.084H447.003C447.075 112.444 447.375 112.696 448.407 112.696C449.547 112.696 449.727 112.228 449.727 111.712V111.424C449.307 111.712 448.803 111.892 448.155 111.892C446.307 111.892 445.095 110.74 445.095 108.82Z" fill="white"/>
<path d="M472.421 194.132C469.697 194.132 468.581 192.92 468.713 190.904L470.681 190.868C470.681 192.08 471.173 192.332 472.421 192.332C473.561 192.332 474.149 192.068 474.149 191.48C474.149 190.976 474.065 190.868 472.721 190.676L471.677 190.532C469.841 190.28 468.677 189.608 468.677 187.964C468.677 186.344 470.021 185.456 472.241 185.432C474.749 185.456 475.901 186.56 475.793 188.54L473.837 188.552C473.837 187.448 473.237 187.208 472.253 187.208C471.149 187.208 470.573 187.436 470.573 187.94C470.573 188.42 470.693 188.528 471.905 188.696L472.997 188.852C475.037 189.152 476.093 189.884 476.093 191.492C476.093 193.1 474.761 194.132 472.433 194.132H472.421ZM479.857 194.108C478.309 194.108 477.829 193.16 477.781 191.936V189.632H476.869V188H477.781V185.996H479.533V188H481.285V189.632H479.533V192.02C479.533 192.752 480.541 192.428 481.129 192.308L481.561 193.748C480.685 194.036 480.313 194.108 479.857 194.108ZM484.938 194.12C482.91 194.12 481.638 192.908 481.638 190.94C481.638 188.96 482.982 187.748 484.974 187.748C486.966 187.748 488.274 188.96 488.274 190.928C488.274 192.896 486.954 194.12 484.938 194.12ZM483.414 190.94C483.414 191.9 483.894 192.464 484.938 192.464C486.006 192.464 486.498 191.888 486.498 190.928C486.498 189.968 486.006 189.404 484.938 189.404C483.894 189.404 483.414 189.956 483.414 190.94ZM489.056 194V188H490.796V188.36C491.264 187.868 492.368 187.796 493.22 187.988L492.98 189.632C491.972 189.356 490.796 189.5 490.796 190.508V194H489.056ZM497.942 190.244C497.894 189.68 497.342 189.404 496.598 189.404C495.878 189.404 495.302 189.68 495.278 190.244H497.942ZM493.298 190.94C493.298 188.96 494.642 187.748 496.634 187.748C498.626 187.748 499.958 188.96 499.934 190.928L499.922 191.564H495.194C495.29 192.104 495.77 192.464 496.598 192.464C497.342 192.464 497.75 192.284 497.942 191.876H499.826C499.382 193.448 498.122 194.12 496.598 194.12C494.57 194.12 493.298 192.908 493.298 190.94ZM502.387 191.888C502.411 192.296 502.723 192.464 503.419 192.476C504.067 192.476 504.559 192.44 504.559 192.092C504.559 191.9 504.523 191.66 503.683 191.552L503.023 191.468C501.343 191.24 500.599 190.916 500.599 189.704C500.599 188.564 501.619 187.748 503.359 187.748C505.171 187.748 506.107 188.588 506.227 189.848H504.475C504.463 189.452 504.055 189.392 503.359 189.38C502.855 189.392 502.327 189.44 502.327 189.716C502.327 189.944 502.423 190.076 503.155 190.172L503.899 190.256C505.555 190.448 506.335 190.856 506.335 192.092C506.335 193.352 505.267 194.108 503.419 194.12C501.523 194.108 500.683 193.268 500.623 191.888H502.387Z" fill="white"/>
<path d="M202.142 500.132C199.526 500.132 197.75 498.5 197.75 495.788C197.75 493.052 199.55 491.432 202.142 491.432C204.782 491.432 206.558 493.052 206.558 495.764C206.558 498.5 204.806 500.132 202.142 500.132ZM199.646 495.788C199.646 497.504 200.426 498.332 202.142 498.332C203.882 498.332 204.65 497.48 204.65 495.788C204.65 494.072 203.858 493.22 202.142 493.22C200.438 493.22 199.646 494.048 199.646 495.788ZM207.347 500V494H209.087V494.36C209.555 493.868 210.659 493.796 211.511 493.988L211.271 495.632C210.263 495.356 209.087 495.5 209.087 496.508V500H207.347ZM214.637 500.12C212.741 500.144 211.589 498.848 211.589 496.94C211.589 494.972 212.837 493.748 214.745 493.748C215.273 493.748 215.789 493.856 216.221 494.132V491.6H217.961V500H216.233V499.568C215.921 499.892 215.501 500.108 214.637 500.12ZM213.353 496.94C213.353 497.972 213.929 498.452 214.745 498.452C215.705 498.452 216.245 497.96 216.245 497.168V496.748C216.245 495.848 215.765 495.404 214.829 495.404C213.905 495.404 213.353 495.884 213.353 496.94ZM223.276 496.244C223.228 495.68 222.676 495.404 221.932 495.404C221.212 495.404 220.636 495.68 220.612 496.244H223.276ZM218.632 496.94C218.632 494.96 219.976 493.748 221.968 493.748C223.96 493.748 225.292 494.96 225.268 496.928L225.256 497.564H220.528C220.624 498.104 221.104 498.464 221.932 498.464C222.676 498.464 223.084 498.284 223.276 497.876H225.16C224.716 499.448 223.456 500.12 221.932 500.12C219.904 500.12 218.632 498.908 218.632 496.94ZM226.05 500V494H227.79V494.36C228.258 493.868 229.362 493.796 230.214 493.988L229.974 495.632C228.966 495.356 227.79 495.5 227.79 496.508V500H226.05ZM232.315 497.888C232.339 498.296 232.651 498.464 233.347 498.476C233.995 498.476 234.487 498.44 234.487 498.092C234.487 497.9 234.451 497.66 233.611 497.552L232.951 497.468C231.271 497.24 230.527 496.916 230.527 495.704C230.527 494.564 231.547 493.748 233.287 493.748C235.099 493.748 236.035 494.588 236.155 495.848H234.403C234.391 495.452 233.983 495.392 233.287 495.38C232.783 495.392 232.255 495.44 232.255 495.716C232.255 495.944 232.351 496.076 233.083 496.172L233.827 496.256C235.483 496.448 236.263 496.856 236.263 498.092C236.263 499.352 235.195 500.108 233.347 500.12C231.451 500.108 230.611 499.268 230.551 497.888H232.315Z" fill="white"/>
<mask id="path-111-inside-1_1_2236" fill="white">
<path d="M74.9224 488.563C67.8479 493.858 66.3745 503.916 72.0255 510.709C110.883 557.422 162.568 591.758 220.691 609.47C229.144 612.046 237.844 606.789 239.983 598.215L247.921 566.391C250.06 557.817 244.822 549.183 236.405 546.494C192.723 532.536 153.786 506.669 123.987 471.813C118.245 465.096 108.256 463.615 101.182 468.91L74.9224 488.563Z"/>
</mask>
<path d="M74.9224 488.563C67.8479 493.858 66.3745 503.916 72.0255 510.709C110.883 557.422 162.568 591.758 220.691 609.47C229.144 612.046 237.844 606.789 239.983 598.215L247.921 566.391C250.06 557.817 244.822 549.183 236.405 546.494C192.723 532.536 153.786 506.669 123.987 471.813C118.245 465.096 108.256 463.615 101.182 468.91L74.9224 488.563Z" fill="#2D0054" stroke="#897DF0" stroke-width="4" mask="url(#path-111-inside-1_1_2236)"/>
<circle cx="204" cy="568" r="21" fill="#FFFEFC"/>

<circle cx="112" cy="507" r="21" fill="#FFFEFC"/>

<circle cx="154" cy="544" r="21" fill="#FFFEFC"/>

<defs>
<filter id="arrow_glow_filter" x="-100%" y="-100%" width="300%" height="300%" color-interpolation-filters="sRGB">
<feGaussianBlur stdDeviation="2"/>
</filter>
<filter id="filter0_f_1_2236" x="41.7227" y="26" width="554" height="555" filterUnits="userSpaceOnUse" color-interpolation-filters="sRGB">
<feFlood flood-opacity="0" result="BackgroundImageFix"/>
<feBlend mode="normal" in="SourceGraphic" in2="BackgroundImageFix" result="shape"/>
<feGaussianBlur stdDeviation="2" result="effect1_foregroundBlur_1_2236"/>
</filter>
<filter id="filter1_f_1_2236" x="143.63" y="501.515" width="28.4256" height="26.7195" filterUnits="userSpaceOnUse" color-interpolation-filters="sRGB">
<feFlood flood-opacity="0" result="BackgroundImageFix"/>
<feBlend mode="normal" in="SourceGraphic" in2="BackgroundImageFix" result="shape"/>
<feGaussianBlur stdDeviation="2" result="effect1_foregroundBlur_1_2236"/>
</filter>
<filter id="filter2_f_1_2236" x="171.905" y="333.945" width="22.7607" height="28.1175" filterUnits="userSpaceOnUse" color-interpolation-filters="sRGB">
<feFlood flood-opacity="0" result="BackgroundImageFix"/>
<feBlend mode="normal" in="SourceGraphic" in2="BackgroundImageFix" result="shape"/>
<feGaussianBlur stdDeviation="2" result="effect1_foregroundBlur_1_2236"/>
</filter>
<filter id="filter3_f_1_2236" x="172.514" y="241.576" width="24.651" height="28.5374" filterUnits="userSpaceOnUse" color-interpolation-filters="sRGB">
<feFlood flood-opacity="0" result="BackgroundImageFix"/>
<feBlend mode="normal" in="SourceGraphic" in2="BackgroundImageFix" result="shape"/>
<feGaussianBlur stdDeviation="2" result="effect1_foregroundBlur_1_2236"/>
</filter>
<filter id="filter4_f_1_2236" x="221.893" y="174.255" width="28.3616" height="26.9082" filterUnits="userSpaceOnUse" color-interpolation-filters="sRGB">
<feFlood flood-opacity="0" result="BackgroundImageFix"/>
<feBlend mode="normal" in="SourceGraphic" in2="BackgroundImageFix" result="shape"/>
<feGaussianBlur stdDeviation="2" result="effect1_foregroundBlur_1_2236"/>
</filter>
<filter id="filter5_f_1_2236" x="304.707" y="152.439" width="26" height="18" filterUnits="userSpaceOnUse" color-interpolation-filters="sRGB">
<feFlood flood-opacity="0" result="BackgroundImageFix"/>
<feBlend mode="normal" in="SourceGraphic" in2="BackgroundImageFix" result="shape"/>
<feGaussianBlur stdDeviation="2" result="effect1_foregroundBlur_1_2236"/>
</filter>
<filter id="filter6_f_1_2236" x="382.747" y="171.248" width="28.4952" height="26.4508" filterUnits="userSpaceOnUse" color-interpolation-filters="sRGB">
<feFlood flood-opacity="0" result="BackgroundImageFix"/>
<feBlend mode="normal" in="SourceGraphic" in2="BackgroundImageFix" result="shape"/>
<feGaussianBlur stdDeviation="2" result="effect1_foregroundBlur_1_2236"/>
</filter>
<filter id="filter7_f_1_2236" x="214.551" y="399.874" width="28.4256" height="26.7195" filterUnits="userSpaceOnUse" color-interpolation-filters="sRGB">
<feFlood flood-opacity="0" result="BackgroundImageFix"/>
<feBlend mode="normal" in="SourceGraphic" in2="BackgroundImageFix" result="shape"/>
<feGaussianBlur stdDeviation="2" result="effect1_foregroundBlur_1_2236"/>
</filter>
<filter id="filter8_f_1_2236" x="255.913" y="362.109" width="28.4855" height="26.4946" filterUnits="userSpaceOnUse" color-interpolation-filters="sRGB">
<feFlood flood-opacity="0" result="BackgroundImageFix"/>
<feBlend mode="normal" in="SourceGraphic" in2="BackgroundImageFix" result="shape"/>
<feGaussianBlur stdDeviation="2" result="effect1_foregroundBlur_1_2236"/>
</filter>
<filter id="filter9_f_1_2236" x="188.991" y="461.751" width="28.4855" height="26.4946" filterUnits="userSpaceOnUse" color-interpolation-filters="sRGB">
<feFlood flood-opacity="0" result="BackgroundImageFix"/>
<feBlend mode="normal" in="SourceGraphic" in2="BackgroundImageFix" result="shape"/>
<feGaussianBlur stdDeviation="2" result="effect1_foregroundBlur_1_2236"/>
</filter>
<filter id="filter10_f_1_2236" x="304.957" y="436.145" width="26" height="18" filterUnits="userSpaceOnUse" color-interpolation-filters="sRGB">
<feFlood flood-opacity="0" result="BackgroundImageFix"/>
<feBlend mode="normal" in="SourceGraphic" in2="BackgroundImageFix" result="shape"/>
<feGaussianBlur stdDeviation="2" result="effect1_foregroundBlur_1_2236"/>
</filter>
<filter id="filter11_f_1_2236" x="390.505" y="402.916" width="28.1777" height="27.3012" filterUnits="userSpaceOnUse" color-interpolation-filters="sRGB">
<feFlood flood-opacity="0" result="BackgroundImageFix"/>
<feBlend mode="normal" in="SourceGraphic" in2="BackgroundImageFix" result="shape"/>
<feGaussianBlur stdDeviation="2" result="effect1_foregroundBlur_1_2236"/>
</filter>
<filter id="filter12_f_1_2236" x="443.046" y="332.033" width="21.8535" height="27.8107" filterUnits="userSpaceOnUse" color-interpolation-filters="sRGB">
<feFlood flood-opacity="0" result="BackgroundImageFix"/>
<feBlend mode="normal" in="SourceGraphic" in2="BackgroundImageFix" result="shape"/>
<feGaussianBlur stdDeviation="2" result="effect1_foregroundBlur_1_2236"/>
</filter>
<filter id="filter13_f_1_2236" x="439.272" y="238.933" width="23.8824" height="28.4086" filterUnits="userSpaceOnUse" color-interpolation-filters="sRGB">
<feFlood flood-opacity="0" result="BackgroundImageFix"/>
<feBlend mode="normal" in="SourceGraphic" in2="BackgroundImageFix" result="shape"/>
<feGaussianBlur stdDeviation="2" result="effect1_foregroundBlur_1_2236"/>
</filter>
<pattern id="pattern0_1_2236" patternContentUnits="objectBoundingBox" width="1" height="1">
<use xlink:href="#image0_1_2236" transform="matrix(0.02778 0 0 0.02778 0 0)"/>
</pattern>
<pattern id="pattern1_1_2236" patternContentUnits="objectBoundingBox" width="1" height="1">
<use xlink:href="#image1_1_2236" transform="matrix(0.02778 0 0 0.02778 0 0)"/>
</pattern>
<pattern id="pattern2_1_2236" patternContentUnits="objectBoundingBox" width="1" height="1">
<use xlink:href="#image2_1_2236" transform="matrix(0.02778 0 0 0.02778 0 0)"/>
</pattern>
<linearGradient id="paint0_linear_1_2236" x1="183.525" y1="677.945" x2="701.921" y2="32.5552" gradientUnits="userSpaceOnUse">
<stop stop-color="#FF5100"/>
<stop offset="0.314493" stop-color="#080A86"/>
<stop offset="1" stop-color="#8F5FFF"/>
</linearGradient>
<clipPath id="clip0_1_2236">
<rect width="32" height="32" fill="white" transform="translate(470 336)"/>
</clipPath>
<clipPath id="clip1_1_2236">
<rect width="33" height="33" fill="white" transform="translate(407.5 429)"/>
</clipPath>
<clipPath id="clip2_1_2236">
<rect width="37" height="38" fill="white" transform="translate(133.5 226)"/>
</clipPath>
<image id="image0_1_2236" width="36" height="36" preserveAspectRatio="none" xlink:href="/Solution_page/first_gif.gif"/>
<image id="image1_1_2236" width="36" height="36" preserveAspectRatio="none" xlink:href="/Solution_page/second_gif.gif"/>
<image id="image2_1_2236" width="36" height="36" preserveAspectRatio="none" xlink:href="/Solution_page/third_gif.gif"/>
</defs>
</svg>
