<svg width="1280" height="137" viewBox="0 0 1280 137" fill="none" xmlns="http://www.w3.org/2000/svg">
  <style>
    /* Connectors default state */
    .connector {
      stroke-dasharray: 118.857;
      stroke-dashoffset: 118.857;
      opacity: 0;
      stroke-linecap: round;
      animation: connector-flow 14s infinite ease-in-out;
    }
    
    .conn-1 { animation-delay: 0s; }
    .conn-2 { animation-delay: 2s; }
    .conn-3 { animation-delay: 4s; }
    .conn-4 { animation-delay: 6s; }
    .conn-5 { animation-delay: 8s; }
    .conn-6 { animation-delay: 10s; }

    /* Steps animations */
    .circle { animation: circle-anim 14s infinite ease-in-out; }
    .border { animation: border-anim 14s infinite ease-in-out; }
    .icon, .number { animation: content-anim 14s infinite ease-in-out; }
    .label { animation: label-anim 14s infinite ease-in-out; }
    .circle-group { animation: filter-anim 14s infinite ease-in-out; }

    .step-1 .circle, .step-1 .border, .step-1 .icon, .step-1 .number, .step-1 .label, .step-1 .circle-group { animation-delay: 0s; }
    .step-2 .circle, .step-2 .border, .step-2 .icon, .step-2 .number, .step-2 .label, .step-2 .circle-group { animation-delay: 2s; }
    .step-3 .circle, .step-3 .border, .step-3 .icon, .step-3 .number, .step-3 .label, .step-3 .circle-group { animation-delay: 4s; }
    .step-4 .circle, .step-4 .border, .step-4 .icon, .step-4 .number, .step-4 .label, .step-4 .circle-group { animation-delay: 6s; }
    .step-5 .circle, .step-5 .border, .step-5 .icon, .step-5 .number, .step-5 .label, .step-5 .circle-group { animation-delay: 8s; }
    .step-6 .circle, .step-6 .border, .step-6 .icon, .step-6 .number, .step-6 .label, .step-6 .circle-group { animation-delay: 10s; }
    .step-7 .circle, .step-7 .border, .step-7 .icon, .step-7 .number, .step-7 .label, .step-7 .circle-group { animation-delay: 12s; }

    @keyframes connector-flow {
      0% {
        stroke-dashoffset: 118.857;
        opacity: 0;
      }
      10% {
        stroke-dashoffset: 118.857;
        opacity: 1;
      }
      14.28% {
        stroke-dashoffset: 0;
        opacity: 1;
      }
      16.43% {
        stroke-dashoffset: 0;
        opacity: 1;
      }
      18.57% {
        stroke-dashoffset: -118.857;
        opacity: 0;
      }
      100% {
        stroke-dashoffset: -118.857;
        opacity: 0;
      }
    }

    @keyframes circle-anim {
      0%, 12.86% { fill: #5F5FFF; }
      14.28%, 98.57% { fill: #0D1040; }
      100% { fill: #5F5FFF; }
    }

    @keyframes border-anim {
      0%, 12.86% { fill: #FFFFFF; fill-opacity: 1; }
      14.28%, 98.57% { fill: #40408E; fill-opacity: 0.45; }
      100% { fill: #FFFFFF; fill-opacity: 1; }
    }

    @keyframes content-anim {
      0%, 12.86% { fill: #FFFFFF; }
      14.28%, 98.57% { fill: #5F5FFF; }
      100% { fill: #FFFFFF; }
    }

    @keyframes label-anim {
      0%, 12.86% { fill: #B1B1FF; }
      14.28%, 98.57% { fill: #9394B5; }
      100% { fill: #B1B1FF; }
    }

    @keyframes filter-anim {
      0%, 12.86% { filter: url(#filter0_d_1_2444); }
      14.28%, 98.57% { filter: none; }
      100% { filter: url(#filter0_d_1_2444); }
    }
  </style>
<rect width="1057" height="2" transform="translate(108 51.5)" fill="#40408E" fill-opacity="0.45"/>
<line class="connector conn-1" x1="123.429" y1="52.5" x2="242.286" y2="52.5" stroke="#5F5FFF" stroke-width="2" />
<line class="connector conn-2" x1="306.286" y1="52.5" x2="425.143" y2="52.5" stroke="#5F5FFF" stroke-width="2" />
<line class="connector conn-3" x1="489.143" y1="52.5" x2="608.000" y2="52.5" stroke="#5F5FFF" stroke-width="2" />
<line class="connector conn-4" x1="672.000" y1="52.5" x2="790.857" y2="52.5" stroke="#5F5FFF" stroke-width="2" />
<line class="connector conn-5" x1="854.857" y1="52.5" x2="973.714" y2="52.5" stroke="#5F5FFF" stroke-width="2" />
<line class="connector conn-6" x1="1037.714" y1="52.5" x2="1156.571" y2="52.5" stroke="#5F5FFF" stroke-width="2" />
<g class="step step-1">
  <g class="circle-group">
<mask id="path-1-inside-1_1_2444" fill="white">
<path d="M59.4286 52C59.4286 34.3269 73.7555 20 91.4286 20C109.102 20 123.429 34.3269 123.429 52V53C123.429 70.6731 109.102 85 91.4286 85C73.7555 85 59.4286 70.6731 59.4286 53V52Z"/>
</mask>
<path class="circle" d="M59.4286 52C59.4286 34.3269 73.7555 20 91.4286 20C109.102 20 123.429 34.3269 123.429 52V53C123.429 70.6731 109.102 85 91.4286 85C73.7555 85 59.4286 70.6731 59.4286 53V52Z" fill="#5F5FFF" shape-rendering="crispEdges"/>
<path class="border" d="M91.4286 20M123.429 52H121.429V53H123.429H125.429V52H123.429ZM91.4286 85M59.4286 53H61.4286V52H59.4286H57.4286V53H59.4286ZM91.4286 85V83C74.86 83 61.4286 69.5685 61.4286 53H59.4286H57.4286C57.4286 71.7777 72.6509 87 91.4286 87V85ZM123.429 53H121.429C121.429 69.5685 107.997 83 91.4286 83V85V87C110.206 87 125.429 71.7777 125.429 53H123.429ZM91.4286 20V22C107.997 22 121.429 35.4315 121.429 52H123.429H125.429C125.429 33.2223 110.206 18 91.4286 18V20ZM91.4286 20V18C72.6509 18 57.4286 33.2223 57.4286 52H59.4286H61.4286C61.4286 35.4315 74.86 22 91.4286 22V20Z" fill="white" mask="url(#path-1-inside-1_1_2444)"/>
<mask id="mask0_1_2444" style="mask-type:alpha" maskUnits="userSpaceOnUse" x="79" y="29" width="25" height="24">
<rect x="79.4286" y="29" width="24" height="24" fill="#D9D9D9"/>
</mask>
<g mask="url(#mask0_1_2444)">
<path class="icon" d="M84.3036 48.125C83.7202 47.5417 83.4286 46.8333 83.4286 46H80.9286L81.3786 44H84.2036C84.4869 43.6833 84.8202 43.4375 85.2036 43.2625C85.5869 43.0875 85.9952 43 86.4286 43C86.8619 43 87.2702 43.0875 87.6536 43.2625C88.0369 43.4375 88.3702 43.6833 88.6536 44H92.8286L94.9286 35H85.9786L86.4036 33H97.4286L96.5036 37H99.4286L102.429 41L101.429 46H99.4286C99.4286 46.8333 99.1369 47.5417 98.5536 48.125C97.9702 48.7083 97.2619 49 96.4286 49C95.5952 49 94.8869 48.7083 94.3036 48.125C93.7202 47.5417 93.4286 46.8333 93.4286 46H89.4286C89.4286 46.8333 89.1369 47.5417 88.5536 48.125C87.9702 48.7083 87.2619 49 86.4286 49C85.5952 49 84.8869 48.7083 84.3036 48.125ZM95.3536 42H100.179L100.279 41.475L98.4286 39H96.0536L95.3536 42ZM94.9286 35L92.8286 44L92.8786 43.825L94.9286 35ZM82.9286 42V39H80.4286L83.9286 34V37H86.4286L82.9286 42ZM86.4286 47C86.7119 47 86.9494 46.9042 87.1411 46.7125C87.3327 46.5208 87.4286 46.2833 87.4286 46C87.4286 45.7167 87.3327 45.4792 87.1411 45.2875C86.9494 45.0958 86.7119 45 86.4286 45C86.1452 45 85.9077 45.0958 85.7161 45.2875C85.5244 45.4792 85.4286 45.7167 85.4286 46C85.4286 46.2833 85.5244 46.5208 85.7161 46.7125C85.9077 46.9042 86.1452 47 86.4286 47ZM96.4286 47C96.7119 47 96.9494 46.9042 97.1411 46.7125C97.3327 46.5208 97.4286 46.2833 97.4286 46C97.4286 45.7167 97.3327 45.4792 97.1411 45.2875C96.9494 45.0958 96.7119 45 96.4286 45C96.1452 45 95.9077 45.0958 95.7161 45.2875C95.5244 45.4792 95.4286 45.7167 95.4286 46C95.4286 46.2833 95.5244 46.5208 95.7161 46.7125C95.9077 46.9042 96.1452 47 96.4286 47Z" fill="white"/>
</g>
<path class="number" d="M93.7071 59.0909V70H90.7454V61.8182H90.6815L88.2951 63.2457V60.7315L90.9798 59.0909H93.7071Z" fill="white"/>
  </g>
<path class="label" d="M44.902 116L49.536 106.2H51.034L55.654 116H53.624L52.392 113.34H48.136L46.904 116H44.902ZM48.934 111.618H51.622L50.264 108.706L48.934 111.618ZM56.5367 116V106.2H58.2307V116H56.5367ZM59.2848 116V106.2H60.9788V116H59.2848ZM74.0541 113.004C73.7181 115.16 72.1781 116.154 70.1761 116.154C67.7821 116.154 66.3121 114.74 66.3121 112.444C66.3121 110.106 67.8661 108.706 70.2181 108.706C72.3601 108.706 73.8021 109.854 74.0261 111.842H72.3041C72.1361 110.82 71.3241 110.288 70.1761 110.288C68.7201 110.288 68.0481 111.086 68.0481 112.43C68.0481 113.76 68.7201 114.558 70.1761 114.558C71.4361 114.558 72.1501 113.942 72.3041 113.004H74.0541ZM78.9808 116.154C76.5868 116.154 75.1168 114.74 75.1168 112.444C75.1168 110.106 76.6708 108.706 79.0228 108.706C81.3748 108.706 82.8868 110.106 82.8868 112.416C82.8868 114.726 81.3608 116.154 78.9808 116.154ZM76.8528 112.43C76.8528 113.76 77.5248 114.558 78.9808 114.558C80.4648 114.558 81.1508 113.746 81.1508 112.416C81.1508 111.1 80.4648 110.288 78.9808 110.288C77.5248 110.288 76.8528 111.086 76.8528 112.43ZM83.8532 116V108.958H85.5472V109.63C86.0372 109.07 86.8632 108.706 87.5772 108.706C88.5992 108.706 89.2852 109.028 89.7192 109.728C90.4192 109.056 91.2872 108.706 92.2252 108.706C93.9332 108.706 94.8992 109.602 94.8992 111.282V116H93.2052V111.688C93.2052 110.764 92.9812 110.316 92.0572 110.316C91.2872 110.316 90.2372 110.694 90.2372 111.646V116H88.5292V111.688C88.5292 110.792 88.2912 110.316 87.3952 110.316C86.4292 110.316 85.5472 110.96 85.5472 111.94V116H83.8532ZM95.8297 116V108.958H97.5237V109.63C98.0137 109.07 98.8397 108.706 99.5537 108.706C100.576 108.706 101.262 109.028 101.696 109.728C102.396 109.056 103.264 108.706 104.202 108.706C105.91 108.706 106.876 109.602 106.876 111.282V116H105.182V111.688C105.182 110.764 104.958 110.316 104.034 110.316C103.264 110.316 102.214 110.694 102.214 111.646V116H100.506V111.688C100.506 110.792 100.268 110.316 99.3717 110.316C98.4057 110.316 97.5237 110.96 97.5237 111.94V116H95.8297ZM113.617 111.716C113.533 110.806 112.791 110.288 111.629 110.288C110.495 110.288 109.739 110.792 109.683 111.716H113.617ZM107.765 112.444C107.765 110.106 109.319 108.706 111.671 108.706C114.023 108.706 115.549 110.106 115.535 112.416L115.521 113.018H109.599C109.697 113.956 110.383 114.558 111.629 114.558C112.735 114.558 113.351 114.18 113.603 113.466H115.423C114.947 115.286 113.505 116.154 111.629 116.154C109.235 116.154 107.765 114.74 107.765 112.444ZM116.584 116V109H118.278V109.644C118.922 108.874 120.224 108.72 121.246 108.944L121.022 110.54C119.762 110.246 118.278 110.568 118.278 111.856V116H116.584ZM129.275 113.004C128.939 115.16 127.399 116.154 125.397 116.154C123.003 116.154 121.533 114.74 121.533 112.444C121.533 110.106 123.087 108.706 125.439 108.706C127.581 108.706 129.023 109.854 129.247 111.842H127.525C127.357 110.82 126.545 110.288 125.397 110.288C123.941 110.288 123.269 111.086 123.269 112.43C123.269 113.76 123.941 114.558 125.397 114.558C126.657 114.558 127.371 113.942 127.525 113.004H129.275ZM136.053 111.716C135.969 110.806 135.227 110.288 134.065 110.288C132.931 110.288 132.175 110.792 132.119 111.716H136.053ZM130.201 112.444C130.201 110.106 131.755 108.706 134.107 108.706C136.459 108.706 137.985 110.106 137.971 112.416L137.957 113.018H132.035C132.133 113.956 132.819 114.558 134.065 114.558C135.171 114.558 135.787 114.18 136.039 113.466H137.859C137.383 115.286 135.941 116.154 134.065 116.154C131.671 116.154 130.201 114.74 130.201 112.444ZM67.8881 131.004C67.5521 133.16 66.0121 134.154 64.0101 134.154C61.6161 134.154 60.1461 132.74 60.1461 130.444C60.1461 128.106 61.7001 126.706 64.0521 126.706C66.1941 126.706 67.6361 127.854 67.8601 129.842H66.1381C65.9701 128.82 65.1581 128.288 64.0101 128.288C62.5541 128.288 61.8821 129.086 61.8821 130.43C61.8821 131.76 62.5541 132.558 64.0101 132.558C65.2701 132.558 65.9841 131.942 66.1381 131.004H67.8881ZM68.9508 134V124.2H70.6448V127.476C71.3028 126.944 72.0868 126.706 72.9268 126.706C74.8168 126.706 75.8108 127.686 75.8108 129.408V134H74.1028V129.786C74.1028 128.82 73.8088 128.316 72.7588 128.316C71.6108 128.316 70.6448 128.932 70.6448 129.982V134H68.9508ZM77.1348 129.254C77.2048 127.462 78.3108 126.734 80.4108 126.706C82.6788 126.692 83.6308 127.686 83.6308 129.464V134H81.9368V133.3C81.5308 133.734 80.9428 134.126 79.7528 134.112C78.0168 134.084 76.7848 133.328 76.7848 131.76C76.7848 129.8 78.7588 129.506 80.8868 129.492L81.9228 129.478V129.38C81.9228 128.582 81.6708 128.26 80.4108 128.26C79.2348 128.26 78.9268 128.554 78.8848 129.254H77.1348ZM78.4928 131.802C78.4928 132.278 78.7868 132.572 79.8648 132.572C81.1808 132.572 81.9228 132.194 81.9228 131.298V130.794L80.9848 130.822C78.9408 130.892 78.4928 131.144 78.4928 131.802ZM84.7692 134V126.958H86.4632V127.63C86.9252 127.028 87.8912 126.706 88.7452 126.706C90.6352 126.706 91.6292 127.686 91.6292 129.408V134H89.9212V129.8C89.9212 128.834 89.6272 128.316 88.5772 128.316C87.7232 128.316 86.4632 128.722 86.4632 129.772V134H84.7692ZM92.5485 134V126.958H94.2425V127.63C94.7045 127.028 95.6705 126.706 96.5245 126.706C98.4145 126.706 99.4085 127.686 99.4085 129.408V134H97.7005V129.8C97.7005 128.834 97.4065 128.316 96.3565 128.316C95.5025 128.316 94.2425 128.722 94.2425 129.772V134H92.5485ZM106.139 129.716C106.055 128.806 105.313 128.288 104.151 128.288C103.017 128.288 102.261 128.792 102.205 129.716H106.139ZM100.287 130.444C100.287 128.106 101.841 126.706 104.193 126.706C106.545 126.706 108.071 128.106 108.057 130.416L108.043 131.018H102.121C102.219 131.956 102.905 132.558 104.151 132.558C105.257 132.558 105.873 132.18 106.125 131.466H107.945C107.469 133.286 106.027 134.154 104.151 134.154C101.757 134.154 100.287 132.74 100.287 130.444ZM109.023 134V124.2H110.717V134H109.023ZM113.521 131.774C113.577 132.306 114.025 132.558 115.061 132.572C116.097 132.572 116.713 132.404 116.713 131.872C116.713 131.508 116.573 131.2 115.411 131.046L114.599 130.934C112.667 130.682 111.785 130.262 111.785 128.89C111.785 127.588 112.989 126.706 114.977 126.706C116.979 126.706 118.099 127.574 118.253 128.932H116.559C116.503 128.442 115.971 128.274 114.977 128.26C114.081 128.274 113.451 128.47 113.451 128.904C113.451 129.282 113.661 129.492 114.697 129.632L115.621 129.744C117.581 129.982 118.435 130.472 118.435 131.872C118.435 133.286 117.245 134.14 115.061 134.154C112.891 134.14 111.883 133.244 111.799 131.774H113.521Z" fill="#B1B1FF"/>
</g>
<g class="step step-2">
  <g class="circle-group">
<mask id="path-7-inside-2_1_2444" fill="white">
<path d="M242.286 52C242.286 34.3269 256.613 20 274.286 20C291.959 20 306.286 34.3269 306.286 52V53C306.286 70.6731 291.959 85 274.286 85C256.613 85 242.286 70.6731 242.286 53V52Z"/>
</mask>
<path class="circle" d="M242.286 52C242.286 34.3269 256.613 20 274.286 20C291.959 20 306.286 34.3269 306.286 52V53C306.286 70.6731 291.959 85 274.286 85C256.613 85 242.286 70.6731 242.286 53V52Z" fill="#0D1040"/>
<path class="border" d="M274.286 20M306.286 52H304.286V53H306.286H308.286V52H306.286ZM274.286 85M242.286 53H244.286V52H242.286H240.286V53H242.286ZM274.286 85V83C257.717 83 244.286 69.5685 244.286 53H242.286H240.286C240.286 71.7777 255.508 87 274.286 87V85ZM306.286 53H304.286C304.286 69.5685 290.854 83 274.286 83V85V87C293.063 87 308.286 71.7777 308.286 53H306.286ZM274.286 20V22C290.854 22 304.286 35.4315 304.286 52H306.286H308.286C308.286 33.2223 293.063 18 274.286 18V20ZM274.286 20V18C255.508 18 240.286 33.2223 240.286 52H242.286H244.286C244.286 35.4315 257.717 22 274.286 22V20Z" fill="#40408E" fill-opacity="0.45" mask="url(#path-7-inside-2_1_2444)"/>
<mask id="mask1_1_2444" style="mask-type:alpha" maskUnits="userSpaceOnUse" x="262" y="29" width="25" height="24">
<rect x="262.286" y="29" width="24" height="24" fill="#D9D9D9"/>
</mask>
<g mask="url(#mask1_1_2444)">
<path class="icon" d="M268.786 50C267.819 50 266.994 49.6583 266.311 48.975C265.627 48.2917 265.286 47.4667 265.286 46.5C265.286 45.5333 265.627 44.7083 266.311 44.025C266.994 43.3417 267.819 43 268.786 43H270.286V39H268.786C267.819 39 266.994 38.6583 266.311 37.975C265.627 37.2917 265.286 36.4667 265.286 35.5C265.286 34.5333 265.627 33.7083 266.311 33.025C266.994 32.3417 267.819 32 268.786 32C269.752 32 270.577 32.3417 271.261 33.025C271.944 33.7083 272.286 34.5333 272.286 35.5V37H276.286V35.5C276.286 34.5333 276.627 33.7083 277.311 33.025C277.994 32.3417 278.819 32 279.786 32C280.752 32 281.577 32.3417 282.261 33.025C282.944 33.7083 283.286 34.5333 283.286 35.5C283.286 36.4667 282.944 37.2917 282.261 37.975C281.577 38.6583 280.752 39 279.786 39H278.286V43H279.786C280.752 43 281.577 43.3417 282.261 44.025C282.944 44.7083 283.286 45.5333 283.286 46.5C283.286 47.4667 282.944 48.2917 282.261 48.975C281.577 49.6583 280.752 50 279.786 50C278.819 50 277.994 49.6583 277.311 48.975C276.627 48.2917 276.286 47.4667 276.286 46.5V45H272.286V46.5C272.286 47.4667 271.944 48.2917 271.261 48.975C270.577 49.6583 269.752 50 268.786 50ZM268.786 48C269.202 48 269.557 47.8542 269.848 47.5625C270.14 47.2708 270.286 46.9167 270.286 46.5V45H268.786C268.369 45 268.015 45.1458 267.723 45.4375C267.432 45.7292 267.286 46.0833 267.286 46.5C267.286 46.9167 267.432 47.2708 267.723 47.5625C268.015 47.8542 268.369 48 268.786 48ZM279.786 48C280.202 48 280.557 47.8542 280.848 47.5625C281.14 47.2708 281.286 46.9167 281.286 46.5C281.286 46.0833 281.14 45.7292 280.848 45.4375C280.557 45.1458 280.202 45 279.786 45H278.286V46.5C278.286 46.9167 278.432 47.2708 278.723 47.5625C279.015 47.8542 279.369 48 279.786 48ZM272.286 43H276.286V39H272.286V43ZM268.786 37H270.286V35.5C270.286 35.0833 270.14 34.7292 269.848 34.4375C269.557 34.1458 269.202 34 268.786 34C268.369 34 268.015 34.1458 267.723 34.4375C267.432 34.7292 267.286 35.0833 267.286 35.5C267.286 35.9167 267.432 36.2708 267.723 36.5625C268.015 36.8542 268.369 37 268.786 37ZM278.286 37H279.786C280.202 37 280.557 36.8542 280.848 36.5625C281.14 36.2708 281.286 35.9167 281.286 35.5C281.286 35.0833 281.14 34.7292 280.848 34.4375C280.557 34.1458 280.202 34 279.786 34C279.369 34 279.015 34.1458 278.723 34.4375C278.432 34.7292 278.286 35.0833 278.286 35.5V37Z" fill="#5F5FFF"/>
</g>
<path class="number" d="M270.162 70V67.8693L274.231 64.5028C274.501 64.2791 274.732 64.0696 274.924 63.8743C275.119 63.6754 275.268 63.4712 275.371 63.2617C275.478 63.0522 275.531 62.8196 275.531 62.5639C275.531 62.2834 275.47 62.0437 275.35 61.8448C275.233 61.646 275.069 61.4933 274.86 61.3867C274.65 61.2766 274.409 61.2216 274.135 61.2216C273.862 61.2216 273.62 61.2766 273.411 61.3867C273.205 61.4968 273.045 61.6584 272.931 61.8714C272.818 62.0845 272.761 62.3437 272.761 62.6491H269.948C269.948 61.8821 270.121 61.2216 270.465 60.6676C270.81 60.1136 271.296 59.6875 271.925 59.3892C272.553 59.0909 273.29 58.9418 274.135 58.9418C275.009 58.9418 275.765 59.082 276.404 59.3626C277.047 59.6396 277.543 60.0302 277.891 60.5344C278.242 61.0387 278.418 61.63 278.418 62.3082C278.418 62.7273 278.331 63.1445 278.157 63.56C277.983 63.9719 277.67 64.4283 277.219 64.929C276.768 65.4297 276.127 66.0263 275.296 66.7188L274.274 67.571V67.6349H278.535V70H270.162Z" fill="#5F5FFF"/>
  </g>
<path class="label" d="M214.064 116.168C210.984 116.168 208.926 114.264 208.926 111.086C208.926 107.88 211.012 105.99 214.064 105.99C216.626 105.99 218.516 107.306 219.034 109.616H217.13C216.752 108.412 215.716 107.712 214.064 107.712C211.866 107.712 210.774 108.86 210.774 111.086C210.774 113.284 211.852 114.432 214.064 114.432C215.73 114.432 216.738 113.774 217.13 112.57H219.034C218.362 115.174 216.36 116.168 214.064 116.168ZM225.811 111.716C225.727 110.806 224.985 110.288 223.823 110.288C222.689 110.288 221.933 110.792 221.877 111.716H225.811ZM219.959 112.444C219.959 110.106 221.513 108.706 223.865 108.706C226.217 108.706 227.743 110.106 227.729 112.416L227.715 113.018H221.793C221.891 113.956 222.577 114.558 223.823 114.558C224.929 114.558 225.545 114.18 225.797 113.466H227.617C227.141 115.286 225.699 116.154 223.823 116.154C221.429 116.154 219.959 114.74 219.959 112.444ZM228.778 116V108.958H230.472V109.63C230.934 109.028 231.9 108.706 232.754 108.706C234.644 108.706 235.638 109.686 235.638 111.408V116H233.93V111.8C233.93 110.834 233.636 110.316 232.586 110.316C231.732 110.316 230.472 110.722 230.472 111.772V116H228.778ZM239.797 116.126C238.047 116.126 237.515 115.09 237.459 113.662V110.554H236.325V109H237.459V106.536H239.153V109H241.337V110.554H239.153V113.76C239.153 114.81 240.357 114.558 241.211 114.376L241.631 115.762C240.777 116.042 240.343 116.126 239.797 116.126ZM242.682 116V109H244.376V109.644C245.02 108.874 246.322 108.72 247.344 108.944L247.12 110.54C245.86 110.246 244.376 110.568 244.376 111.856V116H242.682ZM247.776 111.254C247.846 109.462 248.952 108.734 251.052 108.706C253.32 108.692 254.272 109.686 254.272 111.464V116H252.578V115.3C252.172 115.734 251.584 116.126 250.394 116.112C248.658 116.084 247.426 115.328 247.426 113.76C247.426 111.8 249.4 111.506 251.528 111.492L252.564 111.478V111.38C252.564 110.582 252.312 110.26 251.052 110.26C249.876 110.26 249.568 110.554 249.526 111.254H247.776ZM249.134 113.802C249.134 114.278 249.428 114.572 250.506 114.572C251.822 114.572 252.564 114.194 252.564 113.298V112.794L251.626 112.822C249.582 112.892 249.134 113.144 249.134 113.802ZM255.41 116V106.2H257.104V116H255.41ZM267.576 116.168C264.496 116.168 262.438 114.264 262.438 111.086C262.438 107.88 264.524 105.99 267.576 105.99C270.67 105.99 272.742 107.88 272.742 111.058C272.742 114.264 270.698 116.168 267.576 116.168ZM264.286 111.086C264.286 113.284 265.364 114.432 267.576 114.432C269.816 114.432 270.88 113.242 270.88 111.086C270.88 108.888 269.774 107.712 267.576 107.712C265.378 107.712 264.286 108.86 264.286 111.086ZM273.799 118.254V109H275.493V109.7C275.913 109.028 276.781 108.706 277.705 108.706C279.959 108.706 281.275 110.19 281.275 112.402C281.275 114.698 279.847 116.154 277.565 116.154C276.781 116.154 276.025 115.944 275.493 115.384V118.254H273.799ZM275.479 112.668C275.479 113.858 276.109 114.558 277.481 114.558C278.755 114.558 279.511 113.886 279.511 112.402C279.511 110.918 278.699 110.288 277.565 110.288C276.221 110.288 275.479 111.044 275.479 112.122V112.668ZM287.964 111.716C287.88 110.806 287.138 110.288 285.976 110.288C284.842 110.288 284.086 110.792 284.03 111.716H287.964ZM282.112 112.444C282.112 110.106 283.666 108.706 286.018 108.706C288.37 108.706 289.896 110.106 289.882 112.416L289.868 113.018H283.946C284.044 113.956 284.73 114.558 285.976 114.558C287.082 114.558 287.698 114.18 287.95 113.466H289.77C289.294 115.286 287.852 116.154 285.976 116.154C283.582 116.154 282.112 114.74 282.112 112.444ZM290.93 116V109H292.624V109.644C293.268 108.874 294.57 108.72 295.592 108.944L295.368 110.54C294.108 110.246 292.624 110.568 292.624 111.856V116H290.93ZM296.024 111.254C296.094 109.462 297.2 108.734 299.3 108.706C301.568 108.692 302.52 109.686 302.52 111.464V116H300.826V115.3C300.42 115.734 299.832 116.126 298.642 116.112C296.906 116.084 295.674 115.328 295.674 113.76C295.674 111.8 297.648 111.506 299.776 111.492L300.812 111.478V111.38C300.812 110.582 300.56 110.26 299.3 110.26C298.124 110.26 297.816 110.554 297.774 111.254H296.024ZM297.382 113.802C297.382 114.278 297.676 114.572 298.754 114.572C300.07 114.572 300.812 114.194 300.812 113.298V112.794L299.874 112.822C297.83 112.892 297.382 113.144 297.382 113.802ZM306.57 116.126C304.82 116.126 304.288 115.09 304.232 113.662V110.554H303.098V109H304.232V106.536H305.926V109H308.11V110.554H305.926V113.76C305.926 114.81 307.13 114.558 307.984 114.376L308.404 115.762C307.55 116.042 307.116 116.126 306.57 116.126ZM309.469 116V108.958H311.163V116H309.469ZM309.455 108.02V106.2H311.163V108.02H309.455ZM316.095 116.154C313.701 116.154 312.231 114.74 312.231 112.444C312.231 110.106 313.785 108.706 316.137 108.706C318.489 108.706 320.001 110.106 320.001 112.416C320.001 114.726 318.475 116.154 316.095 116.154ZM313.967 112.43C313.967 113.76 314.639 114.558 316.095 114.558C317.579 114.558 318.265 113.746 318.265 112.416C318.265 111.1 317.579 110.288 316.095 110.288C314.639 110.288 313.967 111.086 313.967 112.43ZM320.967 116V108.958H322.661V109.63C323.123 109.028 324.089 108.706 324.943 108.706C326.833 108.706 327.827 109.686 327.827 111.408V116H326.119V111.8C326.119 110.834 325.825 110.316 324.775 110.316C323.921 110.316 322.661 110.722 322.661 111.772V116H320.967ZM330.455 113.774C330.511 114.306 330.959 114.558 331.995 114.572C333.031 114.572 333.647 114.404 333.647 113.872C333.647 113.508 333.507 113.2 332.345 113.046L331.533 112.934C329.601 112.682 328.719 112.262 328.719 110.89C328.719 109.588 329.923 108.706 331.911 108.706C333.913 108.706 335.033 109.574 335.187 110.932H333.493C333.437 110.442 332.905 110.274 331.911 110.26C331.015 110.274 330.385 110.47 330.385 110.904C330.385 111.282 330.595 111.492 331.631 111.632L332.555 111.744C334.515 111.982 335.369 112.472 335.369 113.872C335.369 115.286 334.179 116.14 331.995 116.154C329.825 116.14 328.817 115.244 328.733 113.774H330.455ZM251.384 134.168C248.276 134.168 246.946 132.838 247.058 130.682L248.976 130.654C248.976 131.998 249.634 132.432 251.384 132.432C252.994 132.432 253.736 131.984 253.736 131.158C253.736 130.444 253.512 130.178 251.776 129.94L250.502 129.758C248.332 129.464 247.044 128.708 247.044 126.86C247.044 125.026 248.57 124.018 251.16 123.99C254.002 124.018 255.374 125.208 255.29 127.322L253.4 127.336C253.4 126.104 252.63 125.698 251.174 125.698C249.62 125.698 248.878 126.104 248.878 126.832C248.878 127.532 249.172 127.77 250.712 127.994L252.056 128.176C254.45 128.526 255.626 129.352 255.626 131.172C255.626 132.992 254.128 134.168 251.398 134.168H251.384ZM258.308 136.38C257.86 136.38 257.398 136.324 256.796 136.044L257.202 134.616C258.182 134.896 258.686 134.91 259.134 133.958L259.358 133.468C259.414 133.37 259.4 133.3 259.344 133.216L256.012 126.944H258L260.324 131.536L262.438 126.944H264.328L260.702 134.476C260.072 135.778 259.498 136.38 258.308 136.38ZM266.321 131.774C266.377 132.306 266.825 132.558 267.861 132.572C268.897 132.572 269.513 132.404 269.513 131.872C269.513 131.508 269.373 131.2 268.211 131.046L267.399 130.934C265.467 130.682 264.585 130.262 264.585 128.89C264.585 127.588 265.789 126.706 267.777 126.706C269.779 126.706 270.899 127.574 271.053 128.932H269.359C269.303 128.442 268.771 128.274 267.777 128.26C266.881 128.274 266.251 128.47 266.251 128.904C266.251 129.282 266.461 129.492 267.497 129.632L268.421 129.744C270.381 129.982 271.235 130.472 271.235 131.872C271.235 133.286 270.045 134.14 267.861 134.154C265.691 134.14 264.683 133.244 264.599 131.774H266.321ZM275.343 134.126C273.593 134.126 273.061 133.09 273.005 131.662V128.554H271.871V127H273.005V124.536H274.699V127H276.883V128.554H274.699V131.76C274.699 132.81 275.903 132.558 276.757 132.376L277.177 133.762C276.323 134.042 275.889 134.126 275.343 134.126ZM283.247 129.716C283.163 128.806 282.421 128.288 281.259 128.288C280.125 128.288 279.369 128.792 279.313 129.716H283.247ZM277.395 130.444C277.395 128.106 278.949 126.706 281.301 126.706C283.653 126.706 285.179 128.106 285.165 130.416L285.151 131.018H279.229C279.327 131.956 280.013 132.558 281.259 132.558C282.365 132.558 282.981 132.18 283.233 131.466H285.053C284.577 133.286 283.135 134.154 281.259 134.154C278.865 134.154 277.395 132.74 277.395 130.444ZM286.213 134V126.958H287.907V127.63C288.397 127.07 289.223 126.706 289.937 126.706C290.959 126.706 291.645 127.028 292.079 127.728C292.779 127.056 293.647 126.706 294.585 126.706C296.293 126.706 297.259 127.602 297.259 129.282V134H295.565V129.688C295.565 128.764 295.341 128.316 294.417 128.316C293.647 128.316 292.597 128.694 292.597 129.646V134H290.889V129.688C290.889 128.792 290.651 128.316 289.755 128.316C288.789 128.316 287.907 128.96 287.907 129.94V134H286.213Z" fill="#9394B5"/>
</g>
<g class="step step-3">
  <g class="circle-group">
<mask id="path-13-inside-3_1_2444" fill="white">
<path d="M425.143 52C425.143 34.3269 439.47 20 457.143 20C474.816 20 489.143 34.3269 489.143 52V53C489.143 70.6731 474.816 85 457.143 85C439.47 85 425.143 70.6731 425.143 53V52Z"/>
</mask>
<path class="circle" d="M425.143 52C425.143 34.3269 439.47 20 457.143 20C474.816 20 489.143 34.3269 489.143 52V53C489.143 70.6731 474.816 85 457.143 85C439.47 85 425.143 70.6731 425.143 53V52Z" fill="#0D1040"/>
<path class="border" d="M457.143 20M489.143 52H487.143V53H489.143H491.143V52H489.143ZM457.143 85M425.143 53H427.143V52H425.143H423.143V53H425.143ZM457.143 85V83C440.574 83 427.143 69.5685 427.143 53H425.143H423.143C423.143 71.7777 438.365 87 457.143 87V85ZM489.143 53H487.143C487.143 69.5685 473.711 83 457.143 83V85V87C475.921 87 491.143 71.7777 491.143 53H489.143ZM457.143 20V22C473.711 22 487.143 35.4315 487.143 52H489.143H491.143C491.143 33.2223 475.921 18 457.143 18V20ZM457.143 20V18C438.365 18 423.143 33.2223 423.143 52H425.143H427.143C427.143 35.4315 440.574 22 457.143 22V20Z" fill="#40408E" fill-opacity="0.45" mask="url(#path-13-inside-3_1_2444)"/>
<mask id="mask2_1_2444" style="mask-type:alpha" maskUnits="userSpaceOnUse" x="445" y="29" width="25" height="24">
<rect x="445.143" y="29" width="24" height="24" fill="#D9D9D9"/>
</mask>
<g mask="url(#mask2_1_2444)">
<path class="icon" d="M449.143 48H451.143V40H463.143V48H465.143V37.35L457.143 34.15L449.143 37.35V48ZM447.143 50V36L457.143 32L467.143 36V50H461.143V42H453.143V50H447.143ZM454.143 50V48H456.143V50H454.143ZM456.143 47V45H458.143V47H456.143ZM458.143 50V48H460.143V50H458.143Z" fill="#5F5FFF"/>
</g>
<path class="number" d="M457.068 70.1491C456.208 70.1491 455.445 70.0018 454.777 69.707C454.113 69.4087 453.591 68.9986 453.211 68.4766C452.831 67.9545 452.639 67.3544 452.636 66.6761H455.619C455.622 66.8857 455.686 67.0739 455.811 67.2408C455.938 67.4041 456.112 67.532 456.333 67.6243C456.553 67.7166 456.805 67.7628 457.089 67.7628C457.362 67.7628 457.604 67.7148 457.813 67.619C458.023 67.5195 458.186 67.3828 458.303 67.2088C458.421 67.0348 458.477 66.8359 458.474 66.6122C458.477 66.392 458.41 66.1967 458.271 66.0263C458.137 65.8558 457.947 65.7227 457.702 65.6268C457.456 65.5309 457.174 65.483 456.855 65.483H455.747V63.4375H456.855C457.149 63.4375 457.409 63.3896 457.632 63.2937C457.86 63.1978 458.035 63.0646 458.16 62.8942C458.287 62.7237 458.35 62.5284 458.346 62.3082C458.35 62.0952 458.298 61.907 458.192 61.7436C458.085 61.5803 457.936 61.4524 457.744 61.3601C457.556 61.2678 457.338 61.2216 457.089 61.2216C456.819 61.2216 456.578 61.2695 456.365 61.3654C456.155 61.4613 455.99 61.5945 455.869 61.7649C455.748 61.9354 455.686 62.1307 455.683 62.3509H452.849C452.852 61.6832 453.035 61.0937 453.398 60.5824C453.763 60.071 454.264 59.6697 454.9 59.3786C455.535 59.0874 456.265 58.9418 457.089 58.9418C457.895 58.9418 458.607 59.0785 459.225 59.3519C459.846 59.6254 460.331 60.0018 460.679 60.4812C461.031 60.957 461.205 61.5021 461.201 62.1165C461.208 62.7273 460.999 63.228 460.573 63.6186C460.15 64.0092 459.614 64.2401 458.964 64.3111V64.3963C459.845 64.4922 460.507 64.7621 460.951 65.206C461.395 65.6463 461.613 66.2003 461.606 66.8679C461.61 67.5071 461.418 68.0735 461.031 68.5671C460.647 69.0607 460.113 69.4478 459.427 69.7283C458.746 70.0089 457.959 70.1491 457.068 70.1491Z" fill="#5F5FFF"/>
  </g>
<path class="label" d="M369.792 116V106.2H371.612V116H369.792ZM372.677 116V108.958H374.371V109.63C374.833 109.028 375.799 108.706 376.653 108.706C378.543 108.706 379.537 109.686 379.537 111.408V116H377.829V111.8C377.829 110.834 377.535 110.316 376.485 110.316C375.631 110.316 374.371 110.722 374.371 111.772V116H372.677ZM383.257 116L379.827 108.958H381.815L383.985 113.662L386.183 108.958H388.101L384.657 116H383.257ZM393.964 111.716C393.88 110.806 393.138 110.288 391.976 110.288C390.842 110.288 390.086 110.792 390.03 111.716H393.964ZM388.112 112.444C388.112 110.106 389.666 108.706 392.018 108.706C394.37 108.706 395.896 110.106 395.882 112.416L395.868 113.018H389.946C390.044 113.956 390.73 114.558 391.976 114.558C393.082 114.558 393.698 114.18 393.95 113.466H395.77C395.294 115.286 393.852 116.154 391.976 116.154C389.582 116.154 388.112 114.74 388.112 112.444ZM396.931 116V108.958H398.625V109.63C399.087 109.028 400.053 108.706 400.907 108.706C402.797 108.706 403.791 109.686 403.791 111.408V116H402.083V111.8C402.083 110.834 401.789 110.316 400.739 110.316C399.885 110.316 398.625 110.722 398.625 111.772V116H396.931ZM407.95 116.126C406.2 116.126 405.668 115.09 405.612 113.662V110.554H404.478V109H405.612V106.536H407.306V109H409.49V110.554H407.306V113.76C407.306 114.81 408.51 114.558 409.364 114.376L409.784 115.762C408.93 116.042 408.496 116.126 407.95 116.126ZM413.865 116.154C411.471 116.154 410.001 114.74 410.001 112.444C410.001 110.106 411.555 108.706 413.907 108.706C416.259 108.706 417.771 110.106 417.771 112.416C417.771 114.726 416.245 116.154 413.865 116.154ZM411.737 112.43C411.737 113.76 412.409 114.558 413.865 114.558C415.349 114.558 416.035 113.746 416.035 112.416C416.035 111.1 415.349 110.288 413.865 110.288C412.409 110.288 411.737 111.086 411.737 112.43ZM418.819 116V109H420.513V109.644C421.157 108.874 422.459 108.72 423.481 108.944L423.257 110.54C421.997 110.246 420.513 110.568 420.513 111.856V116H418.819ZM426.625 118.38C426.177 118.38 425.715 118.324 425.113 118.044L425.519 116.616C426.499 116.896 427.003 116.91 427.451 115.958L427.675 115.468C427.731 115.37 427.717 115.3 427.661 115.216L424.329 108.944H426.317L428.641 113.536L430.755 108.944H432.645L429.019 116.476C428.389 117.778 427.815 118.38 426.625 118.38ZM442.328 116.168C439.22 116.168 437.89 114.838 438.002 112.682L439.92 112.654C439.92 113.998 440.578 114.432 442.328 114.432C443.938 114.432 444.68 113.984 444.68 113.158C444.68 112.444 444.456 112.178 442.72 111.94L441.446 111.758C439.276 111.464 437.988 110.708 437.988 108.86C437.988 107.026 439.514 106.018 442.104 105.99C444.946 106.018 446.318 107.208 446.234 109.322L444.344 109.336C444.344 108.104 443.574 107.698 442.118 107.698C440.564 107.698 439.822 108.104 439.822 108.832C439.822 109.532 440.116 109.77 441.656 109.994L443 110.176C445.394 110.526 446.57 111.352 446.57 113.172C446.57 114.992 445.072 116.168 442.342 116.168H442.328ZM449.252 118.38C448.804 118.38 448.342 118.324 447.74 118.044L448.146 116.616C449.126 116.896 449.63 116.91 450.078 115.958L450.302 115.468C450.358 115.37 450.344 115.3 450.288 115.216L446.956 108.944H448.944L451.268 113.536L453.382 108.944H455.272L451.646 116.476C451.016 117.778 450.442 118.38 449.252 118.38ZM456.185 116V108.958H457.879V109.63C458.341 109.028 459.307 108.706 460.161 108.706C462.051 108.706 463.045 109.686 463.045 111.408V116H461.337V111.8C461.337 110.834 461.043 110.316 459.993 110.316C459.139 110.316 457.879 110.722 457.879 111.772V116H456.185ZM471.665 113.004C471.329 115.16 469.789 116.154 467.787 116.154C465.393 116.154 463.923 114.74 463.923 112.444C463.923 110.106 465.477 108.706 467.829 108.706C469.971 108.706 471.413 109.854 471.637 111.842H469.915C469.747 110.82 468.935 110.288 467.787 110.288C466.331 110.288 465.659 111.086 465.659 112.43C465.659 113.76 466.331 114.558 467.787 114.558C469.047 114.558 469.761 113.942 469.915 113.004H471.665ZM472.728 116V106.2H474.422V109.476C475.08 108.944 475.864 108.706 476.704 108.706C478.594 108.706 479.588 109.686 479.588 111.408V116H477.88V111.786C477.88 110.82 477.586 110.316 476.536 110.316C475.388 110.316 474.422 110.932 474.422 111.982V116H472.728ZM480.644 116V109H482.338V109.644C482.982 108.874 484.284 108.72 485.306 108.944L485.082 110.54C483.822 110.246 482.338 110.568 482.338 111.856V116H480.644ZM489.457 116.154C487.063 116.154 485.593 114.74 485.593 112.444C485.593 110.106 487.147 108.706 489.499 108.706C491.851 108.706 493.363 110.106 493.363 112.416C493.363 114.726 491.837 116.154 489.457 116.154ZM487.329 112.43C487.329 113.76 488.001 114.558 489.457 114.558C490.941 114.558 491.627 113.746 491.627 112.416C491.627 111.1 490.941 110.288 489.457 110.288C488.001 110.288 487.329 111.086 487.329 112.43ZM494.329 116V108.958H496.023V109.63C496.485 109.028 497.451 108.706 498.305 108.706C500.195 108.706 501.189 109.686 501.189 111.408V116H499.481V111.8C499.481 110.834 499.187 110.316 498.137 110.316C497.283 110.316 496.023 110.722 496.023 111.772V116H494.329ZM502.259 116V108.958H503.953V116H502.259ZM502.245 108.02V106.2H503.953V108.02H502.245ZM505.021 116V114.768L509.025 110.4H505.119V109H511.293V110.19L507.373 114.488H511.251V116H505.021ZM512.699 111.254C512.769 109.462 513.875 108.734 515.975 108.706C518.243 108.692 519.195 109.686 519.195 111.464V116H517.501V115.3C517.095 115.734 516.507 116.126 515.317 116.112C513.581 116.084 512.349 115.328 512.349 113.76C512.349 111.8 514.323 111.506 516.451 111.492L517.487 111.478V111.38C517.487 110.582 517.235 110.26 515.975 110.26C514.799 110.26 514.491 110.554 514.449 111.254H512.699ZM514.057 113.802C514.057 114.278 514.351 114.572 515.429 114.572C516.745 114.572 517.487 114.194 517.487 113.298V112.794L516.549 112.822C514.505 112.892 514.057 113.144 514.057 113.802ZM523.245 116.126C521.495 116.126 520.963 115.09 520.907 113.662V110.554H519.773V109H520.907V106.536H522.601V109H524.785V110.554H522.601V113.76C522.601 114.81 523.805 114.558 524.659 114.376L525.079 115.762C524.225 116.042 523.791 116.126 523.245 116.126ZM526.144 116V108.958H527.838V116H526.144ZM526.13 108.02V106.2H527.838V108.02H526.13ZM532.769 116.154C530.375 116.154 528.905 114.74 528.905 112.444C528.905 110.106 530.459 108.706 532.811 108.706C535.163 108.706 536.675 110.106 536.675 112.416C536.675 114.726 535.149 116.154 532.769 116.154ZM530.641 112.43C530.641 113.76 531.313 114.558 532.769 114.558C534.253 114.558 534.939 113.746 534.939 112.416C534.939 111.1 534.253 110.288 532.769 110.288C531.313 110.288 530.641 111.086 530.641 112.43ZM537.642 116V108.958H539.336V109.63C539.798 109.028 540.764 108.706 541.618 108.706C543.508 108.706 544.502 109.686 544.502 111.408V116H542.794V111.8C542.794 110.834 542.5 110.316 541.45 110.316C540.596 110.316 539.336 110.722 539.336 111.772V116H537.642ZM433.544 134V124.2H440.866V125.95H435.364V128.036H440.642V129.772H435.364V132.264H440.866V134H433.544ZM441.925 134V126.958H443.619V127.63C444.081 127.028 445.047 126.706 445.901 126.706C447.791 126.706 448.785 127.686 448.785 129.408V134H447.077V129.8C447.077 128.834 446.783 128.316 445.733 128.316C444.879 128.316 443.619 128.722 443.619 129.772V134H441.925ZM453.373 132.25C454.773 132.25 455.445 131.522 455.445 130.5V130.094C455.445 128.974 454.871 128.288 453.513 128.288C452.225 128.288 451.413 128.96 451.413 130.29C451.413 131.648 452.253 132.25 453.373 132.25ZM449.663 130.29C449.663 128.064 451.119 126.608 453.331 126.706C454.241 126.748 455.193 127.182 455.431 127.49V127H457.139V133.244C457.139 133.958 457.027 134.574 456.817 135.064C456.341 136.212 455.305 136.744 453.541 136.744C451.441 136.744 450.083 136.044 449.971 134.308H451.609C451.749 134.84 452.225 135.162 453.541 135.162C455.067 135.162 455.431 134.532 455.431 133.65V133.006C454.885 133.552 454.185 133.86 453.233 133.86C451.063 133.86 449.663 132.544 449.663 130.29ZM458.208 134V126.958H459.902V134H458.208ZM458.194 126.02V124.2H459.902V126.02H458.194ZM460.97 134V126.958H462.664V127.63C463.126 127.028 464.092 126.706 464.946 126.706C466.836 126.706 467.83 127.686 467.83 129.408V134H466.122V129.8C466.122 128.834 465.828 128.316 464.778 128.316C463.924 128.316 462.664 128.722 462.664 129.772V134H460.97ZM474.56 129.716C474.476 128.806 473.734 128.288 472.572 128.288C471.438 128.288 470.682 128.792 470.626 129.716H474.56ZM468.708 130.444C468.708 128.106 470.262 126.706 472.614 126.706C474.966 126.706 476.492 128.106 476.478 130.416L476.464 131.018H470.542C470.64 131.956 471.326 132.558 472.572 132.558C473.678 132.558 474.294 132.18 474.546 131.466H476.366C475.89 133.286 474.448 134.154 472.572 134.154C470.178 134.154 468.708 132.74 468.708 130.444Z" fill="#9394B5"/>
</g>
<g class="step step-4">
  <g class="circle-group">
<mask id="path-19-inside-4_1_2444" fill="white">
<path d="M608 52C608 34.3269 622.327 20 640 20C657.673 20 672 34.3269 672 52V53C672 70.6731 657.673 85 640 85C622.327 85 608 70.6731 608 53V52Z"/>
</mask>
<path class="circle" d="M608 52C608 34.3269 622.327 20 640 20C657.673 20 672 34.3269 672 52V53C672 70.6731 657.673 85 640 85C622.327 85 608 70.6731 608 53V52Z" fill="#0D1040"/>
<path class="border" d="M640 20M672 52H670V53H672H674V52H672ZM640 85M608 53H610V52H608H606V53H608ZM640 85V83C623.431 83 610 69.5685 610 53H608H606C606 71.7777 621.222 87 640 87V85ZM672 53H670C670 69.5685 656.569 83 640 83V85V87C658.778 87 674 71.7777 674 53H672ZM640 20V22C656.569 22 670 35.4315 670 52H672H674C674 33.2223 658.778 18 640 18V20ZM640 20V18C621.222 18 606 33.2223 606 52H608H610C610 35.4315 623.431 22 640 22V20Z" fill="#40408E" fill-opacity="0.45" mask="url(#path-19-inside-4_1_2444)"/>
<mask id="mask3_1_2444" style="mask-type:alpha" maskUnits="userSpaceOnUse" x="628" y="29" width="24" height="24">
<rect x="628" y="29" width="24" height="24" fill="#D9D9D9"/>
</mask>
<g mask="url(#mask3_1_2444)">
<path class="icon" d="M632.875 48.125C632.292 47.5417 632 46.8333 632 46H629.5L629.95 44H632.775C633.058 43.6833 633.392 43.4375 633.775 43.2625C634.158 43.0875 634.567 43 635 43C635.433 43 635.842 43.0875 636.225 43.2625C636.608 43.4375 636.942 43.6833 637.225 44H641.4L643.5 35H634.55L634.975 33H646L645.075 37H648L651 41L650 46H648C648 46.8333 647.708 47.5417 647.125 48.125C646.542 48.7083 645.833 49 645 49C644.167 49 643.458 48.7083 642.875 48.125C642.292 47.5417 642 46.8333 642 46H638C638 46.8333 637.708 47.5417 637.125 48.125C636.542 48.7083 635.833 49 635 49C634.167 49 633.458 48.7083 632.875 48.125ZM643.925 42H648.75L648.85 41.475L647 39H644.625L643.925 42ZM643.5 35L641.4 44L641.45 43.825L643.5 35ZM631.5 42V39H629L632.5 34V37H635L631.5 42ZM635 47C635.283 47 635.521 46.9042 635.713 46.7125C635.904 46.5208 636 46.2833 636 46C636 45.7167 635.904 45.4792 635.713 45.2875C635.521 45.0958 635.283 45 635 45C634.717 45 634.479 45.0958 634.287 45.2875C634.096 45.4792 634 45.7167 634 46C634 46.2833 634.096 46.5208 634.287 46.7125C634.479 46.9042 634.717 47 635 47ZM645 47C645.283 47 645.521 46.9042 645.712 46.7125C645.904 46.5208 646 46.2833 646 46C646 45.7167 645.904 45.4792 645.712 45.2875C645.521 45.0958 645.283 45 645 45C644.717 45 644.479 45.0958 644.288 45.2875C644.096 45.4792 644 45.7167 644 46C644 46.2833 644.096 46.5208 644.288 46.7125C644.479 46.9042 644.717 47 645 47Z" fill="#5F5FFF"/>
</g>
<path class="number" d="M635.352 68.2955V65.9943L639.741 59.0909H641.829V62.1591H640.636L638.271 65.9091V65.9943H644.748V68.2955H635.352ZM640.657 70V67.5923L640.721 66.5909V59.0909H643.491V70H640.657Z" fill="#5F5FFF"/>
  </g>
<path class="label" d="M600.015 116V106.2H607.225V107.95H601.835V110.036H606.889V111.786H601.835V116H600.015ZM611.073 116.154C609.253 116.154 608.329 115.216 608.273 113.438V109H609.953V113.116C609.953 114.096 610.233 114.53 611.255 114.53C612.053 114.53 613.285 114.166 613.285 113.06V109H614.979V116H613.299V115.272C612.669 115.888 611.941 116.154 611.073 116.154ZM616.025 116V106.2H617.719V116H616.025ZM619.825 116V110.526H618.691V108.958H619.825V108.3C619.825 106.858 620.987 106.158 622.401 106.158C622.639 106.158 622.933 106.172 623.577 106.284V107.768C623.409 107.754 622.639 107.74 622.513 107.74C621.771 107.74 621.533 107.908 621.533 108.664V108.958H623.577V110.526H621.533V116H619.825ZM624.639 116V108.958H626.333V116H624.639ZM624.625 108.02V106.2H626.333V108.02H624.625ZM627.4 116V106.2H629.094V116H627.4ZM630.148 116V106.2H631.842V116H630.148ZM632.896 116V108.958H634.59V109.63C635.08 109.07 635.906 108.706 636.62 108.706C637.642 108.706 638.328 109.028 638.762 109.728C639.462 109.056 640.33 108.706 641.268 108.706C642.976 108.706 643.942 109.602 643.942 111.282V116H642.248V111.688C642.248 110.764 642.024 110.316 641.1 110.316C640.33 110.316 639.28 110.694 639.28 111.646V116H637.572V111.688C637.572 110.792 637.334 110.316 636.438 110.316C635.472 110.316 634.59 110.96 634.59 111.94V116H632.896ZM650.684 111.716C650.6 110.806 649.858 110.288 648.696 110.288C647.562 110.288 646.806 110.792 646.75 111.716H650.684ZM644.832 112.444C644.832 110.106 646.386 108.706 648.738 108.706C651.09 108.706 652.616 110.106 652.602 112.416L652.588 113.018H646.666C646.764 113.956 647.45 114.558 648.696 114.558C649.802 114.558 650.418 114.18 650.67 113.466H652.49C652.014 115.286 650.572 116.154 648.696 116.154C646.302 116.154 644.832 114.74 644.832 112.444ZM653.65 116V108.958H655.344V109.63C655.806 109.028 656.772 108.706 657.626 108.706C659.516 108.706 660.51 109.686 660.51 111.408V116H658.802V111.8C658.802 110.834 658.508 110.316 657.458 110.316C656.604 110.316 655.344 110.722 655.344 111.772V116H653.65ZM664.669 116.126C662.919 116.126 662.387 115.09 662.331 113.662V110.554H661.197V109H662.331V106.536H664.025V109H666.209V110.554H664.025V113.76C664.025 114.81 665.229 114.558 666.083 114.376L666.503 115.762C665.649 116.042 665.215 116.126 664.669 116.126ZM675.068 116.112C673.178 116.112 671.918 115.02 671.918 113.312C671.918 112.402 672.296 111.758 673.57 110.806C672.842 109.896 672.66 109.364 672.66 108.776C672.66 107.25 673.598 106.34 675.152 106.34C676.524 106.34 677.546 107.236 677.546 108.482C677.546 109.308 677.196 109.938 676.188 110.666L675.726 111.002L677.336 112.906C677.518 112.444 677.588 111.926 677.588 111.338H679.1C679.128 112.458 678.904 113.41 678.386 114.194L679.898 115.986H677.91L677.378 115.356C676.748 115.86 675.908 116.112 675.068 116.112ZM673.528 113.312C673.528 114.222 674.06 114.698 675.068 114.698C675.558 114.698 676.006 114.53 676.412 114.208L674.508 111.912L674.452 111.94C673.808 112.416 673.528 112.836 673.528 113.312ZM674.27 108.734C674.27 109.056 674.452 109.434 674.816 109.91L675.39 109.518C675.936 109.154 676.006 108.958 676.006 108.482C676.006 108.02 675.698 107.754 675.138 107.754C674.55 107.754 674.27 108.104 674.27 108.734ZM610.221 134V124.2H612.041V132.264H617.571V134H610.221ZM621.919 134.154C619.525 134.154 618.055 132.74 618.055 130.444C618.055 128.106 619.609 126.706 621.961 126.706C624.313 126.706 625.825 128.106 625.825 130.416C625.825 132.726 624.299 134.154 621.919 134.154ZM619.791 130.43C619.791 131.76 620.463 132.558 621.919 132.558C623.403 132.558 624.089 131.746 624.089 130.416C624.089 129.1 623.403 128.288 621.919 128.288C620.463 128.288 619.791 129.086 619.791 130.43ZM630.365 132.25C631.765 132.25 632.437 131.522 632.437 130.5V130.094C632.437 128.974 631.863 128.288 630.505 128.288C629.217 128.288 628.405 128.96 628.405 130.29C628.405 131.648 629.245 132.25 630.365 132.25ZM626.655 130.29C626.655 128.064 628.111 126.608 630.323 126.706C631.233 126.748 632.185 127.182 632.423 127.49V127H634.131V133.244C634.131 133.958 634.019 134.574 633.809 135.064C633.333 136.212 632.297 136.744 630.533 136.744C628.433 136.744 627.075 136.044 626.963 134.308H628.601C628.741 134.84 629.217 135.162 630.533 135.162C632.059 135.162 632.423 134.532 632.423 133.65V133.006C631.877 133.552 631.177 133.86 630.225 133.86C628.055 133.86 626.655 132.544 626.655 130.29ZM635.2 134V126.958H636.894V134H635.2ZM635.186 126.02V124.2H636.894V126.02H635.186ZM639.712 131.774C639.768 132.306 640.216 132.558 641.252 132.572C642.288 132.572 642.904 132.404 642.904 131.872C642.904 131.508 642.764 131.2 641.602 131.046L640.79 130.934C638.858 130.682 637.976 130.262 637.976 128.89C637.976 127.588 639.18 126.706 641.168 126.706C643.17 126.706 644.29 127.574 644.444 128.932H642.75C642.694 128.442 642.162 128.274 641.168 128.26C640.272 128.274 639.642 128.47 639.642 128.904C639.642 129.282 639.852 129.492 640.888 129.632L641.812 129.744C643.772 129.982 644.626 130.472 644.626 131.872C644.626 133.286 643.436 134.14 641.252 134.154C639.082 134.14 638.074 133.244 637.99 131.774H639.712ZM648.734 134.126C646.984 134.126 646.452 133.09 646.396 131.662V128.554H645.262V127H646.396V124.536H648.09V127H650.274V128.554H648.09V131.76C648.09 132.81 649.294 132.558 650.148 132.376L650.568 133.762C649.714 134.042 649.28 134.126 648.734 134.126ZM651.634 134V126.958H653.328V134H651.634ZM651.62 126.02V124.2H653.328V126.02H651.62ZM662.055 131.004C661.719 133.16 660.179 134.154 658.177 134.154C655.783 134.154 654.313 132.74 654.313 130.444C654.313 128.106 655.867 126.706 658.219 126.706C660.361 126.706 661.803 127.854 662.027 129.842H660.305C660.137 128.82 659.325 128.288 658.177 128.288C656.721 128.288 656.049 129.086 656.049 130.43C656.049 131.76 656.721 132.558 658.177 132.558C659.437 132.558 660.151 131.942 660.305 131.004H662.055ZM664.868 131.774C664.924 132.306 665.372 132.558 666.408 132.572C667.444 132.572 668.06 132.404 668.06 131.872C668.06 131.508 667.92 131.2 666.758 131.046L665.946 130.934C664.014 130.682 663.132 130.262 663.132 128.89C663.132 127.588 664.336 126.706 666.324 126.706C668.326 126.706 669.446 127.574 669.6 128.932H667.906C667.85 128.442 667.318 128.274 666.324 128.26C665.428 128.274 664.798 128.47 664.798 128.904C664.798 129.282 665.008 129.492 666.044 129.632L666.968 129.744C668.928 129.982 669.782 130.472 669.782 131.872C669.782 133.286 668.592 134.14 666.408 134.154C664.238 134.14 663.23 133.244 663.146 131.774H664.868Z" fill="#9394B5"/>
</g>
<g class="step step-5">
  <g class="circle-group">
<mask id="path-25-inside-5_1_2444" fill="white">
<path d="M790.857 52C790.857 34.3269 805.184 20 822.857 20C840.53 20 854.857 34.3269 854.857 52V53C854.857 70.6731 840.53 85 822.857 85C805.184 85 790.857 70.6731 790.857 53V52Z"/>
</mask>
<path class="circle" d="M790.857 52C790.857 34.3269 805.184 20 822.857 20C840.53 20 854.857 34.3269 854.857 52V53C854.857 70.6731 840.53 85 822.857 85C805.184 85 790.857 70.6731 790.857 53V52Z" fill="#0D1040"/>
<path class="border" d="M822.857 20M854.857 52H852.857V53H854.857H856.857V52H854.857ZM822.857 85M790.857 53H792.857V52H790.857H788.857V53H790.857ZM822.857 85V83C806.289 83 792.857 69.5685 792.857 53H790.857H788.857C788.857 71.7777 804.079 87 822.857 87V85ZM854.857 53H852.857C852.857 69.5685 839.426 83 822.857 83V85V87C841.635 87 856.857 71.7777 856.857 53H854.857ZM822.857 20V22C839.426 22 852.857 35.4315 852.857 52H854.857H856.857C856.857 33.2223 841.635 18 822.857 18V20ZM822.857 20V18C804.079 18 788.857 33.2223 788.857 52H790.857H792.857C792.857 35.4315 806.289 22 822.857 22V20Z" fill="#40408E" fill-opacity="0.45" mask="url(#path-25-inside-5_1_2444)"/>
<mask id="mask4_1_2444" style="mask-type:alpha" maskUnits="userSpaceOnUse" x="810" y="29" width="25" height="24">
<rect x="810.857" y="29" width="24" height="24" fill="#D9D9D9"/>
</mask>
<g mask="url(#mask4_1_2444)">
<path class="icon" d="M823.882 31.0498C826.266 31.2831 828.295 32.2373 829.97 33.9123C831.645 35.5873 832.599 37.6165 832.832 39.9998H825.682C825.532 39.5665 825.303 39.1873 824.995 38.8623C824.686 38.5373 824.316 38.2998 823.882 38.1498V31.0498ZM825.882 33.5998V36.9998C826.066 37.1498 826.241 37.3081 826.407 37.4748C826.574 37.6415 826.732 37.8165 826.882 37.9998H830.282C829.882 36.9998 829.299 36.1165 828.532 35.3498C827.766 34.5831 826.882 33.9998 825.882 33.5998ZM821.882 31.0498V38.1498C821.282 38.3665 820.799 38.7373 820.432 39.2623C820.066 39.7873 819.882 40.3665 819.882 40.9998C819.882 41.6331 820.066 42.204 820.432 42.7123C820.799 43.2206 821.282 43.5831 821.882 43.7998V50.9498C819.316 50.6998 817.174 49.6248 815.457 47.7248C813.741 45.8248 812.882 43.5831 812.882 40.9998C812.882 38.4165 813.741 36.1748 815.457 34.2748C817.174 32.3748 819.316 31.2998 821.882 31.0498ZM819.882 33.5998C818.366 34.1831 817.153 35.1498 816.245 36.4998C815.336 37.8498 814.882 39.3498 814.882 40.9998C814.882 42.6498 815.336 44.1498 816.245 45.4998C817.153 46.8498 818.366 47.8331 819.882 48.4498V44.9998C819.249 44.5165 818.757 43.929 818.407 43.2373C818.057 42.5456 817.882 41.7998 817.882 40.9998C817.882 40.1998 818.057 39.454 818.407 38.7623C818.757 38.0706 819.249 37.4831 819.882 36.9998V33.5998ZM825.682 41.9998H832.832C832.599 44.3831 831.645 46.4123 829.97 48.0873C828.295 49.7623 826.266 50.7165 823.882 50.9498V43.7998C824.316 43.6498 824.686 43.4206 824.995 43.1123C825.303 42.804 825.532 42.4331 825.682 41.9998ZM826.882 43.9998C826.749 44.1831 826.595 44.3581 826.42 44.5248C826.245 44.6915 826.066 44.8498 825.882 44.9998V48.3998C826.882 47.9998 827.766 47.4165 828.532 46.6498C829.299 45.8831 829.882 44.9998 830.282 43.9998H826.882Z" fill="#5F5FFF"/>
</g>
<path class="number" d="M822.932 70.1491C822.094 70.1491 821.35 70.0018 820.701 69.707C820.054 69.4087 819.545 68.9986 819.172 68.4766C818.802 67.9545 818.614 67.3544 818.607 66.6761H821.484C821.494 67.0526 821.64 67.3526 821.92 67.5763C822.204 67.8001 822.542 67.9119 822.932 67.9119C823.234 67.9119 823.501 67.848 823.731 67.7202C823.962 67.5888 824.143 67.4041 824.275 67.1662C824.406 66.9283 824.47 66.6513 824.467 66.3352C824.47 66.0156 824.406 65.7386 824.275 65.5043C824.143 65.2663 823.962 65.0835 823.731 64.9556C823.501 64.8242 823.234 64.7585 822.932 64.7585C822.62 64.7585 822.331 64.8349 822.064 64.9876C821.801 65.1367 821.608 65.3445 821.484 65.6108L818.884 65.0994L819.31 59.0909H826.64V61.456H821.739L821.526 63.8636H821.59C821.761 63.5334 822.055 63.2599 822.474 63.0433C822.893 62.8232 823.38 62.7131 823.934 62.7131C824.584 62.7131 825.163 62.864 825.67 63.1658C826.182 63.4677 826.585 63.8849 826.88 64.4176C827.178 64.9467 827.325 65.5575 827.322 66.25C827.325 67.0099 827.144 67.6847 826.778 68.2741C826.416 68.8601 825.906 69.32 825.25 69.6538C824.593 69.984 823.82 70.1491 822.932 70.1491Z" fill="#5F5FFF"/>
  </g>
<path class="label" d="M757.04 116V106.2H764.25V107.95H758.86V110.036H763.914V111.786H758.86V116H757.04ZM765.311 116V108.958H767.005V116H765.311ZM765.297 108.02V106.2H767.005V108.02H765.297ZM768.073 116V108.958H769.767V109.63C770.229 109.028 771.195 108.706 772.049 108.706C773.939 108.706 774.933 109.686 774.933 111.408V116H773.225V111.8C773.225 110.834 772.931 110.316 771.881 110.316C771.027 110.316 769.767 110.722 769.767 111.772V116H768.073ZM776.257 111.254C776.327 109.462 777.433 108.734 779.533 108.706C781.801 108.692 782.753 109.686 782.753 111.464V116H781.059V115.3C780.653 115.734 780.065 116.126 778.875 116.112C777.139 116.084 775.907 115.328 775.907 113.76C775.907 111.8 777.881 111.506 780.009 111.492L781.045 111.478V111.38C781.045 110.582 780.793 110.26 779.533 110.26C778.357 110.26 778.049 110.554 778.007 111.254H776.257ZM777.615 113.802C777.615 114.278 777.909 114.572 778.987 114.572C780.303 114.572 781.045 114.194 781.045 113.298V112.794L780.107 112.822C778.063 112.892 777.615 113.144 777.615 113.802ZM783.891 116V108.958H785.585V109.63C786.047 109.028 787.013 108.706 787.867 108.706C789.757 108.706 790.751 109.686 790.751 111.408V116H789.043V111.8C789.043 110.834 788.749 110.316 787.699 110.316C786.845 110.316 785.585 110.722 785.585 111.772V116H783.891ZM799.371 113.004C799.035 115.16 797.495 116.154 795.493 116.154C793.099 116.154 791.629 114.74 791.629 112.444C791.629 110.106 793.183 108.706 795.535 108.706C797.677 108.706 799.119 109.854 799.343 111.842H797.621C797.453 110.82 796.641 110.288 795.493 110.288C794.037 110.288 793.365 111.086 793.365 112.43C793.365 113.76 794.037 114.558 795.493 114.558C796.753 114.558 797.467 113.942 797.621 113.004H799.371ZM800.448 116V108.958H802.142V116H800.448ZM800.434 108.02V106.2H802.142V108.02H800.434ZM803.477 111.254C803.547 109.462 804.653 108.734 806.753 108.706C809.021 108.692 809.973 109.686 809.973 111.464V116H808.279V115.3C807.873 115.734 807.285 116.126 806.095 116.112C804.359 116.084 803.127 115.328 803.127 113.76C803.127 111.8 805.101 111.506 807.229 111.492L808.265 111.478V111.38C808.265 110.582 808.013 110.26 806.753 110.26C805.577 110.26 805.269 110.554 805.227 111.254H803.477ZM804.835 113.802C804.835 114.278 805.129 114.572 806.207 114.572C807.523 114.572 808.265 114.194 808.265 113.298V112.794L807.327 112.822C805.283 112.892 804.835 113.144 804.835 113.802ZM811.112 116V106.2H812.806V116H811.112ZM821.723 116V107.95H818.139V106.2H827.141V107.95H823.543V116H821.723ZM827.149 116V109H828.843V109.644C829.487 108.874 830.789 108.72 831.811 108.944L831.587 110.54C830.327 110.246 828.843 110.568 828.843 111.856V116H827.149ZM832.243 111.254C832.313 109.462 833.419 108.734 835.519 108.706C837.787 108.692 838.739 109.686 838.739 111.464V116H837.045V115.3C836.639 115.734 836.051 116.126 834.861 116.112C833.125 116.084 831.893 115.328 831.893 113.76C831.893 111.8 833.867 111.506 835.995 111.492L837.031 111.478V111.38C837.031 110.582 836.779 110.26 835.519 110.26C834.343 110.26 834.035 110.554 833.993 111.254H832.243ZM833.601 113.802C833.601 114.278 833.895 114.572 834.973 114.572C836.289 114.572 837.031 114.194 837.031 113.298V112.794L836.093 112.822C834.049 112.892 833.601 113.144 833.601 113.802ZM847.442 113.004C847.106 115.16 845.566 116.154 843.564 116.154C841.17 116.154 839.7 114.74 839.7 112.444C839.7 110.106 841.254 108.706 843.606 108.706C845.748 108.706 847.19 109.854 847.414 111.842H845.692C845.524 110.82 844.712 110.288 843.564 110.288C842.108 110.288 841.436 111.086 841.436 112.43C841.436 113.76 842.108 114.558 843.564 114.558C844.824 114.558 845.538 113.942 845.692 113.004H847.442ZM848.504 116V106.2H850.198V111.394L853.446 108.958H856.05L852.69 111.506L855.966 116H853.894L851.332 112.472L850.198 113.326V116H848.504ZM857.214 116V108.958H858.908V116H857.214ZM857.2 108.02V106.2H858.908V108.02H857.2ZM859.975 116V108.958H861.669V109.63C862.131 109.028 863.097 108.706 863.951 108.706C865.841 108.706 866.835 109.686 866.835 111.408V116H865.127V111.8C865.127 110.834 864.833 110.316 863.783 110.316C862.929 110.316 861.669 110.722 861.669 111.772V116H859.975ZM871.423 114.25C872.823 114.25 873.495 113.522 873.495 112.5V112.094C873.495 110.974 872.921 110.288 871.563 110.288C870.275 110.288 869.463 110.96 869.463 112.29C869.463 113.648 870.303 114.25 871.423 114.25ZM867.713 112.29C867.713 110.064 869.169 108.608 871.381 108.706C872.291 108.748 873.243 109.182 873.481 109.49V109H875.189V115.244C875.189 115.958 875.077 116.574 874.867 117.064C874.391 118.212 873.355 118.744 871.591 118.744C869.491 118.744 868.133 118.044 868.021 116.308H869.659C869.799 116.84 870.275 117.162 871.591 117.162C873.117 117.162 873.481 116.532 873.481 115.65V115.006C872.935 115.552 872.235 115.86 871.283 115.86C869.113 115.86 867.713 114.544 867.713 112.29ZM883.758 116.112C881.868 116.112 880.608 115.02 880.608 113.312C880.608 112.402 880.986 111.758 882.26 110.806C881.532 109.896 881.35 109.364 881.35 108.776C881.35 107.25 882.288 106.34 883.842 106.34C885.214 106.34 886.236 107.236 886.236 108.482C886.236 109.308 885.886 109.938 884.878 110.666L884.416 111.002L886.026 112.906C886.208 112.444 886.278 111.926 886.278 111.338H887.79C887.818 112.458 887.594 113.41 887.076 114.194L888.588 115.986H886.6L886.068 115.356C885.438 115.86 884.598 116.112 883.758 116.112ZM882.218 113.312C882.218 114.222 882.75 114.698 883.758 114.698C884.248 114.698 884.696 114.53 885.102 114.208L883.198 111.912L883.142 111.94C882.498 112.416 882.218 112.836 882.218 113.312ZM882.96 108.734C882.96 109.056 883.142 109.434 883.506 109.91L884.08 109.518C884.626 109.154 884.696 108.958 884.696 108.482C884.696 108.02 884.388 107.754 883.828 107.754C883.24 107.754 882.96 108.104 882.96 108.734ZM786.896 134.168C783.816 134.168 781.758 132.264 781.758 129.086C781.758 125.88 783.844 123.99 786.896 123.99C789.458 123.99 791.348 125.306 791.866 127.616H789.962C789.584 126.412 788.548 125.712 786.896 125.712C784.698 125.712 783.606 126.86 783.606 129.086C783.606 131.284 784.684 132.432 786.896 132.432C788.562 132.432 789.57 131.774 789.962 130.57H791.866C791.194 133.174 789.192 134.168 786.896 134.168ZM796.792 134.154C794.398 134.154 792.928 132.74 792.928 130.444C792.928 128.106 794.482 126.706 796.834 126.706C799.186 126.706 800.698 128.106 800.698 130.416C800.698 132.726 799.172 134.154 796.792 134.154ZM794.664 130.43C794.664 131.76 795.336 132.558 796.792 132.558C798.276 132.558 798.962 131.746 798.962 130.416C798.962 129.1 798.276 128.288 796.792 128.288C795.336 128.288 794.664 129.086 794.664 130.43ZM801.665 134V126.958H803.359V127.63C803.849 127.07 804.675 126.706 805.389 126.706C806.411 126.706 807.097 127.028 807.531 127.728C808.231 127.056 809.099 126.706 810.037 126.706C811.745 126.706 812.711 127.602 812.711 129.282V134H811.017V129.688C811.017 128.764 810.793 128.316 809.869 128.316C809.099 128.316 808.049 128.694 808.049 129.646V134H806.341V129.688C806.341 128.792 806.103 128.316 805.207 128.316C804.241 128.316 803.359 128.96 803.359 129.94V134H801.665ZM813.641 136.254V127H815.335V127.7C815.755 127.028 816.623 126.706 817.547 126.706C819.801 126.706 821.117 128.19 821.117 130.402C821.117 132.698 819.689 134.154 817.407 134.154C816.623 134.154 815.867 133.944 815.335 133.384V136.254H813.641ZM815.321 130.668C815.321 131.858 815.951 132.558 817.323 132.558C818.597 132.558 819.353 131.886 819.353 130.402C819.353 128.918 818.541 128.288 817.407 128.288C816.063 128.288 815.321 129.044 815.321 130.122V130.668ZM822.09 134V124.2H823.784V134H822.09ZM824.852 134V126.958H826.546V134H824.852ZM824.838 126.02V124.2H826.546V126.02H824.838ZM827.882 129.254C827.952 127.462 829.058 126.734 831.158 126.706C833.426 126.692 834.378 127.686 834.378 129.464V134H832.684V133.3C832.278 133.734 831.69 134.126 830.5 134.112C828.764 134.084 827.532 133.328 827.532 131.76C827.532 129.8 829.506 129.506 831.634 129.492L832.67 129.478V129.38C832.67 128.582 832.418 128.26 831.158 128.26C829.982 128.26 829.674 128.554 829.632 129.254H827.882ZM829.24 131.802C829.24 132.278 829.534 132.572 830.612 132.572C831.928 132.572 832.67 132.194 832.67 131.298V130.794L831.732 130.822C829.688 130.892 829.24 131.144 829.24 131.802ZM835.516 134V126.958H837.21V127.63C837.672 127.028 838.638 126.706 839.492 126.706C841.382 126.706 842.376 127.686 842.376 129.408V134H840.668V129.8C840.668 128.834 840.374 128.316 839.324 128.316C838.47 128.316 837.21 128.722 837.21 129.772V134H835.516ZM850.996 131.004C850.66 133.16 849.12 134.154 847.118 134.154C844.724 134.154 843.254 132.74 843.254 130.444C843.254 128.106 844.808 126.706 847.16 126.706C849.302 126.706 850.744 127.854 850.968 129.842H849.246C849.078 128.82 848.266 128.288 847.118 128.288C845.662 128.288 844.99 129.086 844.99 130.43C844.99 131.76 845.662 132.558 847.118 132.558C848.378 132.558 849.092 131.942 849.246 131.004H850.996ZM857.774 129.716C857.69 128.806 856.948 128.288 855.786 128.288C854.652 128.288 853.896 128.792 853.84 129.716H857.774ZM851.922 130.444C851.922 128.106 853.476 126.706 855.828 126.706C858.18 126.706 859.706 128.106 859.692 130.416L859.678 131.018H853.756C853.854 131.956 854.54 132.558 855.786 132.558C856.892 132.558 857.508 132.18 857.76 131.466H859.58C859.104 133.286 857.662 134.154 855.786 134.154C853.392 134.154 851.922 132.74 851.922 130.444Z" fill="#9394B5"/>
</g>
<g class="step step-6">
  <g class="circle-group">
<mask id="path-31-inside-6_1_2444" fill="white">
<path d="M973.714 52C973.714 34.3269 988.041 20 1005.71 20C1023.39 20 1037.71 34.3269 1037.71 52V53C1037.71 70.6731 1023.39 85 1005.71 85C988.041 85 973.714 70.6731 973.714 53V52Z"/>
</mask>
<path class="circle" d="M973.714 52C973.714 34.3269 988.041 20 1005.71 20C1023.39 20 1037.71 34.3269 1037.71 52V53C1037.71 70.6731 1023.39 85 1005.71 85C988.041 85 973.714 70.6731 973.714 53V52Z" fill="#0D1040"/>
<path class="border" d="M1005.71 20M1037.71 52H1035.71V53H1037.71H1039.71V52H1037.71ZM1005.71 85M973.714 53H975.714V52H973.714H971.714V53H973.714ZM1005.71 85V83C989.146 83 975.714 69.5685 975.714 53H973.714H971.714C971.714 71.7777 986.937 87 1005.71 87V85ZM1037.71 53H1035.71C1035.71 69.5685 1022.28 83 1005.71 83V85V87C1024.49 87 1039.71 71.7777 1039.71 53H1037.71ZM1005.71 20V22C1022.28 22 1035.71 35.4315 1035.71 52H1037.71H1039.71C1039.71 33.2223 1024.49 18 1005.71 18V20ZM1005.71 20V18C986.937 18 971.714 33.2223 971.714 52H973.714H975.714C975.714 35.4315 989.146 22 1005.71 22V20Z" fill="#40408E" fill-opacity="0.45" mask="url(#path-31-inside-6_1_2444)"/>
<mask id="mask5_1_2444" style="mask-type:alpha" maskUnits="userSpaceOnUse" x="993" y="29" width="25" height="24">
<rect x="993.714" y="29" width="24" height="24" fill="#D9D9D9"/>
</mask>
<g mask="url(#mask5_1_2444)">
<path class="icon" d="M1003.24 40.975C1002.56 40.2917 1002.21 39.4667 1002.21 38.5C1002.21 37.5333 1002.56 36.7083 1003.24 36.025C1003.92 35.3417 1004.75 35 1005.71 35C1006.68 35 1007.51 35.3417 1008.19 36.025C1008.87 36.7083 1009.21 37.5333 1009.21 38.5C1009.21 39.4667 1008.87 40.2917 1008.19 40.975C1007.51 41.6583 1006.68 42 1005.71 42C1004.75 42 1003.92 41.6583 1003.24 40.975ZM1006.78 39.5625C1007.07 39.2708 1007.21 38.9167 1007.21 38.5C1007.21 38.0833 1007.07 37.7292 1006.78 37.4375C1006.49 37.1458 1006.13 37 1005.71 37C1005.3 37 1004.94 37.1458 1004.65 37.4375C1004.36 37.7292 1004.21 38.0833 1004.21 38.5C1004.21 38.9167 1004.36 39.2708 1004.65 39.5625C1004.94 39.8542 1005.3 40 1005.71 40C1006.13 40 1006.49 39.8542 1006.78 39.5625ZM1005.71 51.5L996.714 46V36L1005.71 30.5L1014.71 36V46L1005.71 51.5ZM1005.71 49.175L1009.39 46.9C1008.82 46.6 1008.23 46.375 1007.6 46.225C1006.98 46.075 1006.35 46 1005.71 46C1005.08 46 1004.45 46.075 1003.83 46.225C1003.2 46.375 1002.61 46.6 1002.04 46.9L1005.71 49.175ZM1000.11 45.725C1000.95 45.1583 1001.84 44.7292 1002.79 44.4375C1003.74 44.1458 1004.71 44 1005.71 44C1006.71 44 1007.69 44.1458 1008.64 44.4375C1009.59 44.7292 1010.48 45.1583 1011.31 45.725L1012.71 44.9V37.125L1005.71 32.85L998.714 37.125V44.9L1000.11 45.725Z" fill="#5F5FFF"/>
</g>
<path class="number" d="M1005.86 70.1491C1005.23 70.1491 1004.62 70.0497 1004.05 69.8509C1003.48 69.6484 1002.98 69.3306 1002.54 68.8974C1002.1 68.4641 1001.75 67.8995 1001.5 67.2035C1001.25 66.5075 1001.13 65.6641 1001.13 64.6733C1001.14 63.7891 1001.25 62.9936 1001.47 62.2869C1001.7 61.5803 1002.02 60.9783 1002.44 60.4812C1002.86 59.984 1003.36 59.604 1003.94 59.3413C1004.52 59.0749 1005.17 58.9418 1005.89 58.9418C1006.69 58.9418 1007.39 59.0962 1008.01 59.4052C1008.62 59.7141 1009.1 60.1278 1009.46 60.6463C1009.83 61.1612 1010.04 61.7294 1010.1 62.3509H1007.19C1007.12 62.0419 1006.96 61.8164 1006.72 61.6744C1006.47 61.5288 1006.2 61.456 1005.89 61.456C1005.26 61.456 1004.81 61.7259 1004.52 62.2656C1004.23 62.8054 1004.08 63.5156 1004.07 64.3963H1004.14C1004.28 64.0625 1004.49 63.7766 1004.77 63.5387C1005.05 63.3008 1005.37 63.1179 1005.75 62.9901C1006.12 62.8622 1006.51 62.7983 1006.93 62.7983C1007.59 62.7983 1008.17 62.9474 1008.66 63.2457C1009.16 63.544 1009.54 63.9524 1009.82 64.4709C1010.1 64.9893 1010.24 65.5824 1010.23 66.25C1010.24 67.0312 1010.05 67.7148 1009.68 68.3008C1009.31 68.8867 1008.8 69.3413 1008.14 69.6644C1007.48 69.9876 1006.72 70.1491 1005.86 70.1491ZM1005.84 67.9119C1006.14 67.9119 1006.4 67.8445 1006.63 67.7095C1006.86 67.5746 1007.04 67.3899 1007.16 67.1555C1007.3 66.9212 1007.36 66.6548 1007.36 66.3565C1007.36 66.0547 1007.3 65.7884 1007.16 65.5575C1007.04 65.3232 1006.86 65.1385 1006.63 65.0036C1006.4 64.8686 1006.14 64.8011 1005.84 64.8011C1005.63 64.8011 1005.43 64.8402 1005.24 64.9183C1005.06 64.9929 1004.9 65.1012 1004.77 65.2433C1004.63 65.3817 1004.53 65.5469 1004.45 65.7386C1004.37 65.9268 1004.33 66.1328 1004.33 66.3565C1004.33 66.6548 1004.4 66.9212 1004.53 67.1555C1004.66 67.3899 1004.84 67.5746 1005.07 67.7095C1005.3 67.8445 1005.56 67.9119 1005.84 67.9119Z" fill="#5F5FFF"/>
  </g>
<path class="label" d="M975.762 116.168C972.682 116.168 970.624 114.264 970.624 111.086C970.624 107.88 972.71 105.99 975.762 105.99C978.324 105.99 980.214 107.306 980.732 109.616H978.828C978.45 108.412 977.414 107.712 975.762 107.712C973.564 107.712 972.472 108.86 972.472 111.086C972.472 113.284 973.55 114.432 975.762 114.432C977.428 114.432 978.436 113.774 978.828 112.57H980.732C980.06 115.174 978.058 116.168 975.762 116.168ZM984.594 116.154C982.774 116.154 981.85 115.216 981.794 113.438V109H983.474V113.116C983.474 114.096 983.754 114.53 984.776 114.53C985.574 114.53 986.806 114.166 986.806 113.06V109H988.5V116H986.82V115.272C986.19 115.888 985.462 116.154 984.594 116.154ZM991.296 113.774C991.352 114.306 991.8 114.558 992.836 114.572C993.872 114.572 994.488 114.404 994.488 113.872C994.488 113.508 994.348 113.2 993.186 113.046L992.374 112.934C990.442 112.682 989.56 112.262 989.56 110.89C989.56 109.588 990.764 108.706 992.752 108.706C994.754 108.706 995.874 109.574 996.028 110.932H994.334C994.278 110.442 993.746 110.274 992.752 110.26C991.856 110.274 991.226 110.47 991.226 110.904C991.226 111.282 991.436 111.492 992.472 111.632L993.396 111.744C995.356 111.982 996.21 112.472 996.21 113.872C996.21 115.286 995.02 116.14 992.836 116.154C990.666 116.14 989.658 115.244 989.574 113.774H991.296ZM1000.32 116.126C998.569 116.126 998.037 115.09 997.981 113.662V110.554H996.847V109H997.981V106.536H999.675V109H1001.86V110.554H999.675V113.76C999.675 114.81 1000.88 114.558 1001.73 114.376L1002.15 115.762C1001.3 116.042 1000.86 116.126 1000.32 116.126ZM1006.23 116.154C1003.84 116.154 1002.37 114.74 1002.37 112.444C1002.37 110.106 1003.92 108.706 1006.28 108.706C1008.63 108.706 1010.14 110.106 1010.14 112.416C1010.14 114.726 1008.61 116.154 1006.23 116.154ZM1004.11 112.43C1004.11 113.76 1004.78 114.558 1006.23 114.558C1007.72 114.558 1008.4 113.746 1008.4 112.416C1008.4 111.1 1007.72 110.288 1006.23 110.288C1004.78 110.288 1004.11 111.086 1004.11 112.43ZM1011.11 116V108.958H1012.8V109.63C1013.29 109.07 1014.12 108.706 1014.83 108.706C1015.85 108.706 1016.54 109.028 1016.97 109.728C1017.67 109.056 1018.54 108.706 1019.48 108.706C1021.19 108.706 1022.15 109.602 1022.15 111.282V116H1020.46V111.688C1020.46 110.764 1020.23 110.316 1019.31 110.316C1018.54 110.316 1017.49 110.694 1017.49 111.646V116H1015.78V111.688C1015.78 110.792 1015.54 110.316 1014.65 110.316C1013.68 110.316 1012.8 110.96 1012.8 111.94V116H1011.11ZM1028.89 111.716C1028.81 110.806 1028.07 110.288 1026.91 110.288C1025.77 110.288 1025.02 110.792 1024.96 111.716H1028.89ZM1023.04 112.444C1023.04 110.106 1024.6 108.706 1026.95 108.706C1029.3 108.706 1030.83 110.106 1030.81 112.416L1030.8 113.018H1024.88C1024.97 113.956 1025.66 114.558 1026.91 114.558C1028.01 114.558 1028.63 114.18 1028.88 113.466H1030.7C1030.22 115.286 1028.78 116.154 1026.91 116.154C1024.51 116.154 1023.04 114.74 1023.04 112.444ZM1031.86 116V109H1033.55V109.644C1034.2 108.874 1035.5 108.72 1036.52 108.944L1036.3 110.54C1035.04 110.246 1033.55 110.568 1033.55 111.856V116H1031.86ZM957.168 134.168C954.088 134.168 952.03 132.264 952.03 129.086C952.03 125.88 954.116 123.99 957.168 123.99C959.73 123.99 961.62 125.306 962.138 127.616H960.234C959.856 126.412 958.82 125.712 957.168 125.712C954.97 125.712 953.878 126.86 953.878 129.086C953.878 131.284 954.956 132.432 957.168 132.432C958.834 132.432 959.842 131.774 960.234 130.57H962.138C961.466 133.174 959.464 134.168 957.168 134.168ZM967.064 134.154C964.67 134.154 963.2 132.74 963.2 130.444C963.2 128.106 964.754 126.706 967.106 126.706C969.458 126.706 970.97 128.106 970.97 130.416C970.97 132.726 969.444 134.154 967.064 134.154ZM964.936 130.43C964.936 131.76 965.608 132.558 967.064 132.558C968.548 132.558 969.234 131.746 969.234 130.416C969.234 129.1 968.548 128.288 967.064 128.288C965.608 128.288 964.936 129.086 964.936 130.43ZM971.937 134V126.958H973.631V127.63C974.121 127.07 974.947 126.706 975.661 126.706C976.683 126.706 977.369 127.028 977.803 127.728C978.503 127.056 979.371 126.706 980.309 126.706C982.017 126.706 982.983 127.602 982.983 129.282V134H981.289V129.688C981.289 128.764 981.065 128.316 980.141 128.316C979.371 128.316 978.321 128.694 978.321 129.646V134H976.613V129.688C976.613 128.792 976.375 128.316 975.479 128.316C974.513 128.316 973.631 128.96 973.631 129.94V134H971.937ZM983.913 134V126.958H985.607V127.63C986.097 127.07 986.923 126.706 987.637 126.706C988.659 126.706 989.345 127.028 989.779 127.728C990.479 127.056 991.347 126.706 992.285 126.706C993.993 126.706 994.959 127.602 994.959 129.282V134H993.265V129.688C993.265 128.764 993.041 128.316 992.117 128.316C991.347 128.316 990.297 128.694 990.297 129.646V134H988.589V129.688C988.589 128.792 988.351 128.316 987.455 128.316C986.489 128.316 985.607 128.96 985.607 129.94V134H983.913ZM998.827 134.154C997.007 134.154 996.083 133.216 996.027 131.438V127H997.707V131.116C997.707 132.096 997.987 132.53 999.009 132.53C999.807 132.53 1001.04 132.166 1001.04 131.06V127H1002.73V134H1001.05V133.272C1000.42 133.888 999.695 134.154 998.827 134.154ZM1003.78 134V126.958H1005.47V127.63C1005.93 127.028 1006.9 126.706 1007.75 126.706C1009.64 126.706 1010.64 127.686 1010.64 129.408V134H1008.93V129.8C1008.93 128.834 1008.64 128.316 1007.59 128.316C1006.73 128.316 1005.47 128.722 1005.47 129.772V134H1003.78ZM1011.71 134V126.958H1013.4V134H1011.71ZM1011.69 126.02V124.2H1013.4V126.02H1011.69ZM1022.13 131.004C1021.79 133.16 1020.25 134.154 1018.25 134.154C1015.86 134.154 1014.39 132.74 1014.39 130.444C1014.39 128.106 1015.94 126.706 1018.29 126.706C1020.44 126.706 1021.88 127.854 1022.1 129.842H1020.38C1020.21 128.82 1019.4 128.288 1018.25 128.288C1016.8 128.288 1016.12 129.086 1016.12 130.43C1016.12 131.76 1016.8 132.558 1018.25 132.558C1019.51 132.558 1020.23 131.942 1020.38 131.004H1022.13ZM1023.32 129.254C1023.39 127.462 1024.5 126.734 1026.6 126.706C1028.87 126.692 1029.82 127.686 1029.82 129.464V134H1028.13V133.3C1027.72 133.734 1027.13 134.126 1025.94 134.112C1024.21 134.084 1022.97 133.328 1022.97 131.76C1022.97 129.8 1024.95 129.506 1027.08 129.492L1028.11 129.478V129.38C1028.11 128.582 1027.86 128.26 1026.6 128.26C1025.42 128.26 1025.12 128.554 1025.07 129.254H1023.32ZM1024.68 131.802C1024.68 132.278 1024.98 132.572 1026.05 132.572C1027.37 132.572 1028.11 132.194 1028.11 131.298V130.794L1027.17 130.822C1025.13 130.892 1024.68 131.144 1024.68 131.802ZM1033.87 134.126C1032.12 134.126 1031.59 133.09 1031.53 131.662V128.554H1030.4V127H1031.53V124.536H1033.23V127H1035.41V128.554H1033.23V131.76C1033.23 132.81 1034.43 132.558 1035.28 132.376L1035.7 133.762C1034.85 134.042 1034.42 134.126 1033.87 134.126ZM1036.77 134V126.958H1038.46V134H1036.77ZM1036.76 126.02V124.2H1038.46V126.02H1036.76ZM1043.39 134.154C1041 134.154 1039.53 132.74 1039.53 130.444C1039.53 128.106 1041.08 126.706 1043.44 126.706C1045.79 126.706 1047.3 128.106 1047.3 130.416C1047.3 132.726 1045.77 134.154 1043.39 134.154ZM1041.27 130.43C1041.27 131.76 1041.94 132.558 1043.39 132.558C1044.88 132.558 1045.56 131.746 1045.56 130.416C1045.56 129.1 1044.88 128.288 1043.39 128.288C1041.94 128.288 1041.27 129.086 1041.27 130.43ZM1048.27 134V126.958H1049.96V127.63C1050.42 127.028 1051.39 126.706 1052.24 126.706C1054.13 126.706 1055.13 127.686 1055.13 129.408V134H1053.42V129.8C1053.42 128.834 1053.12 128.316 1052.07 128.316C1051.22 128.316 1049.96 128.722 1049.96 129.772V134H1048.27Z" fill="#9394B5"/>
</g>
<g class="step step-7">
  <g class="circle-group">
<mask id="path-37-inside-7_1_2444" fill="white">
<path d="M1156.57 52C1156.57 34.3269 1170.9 20 1188.57 20C1206.24 20 1220.57 34.3269 1220.57 52V53C1220.57 70.6731 1206.24 85 1188.57 85C1170.9 85 1156.57 70.6731 1156.57 53V52Z"/>
</mask>
<path class="circle" d="M1156.57 52C1156.57 34.3269 1170.9 20 1188.57 20C1206.24 20 1220.57 34.3269 1220.57 52V53C1220.57 70.6731 1206.24 85 1188.57 85C1170.9 85 1156.57 70.6731 1156.57 53V52Z" fill="#0D1040"/>
<path class="border" d="M1188.57 20M1220.57 52H1218.57V53H1220.57H1222.57V52H1220.57ZM1188.57 85M1156.57 53H1158.57V52H1156.57H1154.57V53H1156.57ZM1188.57 85V83C1172 83 1158.57 69.5685 1158.57 53H1156.57H1154.57C1154.57 71.7777 1169.79 87 1188.57 87V85ZM1220.57 53H1218.57C1218.57 69.5685 1205.14 83 1188.57 83V85V87C1207.35 87 1222.57 71.7777 1222.57 53H1220.57ZM1188.57 20V22C1205.14 22 1218.57 35.4315 1218.57 52H1220.57H1222.57C1222.57 33.2223 1207.35 18 1188.57 18V20ZM1188.57 20V18C1169.79 18 1154.57 33.2223 1154.57 52H1156.57H1158.57C1158.57 35.4315 1172 22 1188.57 22V20Z" fill="#40408E" fill-opacity="0.45" mask="url(#path-37-inside-7_1_2444)"/>
<mask id="mask6_1_2444" style="mask-type:alpha" maskUnits="userSpaceOnUse" x="1176" y="29" width="25" height="24">
<rect x="1176.57" y="29" width="24" height="24" fill="#D9D9D9"/>
</mask>
<g mask="url(#mask6_1_2444)">
<path class="icon" d="M1189.57 38V32H1197.57V38H1189.57ZM1179.57 42V32H1187.57V42H1179.57ZM1189.57 50V40H1197.57V50H1189.57ZM1179.57 50V44H1187.57V50H1179.57ZM1181.57 40H1185.57V34H1181.57V40ZM1191.57 48H1195.57V42H1191.57V48ZM1191.57 36H1195.57V34H1191.57V36ZM1181.57 48H1185.57V46H1181.57V48Z" fill="#5F5FFF"/>
</g>
<path class="number" d="M1185.21 70L1189.49 61.5199V61.456H1184.46V59.0909H1192.56V61.456L1188.26 70H1185.21Z" fill="#5F5FFF"/>
  </g>
<path class="label" d="M1168.22 116.168C1165.47 116.168 1163.97 114.81 1163.93 111.982V106.2H1165.75V112.01C1165.75 113.746 1166.39 114.432 1168.24 114.432C1170.09 114.432 1170.69 113.76 1170.69 112.01V106.2H1172.52V111.996C1172.52 114.852 1170.88 116.168 1168.22 116.168ZM1173.58 116V108.958H1175.27V109.63C1175.73 109.028 1176.7 108.706 1177.55 108.706C1179.44 108.706 1180.44 109.686 1180.44 111.408V116H1178.73V111.8C1178.73 110.834 1178.44 110.316 1177.39 110.316C1176.53 110.316 1175.27 110.722 1175.27 111.772V116H1173.58ZM1181.51 116V108.958H1183.2V116H1181.51ZM1181.5 108.02V106.2H1183.2V108.02H1181.5ZM1185.4 116V110.526H1184.27V108.958H1185.4V108.3C1185.4 106.858 1186.57 106.158 1187.98 106.158C1188.22 106.158 1188.51 106.172 1189.16 106.284V107.768C1188.99 107.754 1188.22 107.74 1188.09 107.74C1187.35 107.74 1187.11 107.908 1187.11 108.664V108.958H1189.16V110.526H1187.11V116H1185.4ZM1190.22 116V108.958H1191.91V116H1190.22ZM1190.2 108.02V106.2H1191.91V108.02H1190.2ZM1198.75 111.716C1198.67 110.806 1197.92 110.288 1196.76 110.288C1195.63 110.288 1194.87 110.792 1194.82 111.716H1198.75ZM1192.9 112.444C1192.9 110.106 1194.45 108.706 1196.8 108.706C1199.16 108.706 1200.68 110.106 1200.67 112.416L1200.65 113.018H1194.73C1194.83 113.956 1195.52 114.558 1196.76 114.558C1197.87 114.558 1198.48 114.18 1198.74 113.466H1200.56C1200.08 115.286 1198.64 116.154 1196.76 116.154C1194.37 116.154 1192.9 114.74 1192.9 112.444ZM1205.05 116.154C1202.83 116.168 1201.5 114.684 1201.5 112.444C1201.5 110.12 1202.94 108.706 1205.18 108.706C1205.96 108.706 1206.7 108.916 1207.25 109.462V106.2H1208.94V116H1207.26V115.23C1206.82 115.804 1206.17 116.14 1205.05 116.154ZM1203.22 112.43C1203.22 113.872 1204.03 114.544 1205.18 114.544C1206.51 114.544 1207.28 113.858 1207.28 112.71V112.192C1207.28 110.918 1206.58 110.288 1205.28 110.288C1204 110.288 1203.22 110.974 1203.22 112.43ZM1150.93 134V124.2H1154.94C1158.16 124.2 1160.14 125.852 1160.14 129.058C1160.14 132.32 1158.02 134 1154.64 134H1150.93ZM1152.75 132.278H1154.66C1157.23 132.278 1158.27 131.214 1158.27 129.072C1158.27 126.944 1157.32 125.936 1154.94 125.936H1152.75V132.278ZM1161.29 129.254C1161.36 127.462 1162.47 126.734 1164.57 126.706C1166.83 126.692 1167.79 127.686 1167.79 129.464V134H1166.09V133.3C1165.69 133.734 1165.1 134.126 1163.91 134.112C1162.17 134.084 1160.94 133.328 1160.94 131.76C1160.94 129.8 1162.91 129.506 1165.04 129.492L1166.08 129.478V129.38C1166.08 128.582 1165.83 128.26 1164.57 128.26C1163.39 128.26 1163.08 128.554 1163.04 129.254H1161.29ZM1162.65 131.802C1162.65 132.278 1162.94 132.572 1164.02 132.572C1165.34 132.572 1166.08 132.194 1166.08 131.298V130.794L1165.14 130.822C1163.1 130.892 1162.65 131.144 1162.65 131.802ZM1170.67 131.774C1170.73 132.306 1171.18 132.558 1172.21 132.572C1173.25 132.572 1173.87 132.404 1173.87 131.872C1173.87 131.508 1173.73 131.2 1172.56 131.046L1171.75 130.934C1169.82 130.682 1168.94 130.262 1168.94 128.89C1168.94 127.588 1170.14 126.706 1172.13 126.706C1174.13 126.706 1175.25 127.574 1175.41 128.932H1173.71C1173.66 128.442 1173.12 128.274 1172.13 128.26C1171.23 128.274 1170.6 128.47 1170.6 128.904C1170.6 129.282 1170.81 129.492 1171.85 129.632L1172.77 129.744C1174.73 129.982 1175.59 130.472 1175.59 131.872C1175.59 133.286 1174.4 134.14 1172.21 134.154C1170.04 134.14 1169.04 133.244 1168.95 131.774H1170.67ZM1176.65 134V124.2H1178.34V127.476C1179 126.944 1179.78 126.706 1180.62 126.706C1182.51 126.706 1183.51 127.686 1183.51 129.408V134H1181.8V129.786C1181.8 128.82 1181.51 128.316 1180.46 128.316C1179.31 128.316 1178.34 128.932 1178.34 129.982V134H1176.65ZM1188.33 134.154C1187.53 134.154 1186.85 133.818 1186.26 133.37V134H1184.56V124.2H1186.26V127.532C1186.82 126.972 1187.55 126.706 1188.47 126.706C1190.72 126.706 1192.04 128.19 1192.04 130.402C1192.04 132.698 1190.61 134.154 1188.33 134.154ZM1186.24 130.668C1186.24 131.928 1186.93 132.558 1188.25 132.558C1189.52 132.558 1190.28 131.886 1190.28 130.402C1190.28 128.918 1189.46 128.288 1188.33 128.288C1187.06 128.288 1186.24 129.002 1186.24 130.122V130.668ZM1196.74 134.154C1194.35 134.154 1192.88 132.74 1192.88 130.444C1192.88 128.106 1194.43 126.706 1196.78 126.706C1199.13 126.706 1200.65 128.106 1200.65 130.416C1200.65 132.726 1199.12 134.154 1196.74 134.154ZM1194.61 130.43C1194.61 131.76 1195.28 132.558 1196.74 132.558C1198.22 132.558 1198.91 131.746 1198.91 130.416C1198.91 129.1 1198.22 128.288 1196.74 128.288C1195.28 128.288 1194.61 129.086 1194.61 130.43ZM1201.91 129.254C1201.98 127.462 1203.08 126.734 1205.18 126.706C1207.45 126.692 1208.4 127.686 1208.4 129.464V134H1206.71V133.3C1206.3 133.734 1205.72 134.126 1204.53 134.112C1202.79 134.084 1201.56 133.328 1201.56 131.76C1201.56 129.8 1203.53 129.506 1205.66 129.492L1206.7 129.478V129.38C1206.7 128.582 1206.44 128.26 1205.18 128.26C1204.01 128.26 1203.7 128.554 1203.66 129.254H1201.91ZM1203.27 131.802C1203.27 132.278 1203.56 132.572 1204.64 132.572C1205.95 132.572 1206.7 132.194 1206.7 131.298V130.794L1205.76 130.822C1203.71 130.892 1203.27 131.144 1203.27 131.802ZM1209.54 134V127H1211.24V127.644C1211.88 126.874 1213.18 126.72 1214.2 126.944L1213.98 128.54C1212.72 128.246 1211.24 128.568 1211.24 129.856V134H1209.54ZM1218.05 134.154C1215.82 134.168 1214.49 132.684 1214.49 130.444C1214.49 128.12 1215.93 126.706 1218.17 126.706C1218.96 126.706 1219.7 126.916 1220.25 127.462V124.2H1221.94V134H1220.26V133.23C1219.81 133.804 1219.17 134.14 1218.05 134.154ZM1216.21 130.43C1216.21 131.872 1217.03 132.544 1218.17 132.544C1219.5 132.544 1220.27 131.858 1220.27 130.71V130.192C1220.27 128.918 1219.57 128.288 1218.27 128.288C1217 128.288 1216.21 128.974 1216.21 130.43Z" fill="#9394B5"/>
</g>
<defs>
<filter id="filter0_d_1_2444" x="-50%" y="-50%" width="200%" height="200%" color-interpolation-filters="sRGB">
<feFlood flood-opacity="0" result="BackgroundImageFix"/>
<feColorMatrix in="SourceAlpha" type="matrix" values="0 0 0 0 0 0 0 0 0 0 0 0 0 0 0 0 0 0 127 0" result="hardAlpha"/>
<feOffset/>
<feGaussianBlur stdDeviation="10"/>
<feComposite in2="hardAlpha" operator="out"/>
<feColorMatrix type="matrix" values="0 0 0 0 0.12549 0 0 0 0 0.807843 0 0 0 0 1 0 0 0 0.4 0"/>
<feBlend mode="normal" in2="BackgroundImageFix" result="effect1_dropShadow_1_2444"/>
<feBlend mode="normal" in="SourceGraphic" in2="effect1_dropShadow_1_2444" result="shape"/>
</filter>
</defs>
</svg>
