<svg width="629" height="427" viewBox="0 0 629 427" fill="none" xmlns="http://www.w3.org/2000/svg">
<rect width="629" height="427" rx="16" fill="#161871"/>
<path d="M268.166 277.168C265.142 277.168 263.784 275.936 263.854 273.976L265.394 273.948C265.394 275.222 266.136 275.824 268.166 275.824C270.07 275.824 270.868 275.222 270.868 274.256C270.868 273.43 270.518 273.024 268.614 272.758L267.284 272.576C265.1 272.268 263.854 271.54 263.854 269.748C263.854 267.984 265.338 267.018 267.942 266.976C270.714 267.004 272.1 268.082 272.058 270.014H270.56C270.56 268.866 269.72 268.306 267.956 268.306C266.122 268.306 265.324 268.852 265.324 269.72C265.324 270.574 265.758 270.924 267.438 271.162L268.838 271.358C271.274 271.708 272.394 272.506 272.394 274.27C272.394 276.034 270.938 277.168 268.18 277.168H268.166ZM279.724 272.814C279.612 271.638 278.786 270.938 277.33 270.938C275.902 270.938 275.062 271.638 274.964 272.814H279.724ZM273.452 273.444C273.452 271.106 275.006 269.706 277.372 269.706C279.752 269.706 281.264 271.092 281.25 273.43L281.236 273.878H274.908C275.006 275.124 275.79 275.922 277.33 275.922C278.674 275.922 279.444 275.362 279.696 274.396H281.152C280.732 276.216 279.304 277.168 277.33 277.168C274.908 277.168 273.452 275.768 273.452 273.444ZM282.434 279.38V270H283.778V270.952C284.31 270.112 285.234 269.706 286.354 269.706C288.622 269.706 289.91 271.176 289.91 273.416C289.91 275.726 288.496 277.168 286.214 277.168C285.248 277.168 284.366 276.86 283.778 276.076V279.38H282.434ZM283.764 273.682C283.764 275.082 284.52 275.922 286.116 275.922C287.6 275.922 288.496 275.124 288.496 273.416C288.496 271.68 287.516 270.938 286.214 270.938C284.646 270.938 283.764 271.834 283.764 273.108V273.682ZM291.18 272.198C291.236 270.49 292.258 269.734 294.4 269.706C296.668 269.706 297.592 270.644 297.592 272.408V277H296.248V276.062C295.73 276.664 294.988 277.126 293.7 277.112C291.964 277.098 290.774 276.356 290.774 274.858C290.774 272.884 292.818 272.576 294.904 272.548L296.234 272.52V272.338C296.234 271.33 295.828 270.91 294.4 270.91C293.056 270.91 292.608 271.302 292.552 272.198H291.18ZM292.146 274.872C292.146 275.502 292.594 275.908 293.812 275.908C295.268 275.908 296.234 275.376 296.234 274.34V273.57L295.002 273.612C292.79 273.682 292.146 274.018 292.146 274.872ZM298.84 277V270H300.184V270.868C300.94 269.916 302.27 269.678 303.32 269.916L303.138 271.176C301.794 270.91 300.184 271.372 300.184 272.786V277H298.84ZM303.936 272.198C303.992 270.49 305.014 269.734 307.156 269.706C309.424 269.706 310.348 270.644 310.348 272.408V277H309.004V276.062C308.486 276.664 307.744 277.126 306.456 277.112C304.72 277.098 303.53 276.356 303.53 274.858C303.53 272.884 305.574 272.576 307.66 272.548L308.99 272.52V272.338C308.99 271.33 308.584 270.91 307.156 270.91C305.812 270.91 305.364 271.302 305.308 272.198H303.936ZM304.902 274.872C304.902 275.502 305.35 275.908 306.568 275.908C308.024 275.908 308.99 275.376 308.99 274.34V273.57L307.758 273.612C305.546 273.682 304.902 274.018 304.902 274.872ZM314.508 277.112C312.8 277.112 312.296 276.16 312.24 274.718V271.218H311.036V270H312.24V267.396H313.598V270H315.908V271.218H313.598V274.83C313.598 276.076 314.816 275.95 315.838 275.726L316.16 276.804C315.488 277.028 315.054 277.112 314.508 277.112ZM322.804 272.814C322.692 271.638 321.866 270.938 320.41 270.938C318.982 270.938 318.142 271.638 318.044 272.814H322.804ZM316.532 273.444C316.532 271.106 318.086 269.706 320.452 269.706C322.832 269.706 324.344 271.092 324.33 273.43L324.316 273.878H317.988C318.086 275.124 318.87 275.922 320.41 275.922C321.754 275.922 322.524 275.362 322.776 274.396H324.232C323.812 276.216 322.384 277.168 320.41 277.168C317.988 277.168 316.532 275.768 316.532 273.444ZM333.805 277V268.572H330.053V267.2H339.013V268.572H335.247V277H333.805ZM342.9 277.168C340.478 277.168 339.022 275.768 339.022 273.444C339.022 271.106 340.576 269.706 342.942 269.706C345.322 269.706 346.82 271.092 346.82 273.43C346.82 275.74 345.294 277.168 342.9 277.168ZM340.422 273.444C340.422 274.97 341.206 275.922 342.9 275.922C344.622 275.922 345.42 274.956 345.42 273.43C345.42 271.904 344.622 270.938 342.9 270.938C341.206 270.938 340.422 271.89 340.422 273.444ZM351.882 277.168C349.46 277.168 348.004 275.768 348.004 273.444C348.004 271.106 349.558 269.706 351.924 269.706C354.304 269.706 355.802 271.092 355.802 273.43C355.802 275.74 354.276 277.168 351.882 277.168ZM349.404 273.444C349.404 274.97 350.188 275.922 351.882 275.922C353.604 275.922 354.402 274.956 354.402 273.43C354.402 271.904 353.604 270.938 351.882 270.938C350.188 270.938 349.404 271.89 349.404 273.444ZM356.987 277V267.2H358.331V277H356.987ZM360.944 275.012C361.028 275.6 361.574 275.908 362.806 275.936C364.136 275.936 364.78 275.614 364.78 274.97C364.78 274.466 364.556 274.116 363.226 273.934L362.344 273.822C360.454 273.584 359.572 273.122 359.572 271.806C359.572 270.518 360.79 269.706 362.736 269.706C364.612 269.706 365.746 270.462 365.928 271.708H364.584C364.486 271.176 363.898 270.924 362.736 270.91C361.532 270.924 360.888 271.26 360.888 271.806C360.888 272.296 361.196 272.562 362.4 272.73L363.38 272.856C365.368 273.094 366.18 273.626 366.18 274.97C366.18 276.314 365.018 277.154 362.806 277.168C360.692 277.154 359.656 276.342 359.544 275.012H360.944Z" fill="white"/>
<rect x="79" y="59.5" width="139" height="90.3333" rx="7.5" fill="#131441"/>
<rect x="79" y="59.5" width="139" height="90.3333" rx="7.5" stroke="#5F5FFF"/>
<mask id="mask0_4666_8337" style="mask-type:alpha" maskUnits="userSpaceOnUse" x="131" y="73" width="35" height="36">
<rect x="131" y="73.667" width="35" height="35" fill="#D9D9D9"/>
</mask>
<g mask="url(#mask0_4666_8337)">
<path d="M141.208 98.4587H144.125V91.167H141.208V98.4587ZM152.875 98.4587H155.792V83.8753H152.875V98.4587ZM147.042 98.4587H149.958V94.0837H147.042V98.4587ZM147.042 91.167H149.958V88.2503H147.042V91.167ZM138.292 104.292C137.49 104.292 136.803 104.006 136.232 103.435C135.661 102.864 135.375 102.177 135.375 101.375V80.9587C135.375 80.1566 135.661 79.4699 136.232 78.8988C136.803 78.3276 137.49 78.042 138.292 78.042H158.708C159.51 78.042 160.197 78.3276 160.768 78.8988C161.339 79.4699 161.625 80.1566 161.625 80.9587V101.375C161.625 102.177 161.339 102.864 160.768 103.435C160.197 104.006 159.51 104.292 158.708 104.292H138.292ZM138.292 101.375H158.708V80.9587H138.292V101.375Z" fill="#877BF1"/>
</g>
<path d="M126.96 131.667L125.518 131.653V121.867H129.424C131.51 121.867 133.428 122.497 133.428 124.723C133.428 125.941 132.826 126.823 131.608 127.299L134.072 131.667H132.392L130.194 127.621C129.928 127.649 129.662 127.663 129.382 127.663H126.96V131.667ZM126.96 126.319H129.494C131.412 126.319 131.944 125.801 131.944 124.723C131.944 123.701 131.37 123.211 129.382 123.211H126.96V126.319ZM140.499 127.481C140.387 126.305 139.561 125.605 138.105 125.605C136.677 125.605 135.837 126.305 135.739 127.481H140.499ZM134.227 128.111C134.227 125.773 135.781 124.373 138.147 124.373C140.527 124.373 142.039 125.759 142.025 128.097L142.011 128.545H135.683C135.781 129.791 136.565 130.589 138.105 130.589C139.449 130.589 140.219 130.029 140.471 129.063H141.927C141.507 130.883 140.079 131.835 138.105 131.835C135.683 131.835 134.227 130.435 134.227 128.111ZM143.209 134.047V124.667H144.553V125.619C145.085 124.779 146.009 124.373 147.129 124.373C149.397 124.373 150.685 125.843 150.685 128.083C150.685 130.393 149.271 131.835 146.989 131.835C146.023 131.835 145.141 131.527 144.553 130.743V134.047H143.209ZM144.539 128.349C144.539 129.749 145.295 130.589 146.891 130.589C148.375 130.589 149.271 129.791 149.271 128.083C149.271 126.347 148.291 125.605 146.989 125.605C145.421 125.605 144.539 126.501 144.539 127.775V128.349ZM155.578 131.835C153.156 131.835 151.7 130.435 151.7 128.111C151.7 125.773 153.254 124.373 155.62 124.373C158 124.373 159.498 125.759 159.498 128.097C159.498 130.407 157.972 131.835 155.578 131.835ZM153.1 128.111C153.1 129.637 153.884 130.589 155.578 130.589C157.3 130.589 158.098 129.623 158.098 128.097C158.098 126.571 157.3 125.605 155.578 125.605C153.884 125.605 153.1 126.557 153.1 128.111ZM160.682 131.667V124.667H162.026V125.535C162.782 124.583 164.112 124.345 165.162 124.583L164.98 125.843C163.636 125.577 162.026 126.039 162.026 127.453V131.667H160.682ZM169.828 131.779C168.12 131.779 167.616 130.827 167.56 129.385V125.885H166.356V124.667H167.56V122.063H168.918V124.667H171.228V125.885H168.918V129.497C168.918 130.743 170.136 130.617 171.158 130.393L171.48 131.471C170.808 131.695 170.374 131.779 169.828 131.779Z" fill="white"/>
<rect x="79" y="172.833" width="139" height="90.3333" rx="7.5" fill="#131441"/>
<rect x="79" y="172.833" width="139" height="90.3333" rx="7.5" stroke="#5F5FFF"/>
<mask id="mask1_4666_8337" style="mask-type:alpha" maskUnits="userSpaceOnUse" x="131" y="187" width="35" height="35">
<rect x="131" y="187" width="35" height="35" fill="#D9D9D9"/>
</mask>
<g mask="url(#mask1_4666_8337)">
<path d="M149.958 200.125V191.375H161.625V200.125H149.958ZM135.375 205.958V191.375H147.042V205.958H135.375ZM149.958 217.625V203.042H161.625V217.625H149.958ZM135.375 217.625V208.875H147.042V217.625H135.375ZM138.292 203.042H144.125V194.292H138.292V203.042ZM152.875 214.708H158.708V205.958H152.875V214.708ZM152.875 197.208H158.708V194.292H152.875V197.208ZM138.292 214.708H144.125V211.792H138.292V214.708Z" fill="#877BF1"/>
</g>
<path d="M112.537 245V235.2H116.499C119.747 235.2 121.721 236.838 121.721 240.044C121.721 243.334 119.621 245 116.191 245H112.537ZM113.993 243.656H116.205C118.991 243.656 120.223 242.396 120.223 240.072C120.223 237.748 119.089 236.558 116.499 236.558H113.993V243.656ZM123.169 240.198C123.225 238.49 124.247 237.734 126.389 237.706C128.657 237.706 129.581 238.644 129.581 240.408V245H128.237V244.062C127.719 244.664 126.977 245.126 125.689 245.112C123.953 245.098 122.763 244.356 122.763 242.858C122.763 240.884 124.807 240.576 126.893 240.548L128.223 240.52V240.338C128.223 239.33 127.817 238.91 126.389 238.91C125.045 238.91 124.597 239.302 124.541 240.198H123.169ZM124.135 242.872C124.135 243.502 124.583 243.908 125.801 243.908C127.257 243.908 128.223 243.376 128.223 242.34V241.57L126.991 241.612C124.779 241.682 124.135 242.018 124.135 242.872ZM132.244 243.012C132.328 243.6 132.874 243.908 134.106 243.936C135.436 243.936 136.08 243.614 136.08 242.97C136.08 242.466 135.856 242.116 134.526 241.934L133.644 241.822C131.754 241.584 130.872 241.122 130.872 239.806C130.872 238.518 132.09 237.706 134.036 237.706C135.912 237.706 137.046 238.462 137.228 239.708H135.884C135.786 239.176 135.198 238.924 134.036 238.91C132.832 238.924 132.188 239.26 132.188 239.806C132.188 240.296 132.496 240.562 133.7 240.73L134.68 240.856C136.668 241.094 137.48 241.626 137.48 242.97C137.48 244.314 136.318 245.154 134.106 245.168C131.992 245.154 130.956 244.342 130.844 243.012H132.244ZM138.664 245V235.2H140.008V238.756C140.764 238.014 141.66 237.706 142.654 237.706C144.53 237.706 145.496 238.63 145.496 240.352V245H144.138V240.646C144.138 239.512 143.69 238.966 142.472 238.966C141.254 238.966 140.008 239.596 140.008 240.87V245H138.664ZM150.469 245.168C149.517 245.168 148.691 244.748 148.033 244.174V245H146.689V235.2H148.033V238.854C148.649 238.084 149.489 237.706 150.609 237.706C152.877 237.706 154.165 239.176 154.165 241.416C154.165 243.726 152.751 245.168 150.469 245.168ZM148.019 241.682C148.019 243.166 148.845 243.922 150.371 243.922C151.855 243.922 152.751 243.124 152.751 241.416C152.751 239.68 151.771 238.938 150.469 238.938C148.985 238.938 148.019 239.778 148.019 241.108V241.682ZM159.057 245.168C156.635 245.168 155.179 243.768 155.179 241.444C155.179 239.106 156.733 237.706 159.099 237.706C161.479 237.706 162.977 239.092 162.977 241.43C162.977 243.74 161.451 245.168 159.057 245.168ZM156.579 241.444C156.579 242.97 157.363 243.922 159.057 243.922C160.779 243.922 161.577 242.956 161.577 241.43C161.577 239.904 160.779 238.938 159.057 238.938C157.363 238.938 156.579 239.89 156.579 241.444ZM164.431 240.198C164.487 238.49 165.509 237.734 167.651 237.706C169.919 237.706 170.843 238.644 170.843 240.408V245H169.499V244.062C168.981 244.664 168.239 245.126 166.951 245.112C165.215 245.098 164.025 244.356 164.025 242.858C164.025 240.884 166.069 240.576 168.155 240.548L169.485 240.52V240.338C169.485 239.33 169.079 238.91 167.651 238.91C166.307 238.91 165.859 239.302 165.803 240.198H164.431ZM165.397 242.872C165.397 243.502 165.845 243.908 167.063 243.908C168.519 243.908 169.485 243.376 169.485 242.34V241.57L168.253 241.612C166.041 241.682 165.397 242.018 165.397 242.872ZM172.091 245V238H173.435V238.868C174.191 237.916 175.521 237.678 176.571 237.916L176.389 239.176C175.045 238.91 173.435 239.372 173.435 240.786V245H172.091ZM180.555 245.168C178.329 245.182 177.013 243.698 177.013 241.444C177.013 239.106 178.441 237.706 180.695 237.706C181.647 237.706 182.529 237.986 183.117 238.756V235.2H184.461V245H183.131V243.95C182.585 244.734 181.801 245.154 180.555 245.168ZM178.399 241.444C178.399 243.11 179.365 243.908 180.695 243.908C182.221 243.908 183.159 243.096 183.159 241.738V241.178C183.159 239.694 182.305 238.938 180.807 238.938C179.323 238.938 178.399 239.736 178.399 241.444Z" fill="white"/>
<rect x="79" y="286.167" width="139" height="90.3333" rx="7.5" fill="#131441"/>
<rect x="79" y="286.167" width="139" height="90.3333" rx="7.5" stroke="#5F5FFF"/>
<mask id="mask2_4666_8337" style="mask-type:alpha" maskUnits="userSpaceOnUse" x="131" y="300" width="35" height="36">
<rect x="131" y="300.334" width="35" height="35" fill="#D9D9D9"/>
</mask>
<g mask="url(#mask2_4666_8337)">
<path d="M136.831 325.125C136.029 325.125 135.342 324.839 134.771 324.268C134.2 323.697 133.914 323.01 133.914 322.208V310.76C133.914 310.396 134.017 310.037 134.224 309.685C134.431 309.332 134.716 309.059 135.081 308.865L146.31 303.25L157.32 308.865C157.612 309.01 157.861 309.241 158.068 309.557C158.274 309.873 158.414 310.201 158.487 310.542H154.221L146.31 306.531L136.831 311.234V325.125ZM141.206 330.958C140.404 330.958 139.717 330.673 139.146 330.102C138.575 329.53 138.289 328.844 138.289 328.042V314.917C138.289 314.115 138.575 313.428 139.146 312.857C139.717 312.286 140.404 312 141.206 312H160.164C160.966 312 161.653 312.286 162.224 312.857C162.795 313.428 163.081 314.115 163.081 314.917V328.042C163.081 328.844 162.795 329.53 162.224 330.102C161.653 330.673 160.966 330.958 160.164 330.958H141.206ZM150.685 322.719L141.206 317.833V328.042H160.164V317.833L150.685 322.719ZM150.685 319.802L160.164 314.917H141.206L150.685 319.802Z" fill="#877BF1"/>
</g>
<path d="M132.115 358.334V348.534H139.325V349.906H133.571V352.552H139.101V353.91H133.571V356.976H139.325V358.334H132.115ZM140.509 358.334V351.306H141.853V352.174C142.469 351.446 143.365 351.04 144.219 351.04C145.353 351.04 146.081 351.418 146.473 352.244C147.187 351.446 148.139 351.04 149.175 351.04C150.855 351.04 151.793 351.88 151.793 353.546V358.334H150.421V353.854C150.421 352.776 150.057 352.3 148.993 352.3C148.055 352.3 146.837 352.79 146.837 353.938V358.334H145.479V353.854C145.479 352.804 145.087 352.3 144.037 352.3C142.973 352.3 141.853 353 141.853 354.162V358.334H140.509ZM153.329 353.532C153.385 351.824 154.407 351.068 156.549 351.04C158.817 351.04 159.741 351.978 159.741 353.742V358.334H158.397V357.396C157.879 357.998 157.137 358.46 155.849 358.446C154.113 358.432 152.923 357.69 152.923 356.192C152.923 354.218 154.967 353.91 157.053 353.882L158.383 353.854V353.672C158.383 352.664 157.977 352.244 156.549 352.244C155.205 352.244 154.757 352.636 154.701 353.532H153.329ZM154.295 356.206C154.295 356.836 154.743 357.242 155.961 357.242C157.417 357.242 158.383 356.71 158.383 355.674V354.904L157.151 354.946C154.939 355.016 154.295 355.352 154.295 356.206ZM161.004 358.334V351.306H162.348V358.334H161.004ZM160.99 350.186V348.534H162.362V350.186H160.99ZM163.546 358.334V348.534H164.89V358.334H163.546Z" fill="white"/>
<rect x="412" y="59.5" width="139" height="91" rx="7.5" fill="#131441"/>
<rect x="412" y="59.5" width="139" height="91" rx="7.5" stroke="#5F5FFF"/>
<mask id="mask3_4666_8337" style="mask-type:alpha" maskUnits="userSpaceOnUse" x="464" y="74" width="35" height="35">
<rect x="464" y="74" width="35" height="35" fill="#D9D9D9"/>
</mask>
<g mask="url(#mask3_4666_8337)">
<path d="M472.75 106.083C471.535 106.083 470.502 105.657 469.651 104.807C468.8 103.956 468.375 102.923 468.375 101.708V97.3327H472.75V76.916L474.938 79.1035L477.125 76.916L479.312 79.1035L481.5 76.916L483.688 79.1035L485.875 76.916L488.062 79.1035L490.25 76.916L492.438 79.1035L494.625 76.916V101.708C494.625 102.923 494.2 103.956 493.349 104.807C492.498 105.657 491.465 106.083 490.25 106.083H472.75ZM490.25 103.166C490.663 103.166 491.01 103.026 491.289 102.747C491.569 102.467 491.708 102.121 491.708 101.708V81.291H475.667V97.3327H488.792V101.708C488.792 102.121 488.931 102.467 489.211 102.747C489.49 103.026 489.837 103.166 490.25 103.166ZM477.125 87.1243V84.2077H485.875V87.1243H477.125ZM477.125 91.4993V88.5827H485.875V91.4993H477.125ZM488.792 87.1243C488.378 87.1243 488.032 86.9846 487.753 86.7051C487.473 86.4256 487.333 86.0792 487.333 85.666C487.333 85.2528 487.473 84.9065 487.753 84.627C488.032 84.3474 488.378 84.2077 488.792 84.2077C489.205 84.2077 489.551 84.3474 489.831 84.627C490.11 84.9065 490.25 85.2528 490.25 85.666C490.25 86.0792 490.11 86.4256 489.831 86.7051C489.551 86.9846 489.205 87.1243 488.792 87.1243ZM488.792 91.4993C488.378 91.4993 488.032 91.3596 487.753 91.0801C487.473 90.8006 487.333 90.4542 487.333 90.041C487.333 89.6278 487.473 89.2815 487.753 89.002C488.032 88.7224 488.378 88.5827 488.792 88.5827C489.205 88.5827 489.551 88.7224 489.831 89.002C490.11 89.2815 490.25 89.6278 490.25 90.041C490.25 90.4542 490.11 90.8006 489.831 91.0801C489.551 91.3596 489.205 91.4993 488.792 91.4993ZM472.75 103.166H485.875V100.249H471.292V101.708C471.292 102.121 471.431 102.467 471.711 102.747C471.99 103.026 472.337 103.166 472.75 103.166Z" fill="#877BF1"/>
</g>
<path d="M442.871 132L447.505 122.2H448.793L453.413 132H451.789L450.487 129.214H445.741L444.453 132H442.871ZM446.371 127.87H449.899L448.121 124.048L446.371 127.87ZM461.427 129.088C461.119 131.132 459.621 132.168 457.563 132.168C455.141 132.168 453.685 130.768 453.685 128.444C453.685 126.106 455.239 124.706 457.605 124.706C459.747 124.706 461.161 125.812 461.427 127.744H460.041C459.831 126.596 458.949 125.938 457.563 125.938C455.869 125.938 455.085 126.89 455.085 128.444C455.085 129.97 455.869 130.922 457.563 130.922C459.019 130.922 459.831 130.208 460.027 129.088H461.427ZM470.245 129.088C469.937 131.132 468.439 132.168 466.381 132.168C463.959 132.168 462.503 130.768 462.503 128.444C462.503 126.106 464.057 124.706 466.423 124.706C468.565 124.706 469.979 125.812 470.245 127.744H468.859C468.649 126.596 467.767 125.938 466.381 125.938C464.687 125.938 463.903 126.89 463.903 128.444C463.903 129.97 464.687 130.922 466.381 130.922C467.837 130.922 468.649 130.208 468.845 129.088H470.245ZM475.336 132.168C472.914 132.168 471.458 130.768 471.458 128.444C471.458 126.106 473.012 124.706 475.378 124.706C477.758 124.706 479.256 126.092 479.256 128.43C479.256 130.74 477.73 132.168 475.336 132.168ZM472.858 128.444C472.858 129.97 473.642 130.922 475.336 130.922C477.058 130.922 477.856 129.956 477.856 128.43C477.856 126.904 477.058 125.938 475.336 125.938C473.642 125.938 472.858 126.89 472.858 128.444ZM483.048 132.168C481.256 132.168 480.36 131.272 480.304 129.494V125H481.634V129.242C481.634 130.39 482.068 130.894 483.244 130.894C484.168 130.894 485.624 130.446 485.624 129.102V125H486.968V132H485.638V131.034C484.924 131.818 484.084 132.168 483.048 132.168ZM488.165 132V124.972H489.509V125.854C490.139 125.07 491.147 124.706 492.155 124.706C494.031 124.706 494.997 125.63 494.997 127.352V132H493.639V127.646C493.639 126.526 493.191 125.966 491.973 125.966C490.965 125.966 489.509 126.456 489.509 127.744V132H488.165ZM499.321 132.112C497.613 132.112 497.109 131.16 497.053 129.718V126.218H495.849V125H497.053V122.396H498.411V125H500.721V126.218H498.411V129.83C498.411 131.076 499.629 130.95 500.651 130.726L500.973 131.804C500.301 132.028 499.867 132.112 499.321 132.112ZM502.193 132V124.972H503.537V132H502.193ZM502.179 123.852V122.2H503.551V123.852H502.179ZM504.736 132V124.972H506.08V125.854C506.71 125.07 507.718 124.706 508.726 124.706C510.602 124.706 511.568 125.63 511.568 127.352V132H510.21V127.646C510.21 126.526 509.762 125.966 508.544 125.966C507.536 125.966 506.08 126.456 506.08 127.744V132H504.736ZM516.362 130.6C517.986 130.6 518.798 129.718 518.798 128.514V128.08C518.798 126.764 518.098 125.938 516.502 125.938C515.018 125.938 514.066 126.722 514.066 128.276C514.066 129.886 515.06 130.6 516.362 130.6ZM512.652 128.276C512.652 126.05 514.122 124.65 516.348 124.706C517.552 124.734 518.714 125.336 518.784 125.91V125H520.128V131.244C520.128 131.972 520.016 132.602 519.82 133.106C519.358 134.212 518.336 134.744 516.544 134.744C514.458 134.744 513.156 134.1 512.988 132.518H514.318C514.514 133.162 515.116 133.512 516.544 133.512C518.252 133.512 518.77 132.812 518.77 131.622V130.684C518.182 131.44 517.37 131.846 516.222 131.846C514.024 131.846 512.652 130.544 512.652 128.276Z" fill="white"/>
<rect x="412" y="173.5" width="139" height="91" rx="7.5" fill="#131441"/>
<rect x="412" y="173.5" width="139" height="91" rx="7.5" stroke="#5F5FFF"/>
<mask id="mask4_4666_8337" style="mask-type:alpha" maskUnits="userSpaceOnUse" x="464" y="188" width="35" height="35">
<rect x="464" y="188" width="35" height="35" fill="#D9D9D9"/>
</mask>
<g mask="url(#mask4_4666_8337)">
<path d="M496.081 220.083L490.247 214.249H475.664C474.862 214.249 474.175 213.964 473.604 213.393C473.033 212.821 472.747 212.135 472.747 211.333V209.874H488.789C489.591 209.874 490.278 209.589 490.849 209.018C491.42 208.446 491.706 207.76 491.706 206.958V196.749H493.164C493.966 196.749 494.653 197.035 495.224 197.606C495.795 198.177 496.081 198.864 496.081 199.666V220.083ZM469.831 205.755L471.544 204.041H485.872V193.833H469.831V205.755ZM466.914 212.791V193.833C466.914 193.031 467.2 192.344 467.771 191.773C468.342 191.202 469.029 190.916 469.831 190.916H485.872C486.674 190.916 487.361 191.202 487.932 191.773C488.503 192.344 488.789 193.031 488.789 193.833V204.041C488.789 204.843 488.503 205.53 487.932 206.101C487.361 206.672 486.674 206.958 485.872 206.958H472.747L466.914 212.791Z" fill="#877BF1"/>
</g>
<path d="M451.333 246V236.2H452.887L456.723 244.11L460.573 236.2H462.099V246H460.713V238.944L457.227 246H456.163L452.705 238.93V246H451.333ZM469.527 241.814C469.415 240.638 468.589 239.938 467.133 239.938C465.705 239.938 464.865 240.638 464.767 241.814H469.527ZM463.255 242.444C463.255 240.106 464.809 238.706 467.175 238.706C469.555 238.706 471.067 240.092 471.053 242.43L471.039 242.878H464.711C464.809 244.124 465.593 244.922 467.133 244.922C468.477 244.922 469.247 244.362 469.499 243.396H470.955C470.535 245.216 469.107 246.168 467.133 246.168C464.711 246.168 463.255 244.768 463.255 242.444ZM473.515 244.012C473.599 244.6 474.145 244.908 475.377 244.936C476.707 244.936 477.351 244.614 477.351 243.97C477.351 243.466 477.127 243.116 475.797 242.934L474.915 242.822C473.025 242.584 472.143 242.122 472.143 240.806C472.143 239.518 473.361 238.706 475.307 238.706C477.183 238.706 478.317 239.462 478.499 240.708H477.155C477.057 240.176 476.469 239.924 475.307 239.91C474.103 239.924 473.459 240.26 473.459 240.806C473.459 241.296 473.767 241.562 474.971 241.73L475.951 241.856C477.939 242.094 478.751 242.626 478.751 243.97C478.751 245.314 477.589 246.154 475.377 246.168C473.263 246.154 472.227 245.342 472.115 244.012H473.515ZM481.076 244.012C481.16 244.6 481.706 244.908 482.938 244.936C484.268 244.936 484.912 244.614 484.912 243.97C484.912 243.466 484.688 243.116 483.358 242.934L482.476 242.822C480.586 242.584 479.704 242.122 479.704 240.806C479.704 239.518 480.922 238.706 482.868 238.706C484.744 238.706 485.878 239.462 486.06 240.708H484.716C484.618 240.176 484.03 239.924 482.868 239.91C481.664 239.924 481.02 240.26 481.02 240.806C481.02 241.296 481.328 241.562 482.532 241.73L483.512 241.856C485.5 242.094 486.312 242.626 486.312 243.97C486.312 245.314 485.15 246.154 482.938 246.168C480.824 246.154 479.788 245.342 479.676 244.012H481.076ZM487.765 241.198C487.821 239.49 488.843 238.734 490.985 238.706C493.253 238.706 494.177 239.644 494.177 241.408V246H492.833V245.062C492.315 245.664 491.573 246.126 490.285 246.112C488.549 246.098 487.359 245.356 487.359 243.858C487.359 241.884 489.403 241.576 491.489 241.548L492.819 241.52V241.338C492.819 240.33 492.413 239.91 490.985 239.91C489.641 239.91 489.193 240.302 489.137 241.198H487.765ZM488.731 243.872C488.731 244.502 489.179 244.908 490.397 244.908C491.853 244.908 492.819 244.376 492.819 243.34V242.57L491.587 242.612C489.375 242.682 488.731 243.018 488.731 243.872ZM499.026 244.6C500.65 244.6 501.462 243.718 501.462 242.514V242.08C501.462 240.764 500.762 239.938 499.166 239.938C497.682 239.938 496.73 240.722 496.73 242.276C496.73 243.886 497.724 244.6 499.026 244.6ZM495.316 242.276C495.316 240.05 496.786 238.65 499.012 238.706C500.216 238.734 501.378 239.336 501.448 239.91V239H502.792V245.244C502.792 245.972 502.68 246.602 502.484 247.106C502.022 248.212 501 248.744 499.208 248.744C497.122 248.744 495.82 248.1 495.652 246.518H496.982C497.178 247.162 497.78 247.512 499.208 247.512C500.916 247.512 501.434 246.812 501.434 245.622V244.684C500.846 245.44 500.034 245.846 498.886 245.846C496.688 245.846 495.316 244.544 495.316 242.276ZM510.16 241.814C510.048 240.638 509.222 239.938 507.766 239.938C506.338 239.938 505.498 240.638 505.4 241.814H510.16ZM503.888 242.444C503.888 240.106 505.442 238.706 507.808 238.706C510.188 238.706 511.7 240.092 511.686 242.43L511.672 242.878H505.344C505.442 244.124 506.226 244.922 507.766 244.922C509.11 244.922 509.88 244.362 510.132 243.396H511.588C511.168 245.216 509.74 246.168 507.766 246.168C505.344 246.168 503.888 244.768 503.888 242.444Z" fill="white"/>
<rect x="412" y="287.5" width="139" height="91" rx="7.5" fill="#131441"/>
<rect x="412" y="287.5" width="139" height="91" rx="7.5" stroke="#5F5FFF"/>
<mask id="mask5_4666_8337" style="mask-type:alpha" maskUnits="userSpaceOnUse" x="464" y="302" width="35" height="35">
<rect x="464" y="302" width="35" height="35" fill="#D9D9D9"/>
</mask>
<g mask="url(#mask5_4666_8337)">
<path d="M466.914 332.625V329.708H496.081V332.625H466.914ZM468.372 328.25V318.042H472.747V328.25H468.372ZM475.664 328.25V310.75H480.039V328.25H475.664ZM482.956 328.25V315.125H487.331V328.25H482.956ZM490.247 328.25V306.375H494.622V328.25H490.247Z" fill="#877BF1"/>
</g>
<path d="M449.597 360L454.231 350.2H455.519L460.139 360H458.515L457.213 357.214H452.467L451.179 360H449.597ZM453.097 355.87H456.625L454.847 352.048L453.097 355.87ZM461.328 360V352.972H462.672V353.854C463.302 353.07 464.31 352.706 465.318 352.706C467.194 352.706 468.16 353.63 468.16 355.352V360H466.802V355.646C466.802 354.526 466.354 353.966 465.136 353.966C464.128 353.966 462.672 354.456 462.672 355.744V360H461.328ZM469.704 355.198C469.76 353.49 470.782 352.734 472.924 352.706C475.192 352.706 476.116 353.644 476.116 355.408V360H474.772V359.062C474.254 359.664 473.512 360.126 472.224 360.112C470.488 360.098 469.298 359.356 469.298 357.858C469.298 355.884 471.342 355.576 473.428 355.548L474.758 355.52V355.338C474.758 354.33 474.352 353.91 472.924 353.91C471.58 353.91 471.132 354.302 471.076 355.198H469.704ZM470.67 357.872C470.67 358.502 471.118 358.908 472.336 358.908C473.792 358.908 474.758 358.376 474.758 357.34V356.57L473.526 356.612C471.314 356.682 470.67 357.018 470.67 357.872ZM477.365 360V350.2H478.709V360H477.365ZM481.856 362.52C481.45 362.52 481.044 362.478 480.526 362.268L480.848 361.134C481.828 361.4 482.43 361.344 482.948 360.266L483.186 359.762C483.256 359.58 483.256 359.44 483.172 359.286L479.798 352.958H481.394L483.998 358.11L486.378 352.958H487.89L484.194 360.63C483.578 361.918 483.046 362.52 481.856 362.52ZM492.458 360.112C490.75 360.112 490.246 359.16 490.19 357.718V354.218H488.986V353H490.19V350.396H491.548V353H493.858V354.218H491.548V357.83C491.548 359.076 492.766 358.95 493.788 358.726L494.11 359.804C493.438 360.028 493.004 360.112 492.458 360.112ZM495.33 360V352.972H496.674V360H495.33ZM495.316 351.852V350.2H496.688V351.852H495.316ZM505.56 357.088C505.252 359.132 503.754 360.168 501.696 360.168C499.274 360.168 497.818 358.768 497.818 356.444C497.818 354.106 499.372 352.706 501.738 352.706C503.88 352.706 505.294 353.812 505.56 355.744H504.174C503.964 354.596 503.082 353.938 501.696 353.938C500.002 353.938 499.218 354.89 499.218 356.444C499.218 357.97 500.002 358.922 501.696 358.922C503.152 358.922 503.964 358.208 504.16 357.088H505.56ZM508.187 358.012C508.271 358.6 508.817 358.908 510.049 358.936C511.379 358.936 512.023 358.614 512.023 357.97C512.023 357.466 511.799 357.116 510.469 356.934L509.587 356.822C507.697 356.584 506.815 356.122 506.815 354.806C506.815 353.518 508.033 352.706 509.979 352.706C511.855 352.706 512.989 353.462 513.171 354.708H511.827C511.729 354.176 511.141 353.924 509.979 353.91C508.775 353.924 508.131 354.26 508.131 354.806C508.131 355.296 508.439 355.562 509.643 355.73L510.623 355.856C512.611 356.094 513.423 356.626 513.423 357.97C513.423 359.314 512.261 360.154 510.049 360.168C507.935 360.154 506.899 359.342 506.787 358.012H508.187Z" fill="white"/>
<rect x="275.859" y="174.859" width="77.2826" height="77.2826" rx="38.6413" fill="#080A86"/>
<rect x="275.859" y="174.859" width="77.2826" height="77.2826" rx="38.6413" stroke="#5F5FFF" stroke-width="1.71739"/>
<path d="M312.748 236.187C312.193 235.957 311.686 235.632 311.226 235.211L292.79 216.774C292.369 216.315 292.043 215.807 291.813 215.252C291.584 214.697 291.469 214.113 291.469 213.5C291.469 212.888 291.584 212.294 291.813 211.72C292.043 211.145 292.369 210.648 292.79 210.226L311.226 191.79C311.686 191.33 312.193 190.995 312.748 190.785C313.304 190.574 313.888 190.469 314.5 190.469C315.113 190.469 315.706 190.574 316.281 190.785C316.855 190.995 317.353 191.33 317.774 191.79L336.211 210.226C336.67 210.648 337.005 211.145 337.216 211.72C337.426 212.294 337.532 212.888 337.532 213.5C337.532 214.113 337.426 214.697 337.216 215.252C337.005 215.807 336.67 216.315 336.211 216.774L317.774 235.211C317.353 235.632 316.855 235.957 316.281 236.187C315.706 236.417 315.113 236.532 314.5 236.532C313.888 236.532 313.304 236.417 312.748 236.187ZM314.5 231.937L332.937 213.5L314.5 195.064L296.064 213.5L314.5 231.937ZM312.203 215.798H316.798V202.013H312.203V215.798ZM316.137 222.029C316.577 221.589 316.798 221.043 316.798 220.392C316.798 219.741 316.577 219.196 316.137 218.756C315.697 218.315 315.151 218.095 314.5 218.095C313.849 218.095 313.304 218.315 312.863 218.756C312.423 219.196 312.203 219.741 312.203 220.392C312.203 221.043 312.423 221.589 312.863 222.029C313.304 222.47 313.849 222.69 314.5 222.69C315.151 222.69 315.697 222.47 316.137 222.029Z" fill="#F51216"/>
</svg>
