<svg width="629" height="427" viewBox="0 0 629 427" fill="none" xmlns="http://www.w3.org/2000/svg">
<path d="M0 16C0 7.16343 7.16344 0 16 0H613C621.837 0 629 7.16344 629 16V411C629 419.837 621.837 427 613 427H16C7.16343 427 0 419.837 0 411V16Z" fill="#371C93"/>
<mask id="path-2-inside-1_4666_8375" fill="white">
<path d="M23 86C23 81.5817 26.5817 78 31 78H193.333C197.752 78 201.333 81.5817 201.333 86V396C201.333 400.418 197.752 404 193.333 404H31C26.5817 404 23 400.418 23 396V86Z"/>
</mask>
<path d="M23 86C23 81.5817 26.5817 78 31 78H193.333C197.752 78 201.333 81.5817 201.333 86V396C201.333 400.418 197.752 404 193.333 404H31C26.5817 404 23 400.418 23 396V86Z" fill="#131441"/>
<path d="M31 78V78.8129H193.333V78V77.1871H31V78ZM201.333 86H200.52V396H201.333H202.146V86H201.333ZM193.333 404V403.187H31V404V404.813H193.333V404ZM23 396H23.8129V86H23H22.1871V396H23ZM31 404V403.187C27.0307 403.187 23.8129 399.969 23.8129 396H23H22.1871C22.1871 400.867 26.1327 404.813 31 404.813V404ZM201.333 396H200.52C200.52 399.969 197.303 403.187 193.333 403.187V404V404.813C198.201 404.813 202.146 400.867 202.146 396H201.333ZM193.333 78V78.8129C197.303 78.8129 200.52 82.0307 200.52 86H201.333H202.146C202.146 81.1328 198.201 77.1871 193.333 77.1871V78ZM31 78V77.1871C26.1328 77.1871 22.1871 81.1328 22.1871 86H23H23.8129C23.8129 82.0307 27.0307 78.8129 31 78.8129V78Z" fill="#7A63C0" fill-opacity="0.3" mask="url(#path-2-inside-1_4666_8375)"/>
<mask id="path-4-inside-2_4666_8375" fill="white">
<path d="M39.8125 104.812C39.8125 99.2896 44.2897 94.8125 49.8125 94.8125H77.8005C83.3233 94.8125 87.8005 99.2897 87.8005 104.813V132.8C87.8005 138.323 83.3233 142.8 77.8005 142.8H49.8125C44.2896 142.8 39.8125 138.323 39.8125 132.8V104.812Z"/>
</mask>
<path d="M39.8125 104.812C39.8125 99.2896 44.2897 94.8125 49.8125 94.8125H77.8005C83.3233 94.8125 87.8005 99.2897 87.8005 104.813V132.8C87.8005 138.323 83.3233 142.8 77.8005 142.8H49.8125C44.2896 142.8 39.8125 138.323 39.8125 132.8V104.812Z" fill="url(#paint0_linear_4666_8375)"/>
<path d="M49.8125 94.8125V95.6254H77.8005V94.8125V93.9996H49.8125V94.8125ZM87.8005 104.813H86.9876V132.8H87.8005H88.6134V104.813H87.8005ZM77.8005 142.8V141.988H49.8125V142.8V143.613H77.8005V142.8ZM39.8125 132.8H40.6254V104.812H39.8125H38.9996V132.8H39.8125ZM49.8125 142.8V141.988C44.7386 141.988 40.6254 137.874 40.6254 132.8H39.8125H38.9996C38.9996 138.772 43.8407 143.613 49.8125 143.613V142.8ZM87.8005 132.8H86.9876C86.9876 137.874 82.8744 141.988 77.8005 141.988V142.8V143.613C83.7723 143.613 88.6134 138.772 88.6134 132.8H87.8005ZM77.8005 94.8125V95.6254C82.8744 95.6254 86.9876 99.7386 86.9876 104.813H87.8005H88.6134C88.6134 98.8407 83.7723 93.9996 77.8005 93.9996V94.8125ZM49.8125 94.8125V93.9996C43.8407 93.9996 38.9996 98.8407 38.9996 104.812H39.8125H40.6254C40.6254 99.7386 44.7386 95.6254 49.8125 95.6254V94.8125Z" fill="#20CEFF" fill-opacity="0.3" mask="url(#path-4-inside-2_4666_8375)"/>
<path d="M59.8086 128.805C60.3609 128.805 60.8086 128.357 60.8086 127.805C60.8086 127.252 60.3609 126.805 59.8086 126.805C59.2563 126.805 58.8086 127.252 58.8086 127.805C58.8086 128.357 59.2563 128.805 59.8086 128.805Z" stroke="#20CEFF" stroke-width="1.9995" stroke-linecap="round" stroke-linejoin="round"/>
<path d="M70.8047 128.805C71.357 128.805 71.8047 128.357 71.8047 127.805C71.8047 127.252 71.357 126.805 70.8047 126.805C70.2524 126.805 69.8047 127.252 69.8047 127.805C69.8047 128.357 70.2524 128.805 70.8047 128.805Z" stroke="#20CEFF" stroke-width="1.9995" stroke-linecap="round" stroke-linejoin="round"/>
<path d="M53.8594 108.859H55.8589L58.5182 121.276C58.6158 121.731 58.8688 122.138 59.2337 122.426C59.5987 122.714 60.0527 122.866 60.5177 122.856H70.2953C70.7503 122.855 71.1915 122.699 71.546 122.414C71.9004 122.128 72.1469 121.731 72.2448 121.286L73.8944 113.858H56.9286" stroke="#20CEFF" stroke-width="1.9995" stroke-linecap="round" stroke-linejoin="round"/>
<mask id="path-9-inside-3_4666_8375" fill="white">
<path d="M162.52 118.807C162.52 112.732 167.444 107.807 173.52 107.807C179.595 107.807 184.52 112.732 184.52 118.807C184.52 124.882 179.595 129.807 173.52 129.807C167.444 129.807 162.52 124.882 162.52 118.807Z"/>
</mask>
<path d="M162.52 118.807C162.52 112.732 167.444 107.807 173.52 107.807C179.595 107.807 184.52 112.732 184.52 118.807C184.52 124.882 179.595 129.807 173.52 129.807C167.444 129.807 162.52 124.882 162.52 118.807Z" fill="#00C950" fill-opacity="0.2"/>
<path d="M162.52 118.807M184.52 118.807M184.52 118.807M162.52 118.807M173.52 107.807M184.52 118.807M173.52 129.807M162.52 118.807M173.52 129.807V128.994C167.893 128.994 163.332 124.433 163.332 118.807H162.52H161.707C161.707 125.331 166.995 130.62 173.52 130.62V129.807ZM184.52 118.807H183.707C183.707 124.433 179.146 128.994 173.52 128.994V129.807V130.62C180.044 130.62 185.332 125.331 185.332 118.807H184.52ZM173.52 107.807V108.62C179.146 108.62 183.707 113.18 183.707 118.807H184.52H185.332C185.332 112.283 180.044 106.994 173.52 106.994V107.807ZM173.52 107.807V106.994C166.995 106.994 161.707 112.283 161.707 118.807H162.52H163.332C163.332 113.18 167.893 108.62 173.52 108.62V107.807Z" fill="#00C950" fill-opacity="0.3" mask="url(#path-9-inside-3_4666_8375)"/>
<g clip-path="url(#clip0_4666_8375)">
<path d="M178.516 116.309L174.269 120.555L171.771 118.057L168.523 121.305" stroke="#05DF72" stroke-width="0.999217" stroke-linecap="round" stroke-linejoin="round"/>
<path d="M175.516 116.309H178.513V119.306" stroke="#05DF72" stroke-width="0.999217" stroke-linecap="round" stroke-linejoin="round"/>
</g>
<path d="M45.5245 189.257C42.4445 189.257 40.3725 187.367 40.3725 184.175C40.3725 180.969 42.4725 179.065 45.5245 179.065C48.6325 179.065 50.7045 180.955 50.7045 184.147C50.7045 187.353 48.6605 189.257 45.5245 189.257ZM42.0525 184.175C42.0525 186.457 43.2145 187.717 45.5245 187.717C47.8625 187.717 49.0245 186.429 49.0245 184.175C49.0245 181.879 47.8345 180.605 45.5245 180.605C43.2285 180.605 42.0525 181.851 42.0525 184.175ZM51.6791 189.089V179.289H53.3871L57.0691 186.877L60.7651 179.289H62.4311V189.089H60.8631V182.551L57.6291 189.089H56.4531L53.2471 182.537V189.089H51.6791ZM67.7499 189.257C64.6699 189.257 63.3399 187.983 63.4239 185.911L65.1599 185.883C65.1599 187.199 65.8599 187.717 67.7499 187.717C69.4999 187.717 70.2699 187.185 70.2699 186.303C70.2699 185.519 69.9759 185.183 68.1699 184.931L66.8679 184.749C64.6839 184.455 63.4239 183.713 63.4239 181.893C63.4239 180.101 64.9219 179.107 67.5259 179.065C70.3259 179.093 71.7119 180.227 71.6419 182.257H69.9479C69.9479 181.067 69.1499 180.591 67.5259 180.591C65.8459 180.591 65.0759 181.067 65.0759 181.865C65.0759 182.635 65.4399 182.929 67.0499 183.167L68.4219 183.363C70.8299 183.713 71.9779 184.525 71.9779 186.317C71.9779 188.095 70.4939 189.257 67.7639 189.257H67.7499Z" fill="#D1D5DC"/>
<path d="M40.7965 218.824C42.2605 217.768 43.6045 216.664 44.9005 215.608C46.1485 214.672 47.0605 213.904 47.7085 213.304C49.0525 212.056 49.3885 211.408 49.3885 210.448C49.3885 209.224 48.8605 208.744 47.0365 208.744C44.8765 208.744 44.6605 209.44 44.7325 211.504H41.1085C41.1085 207.256 43.4605 205.096 47.0365 205.096C50.7085 205.096 52.9645 207.256 52.9645 210.352C52.9645 213.016 51.4045 214.696 49.8925 216.064C49.1965 216.736 49.4125 216.496 47.7325 217.888L47.3005 218.2H52.8205V221.848H40.7965V218.824ZM54.9996 224.032C55.7436 223.096 56.1036 222.28 56.1036 221.368V219.208H58.3596V221.152C58.3596 222.568 57.6156 224.152 56.5836 225.064L54.9996 224.032ZM67.2063 222.16C62.9583 222.16 60.3903 220.192 60.3903 216.928C60.3903 215.416 61.1343 214.192 62.2623 213.4C61.4223 212.608 60.9183 211.528 60.9183 210.184C60.9183 207.16 63.2703 205.096 67.2063 205.096C71.1663 205.096 73.4943 207.136 73.4943 210.184C73.4943 211.528 72.9662 212.608 72.1503 213.376C73.2783 214.168 74.0223 215.368 74.0223 216.928C74.0223 220.192 71.4543 222.16 67.2063 222.16ZM63.9423 216.952C63.9423 218.08 64.6863 218.656 67.2303 218.656C69.7503 218.656 70.4463 218.08 70.4463 216.928C70.4463 215.8 69.8703 215.32 67.2303 215.32C64.5903 215.32 63.9423 215.824 63.9423 216.952ZM64.3983 210.208C64.3983 211.312 64.9743 211.768 67.2063 211.768C69.4383 211.768 70.0143 211.312 70.0143 210.208C70.0143 209.152 69.4383 208.648 67.2063 208.648C64.9983 208.648 64.3983 209.176 64.3983 210.208ZM83.659 221.8V218.128H75.859V215.368L84.259 205.168H87.139V214.528H89.395V218.128H87.139V221.8H83.659ZM81.067 214.48H82.051L83.731 214.504V211.12L81.067 214.48ZM92.5414 221.848C93.9574 217.216 95.6374 213.064 97.9654 208.888H89.7574V205.168H102.597V207.928C99.8614 212.368 97.7734 217 96.3814 221.848H92.5414Z" fill="white"/>
<path d="M58.4258 282.355C63.5206 279.905 68.6154 277.456 73.7112 277.456C78.806 277.456 83.9008 287.255 88.9956 287.255C94.0914 287.255 99.1862 268.356 104.281 268.356C109.376 268.356 114.472 273.256 119.566 273.256C124.661 273.256 129.756 263.456 134.852 263.456C139.947 263.456 145.041 266.256 150.136 266.256C155.232 266.256 160.327 260.306 165.422 254.356V313.854C160.327 313.854 155.232 313.854 150.136 313.854C145.041 313.854 139.947 313.854 134.852 313.854C129.756 313.854 124.661 313.854 119.566 313.854C114.472 313.854 109.376 313.854 104.281 313.854C99.1862 313.854 94.0914 313.854 88.9956 313.854C83.9008 313.854 78.806 313.854 73.7112 313.854C68.6154 313.854 63.5206 313.854 58.4258 313.854V282.355Z" fill="url(#paint1_linear_4666_8375)" fill-opacity="0.6"/>
<path d="M58.4258 282.355C63.5206 279.905 68.6154 277.456 73.7112 277.456C78.806 277.456 83.9008 287.255 88.9956 287.255C94.0914 287.255 99.1862 268.356 104.281 268.356C109.376 268.356 114.472 273.256 119.566 273.256C124.661 273.256 129.756 263.456 134.852 263.456C139.947 263.456 145.041 266.256 150.136 266.256C155.232 266.256 160.327 260.306 165.422 254.356" stroke="#20CEFF" stroke-width="1.99992"/>
<path d="M42.5365 367.152V364.692H40.3645V363.696H42.5365V361.428H43.5925V363.696H45.7645V364.692H43.5925V367.152H42.5365ZM49.4844 367.98V360.972L47.3964 361.98L46.8684 361.02L49.7124 359.616H50.6724V367.98H49.4844ZM55.2226 368.172C53.0146 368.172 51.7786 367.236 51.7786 365.712C51.7786 364.8 52.4026 364.128 53.2546 363.828C52.5466 363.492 52.0666 362.88 52.0666 362.016C52.0666 360.612 53.1946 359.64 55.2226 359.64C57.2626 359.64 58.3666 360.6 58.3666 362.016C58.3666 362.88 57.8866 363.492 57.1906 363.792C58.0426 364.116 58.6666 364.776 58.6666 365.712C58.6666 367.236 57.4186 368.172 55.2226 368.172ZM52.9786 365.724C52.9786 366.54 53.6626 367.056 55.2346 367.056C56.8066 367.056 57.4546 366.54 57.4546 365.712C57.4546 364.896 56.8666 364.416 55.2346 364.416C53.6026 364.416 52.9786 364.908 52.9786 365.724ZM53.2306 362.04C53.2306 362.844 53.8306 363.288 55.2226 363.288C56.6146 363.288 57.2146 362.844 57.2146 362.028C57.2146 361.272 56.6386 360.756 55.2226 360.756C53.8186 360.756 53.2306 361.284 53.2306 362.04ZM59.7708 367.488C59.7708 366.564 61.1988 366.552 61.1988 367.488C61.1988 368.412 59.7708 368.412 59.7708 367.488ZM62.302 366.948C63.058 366.408 63.778 365.856 64.462 365.316C65.17 364.8 65.698 364.368 66.07 364.032C66.874 363.3 67.15 362.796 67.15 362.16C67.15 361.284 66.586 360.816 65.422 360.816C64.222 360.816 63.73 361.32 63.706 362.328H62.482C62.518 360.636 63.634 359.64 65.422 359.64C67.258 359.64 68.362 360.636 68.362 362.112C68.362 363.372 67.594 364.2 66.766 364.932C66.37 365.28 66.13 365.46 65.422 366.024L64.33 366.816H68.278V367.98H62.302V366.948ZM71.8022 368.04L74.9222 359.94H76.0382L72.9302 368.04H71.8022ZM69.4622 362.16C69.4622 360.588 70.2062 359.784 71.4302 359.784C72.6422 359.784 73.3622 360.588 73.3622 362.16C73.3622 363.72 72.6302 364.512 71.4062 364.512C70.1822 364.512 69.4622 363.72 69.4622 362.16ZM70.4822 362.172C70.4822 363.048 70.7462 363.456 71.4182 363.456C72.0782 363.456 72.3302 363.048 72.3302 362.172C72.3302 361.272 72.0782 360.864 71.4182 360.864C70.7462 360.864 70.4822 361.272 70.4822 362.172ZM74.5862 365.652C74.5862 364.092 75.3302 363.288 76.5422 363.288C77.7542 363.288 78.4862 364.092 78.4862 365.652C78.4862 367.212 77.7422 368.016 76.5182 368.016C75.3062 368.016 74.5862 367.212 74.5862 365.652ZM75.6062 365.664C75.6062 366.552 75.8582 366.96 76.5302 366.96C77.1902 366.96 77.4542 366.552 77.4542 365.664C77.4542 364.764 77.2022 364.368 76.5302 364.368C75.8582 364.368 75.6062 364.764 75.6062 365.664ZM84.4738 368.016V363.048H83.4418V361.992H84.4738V361.392C84.4738 360.156 85.4338 359.568 86.6218 359.568C86.8378 359.568 87.0778 359.58 87.4978 359.64V360.648C87.3418 360.624 86.8738 360.624 86.7178 360.624C85.9978 360.624 85.6498 360.852 85.6498 361.572V361.992H87.4978V363.048H85.6498V368.016H84.4738ZM88.5277 368.016V362.016H89.6797V362.76C90.3277 361.944 91.4677 361.74 92.3677 361.944L92.2117 363.024C91.0597 362.796 89.6797 363.192 89.6797 364.404V368.016H88.5277ZM96.0705 368.16C93.9945 368.16 92.7465 366.96 92.7465 364.968C92.7465 362.964 94.0785 361.764 96.1065 361.764C98.1465 361.764 99.4305 362.952 99.4305 364.956C99.4305 366.936 98.1225 368.16 96.0705 368.16ZM93.9465 364.968C93.9465 366.276 94.6185 367.092 96.0705 367.092C97.5465 367.092 98.2305 366.264 98.2305 364.956C98.2305 363.648 97.5465 362.82 96.0705 362.82C94.6185 362.82 93.9465 363.636 93.9465 364.968ZM100.399 368.016V361.992H101.551V362.736C102.079 362.112 102.847 361.764 103.579 361.764C104.551 361.764 105.175 362.088 105.511 362.796C106.123 362.112 106.939 361.764 107.827 361.764C109.267 361.764 110.071 362.484 110.071 363.912V368.016H108.895V364.176C108.895 363.252 108.583 362.844 107.671 362.844C106.867 362.844 105.823 363.264 105.823 364.248V368.016H104.659V364.176C104.659 363.276 104.323 362.844 103.423 362.844C102.511 362.844 101.551 363.444 101.551 364.44V368.016H100.399ZM114.977 368.016V359.616H116.129V368.016H114.977ZM117.458 363.9C117.506 362.436 118.382 361.788 120.218 361.764C122.162 361.764 122.954 362.568 122.954 364.08V368.016H121.802V367.212C121.358 367.728 120.722 368.124 119.618 368.112C118.13 368.1 117.11 367.464 117.11 366.18C117.11 364.488 118.862 364.224 120.65 364.2L121.79 364.176V364.02C121.79 363.156 121.442 362.796 120.218 362.796C119.066 362.796 118.682 363.132 118.634 363.9H117.458ZM118.286 366.192C118.286 366.732 118.67 367.08 119.714 367.08C120.962 367.08 121.79 366.624 121.79 365.736V365.076L120.734 365.112C118.838 365.172 118.286 365.46 118.286 366.192ZM125.236 366.312C125.308 366.816 125.776 367.08 126.832 367.104C127.972 367.104 128.524 366.828 128.524 366.276C128.524 365.844 128.332 365.544 127.192 365.388L126.436 365.292C124.816 365.088 124.06 364.692 124.06 363.564C124.06 362.46 125.104 361.764 126.772 361.764C128.38 361.764 129.352 362.412 129.508 363.48H128.356C128.272 363.024 127.768 362.808 126.772 362.796C125.74 362.808 125.188 363.096 125.188 363.564C125.188 363.984 125.452 364.212 126.484 364.356L127.324 364.464C129.028 364.668 129.724 365.124 129.724 366.276C129.724 367.428 128.728 368.148 126.832 368.16C125.02 368.148 124.132 367.452 124.036 366.312H125.236ZM133.351 368.112C131.887 368.112 131.455 367.296 131.407 366.06V363.06H130.375V362.016H131.407V359.784H132.571V362.016H134.551V363.06H132.571V366.156C132.571 367.224 133.615 367.116 134.491 366.924L134.767 367.848C134.191 368.04 133.819 368.112 133.351 368.112ZM40.3285 384.016V377.992H41.4805V378.736C42.0085 378.112 42.7765 377.764 43.5085 377.764C44.4805 377.764 45.1045 378.088 45.4405 378.796C46.0525 378.112 46.8685 377.764 47.7565 377.764C49.1965 377.764 50.0005 378.484 50.0005 379.912V384.016H48.8245V380.176C48.8245 379.252 48.5125 378.844 47.6005 378.844C46.7965 378.844 45.7525 379.264 45.7525 380.248V384.016H44.5885V380.176C44.5885 379.276 44.2525 378.844 43.3525 378.844C42.4405 378.844 41.4805 379.444 41.4805 380.44V384.016H40.3285ZM54.2228 384.16C52.1468 384.16 50.8988 382.96 50.8988 380.968C50.8988 378.964 52.2308 377.764 54.2588 377.764C56.2988 377.764 57.5828 378.952 57.5828 380.956C57.5828 382.936 56.2748 384.16 54.2228 384.16ZM52.0988 380.968C52.0988 382.276 52.7708 383.092 54.2228 383.092C55.6988 383.092 56.3828 382.264 56.3828 380.956C56.3828 379.648 55.6988 378.82 54.2228 378.82C52.7708 378.82 52.0988 379.636 52.0988 380.968ZM58.5512 384.016V377.992H59.7032V378.748C60.2432 378.076 61.1072 377.764 61.9712 377.764C63.5792 377.764 64.4072 378.556 64.4072 380.032V384.016H63.2432V380.284C63.2432 379.324 62.8592 378.844 61.8152 378.844C60.9512 378.844 59.7032 379.264 59.7032 380.368V384.016H58.5512ZM68.1131 384.112C66.6491 384.112 66.2171 383.296 66.1691 382.06V379.06H65.1371V378.016H66.1691V375.784H67.3331V378.016H69.3131V379.06H67.3331V382.156C67.3331 383.224 68.3771 383.116 69.2531 382.924L69.5291 383.848C68.9531 384.04 68.5811 384.112 68.1131 384.112ZM70.516 384.016V375.616H71.668V378.664C72.316 378.028 73.084 377.764 73.936 377.764C75.544 377.764 76.372 378.556 76.372 380.032V384.016H75.208V380.284C75.208 379.312 74.824 378.844 73.78 378.844C72.736 378.844 71.668 379.384 71.668 380.476V384.016H70.516Z" fill="#05DF72"/>
<mask id="path-18-inside-4_4666_8375" fill="white">
<path d="M225.332 86C225.332 81.5817 228.914 78 233.332 78H395.665C400.084 78 403.665 81.5817 403.665 86V396C403.665 400.418 400.084 404 395.665 404H233.332C228.914 404 225.332 400.418 225.332 396V86Z"/>
</mask>
<path d="M225.332 86C225.332 81.5817 228.914 78 233.332 78H395.665C400.084 78 403.665 81.5817 403.665 86V396C403.665 400.418 400.084 404 395.665 404H233.332C228.914 404 225.332 400.418 225.332 396V86Z" fill="#131441"/>
<path d="M233.332 78V78.8129H395.665V78V77.1871H233.332V78ZM403.665 86H402.852V396H403.665H404.478V86H403.665ZM395.665 404V403.187H233.332V404V404.813H395.665V404ZM225.332 396H226.145V86H225.332H224.519V396H225.332ZM233.332 404V403.187C229.363 403.187 226.145 399.969 226.145 396H225.332H224.519C224.519 400.867 228.465 404.813 233.332 404.813V404ZM403.665 396H402.852C402.852 399.969 399.635 403.187 395.665 403.187V404V404.813C400.533 404.813 404.478 400.867 404.478 396H403.665ZM395.665 78V78.8129C399.635 78.8129 402.852 82.0307 402.852 86H403.665H404.478C404.478 81.1328 400.533 77.1871 395.665 77.1871V78ZM233.332 78V77.1871C228.465 77.1871 224.519 81.1328 224.519 86H225.332H226.145C226.145 82.0307 229.363 78.8129 233.332 78.8129V78Z" fill="#7A63C0" fill-opacity="0.3" mask="url(#path-18-inside-4_4666_8375)"/>
<mask id="path-20-inside-5_4666_8375" fill="white">
<path d="M242.145 104.812C242.145 99.2896 246.622 94.8125 252.145 94.8125H280.133C285.655 94.8125 290.133 99.2897 290.133 104.813V132.8C290.133 138.323 285.655 142.8 280.133 142.8H252.145C246.622 142.8 242.145 138.323 242.145 132.8V104.812Z"/>
</mask>
<path d="M242.145 104.812C242.145 99.2896 246.622 94.8125 252.145 94.8125H280.133C285.655 94.8125 290.133 99.2897 290.133 104.813V132.8C290.133 138.323 285.655 142.8 280.133 142.8H252.145C246.622 142.8 242.145 138.323 242.145 132.8V104.812Z" fill="url(#paint2_linear_4666_8375)"/>
<path d="M252.145 94.8125V95.6254H280.133V94.8125V93.9996H252.145V94.8125ZM290.133 104.813H289.32V132.8H290.133H290.945V104.813H290.133ZM280.133 142.8V141.988H252.145V142.8V143.613H280.133V142.8ZM242.145 132.8H242.957V104.812H242.145H241.332V132.8H242.145ZM252.145 142.8V141.988C247.071 141.988 242.957 137.874 242.957 132.8H242.145H241.332C241.332 138.772 246.173 143.613 252.145 143.613V142.8ZM290.133 132.8H289.32C289.32 137.874 285.206 141.988 280.133 141.988V142.8V143.613C286.104 143.613 290.945 138.772 290.945 132.8H290.133ZM280.133 94.8125V95.6254C285.206 95.6254 289.32 99.7386 289.32 104.813H290.133H290.945C290.945 98.8407 286.104 93.9996 280.133 93.9996V94.8125ZM252.145 94.8125V93.9996C246.173 93.9996 241.332 98.8407 241.332 104.812H242.145H242.957C242.957 99.7386 247.071 95.6254 252.145 95.6254V94.8125Z" fill="#FFAA00" fill-opacity="0.3" mask="url(#path-20-inside-5_4666_8375)"/>
<path d="M265.139 128.535C265.443 128.71 265.787 128.802 266.138 128.802C266.489 128.802 266.834 128.71 267.138 128.535L274.136 124.536C274.44 124.36 274.692 124.108 274.868 123.805C275.043 123.501 275.136 123.157 275.136 122.806V114.808C275.136 114.457 275.043 114.113 274.868 113.809C274.692 113.506 274.44 113.254 274.136 113.078L267.138 109.079C266.834 108.904 266.489 108.812 266.138 108.812C265.787 108.812 265.443 108.904 265.139 109.079L258.14 113.078C257.837 113.254 257.584 113.506 257.409 113.809C257.234 114.113 257.141 114.457 257.141 114.808V122.806C257.141 123.157 257.234 123.501 257.409 123.805C257.584 124.108 257.837 124.36 258.14 124.536L265.139 128.535Z" stroke="#FFAA00" stroke-width="1.9995" stroke-linecap="round" stroke-linejoin="round"/>
<path d="M266.137 128.804V118.807" stroke="#FFAA00" stroke-width="1.9995" stroke-linecap="round" stroke-linejoin="round"/>
<path d="M257.43 113.808L266.138 118.806L274.845 113.808" stroke="#FFAA00" stroke-width="1.9995" stroke-linecap="round" stroke-linejoin="round"/>
<path d="M261.641 111.078L270.638 116.227" stroke="#FFAA00" stroke-width="1.9995" stroke-linecap="round" stroke-linejoin="round"/>
<mask id="path-26-inside-6_4666_8375" fill="white">
<path d="M364.852 118.807C364.852 112.732 369.776 107.807 375.852 107.807C381.927 107.807 386.852 112.732 386.852 118.807C386.852 124.882 381.927 129.807 375.852 129.807C369.776 129.807 364.852 124.882 364.852 118.807Z"/>
</mask>
<path d="M364.852 118.807C364.852 112.732 369.776 107.807 375.852 107.807C381.927 107.807 386.852 112.732 386.852 118.807C386.852 124.882 381.927 129.807 375.852 129.807C369.776 129.807 364.852 124.882 364.852 118.807Z" fill="#2B7FFF" fill-opacity="0.2"/>
<path d="M364.852 118.807M386.852 118.807M386.852 118.807M364.852 118.807M375.852 107.807M386.852 118.807M375.852 129.807M364.852 118.807M375.852 129.807V128.994C370.225 128.994 365.664 124.433 365.664 118.807H364.852H364.039C364.039 125.331 369.327 130.62 375.852 130.62V129.807ZM386.852 118.807H386.039C386.039 124.433 381.478 128.994 375.852 128.994V129.807V130.62C382.376 130.62 387.664 125.331 387.664 118.807H386.852ZM375.852 107.807V108.62C381.478 108.62 386.039 113.18 386.039 118.807H386.852H387.664C387.664 112.283 382.376 106.994 375.852 106.994V107.807ZM375.852 107.807V106.994C369.327 106.994 364.039 112.283 364.039 118.807H364.852H365.664C365.664 113.18 370.225 108.62 375.852 108.62V107.807Z" fill="#2B7FFF" fill-opacity="0.3" mask="url(#path-26-inside-6_4666_8375)"/>
<g clip-path="url(#clip1_4666_8375)">
<path d="M380.848 116.309L376.601 120.555L374.103 118.057L370.855 121.305" stroke="#51A2FF" stroke-width="0.999217" stroke-linecap="round" stroke-linejoin="round"/>
<path d="M377.848 116.309H380.845V119.306" stroke="#51A2FF" stroke-width="0.999217" stroke-linecap="round" stroke-linejoin="round"/>
</g>
<path d="M242.705 182.607V172.807H244.357V182.607H242.705ZM245.33 182.607V175.579H246.856V176.349C247.402 175.649 248.382 175.313 249.32 175.313C251.196 175.313 252.176 176.265 252.176 177.987V182.607H250.65V178.337C250.65 177.287 250.286 176.741 249.152 176.741C248.214 176.741 246.856 177.189 246.856 178.365V182.607H245.33ZM255.883 182.607L252.453 175.579H254.259L256.569 180.577L258.907 175.579H260.643L257.199 182.607H255.883ZM266.706 178.365C266.608 177.329 265.81 176.727 264.508 176.727C263.234 176.727 262.436 177.315 262.352 178.365H266.706ZM260.63 179.051C260.63 176.713 262.198 175.313 264.55 175.313C266.916 175.313 268.442 176.699 268.414 179.023V179.555H262.282C262.38 180.647 263.122 181.347 264.508 181.347C265.74 181.347 266.426 180.871 266.678 180.031H268.316C267.868 181.851 266.426 182.761 264.508 182.761C262.1 182.761 260.63 181.361 260.63 179.051ZM269.38 182.607V175.579H270.906V176.349C271.452 175.649 272.432 175.313 273.37 175.313C275.246 175.313 276.226 176.265 276.226 177.987V182.607H274.7V178.337C274.7 177.287 274.336 176.741 273.202 176.741C272.264 176.741 270.906 177.189 270.906 178.365V182.607H269.38ZM280.331 182.719C278.595 182.719 278.077 181.739 278.021 180.297V176.993H276.845V175.607H278.021V173.073H279.547V175.607H281.787V176.993H279.547V180.395C279.547 181.543 280.765 181.361 281.703 181.151L282.067 182.383C281.311 182.635 280.877 182.719 280.331 182.719ZM286.083 182.761C283.675 182.761 282.205 181.361 282.205 179.051C282.205 176.713 283.773 175.313 286.125 175.313C288.491 175.313 289.989 176.699 289.989 179.023C289.989 181.333 288.477 182.761 286.083 182.761ZM283.787 179.037C283.787 180.465 284.515 181.347 286.083 181.347C287.693 181.347 288.435 180.451 288.435 179.023C288.435 177.609 287.693 176.727 286.083 176.727C284.515 176.727 283.787 177.595 283.787 179.037ZM290.955 182.607V175.607H292.481V176.363C293.181 175.495 294.497 175.313 295.533 175.537L295.323 176.965C294.035 176.685 292.481 177.077 292.481 178.435V182.607H290.955ZM298.485 185.057C298.051 185.057 297.631 185.001 297.057 184.763L297.421 183.475C298.401 183.755 298.961 183.727 299.451 182.719L299.675 182.215C299.745 182.089 299.731 181.977 299.661 181.851L296.301 175.565H298.107L300.571 180.423L302.811 175.565H304.519L300.851 183.167C300.235 184.455 299.675 185.057 298.485 185.057ZM242.705 202.607V192.807H244.413L248.095 200.395L251.791 192.807H253.457V202.607H251.889V196.069L248.655 202.607H247.479L244.273 196.055V202.607H242.705ZM254.745 197.833C254.801 196.083 255.865 195.341 257.979 195.313C260.261 195.313 261.185 196.265 261.185 198.043V202.607H259.673V201.781C259.211 202.313 258.553 202.733 257.307 202.719C255.571 202.691 254.353 201.949 254.353 200.409C254.353 198.449 256.369 198.141 258.483 198.127L259.659 198.099V197.959C259.659 197.063 259.337 196.699 257.979 196.699C256.719 196.699 256.341 197.035 256.299 197.833H254.745ZM255.907 200.437C255.907 200.997 256.271 201.347 257.419 201.347C258.805 201.347 259.659 200.899 259.659 199.919V199.289L258.581 199.317C256.453 199.387 255.907 199.681 255.907 200.437ZM262.229 202.607V195.579H263.755V196.349C264.301 195.649 265.281 195.313 266.219 195.313C268.095 195.313 269.075 196.265 269.075 197.987V202.607H267.549V198.337C267.549 197.287 267.185 196.741 266.051 196.741C265.113 196.741 263.755 197.189 263.755 198.365V202.607H262.229ZM270.373 197.833C270.429 196.083 271.493 195.341 273.607 195.313C275.889 195.313 276.813 196.265 276.813 198.043V202.607H275.301V201.781C274.839 202.313 274.181 202.733 272.935 202.719C271.199 202.691 269.981 201.949 269.981 200.409C269.981 198.449 271.997 198.141 274.111 198.127L275.287 198.099V197.959C275.287 197.063 274.965 196.699 273.607 196.699C272.347 196.699 271.969 197.035 271.927 197.833H270.373ZM271.535 200.437C271.535 200.997 271.899 201.347 273.047 201.347C274.433 201.347 275.287 200.899 275.287 199.919V199.289L274.209 199.317C272.081 199.387 271.535 199.681 271.535 200.437ZM281.444 201.025C282.956 201.025 283.698 200.227 283.698 199.107V198.701C283.698 197.469 283.054 196.727 281.584 196.727C280.198 196.727 279.316 197.441 279.316 198.883C279.316 200.367 280.226 201.025 281.444 201.025ZM277.72 198.883C277.72 196.657 279.19 195.229 281.416 195.313C282.494 195.355 283.558 195.887 283.684 196.279V195.607H285.21V201.851C285.21 202.565 285.098 203.195 284.888 203.685C284.426 204.819 283.39 205.351 281.612 205.351C279.526 205.351 278.196 204.679 278.056 203.027H279.526C279.708 203.601 280.24 203.937 281.612 203.937C283.236 203.937 283.67 203.279 283.67 202.243V201.459C283.11 202.103 282.354 202.453 281.304 202.453C279.12 202.453 277.72 201.151 277.72 198.883ZM292.122 198.365C292.024 197.329 291.226 196.727 289.924 196.727C288.65 196.727 287.852 197.315 287.768 198.365H292.122ZM286.046 199.051C286.046 196.713 287.614 195.313 289.966 195.313C292.332 195.313 293.858 196.699 293.83 199.023V199.555H287.698C287.796 200.647 288.538 201.347 289.924 201.347C291.156 201.347 291.842 200.871 292.094 200.031H293.732C293.284 201.851 291.842 202.761 289.924 202.761C287.516 202.761 286.046 201.361 286.046 199.051ZM294.797 202.607V195.579H296.323V196.349C296.869 195.691 297.737 195.313 298.521 195.313C299.599 195.313 300.313 195.663 300.719 196.419C301.433 195.691 302.329 195.313 303.323 195.313C305.017 195.313 305.969 196.181 305.969 197.847V202.607H304.443V198.211C304.443 197.203 304.135 196.741 303.155 196.741C302.287 196.741 301.153 197.189 301.153 198.239V202.607H299.627V198.211C299.627 197.231 299.319 196.741 298.339 196.741C297.331 196.741 296.323 197.413 296.323 198.491V202.607H294.797ZM312.877 198.365C312.779 197.329 311.981 196.727 310.679 196.727C309.405 196.727 308.607 197.315 308.523 198.365H312.877ZM306.801 199.051C306.801 196.713 308.369 195.313 310.721 195.313C313.087 195.313 314.613 196.699 314.585 199.023V199.555H308.453C308.551 200.647 309.293 201.347 310.679 201.347C311.911 201.347 312.597 200.871 312.849 200.031H314.487C314.039 201.851 312.597 202.761 310.679 202.761C308.271 202.761 306.801 201.361 306.801 199.051ZM315.551 202.607V195.579H317.077V196.349C317.623 195.649 318.603 195.313 319.541 195.313C321.417 195.313 322.397 196.265 322.397 197.987V202.607H320.871V198.337C320.871 197.287 320.507 196.741 319.373 196.741C318.435 196.741 317.077 197.189 317.077 198.365V202.607H315.551ZM326.503 202.719C324.767 202.719 324.249 201.739 324.193 200.297V196.993H323.017V195.607H324.193V193.073H325.719V195.607H327.959V196.993H325.719V200.395C325.719 201.543 326.937 201.361 327.875 201.151L328.239 202.383C327.483 202.635 327.049 202.719 326.503 202.719ZM335.058 200.493C335.128 201.053 335.632 201.347 336.766 201.361C337.956 201.361 338.586 201.109 338.586 200.521C338.586 200.101 338.39 199.765 337.158 199.597L336.304 199.485C334.386 199.247 333.518 198.799 333.518 197.455C333.518 196.153 334.722 195.313 336.696 195.313C338.628 195.313 339.762 196.125 339.916 197.427H338.404C338.334 196.909 337.76 196.699 336.696 196.699C335.646 196.699 335.002 196.965 335.002 197.469C335.002 197.889 335.268 198.127 336.388 198.281L337.326 198.407C339.3 198.645 340.14 199.149 340.14 200.521C340.14 201.907 338.964 202.747 336.766 202.761C334.624 202.747 333.602 201.893 333.504 200.493H335.058ZM342.524 205.057C342.09 205.057 341.67 205.001 341.096 204.763L341.46 203.475C342.44 203.755 343 203.727 343.49 202.719L343.714 202.215C343.784 202.089 343.77 201.977 343.7 201.851L340.34 195.565H342.146L344.61 200.423L346.85 195.565H348.558L344.89 203.167C344.274 204.455 343.714 205.057 342.524 205.057ZM350.413 200.493C350.483 201.053 350.987 201.347 352.121 201.361C353.311 201.361 353.941 201.109 353.941 200.521C353.941 200.101 353.745 199.765 352.513 199.597L351.659 199.485C349.741 199.247 348.873 198.799 348.873 197.455C348.873 196.153 350.077 195.313 352.051 195.313C353.983 195.313 355.117 196.125 355.271 197.427H353.759C353.689 196.909 353.115 196.699 352.051 196.699C351.001 196.699 350.357 196.965 350.357 197.469C350.357 197.889 350.623 198.127 351.743 198.281L352.681 198.407C354.655 198.645 355.495 199.149 355.495 200.521C355.495 201.907 354.319 202.747 352.121 202.761C349.979 202.747 348.957 201.893 348.859 200.493H350.413ZM359.522 202.719C357.786 202.719 357.268 201.739 357.212 200.297V196.993H356.036V195.607H357.212V193.073H358.738V195.607H360.978V196.993H358.738V200.395C358.738 201.543 359.956 201.361 360.894 201.151L361.258 202.383C360.502 202.635 360.068 202.719 359.522 202.719ZM367.472 198.365C367.374 197.329 366.576 196.727 365.274 196.727C364 196.727 363.202 197.315 363.118 198.365H367.472ZM361.396 199.051C361.396 196.713 362.964 195.313 365.316 195.313C367.682 195.313 369.208 196.699 369.18 199.023V199.555H363.048C363.146 200.647 363.888 201.347 365.274 201.347C366.506 201.347 367.192 200.871 367.444 200.031H369.082C368.634 201.851 367.192 202.761 365.274 202.761C362.866 202.761 361.396 201.361 361.396 199.051ZM370.146 202.607V195.579H371.672V196.349C372.218 195.691 373.086 195.313 373.87 195.313C374.948 195.313 375.662 195.663 376.068 196.419C376.782 195.691 377.678 195.313 378.672 195.313C380.366 195.313 381.318 196.181 381.318 197.847V202.607H379.792V198.211C379.792 197.203 379.484 196.741 378.504 196.741C377.636 196.741 376.502 197.189 376.502 198.239V202.607H374.976V198.211C374.976 197.231 374.668 196.741 373.688 196.741C372.68 196.741 371.672 197.413 371.672 198.491V202.607H370.146Z" fill="#D1D5DC"/>
<path d="M246.777 229.905C246.801 231.297 247.881 231.825 249.249 231.825C251.025 231.825 251.793 231.057 251.793 229.473C251.793 227.985 251.121 227.217 249.225 227.217C247.857 227.217 247.017 227.601 246.681 228.585H243.153L244.017 218.505H254.409V222.201H247.113L246.945 224.025C247.689 223.737 248.505 223.593 249.465 223.593C253.353 223.593 255.297 226.065 255.297 229.449C255.297 233.313 252.945 235.497 249.297 235.497H249.249H249.177C245.697 235.449 243.393 233.505 243.201 229.905H246.777ZM256.652 232.161C258.116 231.105 259.46 230.001 260.756 228.945C262.004 228.009 262.916 227.241 263.564 226.641C264.908 225.393 265.244 224.745 265.244 223.785C265.244 222.561 264.716 222.081 262.892 222.081C260.732 222.081 260.516 222.777 260.588 224.841H256.964C256.964 220.593 259.316 218.433 262.892 218.433C266.564 218.433 268.82 220.593 268.82 223.689C268.82 226.353 267.26 228.033 265.748 229.401C265.052 230.073 265.268 229.833 263.588 231.225L263.156 231.537H268.676V235.185H256.652V232.161ZM270.855 234.225C270.855 232.113 274.119 232.089 274.119 234.225C274.119 236.361 270.855 236.361 270.855 234.225ZM278.936 235.185C280.352 230.553 282.032 226.401 284.36 222.225H276.152V218.505H288.992V221.265C286.256 225.705 284.168 230.337 282.776 235.185H278.936ZM290.843 235.233V218.433H294.587V224.721L302.195 218.433H307.667L299.651 225.153L307.451 235.233H302.747L296.771 227.505L294.587 229.257V235.233H290.843Z" fill="white"/>
<path d="M262.984 275.427H276.984V327.925H262.984V275.427Z" fill="#10B981"/>
<path d="M280.816 277.527H294.816V327.925H280.816V277.527Z" fill="#10B981"/>
<path d="M298.648 273.327H312.648V327.925H298.648V273.327Z" fill="#10B981"/>
<path d="M316.48 271.928H330.48V327.926H316.48V271.928Z" fill="#10B981"/>
<path d="M334.316 274.728H348.316V327.925H334.316V274.728Z" fill="#10B981"/>
<path d="M352.148 270.527H366.148V327.925H352.148V270.527Z" fill="#10B981"/>
<path d="M262.984 275.427H276.984V327.925H262.984V275.427Z" fill="#F59E0B"/>
<path d="M280.816 277.527H294.816V327.925H280.816V277.527Z" fill="#F59E0B"/>
<path d="M298.648 273.327H312.648V327.925H298.648V273.327Z" fill="#F59E0B"/>
<path d="M316.48 271.928H330.48V327.926H316.48V271.928Z" fill="#F59E0B"/>
<path d="M334.316 274.728H348.316V327.925H334.316V274.728Z" fill="#F59E0B"/>
<path d="M352.148 270.527H366.148V327.925H352.148V270.527Z" fill="#F59E0B"/>
<path d="M262.984 279.427C262.984 278.366 263.406 277.348 264.156 276.598C264.906 275.848 265.923 275.427 266.984 275.427H272.984C274.045 275.427 275.062 275.848 275.812 276.598C276.562 277.348 276.984 278.366 276.984 279.427V327.925H262.984V279.427Z" fill="#EF4444"/>
<path d="M280.816 281.527C280.816 280.466 281.238 279.449 281.988 278.699C282.738 277.949 283.755 277.527 284.816 277.527H290.816C291.877 277.527 292.894 277.949 293.644 278.699C294.394 279.449 294.816 280.466 294.816 281.527V327.925H280.816V281.527Z" fill="#EF4444"/>
<path d="M298.648 277.327C298.648 276.266 299.07 275.249 299.82 274.499C300.57 273.749 301.587 273.327 302.648 273.327H308.648C309.709 273.327 310.726 273.749 311.476 274.499C312.226 275.249 312.648 276.266 312.648 277.327V327.925H298.648V277.327Z" fill="#EF4444"/>
<path d="M316.48 275.928C316.48 274.867 316.902 273.849 317.652 273.099C318.402 272.349 319.419 271.928 320.48 271.928H326.48C327.541 271.928 328.558 272.349 329.308 273.099C330.059 273.849 330.48 274.867 330.48 275.928V327.926H316.48V275.928Z" fill="#EF4444"/>
<path d="M334.316 278.727C334.316 277.667 334.738 276.649 335.488 275.899C336.238 275.149 337.255 274.728 338.316 274.728H344.316C345.377 274.728 346.394 275.149 347.144 275.899C347.894 276.649 348.316 277.667 348.316 278.727V327.925H334.316V278.727Z" fill="#EF4444"/>
<path d="M352.148 274.527C352.148 273.466 352.57 272.449 353.32 271.699C354.07 270.949 355.087 270.527 356.148 270.527H362.148C363.209 270.527 364.226 270.949 364.976 271.699C365.726 272.449 366.148 273.466 366.148 274.527V327.925H352.148V274.527Z" fill="#EF4444"/>
<path d="M246.141 368.172C243.933 368.172 242.697 367.236 242.697 365.712C242.697 364.8 243.321 364.128 244.173 363.828C243.465 363.492 242.985 362.88 242.985 362.016C242.985 360.612 244.113 359.64 246.141 359.64C248.181 359.64 249.285 360.6 249.285 362.016C249.285 362.88 248.805 363.492 248.109 363.792C248.961 364.116 249.585 364.776 249.585 365.712C249.585 367.236 248.337 368.172 246.141 368.172ZM243.897 365.724C243.897 366.54 244.581 367.056 246.153 367.056C247.725 367.056 248.373 366.54 248.373 365.712C248.373 364.896 247.785 364.416 246.153 364.416C244.521 364.416 243.897 364.908 243.897 365.724ZM244.149 362.04C244.149 362.844 244.749 363.288 246.141 363.288C247.533 363.288 248.133 362.844 248.133 362.028C248.133 361.272 247.557 360.756 246.141 360.756C244.737 360.756 244.149 361.284 244.149 362.04ZM250.325 366.948C251.081 366.408 251.801 365.856 252.485 365.316C253.193 364.8 253.721 364.368 254.093 364.032C254.897 363.3 255.173 362.796 255.173 362.16C255.173 361.284 254.609 360.816 253.445 360.816C252.245 360.816 251.753 361.32 251.729 362.328H250.505C250.541 360.636 251.657 359.64 253.445 359.64C255.281 359.64 256.385 360.636 256.385 362.112C256.385 363.372 255.617 364.2 254.789 364.932C254.393 365.28 254.153 365.46 253.445 366.024L252.353 366.816H256.301V367.98H250.325V366.948ZM259.826 368.04L262.946 359.94H264.062L260.954 368.04H259.826ZM257.486 362.16C257.486 360.588 258.23 359.784 259.454 359.784C260.666 359.784 261.386 360.588 261.386 362.16C261.386 363.72 260.654 364.512 259.43 364.512C258.206 364.512 257.486 363.72 257.486 362.16ZM258.506 362.172C258.506 363.048 258.77 363.456 259.442 363.456C260.102 363.456 260.354 363.048 260.354 362.172C260.354 361.272 260.102 360.864 259.442 360.864C258.77 360.864 258.506 361.272 258.506 362.172ZM262.61 365.652C262.61 364.092 263.354 363.288 264.566 363.288C265.778 363.288 266.51 364.092 266.51 365.652C266.51 367.212 265.766 368.016 264.542 368.016C263.33 368.016 262.61 367.212 262.61 365.652ZM263.63 365.664C263.63 366.552 263.882 366.96 264.554 366.96C265.214 366.96 265.478 366.552 265.478 365.664C265.478 364.764 265.226 364.368 264.554 364.368C263.882 364.368 263.63 364.764 263.63 365.664ZM271.465 368.016V359.616H272.617V362.664C273.265 362.028 274.033 361.764 274.885 361.764C276.493 361.764 277.321 362.556 277.321 364.032V368.016H276.157V364.284C276.157 363.312 275.773 362.844 274.729 362.844C273.685 362.844 272.617 363.384 272.617 364.476V368.016H271.465ZM283.626 364.428C283.53 363.42 282.822 362.82 281.574 362.82C280.35 362.82 279.63 363.42 279.546 364.428H283.626ZM278.25 364.968C278.25 362.964 279.582 361.764 281.61 361.764C283.65 361.764 284.946 362.952 284.934 364.956L284.922 365.34H279.498C279.582 366.408 280.254 367.092 281.574 367.092C282.726 367.092 283.386 366.612 283.602 365.784H284.85C284.49 367.344 283.266 368.16 281.574 368.16C279.498 368.16 278.25 366.96 278.25 364.968ZM286.298 363.9C286.346 362.436 287.222 361.788 289.058 361.764C291.002 361.764 291.794 362.568 291.794 364.08V368.016H290.642V367.212C290.198 367.728 289.562 368.124 288.458 368.112C286.97 368.1 285.95 367.464 285.95 366.18C285.95 364.488 287.702 364.224 289.49 364.2L290.63 364.176V364.02C290.63 363.156 290.282 362.796 289.058 362.796C287.906 362.796 287.522 363.132 287.474 363.9H286.298ZM287.126 366.192C287.126 366.732 287.51 367.08 288.554 367.08C289.802 367.08 290.63 366.624 290.63 365.736V365.076L289.574 365.112C287.678 365.172 287.126 365.46 287.126 366.192ZM292.864 368.016V359.616H294.016V368.016H292.864ZM297.972 368.112C296.508 368.112 296.076 367.296 296.028 366.06V363.06H294.996V362.016H296.028V359.784H297.192V362.016H299.172V363.06H297.192V366.156C297.192 367.224 298.236 367.116 299.112 366.924L299.388 367.848C298.812 368.04 298.44 368.112 297.972 368.112ZM300.375 368.016V359.616H301.527V362.664C302.175 362.028 302.943 361.764 303.795 361.764C305.403 361.764 306.231 362.556 306.231 364.032V368.016H305.067V364.284C305.067 363.312 304.683 362.844 303.639 362.844C302.595 362.844 301.527 363.384 301.527 364.476V368.016H300.375ZM308.479 370.176C308.131 370.176 307.783 370.14 307.339 369.96L307.615 368.988C308.455 369.216 308.971 369.168 309.415 368.244L309.619 367.812C309.679 367.656 309.679 367.536 309.607 367.404L306.715 361.98H308.083L310.315 366.396L312.355 361.98H313.651L310.483 368.556C309.955 369.66 309.499 370.176 308.479 370.176ZM243.873 382.312C243.945 382.816 244.413 383.08 245.469 383.104C246.609 383.104 247.161 382.828 247.161 382.276C247.161 381.844 246.969 381.544 245.829 381.388L245.073 381.292C243.453 381.088 242.697 380.692 242.697 379.564C242.697 378.46 243.741 377.764 245.409 377.764C247.017 377.764 247.989 378.412 248.145 379.48H246.993C246.909 379.024 246.405 378.808 245.409 378.796C244.377 378.808 243.825 379.096 243.825 379.564C243.825 379.984 244.089 380.212 245.121 380.356L245.961 380.464C247.665 380.668 248.361 381.124 248.361 382.276C248.361 383.428 247.365 384.148 245.469 384.16C243.657 384.148 242.769 383.452 242.673 382.312H243.873ZM251.988 384.112C250.524 384.112 250.092 383.296 250.044 382.06V379.06H249.012V378.016H250.044V375.784H251.208V378.016H253.188V379.06H251.208V382.156C251.208 383.224 252.252 383.116 253.128 382.924L253.404 383.848C252.828 384.04 252.456 384.112 251.988 384.112ZM257.047 384.16C254.971 384.16 253.723 382.96 253.723 380.968C253.723 378.964 255.055 377.764 257.083 377.764C259.123 377.764 260.407 378.952 260.407 380.956C260.407 382.936 259.099 384.16 257.047 384.16ZM254.923 380.968C254.923 382.276 255.595 383.092 257.047 383.092C258.523 383.092 259.207 382.264 259.207 380.956C259.207 379.648 258.523 378.82 257.047 378.82C255.595 378.82 254.923 379.636 254.923 380.968ZM267.894 381.52C267.63 383.272 266.346 384.16 264.582 384.16C262.506 384.16 261.258 382.96 261.258 380.968C261.258 378.964 262.59 377.764 264.618 377.764C266.454 377.764 267.666 378.712 267.894 380.368H266.706C266.526 379.384 265.77 378.82 264.582 378.82C263.13 378.82 262.458 379.636 262.458 380.968C262.458 382.276 263.13 383.092 264.582 383.092C265.83 383.092 266.526 382.48 266.694 381.52H267.894ZM268.934 384.016V375.616H270.086V380.404L273.302 377.992H275.042L272.282 380.08L275.162 384.016H273.746L271.358 380.74L270.086 381.688V384.016H268.934Z" fill="#05DF72"/>
<mask id="path-51-inside-7_4666_8375" fill="white">
<path d="M427.668 86C427.668 81.5817 431.25 78 435.668 78H598.001C602.42 78 606.001 81.5817 606.001 86V396C606.001 400.418 602.42 404 598.001 404H435.668C431.25 404 427.668 400.418 427.668 396V86Z"/>
</mask>
<path d="M427.668 86C427.668 81.5817 431.25 78 435.668 78H598.001C602.42 78 606.001 81.5817 606.001 86V396C606.001 400.418 602.42 404 598.001 404H435.668C431.25 404 427.668 400.418 427.668 396V86Z" fill="#131441"/>
<path d="M435.668 78V78.8129H598.001V78V77.1871H435.668V78ZM606.001 86H605.188V396H606.001H606.814V86H606.001ZM598.001 404V403.187H435.668V404V404.813H598.001V404ZM427.668 396H428.481V86H427.668H426.855V396H427.668ZM435.668 404V403.187C431.699 403.187 428.481 399.969 428.481 396H427.668H426.855C426.855 400.867 430.801 404.813 435.668 404.813V404ZM606.001 396H605.188C605.188 399.969 601.971 403.187 598.001 403.187V404V404.813C602.869 404.813 606.814 400.867 606.814 396H606.001ZM598.001 78V78.8129C601.971 78.8129 605.188 82.0307 605.188 86H606.001H606.814C606.814 81.1328 602.869 77.1871 598.001 77.1871V78ZM435.668 78V77.1871C430.801 77.1871 426.855 81.1328 426.855 86H427.668H428.481C428.481 82.0307 431.699 78.8129 435.668 78.8129V78Z" fill="#7A63C0" fill-opacity="0.3" mask="url(#path-51-inside-7_4666_8375)"/>
<mask id="path-53-inside-8_4666_8375" fill="white">
<path d="M444.48 104.812C444.48 99.2896 448.958 94.8125 454.48 94.8125H482.468C487.991 94.8125 492.468 99.2897 492.468 104.813V132.8C492.468 138.323 487.991 142.8 482.468 142.8H454.48C448.958 142.8 444.48 138.323 444.48 132.8V104.812Z"/>
</mask>
<path d="M444.48 104.812C444.48 99.2896 448.958 94.8125 454.48 94.8125H482.468C487.991 94.8125 492.468 99.2897 492.468 104.813V132.8C492.468 138.323 487.991 142.8 482.468 142.8H454.48C448.958 142.8 444.48 138.323 444.48 132.8V104.812Z" fill="url(#paint3_linear_4666_8375)"/>
<path d="M454.48 94.8125V95.6254H482.468V94.8125V93.9996H454.48V94.8125ZM492.468 104.813H491.656V132.8H492.468H493.281V104.813H492.468ZM482.468 142.8V141.988H454.48V142.8V143.613H482.468V142.8ZM444.48 132.8H445.293V104.812H444.48H443.668V132.8H444.48ZM454.48 142.8V141.988C449.407 141.988 445.293 137.874 445.293 132.8H444.48H443.668C443.668 138.772 448.509 143.613 454.48 143.613V142.8ZM492.468 132.8H491.656C491.656 137.874 487.542 141.988 482.468 141.988V142.8V143.613C488.44 143.613 493.281 138.772 493.281 132.8H492.468ZM482.468 94.8125V95.6254C487.542 95.6254 491.656 99.7386 491.656 104.813H492.468H493.281C493.281 98.8407 488.44 93.9996 482.468 93.9996V94.8125ZM454.48 94.8125V93.9996C448.509 93.9996 443.668 98.8407 443.668 104.812H444.48H445.293C445.293 99.7386 449.407 95.6254 454.48 95.6254V94.8125Z" fill="#10B981" fill-opacity="0.3" mask="url(#path-53-inside-8_4666_8375)"/>
<path d="M468.473 108.809V128.804" stroke="#10B981" stroke-width="1.9995" stroke-linecap="round" stroke-linejoin="round"/>
<path d="M473.474 111.809H465.976C465.048 111.809 464.158 112.177 463.501 112.833C462.845 113.49 462.477 114.38 462.477 115.308C462.477 116.236 462.845 117.126 463.501 117.782C464.158 118.438 465.048 118.807 465.976 118.807H470.974C471.902 118.807 472.792 119.176 473.449 119.832C474.105 120.488 474.474 121.378 474.474 122.306C474.474 123.234 474.105 124.124 473.449 124.78C472.792 125.436 471.902 125.805 470.974 125.805H462.477" stroke="#10B981" stroke-width="1.9995" stroke-linecap="round" stroke-linejoin="round"/>
<mask id="path-57-inside-9_4666_8375" fill="white">
<path d="M567.188 118.807C567.188 112.732 572.112 107.807 578.188 107.807C584.263 107.807 589.188 112.732 589.188 118.807C589.188 124.882 584.263 129.807 578.188 129.807C572.112 129.807 567.188 124.882 567.188 118.807Z"/>
</mask>
<path d="M567.188 118.807C567.188 112.732 572.112 107.807 578.188 107.807C584.263 107.807 589.188 112.732 589.188 118.807C589.188 124.882 584.263 129.807 578.188 129.807C572.112 129.807 567.188 124.882 567.188 118.807Z" fill="#00C950" fill-opacity="0.2"/>
<path d="M567.188 118.807M589.188 118.807M589.188 118.807M567.188 118.807M578.188 107.807M589.188 118.807M578.188 129.807M567.188 118.807M578.188 129.807V128.994C572.561 128.994 568 124.433 568 118.807H567.188H566.375C566.375 125.331 571.663 130.62 578.188 130.62V129.807ZM589.188 118.807H588.375C588.375 124.433 583.814 128.994 578.188 128.994V129.807V130.62C584.712 130.62 590 125.331 590 118.807H589.188ZM578.188 107.807V108.62C583.814 108.62 588.375 113.18 588.375 118.807H589.188H590C590 112.283 584.712 106.994 578.188 106.994V107.807ZM578.188 107.807V106.994C571.663 106.994 566.375 112.283 566.375 118.807H567.188H568C568 113.18 572.561 108.62 578.188 108.62V107.807Z" fill="#00C950" fill-opacity="0.3" mask="url(#path-57-inside-9_4666_8375)"/>
<g clip-path="url(#clip2_4666_8375)">
<path d="M583.184 116.309L578.937 120.555L576.439 118.057L573.191 121.305" stroke="#05DF72" stroke-width="0.999217" stroke-linecap="round" stroke-linejoin="round"/>
<path d="M580.184 116.309H583.181V119.306" stroke="#05DF72" stroke-width="0.999217" stroke-linecap="round" stroke-linejoin="round"/>
</g>
<path d="M445.04 187.938L449.674 178.137H451.074L455.694 187.938H453.874L452.6 185.207H448.106L446.846 187.938H445.04ZM448.82 183.681H451.914L450.36 180.307L448.82 183.681ZM456.662 187.938V180.909H458.188V181.679C458.734 180.979 459.714 180.643 460.652 180.643C462.528 180.643 463.508 181.595 463.508 183.317V187.938H461.982V183.667C461.982 182.617 461.618 182.071 460.484 182.071C459.546 182.071 458.188 182.519 458.188 183.695V187.938H456.662ZM464.806 183.163C464.862 181.413 465.926 180.671 468.04 180.643C470.322 180.643 471.246 181.595 471.246 183.373V187.938H469.734V187.111C469.272 187.643 468.614 188.064 467.368 188.05C465.632 188.022 464.414 187.279 464.414 185.739C464.414 183.779 466.43 183.471 468.544 183.457L469.72 183.429V183.289C469.72 182.393 469.398 182.029 468.04 182.029C466.78 182.029 466.402 182.365 466.36 183.163H464.806ZM465.968 185.767C465.968 186.327 466.332 186.677 467.48 186.677C468.866 186.677 469.72 186.229 469.72 185.249V184.619L468.642 184.647C466.514 184.717 465.968 185.011 465.968 185.767ZM472.289 187.938V178.137H473.815V187.938H472.289ZM476.838 190.388C476.404 190.388 475.984 190.332 475.41 190.094L475.774 188.806C476.754 189.086 477.314 189.058 477.804 188.05L478.028 187.545C478.098 187.419 478.084 187.307 478.014 187.181L474.654 180.895H476.46L478.924 185.753L481.164 180.895H482.872L479.204 188.498C478.588 189.785 478.028 190.388 476.838 190.388ZM487.191 188.05C485.455 188.05 484.937 187.069 484.881 185.627V182.323H483.705V180.938H484.881V178.403H486.407V180.938H488.647V182.323H486.407V185.725C486.407 186.873 487.625 186.691 488.563 186.481L488.927 187.713C488.171 187.966 487.737 188.05 487.191 188.05ZM489.912 187.938V180.909H491.438V187.938H489.912ZM489.898 179.873V178.137H491.452V179.873H489.898ZM500.115 184.983C499.793 187.083 498.267 188.092 496.237 188.092C493.829 188.092 492.359 186.691 492.359 184.381C492.359 182.043 493.927 180.643 496.279 180.643C498.421 180.643 499.849 181.777 500.101 183.723H498.547C498.351 182.645 497.511 182.057 496.237 182.057C494.669 182.057 493.941 182.925 493.941 184.367C493.941 185.795 494.669 186.677 496.237 186.677C497.595 186.677 498.365 186.019 498.533 184.983H500.115ZM502.677 185.823C502.747 186.383 503.251 186.677 504.385 186.691C505.575 186.691 506.205 186.439 506.205 185.851C506.205 185.431 506.009 185.095 504.777 184.927L503.923 184.815C502.005 184.577 501.137 184.129 501.137 182.785C501.137 181.483 502.341 180.643 504.315 180.643C506.247 180.643 507.381 181.455 507.535 182.757H506.023C505.953 182.239 505.379 182.029 504.315 182.029C503.265 182.029 502.621 182.295 502.621 182.799C502.621 183.219 502.887 183.457 504.007 183.611L504.945 183.737C506.919 183.975 507.759 184.479 507.759 185.851C507.759 187.237 506.583 188.078 504.385 188.092C502.243 188.078 501.221 187.223 501.123 185.823H502.677ZM446.622 205.823C446.692 206.383 447.196 206.677 448.33 206.691C449.52 206.691 450.15 206.439 450.15 205.851C450.15 205.431 449.954 205.095 448.722 204.927L447.868 204.815C445.95 204.577 445.082 204.129 445.082 202.785C445.082 201.483 446.286 200.643 448.26 200.643C450.192 200.643 451.326 201.455 451.48 202.757H449.968C449.898 202.239 449.324 202.029 448.26 202.029C447.21 202.029 446.566 202.295 446.566 202.799C446.566 203.219 446.832 203.457 447.952 203.611L448.89 203.737C450.864 203.975 451.704 204.479 451.704 205.851C451.704 207.237 450.528 208.078 448.33 208.092C446.188 208.078 445.166 207.223 445.068 205.823H446.622ZM454.088 210.388C453.654 210.388 453.234 210.332 452.66 210.094L453.024 208.806C454.004 209.086 454.564 209.058 455.054 208.05L455.278 207.545C455.348 207.419 455.334 207.307 455.264 207.181L451.904 200.895H453.71L456.174 205.753L458.414 200.895H460.122L456.454 208.498C455.838 209.785 455.278 210.388 454.088 210.388ZM461.976 205.823C462.046 206.383 462.55 206.677 463.684 206.691C464.874 206.691 465.504 206.439 465.504 205.851C465.504 205.431 465.308 205.095 464.076 204.927L463.222 204.815C461.304 204.577 460.436 204.129 460.436 202.785C460.436 201.483 461.64 200.643 463.614 200.643C465.546 200.643 466.68 201.455 466.834 202.757H465.322C465.252 202.239 464.678 202.029 463.614 202.029C462.564 202.029 461.92 202.295 461.92 202.799C461.92 203.219 462.186 203.457 463.306 203.611L464.244 203.737C466.218 203.975 467.058 204.479 467.058 205.851C467.058 207.237 465.882 208.078 463.684 208.092C461.542 208.078 460.52 207.223 460.422 205.823H461.976ZM471.085 208.05C469.349 208.05 468.831 207.069 468.775 205.627V202.323H467.599V200.938H468.775V198.403H470.301V200.938H472.541V202.323H470.301V205.725C470.301 206.873 471.519 206.691 472.457 206.481L472.821 207.713C472.065 207.966 471.631 208.05 471.085 208.05ZM479.034 203.695C478.936 202.659 478.138 202.057 476.836 202.057C475.562 202.057 474.764 202.645 474.68 203.695H479.034ZM472.958 204.381C472.958 202.043 474.526 200.643 476.878 200.643C479.244 200.643 480.77 202.029 480.742 204.353V204.885H474.61C474.708 205.977 475.45 206.677 476.836 206.677C478.068 206.677 478.754 206.201 479.006 205.361H480.644C480.196 207.181 478.754 208.092 476.836 208.092C474.428 208.092 472.958 206.691 472.958 204.381ZM481.708 207.938V200.909H483.234V201.679C483.78 201.021 484.648 200.643 485.432 200.643C486.51 200.643 487.224 200.993 487.63 201.749C488.344 201.021 489.24 200.643 490.234 200.643C491.928 200.643 492.88 201.511 492.88 203.177V207.938H491.354V203.541C491.354 202.533 491.046 202.071 490.066 202.071C489.198 202.071 488.064 202.519 488.064 203.569V207.938H486.538V203.541C486.538 202.561 486.23 202.071 485.25 202.071C484.242 202.071 483.234 202.743 483.234 203.822V207.938H481.708Z" fill="#D1D5DC"/>
<path d="M450.288 240.563L445.68 233.147V231.563H447.264C447.648 231.563 448 231.499 448.32 231.371C448.64 231.243 448.904 231.059 449.112 230.819C449.336 230.579 449.48 230.291 449.544 229.955H445.68V227.507H449.64C449.576 227.171 449.432 226.883 449.208 226.643C449 226.403 448.736 226.219 448.416 226.091C448.112 225.963 447.76 225.899 447.36 225.899H445.68V223.427H457.2V225.899H453.672C453.816 226.123 453.936 226.371 454.032 226.643C454.128 226.915 454.208 227.203 454.272 227.507H457.2V229.955H454.2C453.992 230.835 453.592 231.587 453 232.211C452.408 232.819 451.664 233.267 450.768 233.555L455.568 240.563H450.288ZM464.301 240.515V228.035L461.085 229.595L459.597 226.547L465.261 223.763H467.853V240.515H464.301ZM469.886 237.491C471.35 236.435 472.694 235.331 473.99 234.275C475.238 233.339 476.15 232.571 476.798 231.971C478.142 230.723 478.478 230.075 478.478 229.115C478.478 227.891 477.95 227.411 476.126 227.411C473.966 227.411 473.75 228.107 473.822 230.171H470.198C470.198 225.923 472.55 223.763 476.126 223.763C479.798 223.763 482.054 225.923 482.054 229.019C482.054 231.683 480.494 233.363 478.982 234.731C478.286 235.403 478.502 235.163 476.822 236.555L476.39 236.867H481.91V240.515H469.886V237.491ZM484.089 239.555C484.089 237.443 487.353 237.419 487.353 239.555C487.353 241.691 484.089 241.691 484.089 239.555ZM497.186 240.467V236.795H489.386V234.035L497.786 223.835H500.666V233.195H502.922V236.795H500.666V240.467H497.186ZM494.594 233.147H495.578L497.258 233.171V229.787L494.594 233.147ZM513.564 240.827C508.332 240.827 504.78 237.563 504.78 232.139C504.78 226.667 508.38 223.427 513.564 223.427C518.1 223.427 521.436 225.875 522.204 230.123H518.316C517.86 228.155 516.252 227.003 513.564 227.003C510.156 227.003 508.572 228.659 508.572 232.139C508.572 235.571 510.132 237.227 513.564 237.227C516.276 237.227 517.812 236.147 518.316 234.179H522.204C521.1 239.147 517.476 240.827 513.564 240.827ZM523.835 240.563V228.563H527.315V229.283C528.251 228.299 530.459 228.155 532.163 228.539L531.683 231.827C529.667 231.275 527.315 231.563 527.315 233.579V240.563H523.835Z" fill="white"/>
<g clip-path="url(#clip3_4666_8375)">
<path d="M465.953 306.792C465.953 306.394 466.111 306.013 466.392 305.731C466.674 305.45 467.055 305.292 467.453 305.292C467.851 305.292 468.232 305.45 468.514 305.731C468.795 306.013 468.953 306.394 468.953 306.792V329.792H465.953V306.792Z" fill="#10B981"/>
<path d="M479.328 301.893C479.328 301.495 479.486 301.113 479.767 300.832C480.049 300.551 480.43 300.393 480.828 300.393C481.226 300.393 481.607 300.551 481.889 300.832C482.17 301.113 482.328 301.495 482.328 301.893V329.791H479.328V301.893Z" fill="#10B981"/>
<path d="M492.703 304.692C492.703 304.295 492.861 303.913 493.142 303.632C493.424 303.35 493.805 303.192 494.203 303.192C494.601 303.192 494.982 303.35 495.264 303.632C495.545 303.913 495.703 304.295 495.703 304.692V329.791H492.703V304.692Z" fill="#10B981"/>
<path d="M506.078 292.793C506.078 292.395 506.236 292.014 506.517 291.732C506.799 291.451 507.18 291.293 507.578 291.293C507.976 291.293 508.357 291.451 508.639 291.732C508.92 292.014 509.078 292.395 509.078 292.793V329.791H506.078V292.793Z" fill="#10B981"/>
<path d="M519.449 297.692C519.449 297.295 519.607 296.913 519.889 296.632C520.17 296.35 520.551 296.192 520.949 296.192C521.347 296.192 521.728 296.35 522.01 296.632C522.291 296.913 522.449 297.295 522.449 297.692V329.791H519.449V297.692Z" fill="#10B981"/>
<path d="M532.824 287.893C532.824 287.495 532.982 287.113 533.264 286.832C533.545 286.551 533.926 286.393 534.324 286.393C534.722 286.393 535.103 286.551 535.385 286.832C535.666 287.113 535.824 287.495 535.824 287.893V329.791H532.824V287.893Z" fill="#10B981"/>
<path d="M546.199 290.692C546.199 290.295 546.357 289.913 546.639 289.632C546.92 289.35 547.301 289.192 547.699 289.192C548.097 289.192 548.478 289.35 548.76 289.632C549.041 289.913 549.199 290.295 549.199 290.692V329.791H546.199V290.692Z" fill="#10B981"/>
<path d="M559.574 282.293C559.574 281.895 559.732 281.514 560.014 281.232C560.295 280.951 560.676 280.793 561.074 280.793C561.472 280.793 561.853 280.951 562.135 281.232C562.416 281.514 562.574 281.895 562.574 282.293V329.791H559.574V282.293Z" fill="#10B981"/>
<path d="M465.953 305.292H468.953V328.292C468.953 328.69 468.795 329.071 468.514 329.353C468.232 329.634 467.851 329.792 467.453 329.792C467.055 329.792 466.674 329.634 466.392 329.353C466.111 329.071 465.953 328.69 465.953 328.292V305.292Z" fill="#EF4444"/>
<path d="M479.328 300.393H482.328V328.291C482.328 328.689 482.17 329.071 481.889 329.352C481.607 329.633 481.226 329.791 480.828 329.791C480.43 329.791 480.049 329.633 479.767 329.352C479.486 329.071 479.328 328.689 479.328 328.291V300.393Z" fill="#EF4444"/>
<path d="M492.703 303.192H495.703V328.291C495.703 328.689 495.545 329.071 495.264 329.352C494.982 329.633 494.601 329.791 494.203 329.791C493.805 329.791 493.424 329.633 493.142 329.352C492.861 329.071 492.703 328.689 492.703 328.291V303.192Z" fill="#EF4444"/>
<path d="M506.078 291.293H509.078V328.292C509.078 328.689 508.92 329.071 508.639 329.352C508.357 329.633 507.976 329.791 507.578 329.791C507.18 329.791 506.799 329.633 506.517 329.352C506.236 329.071 506.078 328.689 506.078 328.292V291.293Z" fill="#EF4444"/>
<path d="M519.449 296.192H522.449V328.291C522.449 328.689 522.291 329.07 522.01 329.352C521.728 329.633 521.347 329.791 520.949 329.791C520.551 329.791 520.17 329.633 519.889 329.352C519.607 329.07 519.449 328.689 519.449 328.291V296.192Z" fill="#EF4444"/>
<path d="M532.824 286.393H535.824V328.291C535.824 328.689 535.666 329.07 535.385 329.352C535.103 329.633 534.722 329.791 534.324 329.791C533.926 329.791 533.545 329.633 533.264 329.352C532.982 329.07 532.824 328.689 532.824 328.291V286.393Z" fill="#EF4444"/>
<path d="M546.199 289.192H549.199V328.291C549.199 328.689 549.041 329.07 548.76 329.351C548.478 329.633 548.097 329.791 547.699 329.791C547.301 329.791 546.92 329.633 546.639 329.351C546.357 329.07 546.199 328.689 546.199 328.291V289.192Z" fill="#EF4444"/>
<path d="M559.574 280.793H562.574V328.291C562.574 328.689 562.416 329.07 562.135 329.352C561.853 329.633 561.472 329.791 561.074 329.791C560.676 329.791 560.295 329.633 560.014 329.352C559.732 329.07 559.574 328.689 559.574 328.291V280.793Z" fill="#EF4444"/>
</g>
<path d="M447.204 383.144V380.684H445.032V379.688H447.204V377.42H448.26V379.688H450.432V380.684H448.26V383.144H447.204ZM451.536 382.94C452.292 382.4 453.012 381.848 453.696 381.308C454.404 380.792 454.932 380.36 455.304 380.024C456.108 379.292 456.384 378.788 456.384 378.152C456.384 377.276 455.82 376.808 454.656 376.808C453.456 376.808 452.964 377.312 452.94 378.32H451.716C451.752 376.628 452.868 375.632 454.656 375.632C456.492 375.632 457.596 376.628 457.596 378.104C457.596 379.364 456.828 380.192 456 380.924C455.604 381.272 455.364 381.452 454.656 382.016L453.564 382.808H457.512V383.972H451.536V382.94ZM462.69 383.948V381.968H458.286V381.044L462.81 375.776H463.842V380.84H465.114V381.968H463.842V383.948H462.69ZM459.882 380.828H462.342L462.702 380.852V377.54L459.882 380.828ZM466.22 383.48C466.22 382.556 467.648 382.544 467.648 383.48C467.648 384.404 466.22 384.404 466.22 383.48ZM469.963 381.644C470.059 382.556 470.731 382.988 471.787 383C473.011 382.988 473.623 382.424 473.623 381.308C473.623 380.264 473.095 379.676 471.775 379.676C470.935 379.676 470.299 379.916 469.915 380.42H468.787L469.207 375.776H474.295V376.952H470.215L470.011 379.04C470.527 378.704 471.127 378.536 471.907 378.536C473.863 378.536 474.799 379.676 474.799 381.296C474.799 383.156 473.659 384.152 471.811 384.164H471.787H471.751C470.023 384.14 468.907 383.276 468.787 381.644H469.963ZM478.24 384.032L481.36 375.932H482.476L479.368 384.032H478.24ZM475.9 378.152C475.9 376.58 476.644 375.776 477.868 375.776C479.08 375.776 479.8 376.58 479.8 378.152C479.8 379.712 479.068 380.504 477.844 380.504C476.62 380.504 475.9 379.712 475.9 378.152ZM476.92 378.164C476.92 379.04 477.184 379.448 477.856 379.448C478.516 379.448 478.768 379.04 478.768 378.164C478.768 377.264 478.516 376.856 477.856 376.856C477.184 376.856 476.92 377.264 476.92 378.164ZM481.024 381.644C481.024 380.084 481.768 379.28 482.98 379.28C484.192 379.28 484.924 380.084 484.924 381.644C484.924 383.204 484.18 384.008 482.956 384.008C481.744 384.008 481.024 383.204 481.024 381.644ZM482.044 381.656C482.044 382.544 482.296 382.952 482.968 382.952C483.628 382.952 483.892 382.544 483.892 381.656C483.892 380.756 483.64 380.36 482.968 380.36C482.296 380.36 482.044 380.756 482.044 381.656ZM489.879 384.008V377.984H491.031V378.74C491.571 378.068 492.435 377.756 493.299 377.756C494.907 377.756 495.735 378.548 495.735 380.024V384.008H494.571V380.276C494.571 379.316 494.187 378.836 493.143 378.836C492.279 378.836 491.031 379.256 491.031 380.36V384.008H489.879ZM502.04 380.42C501.944 379.412 501.236 378.812 499.988 378.812C498.764 378.812 498.044 379.412 497.96 380.42H502.04ZM496.664 380.96C496.664 378.956 497.996 377.756 500.024 377.756C502.064 377.756 503.36 378.944 503.348 380.948L503.336 381.332H497.912C497.996 382.4 498.668 383.084 499.988 383.084C501.14 383.084 501.8 382.604 502.016 381.776H503.264C502.904 383.336 501.68 384.152 499.988 384.152C497.912 384.152 496.664 382.952 496.664 380.96ZM506.742 384.104C505.278 384.104 504.846 383.288 504.798 382.052V379.052H503.766V378.008H504.798V375.776H505.962V378.008H507.942V379.052H505.962V382.148C505.962 383.216 507.006 383.108 507.882 382.916L508.158 383.84C507.582 384.032 507.21 384.104 506.742 384.104ZM513.082 386.048V378.008H514.234V378.824C514.69 378.104 515.482 377.756 516.442 377.756C518.386 377.756 519.49 379.016 519.49 380.936C519.49 382.916 518.278 384.152 516.322 384.152C515.494 384.152 514.738 383.888 514.234 383.216V386.048H513.082ZM514.222 381.164C514.222 382.364 514.87 383.084 516.238 383.084C517.51 383.084 518.278 382.4 518.278 380.936C518.278 379.448 517.438 378.812 516.322 378.812C514.978 378.812 514.222 379.58 514.222 380.672V381.164ZM520.524 384.008V378.008H521.676V378.752C522.324 377.936 523.464 377.732 524.364 377.936L524.208 379.016C523.056 378.788 521.676 379.184 521.676 380.396V384.008H520.524ZM528.067 384.152C525.991 384.152 524.743 382.952 524.743 380.96C524.743 378.956 526.075 377.756 528.103 377.756C530.143 377.756 531.427 378.944 531.427 380.948C531.427 382.928 530.119 384.152 528.067 384.152ZM525.943 380.96C525.943 382.268 526.615 383.084 528.067 383.084C529.543 383.084 530.227 382.256 530.227 380.948C530.227 379.64 529.543 378.812 528.067 378.812C526.615 378.812 525.943 379.628 525.943 380.96ZM533.111 384.008V379.04H532.079V377.984H533.111V377.384C533.111 376.148 534.071 375.56 535.259 375.56C535.475 375.56 535.715 375.572 536.135 375.632V376.64C535.979 376.616 535.511 376.616 535.355 376.616C534.635 376.616 534.287 376.844 534.287 377.564V377.984H536.135V379.04H534.287V384.008H533.111ZM537.176 384.008V377.984H538.328V384.008H537.176ZM537.164 377.024V375.608H538.34V377.024H537.164ZM542.332 384.104C540.868 384.104 540.436 383.288 540.388 382.052V379.052H539.356V378.008H540.388V375.776H541.552V378.008H543.532V379.052H541.552V382.148C541.552 383.216 542.596 383.108 543.472 382.916L543.748 383.84C543.172 384.032 542.8 384.104 542.332 384.104Z" fill="#05DF72"/>
<rect x="23" y="21" width="583" height="37" rx="4" fill="#250069"/>
<path d="M213.659 46.5V32.5H215.879L221.359 43.8L226.859 32.5H229.039V46.5H227.059V36.42L222.079 46.5H220.559L215.619 36.4V46.5H213.659ZM234.688 46.74C232.128 46.74 230.848 45.46 230.768 42.92V36.5H232.668V42.56C232.668 44.2 233.288 44.92 234.968 44.92C236.288 44.92 238.368 44.28 238.368 42.36V36.5H240.288V46.5H238.388V45.12C237.368 46.24 236.168 46.74 234.688 46.74ZM241.999 46.5V32.5H243.919V46.5H241.999ZM250.513 46.66C248.073 46.66 247.353 45.3 247.273 43.24V38.24H245.553V36.5H247.273V32.78H249.213V36.5H252.513V38.24H249.213V43.4C249.213 45.18 250.953 45 252.413 44.68L252.873 46.22C251.913 46.54 251.293 46.66 250.513 46.66ZM254.616 46.5V36.46H256.536V46.5H254.616ZM254.596 34.86V32.5H256.556V34.86H254.596ZM258.249 49.9V36.5H260.169V37.86C260.929 36.66 262.249 36.08 263.849 36.08C267.089 36.08 268.929 38.18 268.929 41.38C268.929 44.68 266.909 46.74 263.649 46.74C262.269 46.74 261.009 46.3 260.169 45.18V49.9H258.249ZM260.149 41.76C260.149 43.76 261.229 44.96 263.509 44.96C265.629 44.96 266.909 43.82 266.909 41.38C266.909 38.9 265.509 37.84 263.649 37.84C261.409 37.84 260.149 39.12 260.149 40.94V41.76ZM270.573 46.5V32.5H272.493V46.5H270.573ZM283.088 40.52C282.928 38.84 281.748 37.84 279.668 37.84C277.628 37.84 276.428 38.84 276.288 40.52H283.088ZM274.128 41.42C274.128 38.08 276.348 36.08 279.728 36.08C283.128 36.08 285.288 38.06 285.268 41.4L285.248 42.04H276.208C276.348 43.82 277.468 44.96 279.668 44.96C281.588 44.96 282.688 44.16 283.048 42.78H285.128C284.528 45.38 282.488 46.74 279.668 46.74C276.208 46.74 274.128 44.74 274.128 41.42ZM293.444 49.9V36.5H295.364V37.86C296.124 36.66 297.444 36.08 299.044 36.08C302.284 36.08 304.124 38.18 304.124 41.38C304.124 44.68 302.104 46.74 298.844 46.74C297.464 46.74 296.204 46.3 295.364 45.18V49.9H293.444ZM295.344 41.76C295.344 43.76 296.424 44.96 298.704 44.96C300.824 44.96 302.104 43.82 302.104 41.38C302.104 38.9 300.704 37.84 298.844 37.84C296.604 37.84 295.344 39.12 295.344 40.94V41.76ZM305.768 46.5V32.5H307.688V46.5H305.768ZM309.903 39.64C309.983 37.2 311.443 36.12 314.503 36.08C317.743 36.08 319.063 37.42 319.063 39.94V46.5H317.143V45.16C316.403 46.02 315.343 46.68 313.503 46.66C311.023 46.64 309.323 45.58 309.323 43.44C309.323 40.62 312.243 40.18 315.223 40.14L317.123 40.1V39.84C317.123 38.4 316.543 37.8 314.503 37.8C312.583 37.8 311.943 38.36 311.863 39.64H309.903ZM311.283 43.46C311.283 44.36 311.923 44.94 313.663 44.94C315.743 44.94 317.123 44.18 317.123 42.7V41.6L315.363 41.66C312.203 41.76 311.283 42.24 311.283 43.46ZM325.006 46.66C322.566 46.66 321.846 45.3 321.766 43.24V38.24H320.046V36.5H321.766V32.78H323.706V36.5H327.006V38.24H323.706V43.4C323.706 45.18 325.446 45 326.906 44.68L327.366 46.22C326.406 46.54 325.786 46.66 325.006 46.66ZM330.516 46.5V38.22H328.796V36.46H330.516V35.46C330.516 33.4 332.116 32.42 334.096 32.42C334.456 32.42 334.856 32.44 335.556 32.54V34.22C335.296 34.18 334.516 34.18 334.256 34.18C333.056 34.18 332.476 34.56 332.476 35.76V36.46H335.556V38.22H332.476V46.5H330.516ZM342.011 46.74C338.551 46.74 336.471 44.74 336.471 41.42C336.471 38.08 338.691 36.08 342.071 36.08C345.471 36.08 347.611 38.06 347.611 41.4C347.611 44.7 345.431 46.74 342.011 46.74ZM338.471 41.42C338.471 43.6 339.591 44.96 342.011 44.96C344.471 44.96 345.611 43.58 345.611 41.4C345.611 39.22 344.471 37.84 342.011 37.84C339.591 37.84 338.471 39.2 338.471 41.42ZM349.303 46.5V36.5H351.223V37.74C352.303 36.38 354.203 36.04 355.703 36.38L355.443 38.18C353.523 37.8 351.223 38.46 351.223 40.48V46.5H349.303ZM357.214 46.5V36.46H359.134V37.7C360.014 36.66 361.294 36.08 362.514 36.08C364.134 36.08 365.174 36.62 365.734 37.8C366.754 36.66 368.114 36.08 369.594 36.08C371.994 36.08 373.334 37.28 373.334 39.66V46.5H371.374V40.1C371.374 38.56 370.854 37.88 369.334 37.88C367.994 37.88 366.254 38.58 366.254 40.22V46.5H364.314V40.1C364.314 38.6 363.754 37.88 362.254 37.88C360.734 37.88 359.134 38.88 359.134 40.54V46.5H357.214ZM376.89 43.66C377.01 44.5 377.79 44.94 379.55 44.98C381.45 44.98 382.37 44.52 382.37 43.6C382.37 42.88 382.05 42.38 380.15 42.12L378.89 41.96C376.19 41.62 374.93 40.96 374.93 39.08C374.93 37.24 376.67 36.08 379.45 36.08C382.13 36.08 383.75 37.16 384.01 38.94H382.09C381.95 38.18 381.11 37.82 379.45 37.8C377.73 37.82 376.81 38.3 376.81 39.08C376.81 39.78 377.25 40.16 378.97 40.4L380.37 40.58C383.21 40.92 384.37 41.68 384.37 43.6C384.37 45.52 382.71 46.72 379.55 46.74C376.53 46.72 375.05 45.56 374.89 43.66H376.89Z" fill="white"/>
<path d="M405.201 49.8429C404.948 49.7382 404.717 49.5898 404.507 49.3978L396.102 40.9925C395.91 40.783 395.762 40.5517 395.657 40.2986C395.552 40.0455 395.5 39.7793 395.5 39.5C395.5 39.2207 395.552 38.9501 395.657 38.6883C395.762 38.4264 395.91 38.1995 396.102 38.0075L404.507 29.6022C404.717 29.3928 404.948 29.24 405.201 29.144C405.454 29.048 405.721 29 406 29C406.279 29 406.55 29.048 406.812 29.144C407.074 29.24 407.3 29.3928 407.493 29.6022L415.898 38.0075C416.107 38.1995 416.26 38.4264 416.356 38.6883C416.452 38.9501 416.5 39.2207 416.5 39.5C416.5 39.7793 416.452 40.0455 416.356 40.2986C416.26 40.5517 416.107 40.783 415.898 40.9925L407.493 49.3978C407.3 49.5898 407.074 49.7382 406.812 49.8429C406.55 49.9476 406.279 50 406 50C405.721 50 405.454 49.9476 405.201 49.8429ZM406 47.9052L414.405 39.5L406 31.0948L397.595 39.5L406 47.9052ZM404.953 40.5474H407.047V34.2631H404.953V40.5474ZM406.746 43.3884C406.947 43.1877 407.047 42.9389 407.047 42.6421C407.047 42.3454 406.947 42.0966 406.746 41.8959C406.546 41.6951 406.297 41.5948 406 41.5948C405.703 41.5948 405.454 41.6951 405.254 41.8959C405.053 42.0966 404.953 42.3454 404.953 42.6421C404.953 42.9389 405.053 43.1877 405.254 43.3884C405.454 43.5892 405.703 43.6895 406 43.6895C406.297 43.6895 406.546 43.5892 406.746 43.3884Z" fill="#F51216"/>
<defs>
<linearGradient id="paint0_linear_4666_8375" x1="39.8125" y1="94.8125" x2="87.8005" y2="142.8" gradientUnits="userSpaceOnUse">
<stop stop-color="#20CEFF" stop-opacity="0.2"/>
<stop offset="1" stop-color="#0A0E8F" stop-opacity="0.2"/>
</linearGradient>
<linearGradient id="paint1_linear_4666_8375" x1="58.4258" y1="254.356" x2="58.4258" y2="313.854" gradientUnits="userSpaceOnUse">
<stop stop-color="#20CEFF" stop-opacity="0.6"/>
<stop offset="1" stop-color="#20CEFF" stop-opacity="0.05"/>
</linearGradient>
<linearGradient id="paint2_linear_4666_8375" x1="242.145" y1="94.8125" x2="290.133" y2="142.8" gradientUnits="userSpaceOnUse">
<stop stop-color="#FFAA00" stop-opacity="0.2"/>
<stop offset="1" stop-color="#F86A0E" stop-opacity="0.2"/>
</linearGradient>
<linearGradient id="paint3_linear_4666_8375" x1="444.48" y1="94.8125" x2="492.468" y2="142.8" gradientUnits="userSpaceOnUse">
<stop stop-color="#10B981" stop-opacity="0.2"/>
<stop offset="1" stop-color="#059669" stop-opacity="0.2"/>
</linearGradient>
<clipPath id="clip0_4666_8375">
<rect width="11.9906" height="11.9906" fill="white" transform="translate(167.523 112.812)"/>
</clipPath>
<clipPath id="clip1_4666_8375">
<rect width="11.9906" height="11.9906" fill="white" transform="translate(369.855 112.812)"/>
</clipPath>
<clipPath id="clip2_4666_8375">
<rect width="11.9906" height="11.9906" fill="white" transform="translate(572.191 112.812)"/>
</clipPath>
<clipPath id="clip3_4666_8375">
<rect width="117" height="79.9969" fill="white" transform="translate(457.836 282.559)"/>
</clipPath>
</defs>
</svg>
