<svg width="629" height="427" viewBox="0 0 629 427" fill="none" xmlns="http://www.w3.org/2000/svg" xmlns:xlink="http://www.w3.org/1999/xlink">
<rect width="629" height="427" rx="16" fill="#371B92"/>
<path d="M462.548 57.168C459.524 57.168 458.166 55.936 458.236 53.976L459.776 53.948C459.776 55.222 460.518 55.824 462.548 55.824C464.452 55.824 465.25 55.222 465.25 54.256C465.25 53.43 464.9 53.024 462.996 52.758L461.666 52.576C459.482 52.268 458.236 51.54 458.236 49.748C458.236 47.984 459.72 47.018 462.324 46.976C465.096 47.004 466.482 48.082 466.44 50.014H464.942C464.942 48.866 464.102 48.306 462.338 48.306C460.504 48.306 459.706 48.852 459.706 49.72C459.706 50.574 460.14 50.924 461.82 51.162L463.22 51.358C465.656 51.708 466.776 52.506 466.776 54.27C466.776 56.034 465.32 57.168 462.562 57.168H462.548ZM469.454 59.52C469.048 59.52 468.642 59.478 468.124 59.268L468.446 58.134C469.426 58.4 470.028 58.344 470.546 57.266L470.784 56.762C470.854 56.58 470.854 56.44 470.77 56.286L467.396 49.958H468.992L471.596 55.11L473.976 49.958H475.488L471.792 57.63C471.176 58.918 470.644 59.52 469.454 59.52ZM477.505 55.012C477.589 55.6 478.135 55.908 479.367 55.936C480.697 55.936 481.341 55.614 481.341 54.97C481.341 54.466 481.117 54.116 479.787 53.934L478.905 53.822C477.015 53.584 476.133 53.122 476.133 51.806C476.133 50.518 477.351 49.706 479.297 49.706C481.173 49.706 482.307 50.462 482.489 51.708H481.145C481.047 51.176 480.459 50.924 479.297 50.91C478.093 50.924 477.449 51.26 477.449 51.806C477.449 52.296 477.757 52.562 478.961 52.73L479.941 52.856C481.929 53.094 482.741 53.626 482.741 54.97C482.741 56.314 481.579 57.154 479.367 57.168C477.253 57.154 476.217 56.342 476.105 55.012H477.505ZM486.973 57.112C485.265 57.112 484.761 56.16 484.705 54.718V51.218H483.501V50H484.705V47.396H486.063V50H488.373V51.218H486.063V54.83C486.063 56.076 487.281 55.95 488.303 55.726L488.625 56.804C487.953 57.028 487.519 57.112 486.973 57.112ZM495.27 52.814C495.158 51.638 494.332 50.938 492.876 50.938C491.448 50.938 490.608 51.638 490.51 52.814H495.27ZM488.998 53.444C488.998 51.106 490.552 49.706 492.918 49.706C495.298 49.706 496.81 51.092 496.796 53.43L496.782 53.878H490.454C490.552 55.124 491.336 55.922 492.876 55.922C494.22 55.922 494.99 55.362 495.242 54.396H496.698C496.278 56.216 494.85 57.168 492.876 57.168C490.454 57.168 488.998 55.768 488.998 53.444ZM497.98 57V49.972H499.324V50.84C499.94 50.112 500.836 49.706 501.69 49.706C502.824 49.706 503.552 50.084 503.944 50.91C504.658 50.112 505.61 49.706 506.646 49.706C508.326 49.706 509.264 50.546 509.264 52.212V57H507.892V52.52C507.892 51.442 507.528 50.966 506.464 50.966C505.526 50.966 504.308 51.456 504.308 52.604V57H502.95V52.52C502.95 51.47 502.558 50.966 501.508 50.966C500.444 50.966 499.324 51.666 499.324 52.828V57H497.98ZM519.314 57.168C516.29 57.168 514.932 55.936 515.002 53.976L516.542 53.948C516.542 55.222 517.284 55.824 519.314 55.824C521.218 55.824 522.016 55.222 522.016 54.256C522.016 53.43 521.666 53.024 519.762 52.758L518.432 52.576C516.248 52.268 515.002 51.54 515.002 49.748C515.002 47.984 516.486 47.018 519.09 46.976C521.862 47.004 523.248 48.082 523.206 50.014H521.708C521.708 48.866 520.868 48.306 519.104 48.306C517.27 48.306 516.472 48.852 516.472 49.72C516.472 50.574 516.906 50.924 518.586 51.162L519.986 51.358C522.422 51.708 523.542 52.506 523.542 54.27C523.542 56.034 522.086 57.168 519.328 57.168H519.314ZM528.208 57.112C526.5 57.112 525.996 56.16 525.94 54.718V51.218H524.736V50H525.94V47.396H527.298V50H529.608V51.218H527.298V54.83C527.298 56.076 528.516 55.95 529.538 55.726L529.86 56.804C529.188 57.028 528.754 57.112 528.208 57.112ZM530.993 52.198C531.049 50.49 532.071 49.734 534.213 49.706C536.481 49.706 537.405 50.644 537.405 52.408V57H536.061V56.062C535.543 56.664 534.801 57.126 533.513 57.112C531.777 57.098 530.587 56.356 530.587 54.858C530.587 52.884 532.631 52.576 534.717 52.548L536.047 52.52V52.338C536.047 51.33 535.641 50.91 534.213 50.91C532.869 50.91 532.421 51.302 532.365 52.198H530.993ZM531.959 54.872C531.959 55.502 532.407 55.908 533.625 55.908C535.081 55.908 536.047 55.376 536.047 54.34V53.57L534.815 53.612C532.603 53.682 531.959 54.018 531.959 54.872ZM541.565 57.112C539.857 57.112 539.353 56.16 539.297 54.718V51.218H538.093V50H539.297V47.396H540.655V50H542.965V51.218H540.655V54.83C540.655 56.076 541.873 55.95 542.895 55.726L543.217 56.804C542.545 57.028 542.111 57.112 541.565 57.112ZM547.031 57.168C545.239 57.168 544.343 56.272 544.287 54.494V50H545.617V54.242C545.617 55.39 546.051 55.894 547.227 55.894C548.151 55.894 549.607 55.446 549.607 54.102V50H550.951V57H549.621V56.034C548.907 56.818 548.067 57.168 547.031 57.168ZM553.562 55.012C553.646 55.6 554.192 55.908 555.424 55.936C556.754 55.936 557.398 55.614 557.398 54.97C557.398 54.466 557.174 54.116 555.844 53.934L554.962 53.822C553.072 53.584 552.19 53.122 552.19 51.806C552.19 50.518 553.408 49.706 555.354 49.706C557.23 49.706 558.364 50.462 558.546 51.708H557.202C557.104 51.176 556.516 50.924 555.354 50.91C554.15 50.924 553.506 51.26 553.506 51.806C553.506 52.296 553.814 52.562 555.018 52.73L555.998 52.856C557.986 53.094 558.798 53.626 558.798 54.97C558.798 56.314 557.636 57.154 555.424 57.168C553.31 57.154 552.274 56.342 552.162 55.012H553.562Z" fill="white"/>
<rect x="421" y="82" width="175" height="303" rx="8" fill="#45468D"/>
<path d="M475.754 115.168C472.66 115.168 470.602 113.278 470.602 110.086C470.602 106.866 472.688 104.976 475.754 104.976C478.876 104.976 480.934 106.866 480.934 110.058C480.934 113.278 478.904 115.168 475.754 115.168ZM472.086 110.086C472.086 112.466 473.346 113.824 475.754 113.824C478.19 113.824 479.436 112.438 479.436 110.086C479.436 107.706 478.162 106.32 475.754 106.32C473.36 106.32 472.086 107.678 472.086 110.086ZM482.127 115V108H483.471V108.868C484.227 107.916 485.557 107.678 486.607 107.916L486.425 109.176C485.081 108.91 483.471 109.372 483.471 110.786V115H482.127ZM490.591 115.168C488.365 115.182 487.049 113.698 487.049 111.444C487.049 109.106 488.477 107.706 490.731 107.706C491.683 107.706 492.565 107.986 493.153 108.756V105.2H494.497V115H493.167V113.95C492.621 114.734 491.837 115.154 490.591 115.168ZM488.435 111.444C488.435 113.11 489.401 113.908 490.731 113.908C492.257 113.908 493.195 113.096 493.195 111.738V111.178C493.195 109.694 492.341 108.938 490.843 108.938C489.359 108.938 488.435 109.736 488.435 111.444ZM501.921 110.814C501.809 109.638 500.983 108.938 499.527 108.938C498.099 108.938 497.259 109.638 497.161 110.814H501.921ZM495.649 111.444C495.649 109.106 497.203 107.706 499.569 107.706C501.949 107.706 503.461 109.092 503.447 111.43L503.433 111.878H497.105C497.203 113.124 497.987 113.922 499.527 113.922C500.871 113.922 501.641 113.362 501.893 112.396H503.349C502.929 114.216 501.501 115.168 499.527 115.168C497.105 115.168 495.649 113.768 495.649 111.444ZM504.631 115V108H505.975V108.868C506.731 107.916 508.061 107.678 509.111 107.916L508.929 109.176C507.585 108.91 505.975 109.372 505.975 110.786V115H504.631ZM515.825 110.814C515.713 109.638 514.887 108.938 513.431 108.938C512.003 108.938 511.163 109.638 511.065 110.814H515.825ZM509.553 111.444C509.553 109.106 511.107 107.706 513.473 107.706C515.853 107.706 517.365 109.092 517.351 111.43L517.337 111.878H511.009C511.107 113.124 511.891 113.922 513.431 113.922C514.775 113.922 515.545 113.362 515.797 112.396H517.253C516.833 114.216 515.405 115.168 513.431 115.168C511.009 115.168 509.553 113.768 509.553 111.444ZM521.886 115.168C519.66 115.182 518.344 113.698 518.344 111.444C518.344 109.106 519.772 107.706 522.026 107.706C522.978 107.706 523.86 107.986 524.448 108.756V105.2H525.792V115H524.462V113.95C523.916 114.734 523.132 115.154 521.886 115.168ZM519.73 111.444C519.73 113.11 520.696 113.908 522.026 113.908C523.552 113.908 524.49 113.096 524.49 111.738V111.178C524.49 109.694 523.636 108.938 522.138 108.938C520.654 108.938 519.73 109.736 519.73 111.444Z" fill="white"/>
<path d="M474.928 176.168C471.904 176.168 470.546 174.936 470.616 172.976L472.156 172.948C472.156 174.222 472.898 174.824 474.928 174.824C476.832 174.824 477.63 174.222 477.63 173.256C477.63 172.43 477.28 172.024 475.376 171.758L474.046 171.576C471.862 171.268 470.616 170.54 470.616 168.748C470.616 166.984 472.1 166.018 474.704 165.976C477.476 166.004 478.862 167.082 478.82 169.014H477.322C477.322 167.866 476.482 167.306 474.718 167.306C472.884 167.306 472.086 167.852 472.086 168.72C472.086 169.574 472.52 169.924 474.2 170.162L475.6 170.358C478.036 170.708 479.156 171.506 479.156 173.27C479.156 175.034 477.7 176.168 474.942 176.168H474.928ZM480.35 176V166.2H481.694V169.756C482.45 169.014 483.346 168.706 484.34 168.706C486.216 168.706 487.182 169.63 487.182 171.352V176H485.824V171.646C485.824 170.512 485.376 169.966 484.158 169.966C482.94 169.966 481.694 170.596 481.694 171.87V176H480.35ZM488.389 176V168.972H489.733V176H488.389ZM488.375 167.852V166.2H489.747V167.852H488.375ZM490.932 178.38V169H492.276V169.952C492.808 169.112 493.732 168.706 494.852 168.706C497.12 168.706 498.408 170.176 498.408 172.416C498.408 174.726 496.994 176.168 494.712 176.168C493.746 176.168 492.864 175.86 492.276 175.076V178.38H490.932ZM492.262 172.682C492.262 174.082 493.018 174.922 494.614 174.922C496.098 174.922 496.994 174.124 496.994 172.416C496.994 170.68 496.014 169.938 494.712 169.938C493.144 169.938 492.262 170.834 492.262 172.108V172.682ZM499.559 178.38V169H500.903V169.952C501.435 169.112 502.359 168.706 503.479 168.706C505.747 168.706 507.035 170.176 507.035 172.416C507.035 174.726 505.621 176.168 503.339 176.168C502.373 176.168 501.491 175.86 500.903 175.076V178.38H499.559ZM500.889 172.682C500.889 174.082 501.645 174.922 503.241 174.922C504.725 174.922 505.621 174.124 505.621 172.416C505.621 170.68 504.641 169.938 503.339 169.938C501.771 169.938 500.889 170.834 500.889 172.108V172.682ZM514.321 171.814C514.209 170.638 513.383 169.938 511.927 169.938C510.499 169.938 509.659 170.638 509.561 171.814H514.321ZM508.049 172.444C508.049 170.106 509.603 168.706 511.969 168.706C514.349 168.706 515.861 170.092 515.847 172.43L515.833 172.878H509.505C509.603 174.124 510.387 174.922 511.927 174.922C513.271 174.922 514.041 174.362 514.293 173.396H515.749C515.329 175.216 513.901 176.168 511.927 176.168C509.505 176.168 508.049 174.768 508.049 172.444ZM520.382 176.168C518.156 176.182 516.84 174.698 516.84 172.444C516.84 170.106 518.268 168.706 520.522 168.706C521.474 168.706 522.356 168.986 522.944 169.756V166.2H524.288V176H522.958V174.95C522.412 175.734 521.628 176.154 520.382 176.168ZM518.226 172.444C518.226 174.11 519.192 174.908 520.522 174.908C522.048 174.908 522.986 174.096 522.986 172.738V172.178C522.986 170.694 522.132 169.938 520.634 169.938C519.15 169.938 518.226 170.736 518.226 172.444Z" fill="white"/>
<path d="M473.864 237L470.602 227.2H472.212L474.55 234.732L476.986 227.2H478.358L480.766 234.718L483.104 227.2H484.658L481.424 237H480.08L477.63 229.356L475.194 237H473.864ZM485.158 232.198C485.214 230.49 486.236 229.734 488.378 229.706C490.646 229.706 491.57 230.644 491.57 232.408V237H490.226V236.062C489.708 236.664 488.966 237.126 487.678 237.112C485.942 237.098 484.752 236.356 484.752 234.858C484.752 232.884 486.796 232.576 488.882 232.548L490.212 232.52V232.338C490.212 231.33 489.806 230.91 488.378 230.91C487.034 230.91 486.586 231.302 486.53 232.198H485.158ZM486.124 234.872C486.124 235.502 486.572 235.908 487.79 235.908C489.246 235.908 490.212 235.376 490.212 234.34V233.57L488.98 233.612C486.768 233.682 486.124 234.018 486.124 234.872ZM492.819 237V230H494.163V230.868C494.919 229.916 496.249 229.678 497.299 229.916L497.117 231.176C495.773 230.91 494.163 231.372 494.163 232.786V237H492.819ZM504.013 232.814C503.901 231.638 503.075 230.938 501.619 230.938C500.191 230.938 499.351 231.638 499.253 232.814H504.013ZM497.741 233.444C497.741 231.106 499.295 229.706 501.661 229.706C504.041 229.706 505.553 231.092 505.539 233.43L505.525 233.878H499.197C499.295 235.124 500.079 235.922 501.619 235.922C502.963 235.922 503.733 235.362 503.985 234.396H505.441C505.021 236.216 503.593 237.168 501.619 237.168C499.197 237.168 497.741 235.768 497.741 233.444ZM506.668 237V227.2H508.012V230.756C508.768 230.014 509.664 229.706 510.658 229.706C512.534 229.706 513.5 230.63 513.5 232.352V237H512.142V232.646C512.142 231.512 511.694 230.966 510.476 230.966C509.258 230.966 508.012 231.596 508.012 232.87V237H506.668ZM518.435 237.168C516.013 237.168 514.557 235.768 514.557 233.444C514.557 231.106 516.111 229.706 518.477 229.706C520.857 229.706 522.355 231.092 522.355 233.43C522.355 235.74 520.829 237.168 518.435 237.168ZM515.957 233.444C515.957 234.97 516.741 235.922 518.435 235.922C520.157 235.922 520.955 234.956 520.955 233.43C520.955 231.904 520.157 230.938 518.435 230.938C516.741 230.938 515.957 231.89 515.957 233.444ZM526.147 237.168C524.355 237.168 523.459 236.272 523.403 234.494V230H524.733V234.242C524.733 235.39 525.167 235.894 526.343 235.894C527.267 235.894 528.723 235.446 528.723 234.102V230H530.067V237H528.737V236.034C528.023 236.818 527.183 237.168 526.147 237.168ZM532.678 235.012C532.762 235.6 533.308 235.908 534.54 235.936C535.87 235.936 536.514 235.614 536.514 234.97C536.514 234.466 536.29 234.116 534.96 233.934L534.078 233.822C532.188 233.584 531.306 233.122 531.306 231.806C531.306 230.518 532.524 229.706 534.47 229.706C536.346 229.706 537.48 230.462 537.662 231.708H536.318C536.22 231.176 535.632 230.924 534.47 230.91C533.266 230.924 532.622 231.26 532.622 231.806C532.622 232.296 532.93 232.562 534.134 232.73L535.114 232.856C537.102 233.094 537.914 233.626 537.914 234.97C537.914 236.314 536.752 237.154 534.54 237.168C532.426 237.154 531.39 236.342 531.278 235.012H532.678ZM544.946 232.814C544.834 231.638 544.008 230.938 542.552 230.938C541.124 230.938 540.284 231.638 540.186 232.814H544.946ZM538.674 233.444C538.674 231.106 540.228 229.706 542.594 229.706C544.974 229.706 546.486 231.092 546.472 233.43L546.458 233.878H540.13C540.228 235.124 541.012 235.922 542.552 235.922C543.896 235.922 544.666 235.362 544.918 234.396H546.374C545.954 236.216 544.526 237.168 542.552 237.168C540.13 237.168 538.674 235.768 538.674 233.444Z" fill="white"/>
<path d="M475.754 298.168C472.66 298.168 470.602 296.278 470.602 293.086C470.602 289.866 472.688 287.976 475.754 287.976C478.876 287.976 480.934 289.866 480.934 293.058C480.934 296.278 478.904 298.168 475.754 298.168ZM472.086 293.086C472.086 295.466 473.346 296.824 475.754 296.824C478.19 296.824 479.436 295.438 479.436 293.086C479.436 290.706 478.162 289.32 475.754 289.32C473.36 289.32 472.086 290.678 472.086 293.086ZM484.871 298.168C483.079 298.168 482.183 297.272 482.127 295.494V291H483.457V295.242C483.457 296.39 483.891 296.894 485.067 296.894C485.991 296.894 487.447 296.446 487.447 295.102V291H488.791V298H487.461V297.034C486.747 297.818 485.907 298.168 484.871 298.168ZM493.461 298.112C491.753 298.112 491.249 297.16 491.193 295.718V292.218H489.989V291H491.193V288.396H492.551V291H494.861V292.218H492.551V295.83C492.551 297.076 493.769 296.95 494.791 296.726L495.113 297.804C494.441 298.028 494.007 298.112 493.461 298.112ZM502.062 298V292.204H500.858V290.972H502.062V290.272C502.062 288.83 503.182 288.144 504.568 288.144C504.82 288.144 505.1 288.158 505.59 288.228V289.404C505.408 289.376 504.862 289.376 504.68 289.376C503.84 289.376 503.434 289.642 503.434 290.482V290.972H505.59V292.204H503.434V298H502.062ZM510.109 298.168C507.687 298.168 506.231 296.768 506.231 294.444C506.231 292.106 507.785 290.706 510.151 290.706C512.531 290.706 514.029 292.092 514.029 294.43C514.029 296.74 512.503 298.168 510.109 298.168ZM507.631 294.444C507.631 295.97 508.415 296.922 510.109 296.922C511.831 296.922 512.629 295.956 512.629 294.43C512.629 292.904 511.831 291.938 510.109 291.938C508.415 291.938 507.631 292.89 507.631 294.444ZM515.213 298V291H516.557V291.868C517.313 290.916 518.643 290.678 519.693 290.916L519.511 292.176C518.167 291.91 516.557 292.372 516.557 293.786V298H515.213ZM525.426 298V288.2H529.388C532.636 288.2 534.61 289.838 534.61 293.044C534.61 296.334 532.51 298 529.08 298H525.426ZM526.882 296.656H529.094C531.88 296.656 533.112 295.396 533.112 293.072C533.112 290.748 531.978 289.558 529.388 289.558H526.882V296.656ZM541.938 293.814C541.826 292.638 541 291.938 539.544 291.938C538.116 291.938 537.276 292.638 537.178 293.814H541.938ZM535.666 294.444C535.666 292.106 537.22 290.706 539.586 290.706C541.966 290.706 543.478 292.092 543.464 294.43L543.45 294.878H537.122C537.22 296.124 538.004 296.922 539.544 296.922C540.888 296.922 541.658 296.362 541.91 295.396H543.366C542.946 297.216 541.518 298.168 539.544 298.168C537.122 298.168 535.666 296.768 535.666 294.444ZM544.594 298V288.2H545.938V298H544.594ZM547.151 298V290.972H548.495V298H547.151ZM547.137 289.852V288.2H548.509V289.852H547.137ZM553.055 298L549.639 290.972H551.249L553.699 296.278L556.177 290.972H557.717L554.273 298H553.055ZM564.265 293.814C564.153 292.638 563.327 291.938 561.871 291.938C560.443 291.938 559.603 292.638 559.505 293.814H564.265ZM557.993 294.444C557.993 292.106 559.547 290.706 561.913 290.706C564.293 290.706 565.805 292.092 565.791 294.43L565.777 294.878H559.449C559.547 296.124 560.331 296.922 561.871 296.922C563.215 296.922 563.985 296.362 564.237 295.396H565.693C565.273 297.216 563.845 298.168 561.871 298.168C559.449 298.168 557.993 296.768 557.993 294.444ZM566.975 298V291H568.319V291.868C569.075 290.916 570.405 290.678 571.455 290.916L571.273 292.176C569.929 291.91 568.319 292.372 568.319 293.786V298H566.975ZM574.515 300.52C574.109 300.52 573.703 300.478 573.185 300.268L573.507 299.134C574.487 299.4 575.089 299.344 575.607 298.266L575.845 297.762C575.915 297.58 575.915 297.44 575.831 297.286L572.457 290.958H574.053L576.657 296.11L579.037 290.958H580.549L576.853 298.63C576.237 299.918 575.705 300.52 574.515 300.52Z" fill="white"/>
<path d="M470.602 359V349.2H474.564C477.812 349.2 479.786 350.838 479.786 354.044C479.786 357.334 477.686 359 474.256 359H470.602ZM472.058 357.656H474.27C477.056 357.656 478.288 356.396 478.288 354.072C478.288 351.748 477.154 350.558 474.564 350.558H472.058V357.656ZM487.114 354.814C487.002 353.638 486.176 352.938 484.72 352.938C483.292 352.938 482.452 353.638 482.354 354.814H487.114ZM480.842 355.444C480.842 353.106 482.396 351.706 484.762 351.706C487.142 351.706 488.654 353.092 488.64 355.43L488.626 355.878H482.298C482.396 357.124 483.18 357.922 484.72 357.922C486.064 357.922 486.834 357.362 487.086 356.396H488.542C488.122 358.216 486.694 359.168 484.72 359.168C482.298 359.168 480.842 357.768 480.842 355.444ZM489.77 359V349.2H491.114V359H489.77ZM492.327 359V351.972H493.671V359H492.327ZM492.313 350.852V349.2H493.685V350.852H492.313ZM498.231 359L494.815 351.972H496.425L498.875 357.278L501.353 351.972H502.893L499.449 359H498.231ZM509.44 354.814C509.328 353.638 508.502 352.938 507.046 352.938C505.618 352.938 504.778 353.638 504.68 354.814H509.44ZM503.168 355.444C503.168 353.106 504.722 351.706 507.088 351.706C509.468 351.706 510.98 353.092 510.966 355.43L510.952 355.878H504.624C504.722 357.124 505.506 357.922 507.046 357.922C508.39 357.922 509.16 357.362 509.412 356.396H510.868C510.448 358.216 509.02 359.168 507.046 359.168C504.624 359.168 503.168 357.768 503.168 355.444ZM512.151 359V352H513.495V352.868C514.251 351.916 515.581 351.678 516.631 351.916L516.449 353.176C515.105 352.91 513.495 353.372 513.495 354.786V359H512.151ZM523.345 354.814C523.233 353.638 522.407 352.938 520.951 352.938C519.523 352.938 518.683 353.638 518.585 354.814H523.345ZM517.073 355.444C517.073 353.106 518.627 351.706 520.993 351.706C523.373 351.706 524.885 353.092 524.871 355.43L524.857 355.878H518.529C518.627 357.124 519.411 357.922 520.951 357.922C522.295 357.922 523.065 357.362 523.317 356.396H524.773C524.353 358.216 522.925 359.168 520.951 359.168C518.529 359.168 517.073 357.768 517.073 355.444ZM529.406 359.168C527.18 359.182 525.864 357.698 525.864 355.444C525.864 353.106 527.292 351.706 529.546 351.706C530.498 351.706 531.38 351.986 531.968 352.756V349.2H533.312V359H531.982V357.95C531.436 358.734 530.652 359.154 529.406 359.168ZM527.25 355.444C527.25 357.11 528.216 357.908 529.546 357.908C531.072 357.908 532.01 357.096 532.01 355.738V355.178C532.01 353.694 531.156 352.938 529.658 352.938C528.174 352.938 527.25 353.736 527.25 355.444Z" fill="white"/>
<line x1="445.5" y1="123" x2="445.5" y2="355" stroke="white"/>
<circle cx="446" cy="111" r="11" fill="#45468D" stroke="#9193E7" stroke-width="2"/>
<circle cx="446" cy="111" r="7" fill="white"/>
<circle cx="446" cy="172" r="11" fill="#45468D" stroke="#9193E7" stroke-width="2"/>
<circle cx="446" cy="233" r="11" fill="#45468D" stroke="#9193E7" stroke-width="2"/>
<circle cx="446" cy="294" r="11" fill="#45468D" stroke="#9193E7" stroke-width="2"/>
<circle cx="446" cy="355" r="11" fill="#45468D" stroke="#9193E7" stroke-width="2"/>
<circle cx="446" cy="172" r="7" fill="#F51216"/>
<path d="M69.5481 57.168C66.5241 57.168 65.1661 55.936 65.2361 53.976L66.7761 53.948C66.7761 55.222 67.5181 55.824 69.5481 55.824C71.4521 55.824 72.2501 55.222 72.2501 54.256C72.2501 53.43 71.9001 53.024 69.9961 52.758L68.6661 52.576C66.4821 52.268 65.2361 51.54 65.2361 49.748C65.2361 47.984 66.7201 47.018 69.3241 46.976C72.0961 47.004 73.4821 48.082 73.4401 50.014H71.9421C71.9421 48.866 71.1021 48.306 69.3381 48.306C67.5041 48.306 66.7061 48.852 66.7061 49.72C66.7061 50.574 67.1401 50.924 68.8201 51.162L70.2201 51.358C72.6561 51.708 73.7761 52.506 73.7761 54.27C73.7761 56.034 72.3201 57.168 69.5621 57.168H69.5481ZM76.4539 59.52C76.0479 59.52 75.6419 59.478 75.1239 59.268L75.4459 58.134C76.4259 58.4 77.0279 58.344 77.5459 57.266L77.7839 56.762C77.8539 56.58 77.8539 56.44 77.7699 56.286L74.3959 49.958H75.9919L78.5959 55.11L80.9759 49.958H82.4879L78.7919 57.63C78.1759 58.918 77.6439 59.52 76.4539 59.52ZM84.5053 55.012C84.5893 55.6 85.1353 55.908 86.3673 55.936C87.6973 55.936 88.3413 55.614 88.3413 54.97C88.3413 54.466 88.1173 54.116 86.7873 53.934L85.9053 53.822C84.0153 53.584 83.1333 53.122 83.1333 51.806C83.1333 50.518 84.3513 49.706 86.2973 49.706C88.1733 49.706 89.3073 50.462 89.4893 51.708H88.1453C88.0473 51.176 87.4593 50.924 86.2973 50.91C85.0933 50.924 84.4493 51.26 84.4493 51.806C84.4493 52.296 84.7573 52.562 85.9613 52.73L86.9413 52.856C88.9293 53.094 89.7413 53.626 89.7413 54.97C89.7413 56.314 88.5793 57.154 86.3673 57.168C84.2533 57.154 83.2173 56.342 83.1053 55.012H84.5053ZM93.9734 57.112C92.2654 57.112 91.7614 56.16 91.7054 54.718V51.218H90.5014V50H91.7054V47.396H93.0634V50H95.3734V51.218H93.0634V54.83C93.0634 56.076 94.2814 55.95 95.3034 55.726L95.6254 56.804C94.9534 57.028 94.5194 57.112 93.9734 57.112ZM102.27 52.814C102.158 51.638 101.332 50.938 99.8755 50.938C98.4475 50.938 97.6075 51.638 97.5095 52.814H102.27ZM95.9975 53.444C95.9975 51.106 97.5515 49.706 99.9175 49.706C102.298 49.706 103.81 51.092 103.796 53.43L103.782 53.878H97.4535C97.5515 55.124 98.3355 55.922 99.8755 55.922C101.22 55.922 101.99 55.362 102.242 54.396H103.698C103.278 56.216 101.85 57.168 99.8755 57.168C97.4535 57.168 95.9975 55.768 95.9975 53.444ZM104.98 57V49.972H106.324V50.84C106.94 50.112 107.836 49.706 108.69 49.706C109.824 49.706 110.552 50.084 110.944 50.91C111.658 50.112 112.61 49.706 113.646 49.706C115.326 49.706 116.264 50.546 116.264 52.212V57H114.892V52.52C114.892 51.442 114.528 50.966 113.464 50.966C112.526 50.966 111.308 51.456 111.308 52.604V57H109.95V52.52C109.95 51.47 109.558 50.966 108.508 50.966C107.444 50.966 106.324 51.666 106.324 52.828V57H104.98ZM126.314 57.168C123.29 57.168 121.932 55.936 122.002 53.976L123.542 53.948C123.542 55.222 124.284 55.824 126.314 55.824C128.218 55.824 129.016 55.222 129.016 54.256C129.016 53.43 128.666 53.024 126.762 52.758L125.432 52.576C123.248 52.268 122.002 51.54 122.002 49.748C122.002 47.984 123.486 47.018 126.09 46.976C128.862 47.004 130.248 48.082 130.206 50.014H128.708C128.708 48.866 127.868 48.306 126.104 48.306C124.27 48.306 123.472 48.852 123.472 49.72C123.472 50.574 123.906 50.924 125.586 51.162L126.986 51.358C129.422 51.708 130.542 52.506 130.542 54.27C130.542 56.034 129.086 57.168 126.328 57.168H126.314ZM135.208 57.112C133.5 57.112 132.996 56.16 132.94 54.718V51.218H131.736V50H132.94V47.396H134.298V50H136.608V51.218H134.298V54.83C134.298 56.076 135.516 55.95 136.538 55.726L136.86 56.804C136.188 57.028 135.754 57.112 135.208 57.112ZM137.993 52.198C138.049 50.49 139.071 49.734 141.213 49.706C143.481 49.706 144.405 50.644 144.405 52.408V57H143.061V56.062C142.543 56.664 141.801 57.126 140.513 57.112C138.777 57.098 137.587 56.356 137.587 54.858C137.587 52.884 139.631 52.576 141.717 52.548L143.047 52.52V52.338C143.047 51.33 142.641 50.91 141.213 50.91C139.869 50.91 139.421 51.302 139.365 52.198H137.993ZM138.959 54.872C138.959 55.502 139.407 55.908 140.625 55.908C142.081 55.908 143.047 55.376 143.047 54.34V53.57L141.815 53.612C139.603 53.682 138.959 54.018 138.959 54.872ZM148.565 57.112C146.857 57.112 146.353 56.16 146.297 54.718V51.218H145.093V50H146.297V47.396H147.655V50H149.965V51.218H147.655V54.83C147.655 56.076 148.873 55.95 149.895 55.726L150.217 56.804C149.545 57.028 149.111 57.112 148.565 57.112ZM154.031 57.168C152.239 57.168 151.343 56.272 151.287 54.494V50H152.617V54.242C152.617 55.39 153.051 55.894 154.227 55.894C155.151 55.894 156.607 55.446 156.607 54.102V50H157.951V57H156.621V56.034C155.907 56.818 155.067 57.168 154.031 57.168ZM160.562 55.012C160.646 55.6 161.192 55.908 162.424 55.936C163.754 55.936 164.398 55.614 164.398 54.97C164.398 54.466 164.174 54.116 162.844 53.934L161.962 53.822C160.072 53.584 159.19 53.122 159.19 51.806C159.19 50.518 160.408 49.706 162.354 49.706C164.23 49.706 165.364 50.462 165.546 51.708H164.202C164.104 51.176 163.516 50.924 162.354 50.91C161.15 50.924 160.506 51.26 160.506 51.806C160.506 52.296 160.814 52.562 162.018 52.73L162.998 52.856C164.986 53.094 165.798 53.626 165.798 54.97C165.798 56.314 164.636 57.154 162.424 57.168C160.31 57.154 159.274 56.342 159.162 55.012H160.562Z" fill="white"/>
<rect x="28" y="82" width="175" height="303" rx="8" fill="#45468D"/>
<path d="M82.754 115.168C79.66 115.168 77.602 113.278 77.602 110.086C77.602 106.866 79.688 104.976 82.754 104.976C85.876 104.976 87.934 106.866 87.934 110.058C87.934 113.278 85.904 115.168 82.754 115.168ZM79.086 110.086C79.086 112.466 80.346 113.824 82.754 113.824C85.19 113.824 86.436 112.438 86.436 110.086C86.436 107.706 85.162 106.32 82.754 106.32C80.36 106.32 79.086 107.678 79.086 110.086ZM89.1274 115V108H90.4714V108.868C91.2274 107.916 92.5574 107.678 93.6074 107.916L93.4254 109.176C92.0814 108.91 90.4714 109.372 90.4714 110.786V115H89.1274ZM97.5913 115.168C95.3653 115.182 94.0493 113.698 94.0493 111.444C94.0493 109.106 95.4773 107.706 97.7313 107.706C98.6833 107.706 99.5653 107.986 100.153 108.756V105.2H101.497V115H100.167V113.95C99.6213 114.734 98.8373 115.154 97.5913 115.168ZM95.4353 111.444C95.4353 113.11 96.4013 113.908 97.7313 113.908C99.2573 113.908 100.195 113.096 100.195 111.738V111.178C100.195 109.694 99.3413 108.938 97.8433 108.938C96.3593 108.938 95.4353 109.736 95.4353 111.444ZM108.921 110.814C108.809 109.638 107.983 108.938 106.527 108.938C105.099 108.938 104.259 109.638 104.161 110.814H108.921ZM102.649 111.444C102.649 109.106 104.203 107.706 106.569 107.706C108.949 107.706 110.461 109.092 110.447 111.43L110.433 111.878H104.105C104.203 113.124 104.987 113.922 106.527 113.922C107.871 113.922 108.641 113.362 108.893 112.396H110.349C109.929 114.216 108.501 115.168 106.527 115.168C104.105 115.168 102.649 113.768 102.649 111.444ZM111.631 115V108H112.975V108.868C113.731 107.916 115.061 107.678 116.111 107.916L115.929 109.176C114.585 108.91 112.975 109.372 112.975 110.786V115H111.631ZM122.825 110.814C122.713 109.638 121.887 108.938 120.431 108.938C119.003 108.938 118.163 109.638 118.065 110.814H122.825ZM116.553 111.444C116.553 109.106 118.107 107.706 120.473 107.706C122.853 107.706 124.365 109.092 124.351 111.43L124.337 111.878H118.009C118.107 113.124 118.891 113.922 120.431 113.922C121.775 113.922 122.545 113.362 122.797 112.396H124.253C123.833 114.216 122.405 115.168 120.431 115.168C118.009 115.168 116.553 113.768 116.553 111.444ZM128.886 115.168C126.66 115.182 125.344 113.698 125.344 111.444C125.344 109.106 126.772 107.706 129.026 107.706C129.978 107.706 130.86 107.986 131.448 108.756V105.2H132.792V115H131.462V113.95C130.916 114.734 130.132 115.154 128.886 115.168ZM126.73 111.444C126.73 113.11 127.696 113.908 129.026 113.908C130.552 113.908 131.49 113.096 131.49 111.738V111.178C131.49 109.694 130.636 108.938 129.138 108.938C127.654 108.938 126.73 109.736 126.73 111.444Z" fill="white"/>
<path d="M81.928 176.168C78.904 176.168 77.546 174.936 77.616 172.976L79.156 172.948C79.156 174.222 79.898 174.824 81.928 174.824C83.832 174.824 84.63 174.222 84.63 173.256C84.63 172.43 84.28 172.024 82.376 171.758L81.046 171.576C78.862 171.268 77.616 170.54 77.616 168.748C77.616 166.984 79.1 166.018 81.704 165.976C84.476 166.004 85.862 167.082 85.82 169.014H84.322C84.322 167.866 83.482 167.306 81.718 167.306C79.884 167.306 79.086 167.852 79.086 168.72C79.086 169.574 79.52 169.924 81.2 170.162L82.6 170.358C85.036 170.708 86.156 171.506 86.156 173.27C86.156 175.034 84.7 176.168 81.942 176.168H81.928ZM87.35 176V166.2H88.694V169.756C89.45 169.014 90.346 168.706 91.34 168.706C93.216 168.706 94.182 169.63 94.182 171.352V176H92.824V171.646C92.824 170.512 92.376 169.966 91.158 169.966C89.94 169.966 88.694 170.596 88.694 171.87V176H87.35ZM95.3894 176V168.972H96.7334V176H95.3894ZM95.3754 167.852V166.2H96.7474V167.852H95.3754ZM97.9321 178.38V169H99.2761V169.952C99.8081 169.112 100.732 168.706 101.852 168.706C104.12 168.706 105.408 170.176 105.408 172.416C105.408 174.726 103.994 176.168 101.712 176.168C100.746 176.168 99.8641 175.86 99.2761 175.076V178.38H97.9321ZM99.2621 172.682C99.2621 174.082 100.018 174.922 101.614 174.922C103.098 174.922 103.994 174.124 103.994 172.416C103.994 170.68 103.014 169.938 101.712 169.938C100.144 169.938 99.2621 170.834 99.2621 172.108V172.682ZM106.559 178.38V169H107.903V169.952C108.435 169.112 109.359 168.706 110.479 168.706C112.747 168.706 114.035 170.176 114.035 172.416C114.035 174.726 112.621 176.168 110.339 176.168C109.373 176.168 108.491 175.86 107.903 175.076V178.38H106.559ZM107.889 172.682C107.889 174.082 108.645 174.922 110.241 174.922C111.725 174.922 112.621 174.124 112.621 172.416C112.621 170.68 111.641 169.938 110.339 169.938C108.771 169.938 107.889 170.834 107.889 172.108V172.682ZM121.321 171.814C121.209 170.638 120.383 169.938 118.927 169.938C117.499 169.938 116.659 170.638 116.561 171.814H121.321ZM115.049 172.444C115.049 170.106 116.603 168.706 118.969 168.706C121.349 168.706 122.861 170.092 122.847 172.43L122.833 172.878H116.505C116.603 174.124 117.387 174.922 118.927 174.922C120.271 174.922 121.041 174.362 121.293 173.396H122.749C122.329 175.216 120.901 176.168 118.927 176.168C116.505 176.168 115.049 174.768 115.049 172.444ZM127.382 176.168C125.156 176.182 123.84 174.698 123.84 172.444C123.84 170.106 125.268 168.706 127.522 168.706C128.474 168.706 129.356 168.986 129.944 169.756V166.2H131.288V176H129.958V174.95C129.412 175.734 128.628 176.154 127.382 176.168ZM125.226 172.444C125.226 174.11 126.192 174.908 127.522 174.908C129.048 174.908 129.986 174.096 129.986 172.738V172.178C129.986 170.694 129.132 169.938 127.634 169.938C126.15 169.938 125.226 170.736 125.226 172.444Z" fill="white"/>
<path d="M80.864 237L77.602 227.2H79.212L81.55 234.732L83.986 227.2H85.358L87.766 234.718L90.104 227.2H91.658L88.424 237H87.08L84.63 229.356L82.194 237H80.864ZM92.1584 232.198C92.2144 230.49 93.2364 229.734 95.3784 229.706C97.6464 229.706 98.5704 230.644 98.5704 232.408V237H97.2264V236.062C96.7084 236.664 95.9664 237.126 94.6784 237.112C92.9424 237.098 91.7524 236.356 91.7524 234.858C91.7524 232.884 93.7964 232.576 95.8824 232.548L97.2124 232.52V232.338C97.2124 231.33 96.8064 230.91 95.3784 230.91C94.0344 230.91 93.5864 231.302 93.5304 232.198H92.1584ZM93.1244 234.872C93.1244 235.502 93.5724 235.908 94.7904 235.908C96.2464 235.908 97.2124 235.376 97.2124 234.34V233.57L95.9804 233.612C93.7684 233.682 93.1244 234.018 93.1244 234.872ZM99.8188 237V230H101.163V230.868C101.919 229.916 103.249 229.678 104.299 229.916L104.117 231.176C102.773 230.91 101.163 231.372 101.163 232.786V237H99.8188ZM111.013 232.814C110.901 231.638 110.075 230.938 108.619 230.938C107.191 230.938 106.351 231.638 106.253 232.814H111.013ZM104.741 233.444C104.741 231.106 106.295 229.706 108.661 229.706C111.041 229.706 112.553 231.092 112.539 233.43L112.525 233.878H106.197C106.295 235.124 107.079 235.922 108.619 235.922C109.963 235.922 110.733 235.362 110.985 234.396H112.441C112.021 236.216 110.593 237.168 108.619 237.168C106.197 237.168 104.741 235.768 104.741 233.444ZM113.668 237V227.2H115.012V230.756C115.768 230.014 116.664 229.706 117.658 229.706C119.534 229.706 120.5 230.63 120.5 232.352V237H119.142V232.646C119.142 231.512 118.694 230.966 117.476 230.966C116.258 230.966 115.012 231.596 115.012 232.87V237H113.668ZM125.435 237.168C123.013 237.168 121.557 235.768 121.557 233.444C121.557 231.106 123.111 229.706 125.477 229.706C127.857 229.706 129.355 231.092 129.355 233.43C129.355 235.74 127.829 237.168 125.435 237.168ZM122.957 233.444C122.957 234.97 123.741 235.922 125.435 235.922C127.157 235.922 127.955 234.956 127.955 233.43C127.955 231.904 127.157 230.938 125.435 230.938C123.741 230.938 122.957 231.89 122.957 233.444ZM133.147 237.168C131.355 237.168 130.459 236.272 130.403 234.494V230H131.733V234.242C131.733 235.39 132.167 235.894 133.343 235.894C134.267 235.894 135.723 235.446 135.723 234.102V230H137.067V237H135.737V236.034C135.023 236.818 134.183 237.168 133.147 237.168ZM139.678 235.012C139.762 235.6 140.308 235.908 141.54 235.936C142.87 235.936 143.514 235.614 143.514 234.97C143.514 234.466 143.29 234.116 141.96 233.934L141.078 233.822C139.188 233.584 138.306 233.122 138.306 231.806C138.306 230.518 139.524 229.706 141.47 229.706C143.346 229.706 144.48 230.462 144.662 231.708H143.318C143.22 231.176 142.632 230.924 141.47 230.91C140.266 230.924 139.622 231.26 139.622 231.806C139.622 232.296 139.93 232.562 141.134 232.73L142.114 232.856C144.102 233.094 144.914 233.626 144.914 234.97C144.914 236.314 143.752 237.154 141.54 237.168C139.426 237.154 138.39 236.342 138.278 235.012H139.678ZM151.946 232.814C151.834 231.638 151.008 230.938 149.552 230.938C148.124 230.938 147.284 231.638 147.186 232.814H151.946ZM145.674 233.444C145.674 231.106 147.228 229.706 149.594 229.706C151.974 229.706 153.486 231.092 153.472 233.43L153.458 233.878H147.13C147.228 235.124 148.012 235.922 149.552 235.922C150.896 235.922 151.666 235.362 151.918 234.396H153.374C152.954 236.216 151.526 237.168 149.552 237.168C147.13 237.168 145.674 235.768 145.674 233.444Z" fill="white"/>
<path d="M82.754 298.168C79.66 298.168 77.602 296.278 77.602 293.086C77.602 289.866 79.688 287.976 82.754 287.976C85.876 287.976 87.934 289.866 87.934 293.058C87.934 296.278 85.904 298.168 82.754 298.168ZM79.086 293.086C79.086 295.466 80.346 296.824 82.754 296.824C85.19 296.824 86.436 295.438 86.436 293.086C86.436 290.706 85.162 289.32 82.754 289.32C80.36 289.32 79.086 290.678 79.086 293.086ZM91.8714 298.168C90.0794 298.168 89.1834 297.272 89.1274 295.494V291H90.4574V295.242C90.4574 296.39 90.8914 296.894 92.0674 296.894C92.9914 296.894 94.4474 296.446 94.4474 295.102V291H95.7914V298H94.4614V297.034C93.7474 297.818 92.9074 298.168 91.8714 298.168ZM100.461 298.112C98.7527 298.112 98.2487 297.16 98.1927 295.718V292.218H96.9887V291H98.1927V288.396H99.5507V291H101.861V292.218H99.5507V295.83C99.5507 297.076 100.769 296.95 101.791 296.726L102.113 297.804C101.441 298.028 101.007 298.112 100.461 298.112ZM109.062 298V292.204H107.858V290.972H109.062V290.272C109.062 288.83 110.182 288.144 111.568 288.144C111.82 288.144 112.1 288.158 112.59 288.228V289.404C112.408 289.376 111.862 289.376 111.68 289.376C110.84 289.376 110.434 289.642 110.434 290.482V290.972H112.59V292.204H110.434V298H109.062ZM117.109 298.168C114.687 298.168 113.231 296.768 113.231 294.444C113.231 292.106 114.785 290.706 117.151 290.706C119.531 290.706 121.029 292.092 121.029 294.43C121.029 296.74 119.503 298.168 117.109 298.168ZM114.631 294.444C114.631 295.97 115.415 296.922 117.109 296.922C118.831 296.922 119.629 295.956 119.629 294.43C119.629 292.904 118.831 291.938 117.109 291.938C115.415 291.938 114.631 292.89 114.631 294.444ZM122.213 298V291H123.557V291.868C124.313 290.916 125.643 290.678 126.693 290.916L126.511 292.176C125.167 291.91 123.557 292.372 123.557 293.786V298H122.213ZM132.426 298V288.2H136.388C139.636 288.2 141.61 289.838 141.61 293.044C141.61 296.334 139.51 298 136.08 298H132.426ZM133.882 296.656H136.094C138.88 296.656 140.112 295.396 140.112 293.072C140.112 290.748 138.978 289.558 136.388 289.558H133.882V296.656ZM148.938 293.814C148.826 292.638 148 291.938 146.544 291.938C145.116 291.938 144.276 292.638 144.178 293.814H148.938ZM142.666 294.444C142.666 292.106 144.22 290.706 146.586 290.706C148.966 290.706 150.478 292.092 150.464 294.43L150.45 294.878H144.122C144.22 296.124 145.004 296.922 146.544 296.922C147.888 296.922 148.658 296.362 148.91 295.396H150.366C149.946 297.216 148.518 298.168 146.544 298.168C144.122 298.168 142.666 296.768 142.666 294.444ZM151.594 298V288.2H152.938V298H151.594ZM154.151 298V290.972H155.495V298H154.151ZM154.137 289.852V288.2H155.509V289.852H154.137ZM160.055 298L156.639 290.972H158.249L160.699 296.278L163.177 290.972H164.717L161.273 298H160.055ZM171.265 293.814C171.153 292.638 170.327 291.938 168.871 291.938C167.443 291.938 166.603 292.638 166.505 293.814H171.265ZM164.993 294.444C164.993 292.106 166.547 290.706 168.913 290.706C171.293 290.706 172.805 292.092 172.791 294.43L172.777 294.878H166.449C166.547 296.124 167.331 296.922 168.871 296.922C170.215 296.922 170.985 296.362 171.237 295.396H172.693C172.273 297.216 170.845 298.168 168.871 298.168C166.449 298.168 164.993 296.768 164.993 294.444ZM173.975 298V291H175.319V291.868C176.075 290.916 177.405 290.678 178.455 290.916L178.273 292.176C176.929 291.91 175.319 292.372 175.319 293.786V298H173.975ZM181.515 300.52C181.109 300.52 180.703 300.478 180.185 300.268L180.507 299.134C181.487 299.4 182.089 299.344 182.607 298.266L182.845 297.762C182.915 297.58 182.915 297.44 182.831 297.286L179.457 290.958H181.053L183.657 296.11L186.037 290.958H187.549L183.853 298.63C183.237 299.918 182.705 300.52 181.515 300.52Z" fill="white"/>
<path d="M77.602 359V349.2H81.564C84.812 349.2 86.786 350.838 86.786 354.044C86.786 357.334 84.686 359 81.256 359H77.602ZM79.058 357.656H81.27C84.056 357.656 85.288 356.396 85.288 354.072C85.288 351.748 84.154 350.558 81.564 350.558H79.058V357.656ZM94.1142 354.814C94.0022 353.638 93.1762 352.938 91.7202 352.938C90.2922 352.938 89.4522 353.638 89.3542 354.814H94.1142ZM87.8422 355.444C87.8422 353.106 89.3962 351.706 91.7622 351.706C94.1422 351.706 95.6542 353.092 95.6402 355.43L95.6262 355.878H89.2982C89.3962 357.124 90.1802 357.922 91.7202 357.922C93.0642 357.922 93.8342 357.362 94.0862 356.396H95.5422C95.1222 358.216 93.6942 359.168 91.7202 359.168C89.2982 359.168 87.8422 357.768 87.8422 355.444ZM96.77 359V349.2H98.114V359H96.77ZM99.3269 359V351.972H100.671V359H99.3269ZM99.3129 350.852V349.2H100.685V350.852H99.3129ZM105.231 359L101.815 351.972H103.425L105.875 357.278L108.353 351.972H109.893L106.449 359H105.231ZM116.44 354.814C116.328 353.638 115.502 352.938 114.046 352.938C112.618 352.938 111.778 353.638 111.68 354.814H116.44ZM110.168 355.444C110.168 353.106 111.722 351.706 114.088 351.706C116.468 351.706 117.98 353.092 117.966 355.43L117.952 355.878H111.624C111.722 357.124 112.506 357.922 114.046 357.922C115.39 357.922 116.16 357.362 116.412 356.396H117.868C117.448 358.216 116.02 359.168 114.046 359.168C111.624 359.168 110.168 357.768 110.168 355.444ZM119.151 359V352H120.495V352.868C121.251 351.916 122.581 351.678 123.631 351.916L123.449 353.176C122.105 352.91 120.495 353.372 120.495 354.786V359H119.151ZM130.345 354.814C130.233 353.638 129.407 352.938 127.951 352.938C126.523 352.938 125.683 353.638 125.585 354.814H130.345ZM124.073 355.444C124.073 353.106 125.627 351.706 127.993 351.706C130.373 351.706 131.885 353.092 131.871 355.43L131.857 355.878H125.529C125.627 357.124 126.411 357.922 127.951 357.922C129.295 357.922 130.065 357.362 130.317 356.396H131.773C131.353 358.216 129.925 359.168 127.951 359.168C125.529 359.168 124.073 357.768 124.073 355.444ZM136.406 359.168C134.18 359.182 132.864 357.698 132.864 355.444C132.864 353.106 134.292 351.706 136.546 351.706C137.498 351.706 138.38 351.986 138.968 352.756V349.2H140.312V359H138.982V357.95C138.436 358.734 137.652 359.154 136.406 359.168ZM134.25 355.444C134.25 357.11 135.216 357.908 136.546 357.908C138.072 357.908 139.01 357.096 139.01 355.738V355.178C139.01 353.694 138.156 352.938 136.658 352.938C135.174 352.938 134.25 353.736 134.25 355.444Z" fill="white"/>
<line x1="52.5" y1="123" x2="52.5" y2="355" stroke="white"/>
<circle cx="53" cy="111" r="11" fill="#45468D" stroke="#9193E7" stroke-width="2"/>
<circle cx="53" cy="111" r="7" fill="white"/>
<circle cx="53" cy="172" r="11" fill="#45468D" stroke="#9193E7" stroke-width="2"/>
<circle cx="53" cy="233" r="11" fill="#45468D" stroke="#9193E7" stroke-width="2"/>
<circle cx="53" cy="294" r="11" fill="#45468D" stroke="#9193E7" stroke-width="2"/>
<circle cx="53" cy="355" r="11" fill="#45468D" stroke="#9193E7" stroke-width="2"/>
<circle cx="53" cy="233" r="7" fill="#00C7FF"/>
<circle cx="53" cy="172" r="7" fill="white"/>
<rect x="281" y="82" width="68" height="68" rx="4" fill="white"/>
  <path d="M18.8667 43.405C17.9492 41.7994 17.2365 40.0873 16.7286 38.2688C16.2207 36.4502 15.9668 34.5579 15.9668 32.5919C15.9668 30.6259 16.2207 28.7336 16.7286 26.915C17.2365 25.0964 17.9492 23.3843 18.8667 21.7787L22.2581 23.7448C21.5044 25.0555 20.9228 26.4562 20.5132 27.9471C20.1036 29.438 19.8988 30.9863 19.8988 32.5919C19.8988 34.1975 20.1036 35.7457 20.5132 37.2366C20.9228 38.7275 21.5044 40.1283 22.2581 41.439L18.8667 43.405ZM56.3194 43.405L52.928 41.439C53.6817 40.1283 54.2633 38.7275 54.6729 37.2366C55.0825 35.7457 55.2873 34.1975 55.2873 32.5919C55.2873 30.9863 55.0825 29.438 54.6729 27.9471C54.2633 26.4562 53.6817 25.0555 52.928 23.7448L56.3194 21.7787C57.2369 23.3843 57.9496 25.0964 58.4575 26.915C58.9654 28.7336 59.2193 30.6259 59.2193 32.5919C59.2193 34.5579 58.9654 36.4502 58.4575 38.2688C57.9496 40.0873 57.2369 41.7994 56.3194 43.405ZM31.695 52.2521L29.0409 43.3067C27.468 42.0616 26.2065 40.5051 25.2563 38.6374C24.306 36.7697 23.8309 34.7545 23.8309 32.5919C23.8309 30.4293 24.306 28.4141 25.2563 26.5464C26.2065 24.6786 27.468 23.1222 29.0409 21.877L31.695 12.9316H43.4911L46.1453 21.877C47.7181 23.1222 48.9796 24.6786 49.9299 26.5464C50.8801 28.4141 51.3552 30.4293 51.3552 32.5919C51.3552 34.7545 50.8801 36.7697 49.9299 38.6374C48.9796 40.5051 47.7181 42.0616 46.1453 43.3067L43.4911 52.2521H31.695ZM44.5479 39.5467C46.4647 37.6298 47.4232 35.3115 47.4232 32.5919C47.4232 29.8722 46.4647 27.5539 44.5479 25.6371C42.631 23.7202 40.3127 22.7618 37.5931 22.7618C34.8734 22.7618 32.5551 23.7202 30.6382 25.6371C28.7214 27.5539 27.7629 29.8722 27.7629 32.5919C27.7629 35.3115 28.7214 37.6298 30.6382 39.5467C32.5551 41.4636 34.8734 42.422 37.5931 42.422C40.3127 42.422 42.631 41.4636 44.5479 39.5467ZM33.8576 19.3212C34.513 19.1574 35.1437 19.0263 35.7499 18.928C36.3561 18.8297 36.9705 18.7806 37.5931 18.7806C38.2156 18.7806 38.83 18.8297 39.4362 18.928C40.0424 19.0263 40.6732 19.1574 41.3285 19.3212L40.5421 16.8637H34.644L33.8576 19.3212ZM34.644 48.3201H40.5421L41.3285 45.8625C40.6732 46.0264 40.0424 46.1493 39.4362 46.2312C38.83 46.3131 38.2156 46.354 37.5931 46.354C36.9705 46.354 36.3561 46.3131 35.7499 46.2312C35.1437 46.1493 34.513 46.0264 33.8576 45.8625L34.644 48.3201Z" fill="#4446D8" transform="translate(277, 85)"/>
<rect x="275.5" y="160.5" width="78" height="24" rx="12" stroke="white" stroke-opacity="0.29"/>
<path d="M291.982 177.168C288.958 177.168 287.6 175.936 287.67 173.976L289.21 173.948C289.21 175.222 289.952 175.824 291.982 175.824C293.886 175.824 294.684 175.222 294.684 174.256C294.684 173.43 294.334 173.024 292.43 172.758L291.1 172.576C288.916 172.268 287.67 171.54 287.67 169.748C287.67 167.984 289.154 167.018 291.758 166.976C294.53 167.004 295.916 168.082 295.874 170.014H294.376C294.376 168.866 293.536 168.306 291.772 168.306C289.938 168.306 289.14 168.852 289.14 169.72C289.14 170.574 289.574 170.924 291.254 171.162L292.654 171.358C295.09 171.708 296.21 172.506 296.21 174.27C296.21 176.034 294.754 177.168 291.996 177.168H291.982ZM297.404 177V167.2H298.748V170.756C299.504 170.014 300.4 169.706 301.394 169.706C303.27 169.706 304.236 170.63 304.236 172.352V177H302.878V172.646C302.878 171.512 302.43 170.966 301.212 170.966C299.994 170.966 298.748 171.596 298.748 172.87V177H297.404ZM305.443 177V169.972H306.787V177H305.443ZM305.429 168.852V167.2H306.801V168.852H305.429ZM307.986 179.38V170H309.33V170.952C309.862 170.112 310.786 169.706 311.906 169.706C314.174 169.706 315.462 171.176 315.462 173.416C315.462 175.726 314.048 177.168 311.766 177.168C310.8 177.168 309.918 176.86 309.33 176.076V179.38H307.986ZM309.316 173.682C309.316 175.082 310.072 175.922 311.668 175.922C313.152 175.922 314.048 175.124 314.048 173.416C314.048 171.68 313.068 170.938 311.766 170.938C310.198 170.938 309.316 171.834 309.316 173.108V173.682ZM316.613 179.38V170H317.957V170.952C318.489 170.112 319.413 169.706 320.533 169.706C322.801 169.706 324.089 171.176 324.089 173.416C324.089 175.726 322.675 177.168 320.393 177.168C319.427 177.168 318.545 176.86 317.957 176.076V179.38H316.613ZM317.943 173.682C317.943 175.082 318.699 175.922 320.295 175.922C321.779 175.922 322.675 175.124 322.675 173.416C322.675 171.68 321.695 170.938 320.393 170.938C318.825 170.938 317.943 171.834 317.943 173.108V173.682ZM331.375 172.814C331.263 171.638 330.437 170.938 328.981 170.938C327.553 170.938 326.713 171.638 326.615 172.814H331.375ZM325.103 173.444C325.103 171.106 326.657 169.706 329.023 169.706C331.403 169.706 332.915 171.092 332.901 173.43L332.887 173.878H326.559C326.657 175.124 327.441 175.922 328.981 175.922C330.325 175.922 331.095 175.362 331.347 174.396H332.803C332.383 176.216 330.955 177.168 328.981 177.168C326.559 177.168 325.103 175.768 325.103 173.444ZM337.436 177.168C335.21 177.182 333.894 175.698 333.894 173.444C333.894 171.106 335.322 169.706 337.576 169.706C338.528 169.706 339.41 169.986 339.998 170.756V167.2H341.342V177H340.012V175.95C339.466 176.734 338.682 177.154 337.436 177.168ZM335.28 173.444C335.28 175.11 336.246 175.908 337.576 175.908C339.102 175.908 340.04 175.096 340.04 173.738V173.178C340.04 171.694 339.186 170.938 337.688 170.938C336.204 170.938 335.28 171.736 335.28 173.444Z" fill="white"/>
<rect x="265.5" y="283.5" width="98" height="24" rx="12" stroke="white" stroke-opacity="0.29"/>
<path d="M282.042 300.168C279.018 300.168 277.66 298.936 277.73 296.976L279.27 296.948C279.27 298.222 280.012 298.824 282.042 298.824C283.946 298.824 284.744 298.222 284.744 297.256C284.744 296.43 284.394 296.024 282.49 295.758L281.16 295.576C278.976 295.268 277.73 294.54 277.73 292.748C277.73 290.984 279.214 290.018 281.818 289.976C284.59 290.004 285.976 291.082 285.934 293.014H284.436C284.436 291.866 283.596 291.306 281.832 291.306C279.998 291.306 279.2 291.852 279.2 292.72C279.2 293.574 279.634 293.924 281.314 294.162L282.714 294.358C285.15 294.708 286.27 295.506 286.27 297.27C286.27 299.034 284.814 300.168 282.056 300.168H282.042ZM288.948 302.52C288.542 302.52 288.136 302.478 287.618 302.268L287.94 301.134C288.92 301.4 289.522 301.344 290.04 300.266L290.278 299.762C290.348 299.58 290.348 299.44 290.264 299.286L286.89 292.958H288.486L291.09 298.11L293.47 292.958H294.982L291.286 300.63C290.67 301.918 290.138 302.52 288.948 302.52ZM296.05 300V292.972H297.394V293.854C298.024 293.07 299.032 292.706 300.04 292.706C301.916 292.706 302.882 293.63 302.882 295.352V300H301.524V295.646C301.524 294.526 301.076 293.966 299.858 293.966C298.85 293.966 297.394 294.456 297.394 295.744V300H296.05ZM311.708 297.088C311.4 299.132 309.902 300.168 307.844 300.168C305.422 300.168 303.966 298.768 303.966 296.444C303.966 294.106 305.52 292.706 307.886 292.706C310.028 292.706 311.442 293.812 311.708 295.744H310.322C310.112 294.596 309.23 293.938 307.844 293.938C306.15 293.938 305.366 294.89 305.366 296.444C305.366 297.97 306.15 298.922 307.844 298.922C309.3 298.922 310.112 298.208 310.308 297.088H311.708ZM317.46 300V290.2H318.916V300H317.46ZM321.527 298.012C321.611 298.6 322.157 298.908 323.389 298.936C324.719 298.936 325.363 298.614 325.363 297.97C325.363 297.466 325.139 297.116 323.809 296.934L322.927 296.822C321.037 296.584 320.155 296.122 320.155 294.806C320.155 293.518 321.373 292.706 323.319 292.706C325.195 292.706 326.329 293.462 326.511 294.708H325.167C325.069 294.176 324.481 293.924 323.319 293.91C322.115 293.924 321.471 294.26 321.471 294.806C321.471 295.296 321.779 295.562 322.983 295.73L323.963 295.856C325.951 296.094 326.763 296.626 326.763 297.97C326.763 299.314 325.601 300.154 323.389 300.168C321.275 300.154 320.239 299.342 320.127 298.012H321.527ZM330.636 300.168C328.844 300.168 327.948 299.272 327.892 297.494V293H329.222V297.242C329.222 298.39 329.656 298.894 330.832 298.894C331.756 298.894 333.212 298.446 333.212 297.102V293H334.556V300H333.226V299.034C332.512 299.818 331.672 300.168 330.636 300.168ZM338.497 300.168C336.705 300.168 335.809 299.272 335.753 297.494V293H337.083V297.242C337.083 298.39 337.517 298.894 338.693 298.894C339.617 298.894 341.073 298.446 341.073 297.102V293H342.417V300H341.087V299.034C340.373 299.818 339.533 300.168 338.497 300.168ZM349.777 295.814C349.665 294.638 348.839 293.938 347.383 293.938C345.955 293.938 345.115 294.638 345.017 295.814H349.777ZM343.505 296.444C343.505 294.106 345.059 292.706 347.425 292.706C349.805 292.706 351.317 294.092 351.303 296.43L351.289 296.878H344.961C345.059 298.124 345.843 298.922 347.383 298.922C348.727 298.922 349.497 298.362 349.749 297.396H351.205C350.785 299.216 349.357 300.168 347.383 300.168C344.961 300.168 343.505 298.768 343.505 296.444Z" fill="white"/>
<path d="M265.87 57V47.2H267.326V57H265.87ZM268.522 57V49.972H269.866V50.854C270.496 50.07 271.504 49.706 272.512 49.706C274.388 49.706 275.354 50.63 275.354 52.352V57H273.996V52.646C273.996 51.526 273.548 50.966 272.33 50.966C271.322 50.966 269.866 51.456 269.866 52.744V57H268.522ZM279.678 57.112C277.97 57.112 277.466 56.16 277.41 54.718V51.218H276.206V50H277.41V47.396H278.768V50H281.078V51.218H278.768V54.83C278.768 56.076 279.986 55.95 281.008 55.726L281.33 56.804C280.658 57.028 280.224 57.112 279.678 57.112ZM287.974 52.814C287.862 51.638 287.036 50.938 285.58 50.938C284.152 50.938 283.312 51.638 283.214 52.814H287.974ZM281.702 53.444C281.702 51.106 283.256 49.706 285.622 49.706C288.002 49.706 289.514 51.092 289.5 53.43L289.486 53.878H283.158C283.256 55.124 284.04 55.922 285.58 55.922C286.924 55.922 287.694 55.362 287.946 54.396H289.402C288.982 56.216 287.554 57.168 285.58 57.168C283.158 57.168 281.702 55.768 281.702 53.444ZM290.684 57V50H292.028V50.868C292.784 49.916 294.114 49.678 295.164 49.916L294.982 51.176C293.638 50.91 292.028 51.372 292.028 52.786V57H290.684ZM296.221 57V49.972H297.565V50.854C298.195 50.07 299.203 49.706 300.211 49.706C302.087 49.706 303.053 50.63 303.053 52.352V57H301.695V52.646C301.695 51.526 301.247 50.966 300.029 50.966C299.021 50.966 297.565 51.456 297.565 52.744V57H296.221ZM304.598 52.198C304.654 50.49 305.676 49.734 307.818 49.706C310.086 49.706 311.01 50.644 311.01 52.408V57H309.666V56.062C309.148 56.664 308.406 57.126 307.118 57.112C305.382 57.098 304.192 56.356 304.192 54.858C304.192 52.884 306.236 52.576 308.322 52.548L309.652 52.52V52.338C309.652 51.33 309.246 50.91 307.818 50.91C306.474 50.91 306.026 51.302 305.97 52.198H304.598ZM305.564 54.872C305.564 55.502 306.012 55.908 307.23 55.908C308.686 55.908 309.652 55.376 309.652 54.34V53.57L308.42 53.612C306.208 53.682 305.564 54.018 305.564 54.872ZM312.258 57V47.2H313.602V57H312.258ZM323.666 57.168C320.642 57.168 319.284 55.936 319.354 53.976L320.894 53.948C320.894 55.222 321.636 55.824 323.666 55.824C325.57 55.824 326.368 55.222 326.368 54.256C326.368 53.43 326.018 53.024 324.114 52.758L322.784 52.576C320.6 52.268 319.354 51.54 319.354 49.748C319.354 47.984 320.838 47.018 323.442 46.976C326.214 47.004 327.6 48.082 327.558 50.014H326.06C326.06 48.866 325.22 48.306 323.456 48.306C321.622 48.306 320.824 48.852 320.824 49.72C320.824 50.574 321.258 50.924 322.938 51.162L324.338 51.358C326.774 51.708 327.894 52.506 327.894 54.27C327.894 56.034 326.438 57.168 323.68 57.168H323.666ZM332.56 57.112C330.852 57.112 330.348 56.16 330.292 54.718V51.218H329.088V50H330.292V47.396H331.65V50H333.96V51.218H331.65V54.83C331.65 56.076 332.868 55.95 333.89 55.726L334.212 56.804C333.54 57.028 333.106 57.112 332.56 57.112ZM335.346 52.198C335.402 50.49 336.424 49.734 338.566 49.706C340.834 49.706 341.758 50.644 341.758 52.408V57H340.414V56.062C339.896 56.664 339.154 57.126 337.866 57.112C336.13 57.098 334.94 56.356 334.94 54.858C334.94 52.884 336.984 52.576 339.07 52.548L340.4 52.52V52.338C340.4 51.33 339.994 50.91 338.566 50.91C337.222 50.91 336.774 51.302 336.718 52.198H335.346ZM336.312 54.872C336.312 55.502 336.76 55.908 337.978 55.908C339.434 55.908 340.4 55.376 340.4 54.34V53.57L339.168 53.612C336.956 53.682 336.312 54.018 336.312 54.872ZM345.918 57.112C344.21 57.112 343.706 56.16 343.65 54.718V51.218H342.446V50H343.65V47.396H345.008V50H347.318V51.218H345.008V54.83C345.008 56.076 346.226 55.95 347.248 55.726L347.57 56.804C346.898 57.028 346.464 57.112 345.918 57.112ZM351.383 57.168C349.591 57.168 348.695 56.272 348.639 54.494V50H349.969V54.242C349.969 55.39 350.403 55.894 351.579 55.894C352.503 55.894 353.959 55.446 353.959 54.102V50H355.303V57H353.973V56.034C353.259 56.818 352.419 57.168 351.383 57.168ZM357.914 55.012C357.998 55.6 358.544 55.908 359.776 55.936C361.106 55.936 361.75 55.614 361.75 54.97C361.75 54.466 361.526 54.116 360.196 53.934L359.314 53.822C357.424 53.584 356.542 53.122 356.542 51.806C356.542 50.518 357.76 49.706 359.706 49.706C361.582 49.706 362.716 50.462 362.898 51.708H361.554C361.456 51.176 360.868 50.924 359.706 50.91C358.502 50.924 357.858 51.26 357.858 51.806C357.858 52.296 358.166 52.562 359.37 52.73L360.35 52.856C362.338 53.094 363.15 53.626 363.15 54.97C363.15 56.314 361.988 57.154 359.776 57.168C357.662 57.154 356.626 56.342 356.514 55.012H357.914Z" fill="white"/>
<path d="M173 235L240.5 235L265.5 235" stroke="#5F5FFF" stroke-width="2" stroke-linecap="round"/>
<path d="M361 234C360.448 234 360 234.448 360 235C360 235.552 360.448 236 361 236V235V234ZM415.707 173.707C416.098 173.317 416.098 172.683 415.707 172.293L409.343 165.929C408.953 165.538 408.319 165.538 407.929 165.929C407.538 166.319 407.538 166.953 407.929 167.343L413.586 173L407.929 178.657C407.538 179.047 407.538 179.681 407.929 180.071C408.319 180.462 408.953 180.462 409.343 180.071L415.707 173.707ZM361 235V236H387.5V235V234H361V235ZM390.5 232H391.5V176H390.5H389.5V232H390.5ZM393.5 173V174H415V173V172H393.5V173ZM390.5 176H391.5C391.5 174.895 392.395 174 393.5 174V173V172C391.291 172 389.5 173.791 389.5 176H390.5ZM387.5 235V236C389.709 236 391.5 234.209 391.5 232H390.5H389.5C389.5 233.105 388.605 234 387.5 234V235Z" fill="#5F5FFF"/>
<mask id="mask0_4666_8286" style="mask-type:alpha" maskUnits="userSpaceOnUse" x="274" y="198" width="82" height="82">
<rect x="274" y="198" width="82" height="82" fill="#F2F1FD"/>
</mask>
<g mask="url(#mask0_4666_8286)">
<path d="M314.998 272.142C307.88 272.142 301.545 270.177 295.993 266.248C290.441 262.319 286.384 257.023 283.821 250.36V262.233H281.43V246.175H297.488V248.567H285.786C287.836 254.945 291.566 260.07 296.976 263.942C302.385 267.814 308.393 269.75 314.998 269.75C319.041 269.75 322.843 269.038 326.402 267.615C329.961 266.191 333.107 264.212 335.84 261.678C338.573 259.144 340.809 256.126 342.545 252.624C344.282 249.122 345.321 245.321 345.663 241.221H348.055C347.77 245.549 346.702 249.592 344.852 253.35C343.001 257.108 340.609 260.383 337.677 263.173C334.744 265.963 331.327 268.156 327.427 269.75C323.526 271.345 319.383 272.142 314.998 272.142ZM281.942 236.779C282.341 232.167 283.494 227.967 285.402 224.18C287.309 220.393 289.758 217.133 292.747 214.4C295.737 211.667 299.139 209.56 302.955 208.079C306.77 206.599 310.785 205.858 314.998 205.858C321.946 205.858 328.281 207.837 334.004 211.795C339.727 215.752 343.784 221.148 346.176 227.981V215.767H348.567V231.825H332.509V229.433H344.211C342.332 223.283 338.673 218.215 333.235 214.229C327.797 210.243 321.718 208.25 314.998 208.25C311.183 208.25 307.51 208.933 303.98 210.3C300.449 211.667 297.289 213.589 294.498 216.066C291.708 218.543 289.402 221.532 287.58 225.034C285.757 228.537 284.676 232.451 284.334 236.779H281.942Z" fill="#F2F1FD"/>
<path d="M313.981 252.21C313.657 252.076 313.362 251.886 313.094 251.641L302.359 240.906C302.114 240.638 301.924 240.343 301.791 240.02C301.657 239.696 301.59 239.356 301.59 239C301.59 238.643 301.657 238.297 301.791 237.963C301.924 237.628 302.114 237.339 302.359 237.093L313.094 226.358C313.362 226.091 313.657 225.895 313.981 225.773C314.304 225.65 314.644 225.589 315.001 225.589C315.357 225.589 315.703 225.65 316.037 225.773C316.372 225.895 316.662 226.091 316.907 226.358L327.642 237.093C327.91 237.339 328.105 237.628 328.227 237.963C328.35 238.297 328.411 238.643 328.411 239C328.411 239.356 328.35 239.696 328.227 240.02C328.105 240.343 327.91 240.638 327.642 240.906L316.907 251.641C316.662 251.886 316.372 252.076 316.037 252.21C315.703 252.343 315.357 252.41 315.001 252.41C314.644 252.41 314.304 252.343 313.981 252.21ZM315.001 249.735L325.736 239L315.001 228.264L304.265 239L315.001 249.735ZM313.663 240.337H316.338V232.311H313.663V240.337ZM315.954 243.966C316.21 243.71 316.338 243.392 316.338 243.013C316.338 242.634 316.21 242.316 315.954 242.06C315.697 241.803 315.38 241.675 315.001 241.675C314.622 241.675 314.304 241.803 314.047 242.06C313.791 242.316 313.663 242.634 313.663 243.013C313.663 243.392 313.791 243.71 314.047 243.966C314.304 244.222 314.622 244.351 315.001 244.351C315.38 244.351 315.697 244.222 315.954 243.966Z" fill="#F51216"/>
</g>
<defs>
</defs>
</svg>
