<svg width="629" height="427" viewBox="0 0 629 427" fill="none" xmlns="http://www.w3.org/2000/svg" xmlns:xlink="http://www.w3.org/1999/xlink">
<rect width="629" height="427" rx="16" fill="#250069"/>
<rect x="98" y="68" width="75" height="75" rx="4" fill="white" fill-opacity="0.2"/>
<rect x="102" y="71.5" width="68" height="68" rx="4" fill="white"/>
  <path d="M24.9069 50.3021C23.8584 50.3021 22.8508 50.1055 21.8842 49.7123C20.9175 49.3191 20.0574 48.7293 19.3038 47.9429L18.9597 47.5988C18.6648 47.3367 18.4764 47.009 18.3945 46.6158C18.3126 46.2226 18.3535 45.8458 18.5174 45.4854L28.0526 21.1558C28.3147 20.5005 28.7652 20.0008 29.4042 19.6567C30.0432 19.3127 30.7067 19.2226 31.3948 19.3864L34.2455 19.9271C34.8026 20.0581 35.335 20.0172 35.8429 19.8042C36.3508 19.5912 36.785 19.3045 37.1454 18.944C37.6042 18.4525 37.9073 17.9365 38.0547 17.3958C38.2022 16.8551 38.194 16.3063 38.0301 15.7493L37.7844 15.012C37.6206 14.4877 37.596 13.9553 37.7107 13.4146C37.8253 12.8739 38.0793 12.407 38.4725 12.0138L40.586 9.90034C41.143 9.31053 41.8393 9.01562 42.6749 9.01562C43.5104 9.01562 44.2067 9.29415 44.7638 9.85119L53.66 18.8949C54.3809 19.6485 54.7495 20.5414 54.7659 21.5736C54.7823 22.6058 54.4464 23.4987 53.7583 24.2523L54.6922 25.1862C54.8888 25.4155 55.0608 25.6531 55.2083 25.8989C55.3557 26.1446 55.4294 26.3986 55.4294 26.6607C55.4294 26.8901 55.3803 27.1194 55.282 27.3488C55.1837 27.5782 55.0035 27.8239 54.7413 28.0861C54.3481 28.4465 53.8812 28.6349 53.3405 28.6513C52.7999 28.6677 52.333 28.4793 51.9398 28.0861L51.055 27.1522L49.6788 28.5776L50.5635 29.4623C50.924 29.8227 51.1042 30.2815 51.1042 30.8385C51.1042 31.3955 50.924 31.8543 50.5635 32.2147C50.1703 32.5751 49.7034 32.7636 49.1627 32.7799C48.6221 32.7963 48.1552 32.6079 47.762 32.2147L46.8772 31.3791L41.3724 36.9823L42.2079 37.7687C42.6011 38.1619 42.7977 38.6289 42.7977 39.1695C42.7977 39.7102 42.6011 40.1771 42.2079 40.5703C41.8147 40.9307 41.3478 41.1192 40.8071 41.1355C40.2665 41.1519 39.7996 40.9635 39.4064 40.5703L38.6199 39.7347L37.2437 41.1601L38.0301 41.9465C38.3906 42.307 38.5708 42.7657 38.5708 43.3227C38.5708 43.8798 38.3906 44.3385 38.0301 44.699C37.6369 45.0594 37.17 45.2478 36.6293 45.2642C36.0887 45.2806 35.6218 45.0922 35.2286 44.699L34.4421 43.9617L33.0659 45.3379L33.8523 46.0752C34.2128 46.4684 34.393 46.9353 34.393 47.476C34.393 48.0166 34.2128 48.4836 33.8523 48.8768C33.4591 49.2372 32.9922 49.4256 32.4515 49.442C31.9109 49.4584 31.444 49.27 31.0508 48.8768L30.2643 48.0903C29.5107 48.844 28.6833 49.401 27.7822 49.7615C26.8811 50.1219 25.9227 50.3021 24.9069 50.3021ZM22.1053 36.3925C22.2692 36.0321 22.4002 35.7126 22.4985 35.4341L22.646 35.0163L21.5647 37.7687L21.7367 37.3509C21.8514 37.0724 21.9743 36.7529 22.1053 36.3925ZM24.0222 31.4774C24.1861 31.117 24.3171 30.7975 24.4154 30.519L24.5629 30.1012L23.4816 32.8537L23.6536 32.4359C23.7683 32.1574 23.8911 31.8379 24.0222 31.4774ZM25.9391 26.5624C26.1029 26.202 26.234 25.8907 26.3323 25.6285L26.4797 25.2353L25.3984 27.9386L25.5705 27.5208C25.6851 27.2423 25.808 26.9228 25.9391 26.5624ZM24.9069 46.3209C25.464 46.3209 25.98 46.2226 26.4552 46.026C26.9303 45.8294 27.3481 45.5345 27.7085 45.1413L50.8584 21.6473L42.6994 13.3409L41.7164 14.3239C42.1096 15.6346 42.1834 16.9125 41.9376 18.1576C41.6919 19.4028 41.0283 20.566 39.947 21.6473C39.0951 22.4993 38.1121 23.13 36.998 23.5396C35.8839 23.9492 34.7207 24.0229 33.5083 23.7608L31.4931 23.3676L30.2643 26.3658L31.3948 26.759C31.7552 26.9228 32.0174 27.185 32.1812 27.5454C32.3451 27.9058 32.3614 28.2663 32.2304 28.6267C32.0993 29.0199 31.8535 29.3148 31.4931 29.5114C31.1327 29.708 30.7558 29.7244 30.3626 29.5606L29.183 29.1182L28.3475 31.2808L29.2813 31.6249C29.6418 31.7887 29.9121 32.0509 30.0923 32.4113C30.2725 32.7717 30.2971 33.1322 30.166 33.4926C30.035 33.8858 29.781 34.1725 29.4042 34.3528C29.0274 34.533 28.6424 34.5412 28.2492 34.3773L27.2662 34.0333L26.4306 36.1959L27.217 36.4908C27.5774 36.6546 27.8396 36.9086 28.0034 37.2526C28.1673 37.5967 28.1836 37.9489 28.0526 38.3094C27.9215 38.7026 27.6676 38.9975 27.2907 39.1941C26.9139 39.3907 26.5289 39.4071 26.1357 39.2432L25.3493 38.9483L22.6952 45.6328C23.0228 45.8622 23.3751 46.0342 23.7519 46.1489C24.1287 46.2636 24.5137 46.3209 24.9069 46.3209Z" fill="#4446D8" transform="translate(98, 74.5)"/>
<rect x="98" y="167" width="75" height="75" rx="4" fill="white" fill-opacity="0.2"/>
<rect x="102" y="170.5" width="68" height="68" rx="4" fill="white"/>
  <path d="M25.7968 28.5283L23.8307 29.6096C23.372 29.8718 22.8805 29.9373 22.3562 29.8062C21.8319 29.6752 21.4387 29.3803 21.1766 28.9215L17.2446 22.0404C16.9824 21.5817 16.9169 21.0902 17.048 20.5659C17.179 20.0417 17.4739 19.6485 17.9327 19.3863L29.2373 12.8984H32.6778C32.9727 12.8984 33.2103 12.9885 33.3905 13.1688C33.5707 13.349 33.6609 13.5865 33.6609 13.8814V14.8645C33.6609 15.9458 34.0459 16.8714 34.8159 17.6415C35.5859 18.4115 36.5116 18.7965 37.5929 18.7965C38.6742 18.7965 39.5999 18.4115 40.3699 17.6415C41.1399 16.8714 41.525 15.9458 41.525 14.8645V13.8814C41.525 13.5865 41.6151 13.349 41.7953 13.1688C41.9755 12.9885 42.2131 12.8984 42.508 12.8984H45.9485L57.2531 19.3863C57.7119 19.6485 58.0068 20.0417 58.1379 20.5659C58.2689 21.0902 58.2034 21.5817 57.9413 22.0404L54.0092 28.9215C53.7471 29.3803 53.3621 29.667 52.8542 29.7817C52.3463 29.8964 51.8466 29.8226 51.3551 29.5605L49.389 28.5775V46.3208C49.389 46.8779 49.2006 47.3448 48.8238 47.7216C48.447 48.0985 47.9801 48.2869 47.423 48.2869H27.7628C27.2057 48.2869 26.7388 48.0985 26.362 47.7216C25.9852 47.3448 25.7968 46.8779 25.7968 46.3208V28.5283ZM29.7288 21.9421V44.3548H45.457V21.9421L51.5517 25.2844L53.616 21.8438L45.1621 16.9288C44.6706 18.5999 43.7449 19.9843 42.3851 21.082C41.0253 22.1797 39.4279 22.7286 37.5929 22.7286C35.7579 22.7286 34.1606 22.1797 32.8007 21.082C31.4409 19.9843 30.5152 18.5999 30.0237 16.9288L21.5698 21.8438L23.6341 25.2844L29.7288 21.9421Z" fill="#4446D8" transform="translate(98, 173.5)"/>
<rect x="98" y="266" width="75" height="75" rx="4" fill="white" fill-opacity="0.2"/>
<rect x="102" y="269.5" width="68" height="68" rx="4" fill="white"/>
  <path d="M18.8667 43.405C17.9492 41.7994 17.2365 40.0873 16.7286 38.2688C16.2207 36.4502 15.9668 34.5579 15.9668 32.5919C15.9668 30.6259 16.2207 28.7336 16.7286 26.915C17.2365 25.0964 17.9492 23.3843 18.8667 21.7787L22.2581 23.7448C21.5044 25.0555 20.9228 26.4562 20.5132 27.9471C20.1036 29.438 19.8988 30.9863 19.8988 32.5919C19.8988 34.1975 20.1036 35.7457 20.5132 37.2366C20.9228 38.7275 21.5044 40.1283 22.2581 41.439L18.8667 43.405ZM56.3194 43.405L52.928 41.439C53.6817 40.1283 54.2633 38.7275 54.6729 37.2366C55.0825 35.7457 55.2873 34.1975 55.2873 32.5919C55.2873 30.9863 55.0825 29.438 54.6729 27.9471C54.2633 26.4562 53.6817 25.0555 52.928 23.7448L56.3194 21.7787C57.2369 23.3843 57.9496 25.0964 58.4575 26.915C58.9654 28.7336 59.2193 30.6259 59.2193 32.5919C59.2193 34.5579 58.9654 36.4502 58.4575 38.2688C57.9496 40.0873 57.2369 41.7994 56.3194 43.405ZM31.695 52.2521L29.0409 43.3067C27.468 42.0616 26.2065 40.5051 25.2563 38.6374C24.306 36.7697 23.8309 34.7545 23.8309 32.5919C23.8309 30.4293 24.306 28.4141 25.2563 26.5464C26.2065 24.6786 27.468 23.1222 29.0409 21.877L31.695 12.9316H43.4911L46.1453 21.877C47.7181 23.1222 48.9796 24.6786 49.9299 26.5464C50.8801 28.4141 51.3552 30.4293 51.3552 32.5919C51.3552 34.7545 50.8801 36.7697 49.9299 38.6374C48.9796 40.5051 47.7181 42.0616 46.1453 43.3067L43.4911 52.2521H31.695ZM44.5479 39.5467C46.4647 37.6298 47.4232 35.3115 47.4232 32.5919C47.4232 29.8722 46.4647 27.5539 44.5479 25.6371C42.631 23.7202 40.3127 22.7618 37.5931 22.7618C34.8734 22.7618 32.5551 23.7202 30.6382 25.6371C28.7214 27.5539 27.7629 29.8722 27.7629 32.5919C27.7629 35.3115 28.7214 37.6298 30.6382 39.5467C32.5551 41.4636 34.8734 42.422 37.5931 42.422C40.3127 42.422 42.631 41.4636 44.5479 39.5467ZM33.8576 19.3212C34.513 19.1574 35.1437 19.0263 35.7499 18.928C36.3561 18.8297 36.9705 18.7806 37.5931 18.7806C38.2156 18.7806 38.83 18.8297 39.4362 18.928C40.0424 19.0263 40.6732 19.1574 41.3285 19.3212L40.5421 16.8637H34.644L33.8576 19.3212ZM34.644 48.3201H40.5421L41.3285 45.8625C40.6732 46.0264 40.0424 46.1493 39.4362 46.2312C38.83 46.3131 38.2156 46.354 37.5931 46.354C36.9705 46.354 36.3561 46.3131 35.7499 46.2312C35.1437 46.1493 34.513 46.0264 33.8576 45.8625L34.644 48.3201Z" fill="#4446D8" transform="translate(98, 270.5)"/>
<mask id="mask0_4680_7419" style="mask-type:alpha" maskUnits="userSpaceOnUse" x="173" y="96" width="143" height="208">
<path d="M173 200.864C173 200.312 173.448 199.864 174 199.864L211 199.864L211 107.364C211 102.394 206.97 98.3644 202 98.3643L175.5 98.3643C174.948 98.3643 174.5 97.9164 174.5 97.3643C174.5 96.812 174.948 96.3643 175.5 96.3643L202 96.3643C208.075 96.3644 213 101.289 213 107.364L213 199.863L312.086 199.863L307.429 195.206C307.039 194.815 307.038 194.182 307.429 193.792C307.819 193.402 308.452 193.402 308.843 193.792L315.207 200.156C315.597 200.547 315.597 201.18 315.207 201.57L308.843 207.935C308.452 208.325 307.819 208.325 307.429 207.935C307.038 207.544 307.038 206.911 307.429 206.521L312.086 201.863L213 201.863L213 292.863C213 298.938 208.075 303.863 202 303.863L176 303.863C175.448 303.863 175 303.416 175 302.863C175 302.311 175.448 301.863 176 301.863L202 301.863C206.97 301.863 211 297.834 211 292.863L211 201.864L174 201.864C173.448 201.864 173 201.416 173 200.864Z" fill="url(#paint0_linear_4680_7419)"/>
</mask>
<g mask="url(#mask0_4680_7419)">
<rect x="124" y="351" width="261" height="193" transform="rotate(-90 124 351)" fill="#5858F3"/>
<path d="M 173 98.4 L 202 98.4 Q 211 98.4 211 107.4 L 211 191 Q 211 200 220 200 L 315 200" fill="none" stroke="#FFAA00" stroke-width="3.5" stroke-linecap="round" stroke-dasharray="40 300" stroke-dashoffset="40">
<animate attributeName="stroke-dashoffset" values="40; -300" dur="5s" repeatCount="indefinite" />
</path>
<path d="M 173 200.9 L 315 200.9" fill="none" stroke="#FFAA00" stroke-width="3.5" stroke-linecap="round" stroke-dasharray="40 300" stroke-dashoffset="40">
<animate attributeName="stroke-dashoffset" values="40; -300" dur="5s" repeatCount="indefinite" />
</path>
<path d="M 173 302.9 L 202 302.9 Q 211 302.9 211 293.9 L 211 209 Q 211 200 220 200 L 315 200" fill="none" stroke="#FFAA00" stroke-width="3.5" stroke-linecap="round" stroke-dasharray="40 300" stroke-dashoffset="40">
<animate attributeName="stroke-dashoffset" values="40; -300" dur="5s" repeatCount="indefinite" />
</path>
</g>
<mask id="mask1_4680_7419" style="mask-type:alpha" maskUnits="userSpaceOnUse" x="406" y="193" width="50" height="16">
<path d="M452.086 199.864L447.429 195.206C447.038 194.816 447.038 194.183 447.429 193.792C447.819 193.402 448.452 193.402 448.843 193.792L455.207 200.156C455.597 200.547 455.597 201.18 455.207 201.571L448.843 207.935C448.452 208.325 447.819 208.325 447.429 207.935C447.038 207.544 447.038 206.911 447.429 206.521L452.086 201.864L406 201.864L406 199.864L452.086 199.864Z" fill="url(#paint1_linear_4680_7419)"/>
</mask>
<g mask="url(#mask1_4680_7419)">
<rect x="264" y="351" width="261" height="193" transform="rotate(-90 264 351)" fill="#5858F3"/>
<path d="M 406 200 L 455 200" fill="none" stroke="#FFAA00" stroke-width="3.5" stroke-linecap="round" stroke-dasharray="40 300" stroke-dashoffset="40">
<animate attributeName="stroke-dashoffset" values="40; -300" dur="5s" repeatCount="indefinite" />
</path>
</g>
<path d="M123.337 370L120.075 360.2H121.685L124.023 367.732L126.459 360.2H127.831L130.239 367.718L132.577 360.2H134.131L130.897 370H129.553L127.103 362.356L124.667 370H123.337ZM134.631 365.198C134.687 363.49 135.709 362.734 137.851 362.706C140.119 362.706 141.043 363.644 141.043 365.408V370H139.699V369.062C139.181 369.664 138.439 370.126 137.151 370.112C135.415 370.098 134.225 369.356 134.225 367.858C134.225 365.884 136.269 365.576 138.355 365.548L139.685 365.52V365.338C139.685 364.33 139.279 363.91 137.851 363.91C136.507 363.91 136.059 364.302 136.003 365.198H134.631ZM135.597 367.872C135.597 368.502 136.045 368.908 137.263 368.908C138.719 368.908 139.685 368.376 139.685 367.34V366.57L138.453 366.612C136.241 366.682 135.597 367.018 135.597 367.872ZM142.291 370V363H143.635V363.868C144.391 362.916 145.721 362.678 146.771 362.916L146.589 364.176C145.245 363.91 143.635 364.372 143.635 365.786V370H142.291ZM153.485 365.814C153.373 364.638 152.547 363.938 151.091 363.938C149.663 363.938 148.823 364.638 148.725 365.814H153.485ZM147.213 366.444C147.213 364.106 148.767 362.706 151.133 362.706C153.513 362.706 155.025 364.092 155.011 366.43L154.997 366.878H148.669C148.767 368.124 149.551 368.922 151.091 368.922C152.435 368.922 153.205 368.362 153.457 367.396H154.913C154.493 369.216 153.065 370.168 151.091 370.168C148.669 370.168 147.213 368.768 147.213 366.444ZM156.141 370V360.2H157.485V363.756C158.241 363.014 159.137 362.706 160.131 362.706C162.007 362.706 162.973 363.63 162.973 365.352V370H161.615V365.646C161.615 364.512 161.167 363.966 159.949 363.966C158.731 363.966 157.485 364.596 157.485 365.87V370H156.141ZM167.908 370.168C165.486 370.168 164.03 368.768 164.03 366.444C164.03 364.106 165.584 362.706 167.95 362.706C170.33 362.706 171.828 364.092 171.828 366.43C171.828 368.74 170.302 370.168 167.908 370.168ZM165.43 366.444C165.43 367.97 166.214 368.922 167.908 368.922C169.63 368.922 170.428 367.956 170.428 366.43C170.428 364.904 169.63 363.938 167.908 363.938C166.214 363.938 165.43 364.89 165.43 366.444ZM175.619 370.168C173.827 370.168 172.931 369.272 172.875 367.494V363H174.205V367.242C174.205 368.39 174.639 368.894 175.815 368.894C176.739 368.894 178.195 368.446 178.195 367.102V363H179.539V370H178.209V369.034C177.495 369.818 176.655 370.168 175.619 370.168ZM182.151 368.012C182.235 368.6 182.781 368.908 184.013 368.936C185.343 368.936 185.987 368.614 185.987 367.97C185.987 367.466 185.763 367.116 184.433 366.934L183.551 366.822C181.661 366.584 180.779 366.122 180.779 364.806C180.779 363.518 181.997 362.706 183.943 362.706C185.819 362.706 186.953 363.462 187.135 364.708H185.791C185.693 364.176 185.105 363.924 183.943 363.91C182.739 363.924 182.095 364.26 182.095 364.806C182.095 365.296 182.403 365.562 183.607 365.73L184.587 365.856C186.575 366.094 187.387 366.626 187.387 367.97C187.387 369.314 186.225 370.154 184.013 370.168C181.899 370.154 180.863 369.342 180.751 368.012H182.151ZM194.419 365.814C194.307 364.638 193.481 363.938 192.025 363.938C190.597 363.938 189.757 364.638 189.659 365.814H194.419ZM188.147 366.444C188.147 364.106 189.701 362.706 192.067 362.706C194.447 362.706 195.959 364.092 195.945 366.43L195.931 366.878H189.603C189.701 368.124 190.485 368.922 192.025 368.922C193.369 368.922 194.139 368.362 194.391 367.396H195.847C195.427 369.216 193.999 370.168 192.025 370.168C189.603 370.168 188.147 368.768 188.147 366.444Z" fill="white"/>
<mask id="mask2_4680_7419" style="mask-type:alpha" maskUnits="userSpaceOnUse" x="86" y="351" width="24" height="24">
<rect x="86" y="351" width="24" height="24" fill="#E6E6FF"/>
</mask>
<g mask="url(#mask2_4680_7419)">
<path d="M90 370H92V362H104V370H106V359.35L98 356.15L90 359.35V370ZM88 372V358L98 354L108 358V372H102V364H94V372H88ZM95 372V370H97V372H95ZM97 369V367H99V369H97ZM99 372V370H101V372H99Z" fill="#E6E6FF"/>
</g>
<circle cx="361.5" cy="202.5" r="40.5" fill="#E6E6FF"/>
<mask id="mask3_4680_7419" style="mask-type:alpha" maskUnits="userSpaceOnUse" x="336" y="177" width="51" height="52">
<rect x="336" y="177.5" width="51" height="51" fill="#4446D8"/>
</mask>
<g mask="url(#mask3_4680_7419)">
<path d="M346.11 218.105C344.941 216.842 344.416 215.337 344.534 213.589H339.222L340.001 210.048H345.969C346.523 209.399 347.19 208.888 347.97 208.516C348.749 208.144 349.599 207.958 350.52 207.958C351.44 207.958 352.29 208.144 353.07 208.516C353.849 208.888 354.516 209.399 355.071 210.048H365.041L369.786 189.542H350.059L350.821 186H374.213L372.177 194.854H378.676L384.838 203.071L382.749 213.589H378.499C378.617 215.337 378.086 216.842 376.905 218.105C375.725 219.368 374.249 220 372.478 220C370.707 220 369.238 219.368 368.069 218.105C366.9 216.842 366.375 215.337 366.493 213.589H356.541C356.659 215.337 356.127 216.842 354.947 218.105C353.766 219.368 352.29 220 350.52 220C348.749 220 347.279 219.368 346.11 218.105ZM369.733 205.479H380.766L381.049 203.939L376.905 198.396H371.363L369.733 205.479ZM369.786 189.542L365.041 210.048L365.359 208.649L369.786 189.542ZM343.436 204.877V198.75H338.832L345.561 188.408V194.5H350.166L343.436 204.877ZM350.52 216.458C351.216 216.458 351.804 216.213 352.282 215.723C352.76 215.234 352.999 214.652 352.999 213.979C352.999 213.283 352.76 212.695 352.282 212.217C351.804 211.739 351.216 211.5 350.52 211.5C349.847 211.5 349.265 211.739 348.775 212.217C348.286 212.695 348.041 213.283 348.041 213.979C348.041 214.652 348.286 215.234 348.775 215.723C349.265 216.213 349.847 216.458 350.52 216.458ZM372.478 216.458C373.175 216.458 373.762 216.213 374.24 215.723C374.718 215.234 374.957 214.652 374.957 213.979C374.957 213.283 374.718 212.695 374.24 212.217C373.762 211.739 373.175 211.5 372.478 211.5C371.805 211.5 371.224 211.739 370.734 212.217C370.244 212.695 369.999 213.283 369.999 213.979C369.999 214.652 370.244 215.234 370.734 215.723C371.224 216.213 371.805 216.458 372.478 216.458Z" fill="#4446D8"/>
</g>
<path d="M331.641 260V250.2H333.097V258.642H338.879V260H331.641ZM343.38 260.168C340.958 260.168 339.502 258.768 339.502 256.444C339.502 254.106 341.056 252.706 343.422 252.706C345.802 252.706 347.3 254.092 347.3 256.43C347.3 258.74 345.774 260.168 343.38 260.168ZM340.902 256.444C340.902 257.97 341.686 258.922 343.38 258.922C345.102 258.922 345.9 257.956 345.9 256.43C345.9 254.904 345.102 253.938 343.38 253.938C341.686 253.938 340.902 254.89 340.902 256.444ZM352.003 258.6C353.627 258.6 354.439 257.718 354.439 256.514V256.08C354.439 254.764 353.739 253.938 352.143 253.938C350.659 253.938 349.707 254.722 349.707 256.276C349.707 257.886 350.701 258.6 352.003 258.6ZM348.293 256.276C348.293 254.05 349.763 252.65 351.989 252.706C353.193 252.734 354.355 253.336 354.425 253.91V253H355.769V259.244C355.769 259.972 355.657 260.602 355.461 261.106C354.999 262.212 353.977 262.744 352.185 262.744C350.099 262.744 348.797 262.1 348.629 260.518H349.959C350.155 261.162 350.757 261.512 352.185 261.512C353.893 261.512 354.411 260.812 354.411 259.622V258.684C353.823 259.44 353.011 259.846 351.863 259.846C349.665 259.846 348.293 258.544 348.293 256.276ZM356.989 260V252.972H358.333V260H356.989ZM356.975 251.852V250.2H358.347V251.852H356.975ZM360.946 258.012C361.03 258.6 361.576 258.908 362.808 258.936C364.138 258.936 364.782 258.614 364.782 257.97C364.782 257.466 364.558 257.116 363.228 256.934L362.346 256.822C360.456 256.584 359.574 256.122 359.574 254.806C359.574 253.518 360.792 252.706 362.738 252.706C364.614 252.706 365.748 253.462 365.93 254.708H364.586C364.488 254.176 363.9 253.924 362.738 253.91C361.534 253.924 360.89 254.26 360.89 254.806C360.89 255.296 361.198 255.562 362.402 255.73L363.382 255.856C365.37 256.094 366.182 256.626 366.182 257.97C366.182 259.314 365.02 260.154 362.808 260.168C360.694 260.154 359.658 259.342 359.546 258.012H360.946ZM370.414 260.112C368.706 260.112 368.202 259.16 368.146 257.718V254.218H366.942V253H368.146V250.396H369.504V253H371.814V254.218H369.504V257.83C369.504 259.076 370.722 258.95 371.744 258.726L372.066 259.804C371.394 260.028 370.96 260.112 370.414 260.112ZM373.286 260V252.972H374.63V260H373.286ZM373.272 251.852V250.2H374.644V251.852H373.272ZM383.516 257.088C383.208 259.132 381.71 260.168 379.652 260.168C377.23 260.168 375.774 258.768 375.774 256.444C375.774 254.106 377.328 252.706 379.694 252.706C381.836 252.706 383.25 253.812 383.516 255.744H382.13C381.92 254.596 381.038 253.938 379.652 253.938C377.958 253.938 377.174 254.89 377.174 256.444C377.174 257.97 377.958 258.922 379.652 258.922C381.108 258.922 381.92 258.208 382.116 257.088H383.516ZM386.143 258.012C386.227 258.6 386.773 258.908 388.005 258.936C389.335 258.936 389.979 258.614 389.979 257.97C389.979 257.466 389.755 257.116 388.425 256.934L387.543 256.822C385.653 256.584 384.771 256.122 384.771 254.806C384.771 253.518 385.989 252.706 387.935 252.706C389.811 252.706 390.945 253.462 391.127 254.708H389.783C389.685 254.176 389.097 253.924 387.935 253.91C386.731 253.924 386.087 254.26 386.087 254.806C386.087 255.296 386.395 255.562 387.599 255.73L388.579 255.856C390.567 256.094 391.379 256.626 391.379 257.97C391.379 259.314 390.217 260.154 388.005 260.168C385.891 260.154 384.855 259.342 384.743 258.012H386.143Z" fill="white"/>
<circle cx="503.5" cy="202.5" r="40.5" fill="#E6E6FF"/>
<mask id="mask4_4680_7419" style="mask-type:alpha" maskUnits="userSpaceOnUse" x="477" y="175" width="52" height="52">
<rect x="477.992" y="175.923" width="51" height="51" fill="#D9D9D9"/>
</mask>
<g mask="url(#mask4_4680_7419)">
<path d="M482.242 216.298V196.96L490.53 188.673H493.363V184.423H496.905V188.673H516.455L524.742 196.96V216.298H482.242ZM511.992 212.756H521.2V198.43L516.597 193.826L511.992 198.43V212.756ZM485.784 212.756H508.45V200.715H485.784V212.756Z" fill="#4446D8"/>
</g>
<path d="M475.938 260V250.2H479.9C483.148 250.2 485.122 251.838 485.122 255.044C485.122 258.334 483.022 260 479.592 260H475.938ZM477.394 258.656H479.606C482.392 258.656 483.624 257.396 483.624 255.072C483.624 252.748 482.49 251.558 479.9 251.558H477.394V258.656ZM492.45 255.814C492.338 254.638 491.512 253.938 490.056 253.938C488.628 253.938 487.788 254.638 487.69 255.814H492.45ZM486.178 256.444C486.178 254.106 487.732 252.706 490.098 252.706C492.478 252.706 493.99 254.092 493.976 256.43L493.962 256.878H487.634C487.732 258.124 488.516 258.922 490.056 258.922C491.4 258.922 492.17 258.362 492.422 257.396H493.878C493.458 259.216 492.03 260.168 490.056 260.168C487.634 260.168 486.178 258.768 486.178 256.444ZM495.106 260V250.2H496.45V260H495.106ZM497.663 260V252.972H499.007V260H497.663ZM497.649 251.852V250.2H499.021V251.852H497.649ZM503.567 260L500.151 252.972H501.761L504.211 258.278L506.689 252.972H508.229L504.785 260H503.567ZM514.776 255.814C514.664 254.638 513.838 253.938 512.382 253.938C510.954 253.938 510.114 254.638 510.016 255.814H514.776ZM508.504 256.444C508.504 254.106 510.058 252.706 512.424 252.706C514.804 252.706 516.316 254.092 516.302 256.43L516.288 256.878H509.96C510.058 258.124 510.842 258.922 512.382 258.922C513.726 258.922 514.496 258.362 514.748 257.396H516.204C515.784 259.216 514.356 260.168 512.382 260.168C509.96 260.168 508.504 258.768 508.504 256.444ZM517.487 260V253H518.831V253.868C519.587 252.916 520.917 252.678 521.967 252.916L521.785 254.176C520.441 253.91 518.831 254.372 518.831 255.786V260H517.487ZM525.027 262.52C524.621 262.52 524.215 262.478 523.697 262.268L524.019 261.134C524.999 261.4 525.601 261.344 526.119 260.266L526.357 259.762C526.427 259.58 526.427 259.44 526.343 259.286L522.969 252.958H524.565L527.169 258.11L529.549 252.958H531.061L527.365 260.63C526.749 261.918 526.217 262.52 525.027 262.52Z" fill="white"/>
<rect x="56.5" y="38.5" width="190" height="352" rx="7.5" stroke="white" stroke-opacity="0.3" stroke-dasharray="8 7"/>
<defs>
<linearGradient id="paint0_linear_4680_7419" x1="156.807" y1="176.315" x2="315.5" y2="176.315" gradientUnits="userSpaceOnUse">
<stop offset="0.0192314" stop-color="#5757F3"/>
<stop offset="0.0565711" stop-color="#FFAA00"/>
<stop offset="0.0927439" stop-color="#5757F3"/>
</linearGradient>
<linearGradient id="paint1_linear_4680_7419" x1="400.375" y1="199.174" x2="455.5" y2="199.174" gradientUnits="userSpaceOnUse">
<stop offset="0.0192314" stop-color="#5757F3"/>
<stop offset="0.0565711" stop-color="#FFAA00"/>
<stop offset="0.0927439" stop-color="#5757F3"/>
</linearGradient>
<linearGradient id="flow_light_grad" x1="0" y1="0" x2="0" y2="1">
<stop offset="0%" stop-color="#FFAA00" stop-opacity="0"/>
<stop offset="50%" stop-color="#FFAA00" stop-opacity="1"/>
<stop offset="100%" stop-color="#FFAA00" stop-opacity="0"/>
</linearGradient>
</defs>
</svg>
